<svg width="25" height="24" viewBox="0 0 25 24" fill="none" xmlns="http://www.w3.org/2000/svg">
<path d="M6.55105 3C5.04117 3 3.80105 4.24011 3.80105 5.75V17.1445C3.66896 18.9715 4.54558 20.9241 6.44754 20.9941C6.48187 20.9985 6.51646 21.0004 6.55105 21H19.0511C19.8819 21 20.6029 20.5301 21.0716 19.8857C21.5402 19.2414 21.8011 18.4069 21.8011 17.5C21.8011 16.5931 21.5402 15.7586 21.0716 15.1143C20.6029 14.4699 19.8819 14 19.0511 14H18.8011V5.75C18.8011 4.24011 17.5609 3 16.0511 3H6.55105ZM6.55105 4.5H16.0511C16.7502 4.5 17.3011 5.05089 17.3011 5.75V14H6.55105C6.51808 13.9998 6.48514 14.0017 6.45242 14.0059C6.01514 14.0212 5.63102 14.1339 5.30105 14.3242V5.75C5.30105 5.05089 5.85194 4.5 6.55105 4.5ZM8.05105 6C7.95167 5.99859 7.853 6.01696 7.76077 6.05402C7.66855 6.09108 7.58461 6.1461 7.51383 6.21588C7.44305 6.28566 7.38685 6.36882 7.34849 6.46051C7.31013 6.5522 7.29037 6.65061 7.29037 6.75C7.29037 6.84939 7.31013 6.9478 7.34849 7.03949C7.38685 7.13118 7.44305 7.21434 7.51383 7.28412C7.58461 7.3539 7.66855 7.40892 7.76077 7.44598C7.853 7.48304 7.95167 7.50141 8.05105 7.5H9.05105C9.15044 7.50141 9.24911 7.48304 9.34134 7.44598C9.43356 7.40892 9.5175 7.3539 9.58828 7.28412C9.65906 7.21434 9.71526 7.13118 9.75362 7.03949C9.79198 6.9478 9.81174 6.84939 9.81174 6.75C9.81174 6.65061 9.79198 6.5522 9.75362 6.46051C9.71526 6.36882 9.65906 6.28566 9.58828 6.21588C9.5175 6.1461 9.43356 6.09108 9.34134 6.05402C9.24911 6.01696 9.15044 5.99859 9.05105 6H8.05105ZM11.5511 6C11.4517 5.99859 11.353 6.01696 11.2608 6.05402C11.1685 6.09108 11.0846 6.1461 11.0138 6.21588C10.9431 6.28566 10.8868 6.36882 10.8485 6.46051C10.8101 6.5522 10.7904 6.65061 10.7904 6.75C10.7904 6.84939 10.8101 6.9478 10.8485 7.03949C10.8868 7.13118 10.9431 7.21434 11.0138 7.28412C11.0846 7.3539 11.1685 7.40892 11.2608 7.44598C11.353 7.48304 11.4517 7.50141 11.5511 7.5H14.5511C14.6504 7.50141 14.7491 7.48304 14.8413 7.44598C14.9336 7.40892 15.0175 7.3539 15.0883 7.28412C15.1591 7.21434 15.2153 7.13118 15.2536 7.03949C15.292 6.9478 15.3117 6.84939 15.3117 6.75C15.3117 6.65061 15.292 6.5522 15.2536 6.46051C15.2153 6.36882 15.1591 6.28566 15.0883 6.21588C15.0175 6.1461 14.9336 6.09108 14.8413 6.05402C14.7491 6.01696 14.6504 5.99859 14.5511 6H11.5511ZM8.05105 8.5C7.95167 8.49859 7.853 8.51696 7.76077 8.55402C7.66855 8.59108 7.58461 8.6461 7.51383 8.71588C7.44305 8.78566 7.38685 8.86882 7.34849 8.96051C7.31013 9.0522 7.29037 9.15061 7.29037 9.25C7.29037 9.34939 7.31013 9.4478 7.34849 9.53949C7.38685 9.63118 7.44305 9.71434 7.51383 9.78412C7.58461 9.8539 7.66855 9.90892 7.76077 9.94598C7.853 9.98304 7.95167 10.0014 8.05105 10H11.0511C11.1504 10.0014 11.2491 9.98304 11.3413 9.94598C11.4336 9.90892 11.5175 9.8539 11.5883 9.78412C11.6591 9.71434 11.7153 9.63118 11.7536 9.53949C11.792 9.4478 11.8117 9.34939 11.8117 9.25C11.8117 9.15061 11.792 9.0522 11.7536 8.96051C11.7153 8.86882 11.6591 8.78566 11.5883 8.71588C11.5175 8.6461 11.4336 8.59108 11.3413 8.55402C11.2491 8.51696 11.1504 8.49859 11.0511 8.5H8.05105ZM13.5511 8.5C13.4517 8.49859 13.353 8.51696 13.2608 8.55402C13.1685 8.59108 13.0846 8.6461 13.0138 8.71588C12.9431 8.78566 12.8868 8.86882 12.8485 8.96051C12.8101 9.0522 12.7904 9.15061 12.7904 9.25C12.7904 9.34939 12.8101 9.4478 12.8485 9.53949C12.8868 9.63118 12.9431 9.71434 13.0138 9.78412C13.0846 9.8539 13.1685 9.90892 13.2608 9.94598C13.353 9.98304 13.4517 10.0014 13.5511 10H14.5511C14.6504 10.0014 14.7491 9.98304 14.8413 9.94598C14.9336 9.90892 15.0175 9.8539 15.0883 9.78412C15.1591 9.71434 15.2153 9.63118 15.2536 9.53949C15.292 9.4478 15.3117 9.34939 15.3117 9.25C15.3117 9.15061 15.292 9.0522 15.2536 8.96051C15.2153 8.86882 15.1591 8.78566 15.0883 8.71588C15.0175 8.6461 14.9336 8.59108 14.8413 8.55402C14.7491 8.51696 14.6504 8.49859 14.5511 8.5H13.5511ZM8.05105 11C7.95167 10.9986 7.853 11.017 7.76077 11.054C7.66855 11.0911 7.58461 11.1461 7.51383 11.2159C7.44305 11.2857 7.38685 11.3688 7.34849 11.4605C7.31013 11.5522 7.29037 11.6506 7.29037 11.75C7.29037 11.8494 7.31013 11.9478 7.34849 12.0395C7.38685 12.1312 7.44305 12.2143 7.51383 12.2841C7.58461 12.3539 7.66855 12.4089 7.76077 12.446C7.853 12.483 7.95167 12.5014 8.05105 12.5H11.0511C11.1504 12.5014 11.2491 12.483 11.3413 12.446C11.4336 12.4089 11.5175 12.3539 11.5883 12.2841C11.6591 12.2143 11.7153 12.1312 11.7536 12.0395C11.792 11.9478 11.8117 11.8494 11.8117 11.75C11.8117 11.6506 11.792 11.5522 11.7536 11.4605C11.7153 11.3688 11.6591 11.2857 11.5883 11.2159C11.5175 11.1461 11.4336 11.0911 11.3413 11.054C11.2491 11.017 11.1504 10.9986 11.0511 11H8.05105ZM6.55105 15.5C8.18647 15.5 8.18647 19.5 6.55105 19.5C4.91564 19.5 4.91564 15.5 6.55105 15.5ZM8.87137 15.5H19.0511C19.3247 15.5 19.6035 15.6452 19.8587 15.9961C20.1139 16.347 20.3011 16.8879 20.3011 17.5C20.3011 18.1121 20.1139 18.653 19.8587 19.0039C19.6035 19.3548 19.3247 19.5 19.0511 19.5H8.87137C9.47225 18.3184 9.47225 16.6816 8.87137 15.5Z" fill="#646565"/>
</svg>
