<svg width="128" height="128" viewBox="0 0 128 128" fill="none" xmlns="http://www.w3.org/2000/svg">
<path d="M81.754 41.534C81.4644 39.976 80.8662 38.4917 79.9945 37.1684C79.1228 35.8451 77.9952 34.7094 76.6781 33.8283C75.361 32.9472 73.881 32.3384 72.3251 32.0377C70.7693 31.737 69.169 31.7505 67.6185 32.0774C66.0679 32.4043 64.5984 33.0381 63.2964 33.9413C61.9943 34.8445 60.8861 35.9991 60.0369 37.3369C59.1876 38.6748 58.6145 40.169 58.3513 41.7316C58.088 43.2942 58.14 44.8937 58.504 46.436L59.504 51.262C59.8205 52.8007 59.5341 54.4023 58.704 55.736L55.766 60.464C55.223 61.3383 54.9091 62.3353 54.8532 63.363C54.7972 64.3907 55.0011 65.4159 55.446 66.344L56.594 68.744C57.0256 69.6439 57.2307 70.6357 57.1913 71.6331C57.1519 72.6304 56.8693 73.6029 56.368 74.466C55.875 75.3162 55.5937 76.2725 55.5479 77.2542C55.5021 78.2359 55.6933 79.2142 56.1051 80.1066C56.517 80.9989 57.1374 81.7791 57.9142 82.3812C58.691 82.9833 59.6012 83.3897 60.568 83.566L74 86V55.302C76.7405 54.335 79.0369 52.4065 80.463 49.8744C81.889 47.3423 82.3478 44.3787 81.754 41.534Z" fill="#93999A"/>
<path d="M60.576 83.5601L74 86.0001V55.3021C76.4576 54.4338 78.5656 52.7889 80.0054 50.6162C81.4452 48.4435 82.1384 45.8611 81.9802 43.2594C81.8221 40.6578 80.8212 38.1783 79.1288 36.196C77.4364 34.2137 75.1447 32.8363 72.6 32.2721C72.4 32.2281 72.2 32.2161 71.988 32.1841C69.9644 32.5296 68.0631 33.3879 66.4655 34.677C64.8679 35.9662 63.6273 37.6432 62.862 39.5481C62.0858 41.6374 61.9391 43.9083 62.44 46.0801L63.516 51.2801C63.8322 52.8163 63.5458 54.4152 62.716 55.7461L59.778 60.4741C59.235 61.3484 58.9211 62.3454 58.8652 63.3731C58.8092 64.4008 59.0131 65.426 59.458 66.3541L60.606 68.7541L60.63 68.8041C60.8633 69.3838 60.9494 70.0123 60.8806 70.6335C60.8117 71.2546 60.5902 71.849 60.2356 72.3636C59.881 72.8782 59.4045 73.297 58.8487 73.5826C58.2928 73.8681 57.6748 74.0116 57.05 74.0001H56.57C56.5113 74.1567 56.4445 74.3103 56.37 74.4601C55.8769 75.3106 55.5958 76.2674 55.5504 77.2495C55.5049 78.2316 55.6966 79.2103 56.1091 80.1027C56.5215 80.9951 57.1428 81.7752 57.9203 82.377C58.6977 82.9787 59.6087 83.3845 60.576 83.5601Z" fill="#656B76"/>
<path d="M93.242 31.2762C90.7885 29.6823 87.9387 28.8052 85.0136 28.7437C82.0885 28.6822 79.2043 29.4388 76.686 30.9282C75.3648 31.6072 74.2402 32.6141 73.4197 33.8524C72.5992 35.0907 72.1103 36.5189 72 38.0002C72 43.5222 79.164 48.0002 88 48.0002V96.0002L105.678 90.9502C106.967 90.5819 108.162 89.9428 109.184 89.0756C110.206 88.2084 111.031 87.1331 111.604 85.9215C112.178 84.71 112.486 83.39 112.508 82.0499C112.53 80.7097 112.267 79.3802 111.734 78.1502C111.191 76.8953 110.927 75.5372 110.962 74.1702C110.996 72.8032 111.328 71.4601 111.934 70.2342L112.334 69.4182C113.345 67.3679 113.576 65.0199 112.983 62.8119C112.391 60.604 111.016 58.6869 109.114 57.4182L108.2 56.8002C106.908 55.9405 105.849 54.775 105.116 53.4072C104.383 52.0395 104 50.5119 104 48.9602V46.9602C104 44.2177 103.303 41.5202 101.973 39.1214C100.644 36.7227 98.7258 34.7016 96.4 33.2482L93.242 31.2762Z" fill="#B8BEBF"/>
<path d="M111.686 78.0001C111.006 78.006 110.335 77.8418 109.735 77.5227C109.135 77.2036 108.623 76.7395 108.248 76.1726C107.872 75.6058 107.644 74.9541 107.585 74.2768C107.525 73.5994 107.635 72.9179 107.906 72.2941L107.932 72.2381L108.332 71.4221C109.343 69.3718 109.574 67.0238 108.981 64.8158C108.389 62.6079 107.014 60.6908 105.112 59.4221L104.2 58.8001C102.908 57.9404 101.849 56.7749 101.116 55.4071C100.383 54.0394 100 52.5118 100 50.9601V48.9601C100 46.2176 99.3024 43.5202 97.9729 41.1215C96.6434 38.7228 94.7257 36.7016 92.4 35.2481L89.244 33.2741C87.2762 32.0261 85.0608 31.2203 82.751 30.9122C80.4412 30.6042 78.0921 30.8014 75.866 31.4901C74.7487 32.1878 73.8147 33.1429 73.1421 34.2754C72.4695 35.408 72.0779 36.6852 72 38.0001C72 43.5221 79.164 48.0001 88 48.0001V96.0001L105.678 90.9481C106.967 90.5801 108.162 89.9412 109.185 89.074C110.207 88.2069 111.032 87.1316 111.605 85.9199C112.179 84.7082 112.487 83.3881 112.509 82.0479C112.531 80.7076 112.267 79.3781 111.734 78.1481C111.712 78.1001 111.706 78.0461 111.686 78.0001Z" fill="#93999A"/>
<path d="M64.9521 83.2559L73.4361 91.7399L49.3961 115.78L40.9141 107.294L64.9521 83.2559Z" fill="#0096C7"/>
<path d="M98 122H68V111.138C67.9996 107.798 66.9502 104.542 65 101.83C63.0495 99.1175 62.0001 95.861 62 92.52C62 88.1386 63.7405 83.9367 66.8386 80.8386C69.9367 77.7405 74.1386 76 78.52 76H92C96.2435 76 100.313 77.6857 103.314 80.6863C106.314 83.6869 108 87.7565 108 92V112C108 114.652 106.946 117.196 105.071 119.071C103.196 120.946 100.652 122 98 122Z" fill="#48CAE4"/>
<path d="M96 106C90.1652 106 84.5695 103.682 80.4436 99.5564C76.3178 95.4306 74 89.8349 74 84.0001V76.6421C70.5455 77.6241 67.5051 79.7054 65.3397 82.5706C63.1743 85.4357 62.0019 88.9287 62 92.5201C62.0001 95.861 63.0495 99.1176 65 101.83C66.9502 104.542 67.9996 107.798 68 111.138V122H98C100.652 122 103.196 120.947 105.071 119.071C106.946 117.196 108 114.652 108 112V106H96Z" fill="#00B4D8"/>
<path d="M96 92V108H92V96C92 94.9391 92.4214 93.9217 93.1716 93.1716C93.9217 92.4214 94.9391 92 96 92Z" fill="#00B4D8"/>
<path d="M40 114H70C70 116.122 69.1571 118.157 67.6569 119.657C66.1566 121.157 64.1217 122 62 122H40V114Z" fill="#B8BEBF"/>
<path d="M41.92 82H14C12.8819 82 11.7763 82.2343 10.7544 82.6879C9.73246 83.1415 8.81697 83.8042 8.06695 84.6334C7.31694 85.4626 6.74905 86.4397 6.39992 87.5019C6.05079 88.564 5.92817 89.6876 6.03998 90.8L8.43998 114.8C8.6383 116.773 9.56253 118.603 11.0334 119.933C12.5042 121.263 14.4167 122 16.4 122H48.74C49.2992 122 49.8522 121.883 50.3634 121.657C50.8746 121.43 51.3326 121.099 51.7078 120.684C52.083 120.269 52.3672 119.781 52.5419 119.25C52.7165 118.718 52.7779 118.156 52.722 117.6L49.882 89.2C49.6836 87.2263 48.7591 85.3968 47.2879 84.0663C45.8166 82.7359 43.9036 81.9995 41.92 82Z" fill="#E9F1F2"/>
<path d="M52.72 117.6C52.7759 118.156 52.7146 118.718 52.5401 119.249C52.3655 119.78 52.0816 120.269 51.7066 120.683C51.3315 121.098 50.8738 121.429 50.3628 121.656C49.8519 121.883 49.2991 122 48.74 122H16.4C14.4168 122 12.5042 121.263 11.0334 119.933C9.56259 118.603 8.63836 116.773 8.44004 114.8L6.04004 90.8C5.92633 89.6872 6.04761 88.5629 6.39603 87.4999C6.74445 86.437 7.31224 85.459 8.06263 84.6295C8.81303 83.7999 9.72929 83.1371 10.7521 82.6842C11.7749 82.2312 12.8814 81.9981 14 82H14.5C16.0533 89.8835 20.2936 96.9839 26.4976 102.09C32.7016 107.196 40.485 109.992 48.52 110H51.96L52.72 117.6Z" fill="#D0D8DA"/>
<path d="M28 106C30.2091 106 32 104.209 32 102C32 99.7909 30.2091 98 28 98C25.7909 98 24 99.7909 24 102C24 104.209 25.7909 106 28 106Z" fill="#F9DBAF"/>
<path d="M28 106C28.9646 105.996 29.8946 105.64 30.616 105C28.7142 103.854 26.9272 102.528 25.28 101.04C24.988 100.776 24.72 100.49 24.438 100.216C24.1537 100.768 24.0036 101.379 24 102C24 103.061 24.4214 104.078 25.1716 104.828C25.9217 105.578 26.9391 106 28 106Z" fill="#EDB88E"/>
<path d="M96 94V110L74 112V122H98C100.652 122 103.196 120.946 105.071 119.071C106.946 117.196 108 114.652 108 112V94H96Z" fill="#48CAE4"/>
<path d="M68 112H74V122H62V118C62 116.409 62.6321 114.883 63.7574 113.757C64.8826 112.632 66.4087 112 68 112Z" fill="#F9DBAF"/>
<path d="M74 64H90V74C90 76.6522 88.9464 79.1957 87.0711 81.0711C85.1957 82.9464 82.6522 84 80 84C78.4087 84 76.8826 83.3679 75.7574 82.2426C74.6321 81.1174 74 79.5913 74 78V64Z" fill="#EDB88E"/>
<path d="M78.2 77.99C80.5833 77.956 82.9184 77.3134 84.9836 76.1233C87.0488 74.9332 88.7756 73.235 90 71.19V64H74V78C74 79.5913 74.6321 81.1174 75.7574 82.2426C76.8826 83.3679 78.4087 84 80 84C82.2212 83.9922 84.3753 83.2378 86.116 81.858C83.1289 81.4571 80.3519 80.1001 78.2 77.99Z" fill="#DA9367"/>
<path d="M80 74C76.287 74 72.726 72.525 70.1005 69.8995C67.475 67.274 66 63.713 66 60V55.018C66.0002 52.1817 66.6 49.3774 67.7602 46.7892C68.9204 44.201 70.6147 41.8873 72.732 40C74.7045 42.1708 77.1221 43.8904 79.8198 45.0415C82.5176 46.1926 85.432 46.7481 88.364 46.67C89.1384 46.6488 89.9084 46.7927 90.6228 47.092C91.3373 47.3913 91.9799 47.8392 92.508 48.406C93.4666 49.4305 93.9999 50.781 94 52.184V60C94 63.713 92.525 67.274 89.8995 69.8995C87.274 72.525 83.713 74 80 74Z" fill="#F9DBAF"/>
<path d="M92.508 48.4C91.9799 47.8332 91.3373 47.3853 90.6228 47.086C89.9084 46.7867 89.1384 46.6428 88.364 46.664C85.4324 46.7428 82.5183 46.1883 79.8206 45.0383C77.1229 43.8882 74.705 42.1697 72.732 40C70.6147 41.8873 68.9204 44.201 67.7602 46.7892C66.6 49.3774 66.0002 52.1817 66 55.018V60C66.006 63.3174 67.1899 66.5248 69.3405 69.0506C71.4911 71.5764 74.4688 73.2565 77.7428 73.7914C81.0168 74.3262 84.3743 73.6811 87.2169 71.971C90.0595 70.2609 92.2026 67.597 93.264 64.454C91.2513 66.2498 88.7616 67.4244 86.0957 67.8357C83.4299 68.2471 80.702 67.8776 78.2415 66.772C75.7811 65.6664 73.6936 63.8719 72.231 61.6054C70.7685 59.3389 69.9936 56.6974 70 54V49.018C70.0008 48.293 70.0408 47.5686 70.12 46.848C70.8971 45.8169 71.7718 44.8631 72.732 44C74.7045 46.1708 77.1221 47.8904 79.8198 49.0415C82.5176 50.1926 85.432 50.7481 88.364 50.67C89.1757 50.65 89.9816 50.8126 90.722 51.146C89.8521 51.8497 89.1546 52.7431 88.6828 53.7577C88.2111 54.7723 87.9775 55.8813 88 57C87.9043 58.6181 88.4042 60.2152 89.4053 61.49C90.4063 62.7649 91.8394 63.6292 93.434 63.92C93.8072 62.6467 93.9978 61.3269 94 60V52.184C94.0014 50.7789 93.468 49.426 92.508 48.4ZM74 112V122H62V118H66C67.5913 118 69.1174 117.368 70.2426 116.243C71.3679 115.117 72 113.591 72 112H74Z" fill="#EDB88E"/>
<path d="M80.8761 67.974C80.3525 68.0594 79.8165 67.9334 79.3859 67.6236C78.9553 67.3137 78.6655 66.8456 78.5801 66.322C78.4947 65.7985 78.6207 65.2625 78.9305 64.8319C79.2403 64.4013 79.7085 64.1114 80.2321 64.026C83.6706 63.4719 86.8463 61.8459 89.3061 59.38L92.0321 56.654C92.2165 56.463 92.4372 56.3106 92.6812 56.2058C92.9253 56.101 93.1877 56.0458 93.4533 56.0435C93.7188 56.0412 93.9822 56.0918 94.228 56.1924C94.4738 56.293 94.6971 56.4415 94.8848 56.6292C95.0726 56.817 95.2211 57.0403 95.3217 57.2861C95.4223 57.5319 95.4729 57.7953 95.4705 58.0608C95.4682 58.3264 95.4131 58.5888 95.3083 58.8328C95.2034 59.0769 95.0511 59.2975 94.8601 59.482L92.1321 62.2C89.0831 65.2639 85.1432 67.2849 80.8761 67.974Z" fill="#E53935"/>
<path d="M72 56C73.1046 56 74 55.1046 74 54C74 52.8954 73.1046 52 72 52C70.8954 52 70 52.8954 70 54C70 55.1046 70.8954 56 72 56Z" fill="#0096C7"/>
<path d="M82 56C83.1046 56 84 55.1046 84 54C84 52.8954 83.1046 52 82 52C80.8954 52 80 52.8954 80 54C80 55.1046 80.8954 56 82 56Z" fill="#0096C7"/>
<path d="M83.758 29.4359L82.616 28.9459C80.4693 28.0253 78.096 27.7692 75.8023 28.2105C73.5086 28.6518 71.3998 29.7704 69.748 31.4219L69.13 32.0419C70.2884 31.9559 71.4532 32.0334 72.59 32.2719C73.2431 32.415 73.8823 32.6158 74.5 32.8719C75.507 32.3586 76.6137 32.0709 77.7431 32.0287C78.8725 31.9866 79.9976 32.191 81.04 32.6279L82.182 33.1179C85.0963 34.3641 87.5803 36.4389 89.3257 39.0846C91.0711 41.7303 92.001 44.8303 92 47.9999C92 48.5303 92.2107 49.039 92.5858 49.4141C92.9609 49.7892 93.4696 49.9999 94 49.9999C94.5304 49.9999 95.0392 49.7892 95.4142 49.4141C95.7893 49.039 96 48.5303 96 47.9999C96.0034 44.0463 94.8449 40.1789 92.6684 36.8784C90.4918 33.5779 87.3934 30.9898 83.758 29.4359Z" fill="#E53935"/>
<path d="M96 60C99.3137 60 102 56.866 102 53C102 49.134 99.3137 46 96 46C92.6863 46 90 49.134 90 53C90 56.866 92.6863 60 96 60Z" fill="#EF5350"/>
<path d="M101.5 55.7802C101.126 56.9622 100.397 58.0007 99.4138 58.7554C98.4302 59.5101 97.2386 59.9446 96 60.0002C94.28 59.8577 92.6855 59.0429 91.5623 57.7325C90.4391 56.4221 89.8778 54.7218 90 53.0002C89.9295 51.5405 90.3284 50.0967 91.1382 48.8801C91.948 47.6636 93.1262 46.7385 94.5 46.2402C94.1675 47.1223 93.998 48.0575 94 49.0002C93.8778 50.7218 94.4391 52.4221 95.5623 53.7325C96.6855 55.0429 98.28 55.8577 100 56.0002C100.508 55.9987 101.013 55.9246 101.5 55.7802Z" fill="#E53935"/>
<path d="M42.0002 20H14.0002C11.8785 20 9.84368 20.8429 8.34339 22.3431C6.8431 23.8434 6.00024 25.8783 6.00024 28V48C6.00024 50.1217 6.8431 52.1566 8.34339 53.6569C9.84368 55.1571 11.8785 56 14.0002 56H26.0002L40.0002 70V56H42.0002C44.122 56 46.1568 55.1571 47.6571 53.6569C49.1574 52.1566 50.0002 50.1217 50.0002 48V28C50.0002 25.8783 49.1574 23.8434 47.6571 22.3431C46.1568 20.8429 44.122 20 42.0002 20Z" fill="#FF7373"/>
<path d="M50.0002 48C50.0002 50.1217 49.1574 52.1566 47.6571 53.6569C46.1568 55.1571 44.122 56 42.0002 56H40.0002V70L26.0002 56H14.0002C11.8785 56 9.84368 55.1571 8.34339 53.6569C6.8431 52.1566 6.00024 50.1217 6.00024 48V28C6.00024 25.8783 6.8431 23.8434 8.34339 22.3431C9.84368 20.8429 11.8785 20 14.0002 20H24.0002V26C23.9987 28.8895 24.5666 31.751 25.6717 34.4209C26.7767 37.0908 28.3972 39.5167 30.4404 41.5599C32.4836 43.6031 34.9095 45.2235 37.5793 46.3286C40.2492 47.4336 43.1107 48.0016 46.0002 48H50.0002Z" fill="#EF5350"/>
<path d="M18 36C20.2091 36 22 34.2091 22 32C22 29.7909 20.2091 28 18 28C15.7909 28 14 29.7909 14 32C14 34.2091 15.7909 36 18 36Z" fill="#F9DBAF"/>
<path d="M18 36C19.0609 36 20.0783 36.4214 20.8284 37.1716C21.5786 37.9217 22 38.9391 22 40V44H14V40C14 38.9391 14.4214 37.9217 15.1716 37.1716C15.9217 36.4214 16.9391 36 18 36Z" fill="#F9DBAF"/>
<path d="M20.0001 33.9999C19.3314 34.0026 18.6727 33.837 18.0849 33.5183C17.497 33.1997 16.9988 32.7381 16.6362 32.1763C16.2736 31.6144 16.0582 30.9703 16.01 30.3034C15.9617 29.6364 16.0821 28.9681 16.3601 28.3599C15.7669 28.6236 15.2468 29.0277 14.8448 29.5373C14.4427 30.0469 14.1706 30.6467 14.0522 31.2849C13.9337 31.9231 13.9723 32.5806 14.1647 33.2006C14.3571 33.8205 14.6976 34.3844 15.1566 34.8434C15.6156 35.3024 16.1794 35.6428 16.7994 35.8352C17.4193 36.0276 18.0768 36.0662 18.715 35.9478C19.3533 35.8293 19.9531 35.5573 20.4627 35.1552C20.9723 34.7531 21.3764 34.233 21.6401 33.6399C21.1252 33.8751 20.5661 33.9979 20.0001 33.9999ZM20.0001 39.9999C19.0328 39.9982 18.0991 39.6448 17.3731 39.0056C16.6471 38.3665 16.1783 37.4851 16.0541 36.5259C15.4334 36.8696 14.9157 37.3728 14.5546 37.9835C14.1935 38.5943 14.0021 39.2904 14.0001 39.9999V43.9999H22.0001V39.9999C21.9943 39.8235 21.9762 39.6477 21.9461 39.4739C21.3539 39.8148 20.6834 39.9961 20.0001 39.9999Z" fill="#EDB88E"/>
<path d="M42 30H36C35.4696 30 34.9609 29.7893 34.5858 29.4142C34.2107 29.0391 34 28.5304 34 28C34 27.4696 34.2107 26.9609 34.5858 26.5858C34.9609 26.2107 35.4696 26 36 26H42C42.5304 26 43.0391 26.2107 43.4142 26.5858C43.7893 26.9609 44 27.4696 44 28C44 28.5304 43.7893 29.0391 43.4142 29.4142C43.0391 29.7893 42.5304 30 42 30ZM42 38H30C29.4696 38 28.9609 37.7893 28.5858 37.4142C28.2107 37.0391 28 36.5304 28 36C28 35.4696 28.2107 34.9609 28.5858 34.5858C28.9609 34.2107 29.4696 34 30 34H42C42.5304 34 43.0391 34.2107 43.4142 34.5858C43.7893 34.9609 44 35.4696 44 36C44 36.5304 43.7893 37.0391 43.4142 37.4142C43.0391 37.7893 42.5304 38 42 38ZM42 46H30C29.4696 46 28.9609 45.7893 28.5858 45.4142C28.2107 45.0391 28 44.5304 28 44C28 43.4696 28.2107 42.9609 28.5858 42.5858C28.9609 42.2107 29.4696 42 30 42H42C42.5304 42 43.0391 42.2107 43.4142 42.5858C43.7893 42.9609 44 43.4696 44 44C44 44.5304 43.7893 45.0391 43.4142 45.4142C43.0391 45.7893 42.5304 46 42 46Z" fill="#48CAE4"/>
<path d="M36.82 46H30C29.4696 46 28.9609 45.7893 28.5858 45.4142C28.2107 45.0391 28 44.5304 28 44C28 43.4696 28.2107 42.9609 28.5858 42.5858C28.9609 42.2107 29.4696 42 30 42H30.9C32.6358 43.655 34.6369 45.0071 36.82 46Z" fill="#00B4D8"/>
</svg>
