<svg width="20" height="20" viewBox="0 0 20 20" fill="none" xmlns="http://www.w3.org/2000/svg">
<path d="M4.37467 2.5C3.34788 2.5 2.47693 3.1782 2.18636 4.11051V4.11133C2.14178 4.25453 2.11086 4.40366 2.09521 4.55729V4.55811C2.08743 4.6348 2.08301 4.71296 2.08301 4.79167V5.625V15.2083C2.08301 16.4721 3.11092 17.5 4.37467 17.5H10.1641L10.1047 16.9572C9.79382 16.8018 9.53936 16.5529 9.37061 16.25H4.37467C3.80051 16.25 3.33301 15.7825 3.33301 15.2083V6.25H16.6663V10.1978L16.9618 10.0887C17.2734 9.98204 17.6055 9.97329 17.9163 10.0537V5.625V4.79167C17.9163 4.71243 17.912 4.63448 17.9041 4.55729C17.8885 4.40366 17.8576 4.25453 17.813 4.11133V4.11051C17.7683 3.96708 17.7103 3.83023 17.6396 3.70036C17.3572 3.18109 16.8792 2.78233 16.3058 2.60335H16.305C16.1618 2.55871 16.0126 2.52791 15.859 2.51221H15.8582C15.7813 2.50437 15.7036 2.5 15.6247 2.5H4.37467ZM4.37467 3.75C4.71967 3.75 4.99967 4.03 4.99967 4.375C4.99967 4.72 4.71967 5 4.37467 5C4.02967 5 3.74967 4.72 3.74967 4.375C3.74967 4.07313 3.96382 3.82133 4.24854 3.76302C4.28921 3.75469 4.33155 3.75 4.37467 3.75ZM6.45801 3.75C6.80301 3.75 7.08301 4.03 7.08301 4.375C7.08301 4.72 6.80301 5 6.45801 5C6.11301 5 5.83301 4.72 5.83301 4.375C5.83301 4.03 6.11301 3.75 6.45801 3.75ZM17.4338 10.8358C17.3667 10.8413 17.2987 10.8551 17.2311 10.8781L13.333 12.3112V15C13.333 15.23 13.1463 15.4167 12.9163 15.4167C12.6863 15.4167 12.4997 15.23 12.4997 15V12.4414L10.8704 12.5667C10.37 12.6051 9.98421 13.0221 9.98421 13.5238V15.4167C9.98421 15.9071 10.3817 16.3045 10.8721 16.3045L11.1219 18.6027C11.1573 18.9235 11.4289 19.1667 11.7518 19.1667C12.1018 19.1667 12.3857 18.8827 12.3857 18.5327V16.4209L13.106 16.4762L17.2311 17.8711C17.7715 18.0557 18.333 17.6538 18.333 17.0825V15.3955C18.8085 15.299 19.1663 14.879 19.1663 14.375C19.1663 13.871 18.8085 13.451 18.333 13.3545V11.6667C18.333 11.1668 17.9033 10.7971 17.4338 10.8358Z" fill="#464255"/>
</svg>
