<svg width="176" height="143" viewBox="0 0 176 143" fill="none" xmlns="http://www.w3.org/2000/svg">
<path d="M15.084 113.208V44.6875H160.917V113.208C160.917 116.485 157.636 119.167 153.626 119.167H22.3757C18.3652 119.167 15.084 116.485 15.084 113.208Z" fill="#199BE2"/>
<path d="M160.917 29.7916V44.6875H15.084V29.7916C15.084 26.5146 18.3652 23.8333 22.3757 23.8333H153.626C157.636 23.8333 160.917 26.5146 160.917 29.7916Z" fill="url(#paint0_linear_269_15237)"/>
<path d="M60.6569 38.7292H151.803C152.809 38.7292 153.626 38.0619 153.626 37.2396V31.2813C153.626 30.459 152.809 29.7917 151.803 29.7917H60.6569C59.6507 29.7917 58.834 30.459 58.834 31.2813V37.2396C58.834 38.0619 59.6507 38.7292 60.6569 38.7292Z" fill="url(#paint1_linear_269_15237)"/>
<path d="M27.8438 38.7292C30.8641 38.7292 33.3125 36.7285 33.3125 34.2604C33.3125 31.7924 30.8641 29.7917 27.8438 29.7917C24.8234 29.7917 22.375 31.7924 22.375 34.2604C22.375 36.7285 24.8234 38.7292 27.8438 38.7292Z" fill="url(#paint2_linear_269_15237)"/>
<path d="M46.0723 38.7292C49.0926 38.7292 51.541 36.7285 51.541 34.2604C51.541 31.7924 49.0926 29.7917 46.0723 29.7917C43.052 29.7917 40.6035 31.7924 40.6035 34.2604C40.6035 36.7285 43.052 38.7292 46.0723 38.7292Z" fill="url(#paint3_linear_269_15237)"/>
<path opacity="0.05" d="M117.166 73.782V60.2864C117.166 56.6131 113.509 53.625 109.014 53.625C105.908 53.625 103.111 55.0371 101.722 57.3043L99.8665 60.34L79.078 68.8336C77.8421 69.3401 77.0618 70.3709 77.0618 71.5C77.0618 69.8555 75.4285 68.5208 73.416 68.5208H62.4785C56.4483 68.5208 51.541 72.5308 51.541 77.4583V83.4167C51.541 88.3442 56.4483 92.3542 62.4785 92.3542V101.292C62.4785 104.578 65.7488 107.25 69.7702 107.25C73.7915 107.25 77.0618 104.578 77.0618 101.292V89.375C77.0618 90.5041 77.8421 91.5349 79.078 92.0414L99.8665 100.535L101.726 103.574C103.115 105.844 105.911 107.253 109.018 107.253C113.509 107.25 117.166 104.262 117.166 100.589V87.087C119.448 85.4127 120.805 82.9966 120.812 80.4375C120.812 77.8784 119.452 75.4593 117.166 73.782Z" fill="black"/>
<path opacity="0.07" d="M62.4798 70.0104H75.2402V101.292C75.2402 103.755 72.7866 105.76 69.7715 105.76C66.7564 105.76 64.3027 103.755 64.3027 101.292V90.8646H62.4798C57.4559 90.8646 53.3652 87.5219 53.3652 83.4166V77.4583C53.3652 73.353 57.4559 70.0104 62.4798 70.0104ZM115.344 74.4851V60.2864C115.344 57.4353 112.504 55.1146 109.015 55.1146C106.602 55.1146 104.432 56.2109 103.353 57.9716L101.228 61.4513L78.8861 70.5794V90.2955L101.224 99.4207L103.35 102.9C104.429 104.664 106.602 105.757 109.012 105.757C112.501 105.757 115.341 103.437 115.341 100.586V86.3809C117.608 84.9896 118.983 82.7851 118.987 80.4315C118.99 78.0869 117.616 75.8794 115.344 74.4851Z" fill="black"/>
<path d="M104.982 58.639L102.583 62.5625L80.7083 71.5V89.375L102.583 98.3125L104.982 102.236C105.748 103.481 107.308 104.271 109.015 104.271C111.505 104.271 113.521 102.623 113.521 100.589V85.5885C115.774 84.5249 117.163 82.5646 117.167 80.4375C117.163 78.3104 115.774 76.3471 113.521 75.2836V60.2894C113.521 58.2517 111.505 56.6042 109.015 56.6042C107.308 56.6042 105.748 57.3937 104.982 58.639ZM62.4792 71.5C58.4688 71.5 55.1875 74.1813 55.1875 77.4584V83.4167C55.1875 86.6938 58.4688 89.375 62.4792 89.375H66.125V101.292C66.125 102.936 67.7583 104.271 69.7708 104.271C71.7833 104.271 73.4167 102.936 73.4167 101.292V83.4167V71.5H62.4792Z" fill="white"/>
<defs>
<linearGradient id="paint0_linear_269_15237" x1="17.3225" y1="23.0617" x2="154.331" y2="57.1536" gradientUnits="userSpaceOnUse">
<stop stop-color="#0077D2"/>
<stop offset="1" stop-color="#0B59A2"/>
</linearGradient>
<linearGradient id="paint1_linear_269_15237" x1="58.834" y1="34.2604" x2="153.626" y2="34.2604" gradientUnits="userSpaceOnUse">
<stop stop-color="#7DD8F3"/>
<stop offset="1" stop-color="#45B0D0"/>
</linearGradient>
<linearGradient id="paint2_linear_269_15237" x1="25.113" y1="31.031" x2="28.6069" y2="37.216" gradientUnits="userSpaceOnUse">
<stop stop-color="#75DAFF"/>
<stop offset="1" stop-color="#49BEF1"/>
</linearGradient>
<linearGradient id="paint3_linear_269_15237" x1="43.3415" y1="31.031" x2="46.8354" y2="37.216" gradientUnits="userSpaceOnUse">
<stop stop-color="#75DAFF"/>
<stop offset="1" stop-color="#49BEF1"/>
</linearGradient>
</defs>
</svg>
