<svg width="32" height="32" viewBox="0 0 32 32" fill="none" xmlns="http://www.w3.org/2000/svg">
<path d="M16 3.36865C14.9637 3.36865 13.9274 3.87399 13.3672 4.88558L3.04684 23.5301C1.95843 25.4967 3.43202 28.0002 5.67965 28.0002H26.3216C28.5692 28.0002 30.0428 25.4967 28.9544 23.5301L18.6328 4.88558C18.0726 3.87399 17.0363 3.36865 16 3.36865ZM16 5.29964C16.339 5.29964 16.6776 5.48392 16.8828 5.85433L27.2044 24.4989C27.6 25.2136 27.1366 26.0002 26.3216 26.0002H5.67965C4.86461 26.0002 4.40125 25.2136 4.79684 24.4989L15.1172 5.85433C15.3223 5.48392 15.6609 5.29964 16 5.29964ZM15.9843 10.6525C15.7193 10.6566 15.4668 10.7658 15.2823 10.956C15.0977 11.1462 14.9962 11.4018 15 11.6668V18.3335C14.9981 18.466 15.0226 18.5976 15.072 18.7205C15.1214 18.8435 15.1948 18.9554 15.2878 19.0498C15.3808 19.1442 15.4917 19.2191 15.614 19.2703C15.7362 19.3214 15.8674 19.3477 16 19.3477C16.1325 19.3477 16.2637 19.3214 16.386 19.2703C16.5082 19.2191 16.6191 19.1442 16.7121 19.0498C16.8052 18.9554 16.8785 18.8435 16.9279 18.7205C16.9774 18.5976 17.0018 18.466 17 18.3335V11.6668C17.0019 11.533 16.9769 11.4001 16.9265 11.2761C16.8762 11.1521 16.8014 11.0394 16.7067 10.9449C16.612 10.8503 16.4992 10.7756 16.3752 10.7254C16.2511 10.6752 16.1182 10.6504 15.9843 10.6525ZM16 21.3335C15.6463 21.3335 15.3072 21.474 15.0572 21.724C14.8071 21.9741 14.6666 22.3132 14.6666 22.6668C14.6666 23.0205 14.8071 23.3596 15.0572 23.6096C15.3072 23.8597 15.6463 24.0002 16 24.0002C16.3536 24.0002 16.6927 23.8597 16.9428 23.6096C17.1928 23.3596 17.3333 23.0205 17.3333 22.6668C17.3333 22.3132 17.1928 21.9741 16.9428 21.724C16.6927 21.474 16.3536 21.3335 16 21.3335Z" fill="#EF3826"/>
</svg>
