<svg width="32" height="32" viewBox="0 0 32 32" fill="none" xmlns="http://www.w3.org/2000/svg">
<path d="M5 4C4.448 4 4 4.448 4 5V24.3333C4 26.3547 5.64533 28 7.66667 28H16.0299C15.6346 27.3827 15.3146 26.7113 15.0846 26H7.66667C6.74733 26 6 25.2527 6 24.3333V6H26V15.0846C26.7113 15.3146 27.3827 15.6339 28 16.0299V5C28 4.448 27.552 4 27 4H5ZM13.6667 8.66667C13.5342 8.66479 13.4026 8.68927 13.2796 8.73869C13.1567 8.7881 13.0447 8.86146 12.9504 8.95451C12.856 9.04755 12.7811 9.15842 12.7299 9.28068C12.6788 9.40294 12.6524 9.53414 12.6524 9.66667C12.6524 9.79919 12.6788 9.93039 12.7299 10.0527C12.7811 10.1749 12.856 10.2858 12.9504 10.3788C13.0447 10.4719 13.1567 10.5452 13.2796 10.5946C13.4026 10.6441 13.5342 10.6685 13.6667 10.6667H18.3333C18.4658 10.6685 18.5974 10.6441 18.7204 10.5946C18.8433 10.5452 18.9553 10.4719 19.0496 10.3788C19.144 10.2858 19.2189 10.1749 19.2701 10.0527C19.3212 9.93039 19.3476 9.79919 19.3476 9.66667C19.3476 9.53414 19.3212 9.40294 19.2701 9.28068C19.2189 9.15842 19.144 9.04755 19.0496 8.95451C18.9553 8.86146 18.8433 8.7881 18.7204 8.73869C18.5974 8.68927 18.4658 8.66479 18.3333 8.66667H13.6667ZM23.3333 16C19.2833 16 16 19.2833 16 23.3333C16 27.3833 19.2833 30.6667 23.3333 30.6667C27.3833 30.6667 30.6667 27.3833 30.6667 23.3333C30.6667 19.2833 27.3833 16 23.3333 16ZM23.3333 18C23.702 18 24 18.2987 24 18.6667V19.3437C25.0293 19.3957 25.6859 19.9834 25.8932 20.3047C26.0932 20.614 26.0046 21.0272 25.6953 21.2266C25.3853 21.4246 24.9721 21.338 24.7734 21.0286C24.7714 21.0286 24.4841 20.6667 23.8581 20.6667H22.8333C22.282 20.6667 21.8333 21.1153 21.8333 21.6667C21.8333 22.218 22.282 22.6667 22.8333 22.6667H24C25.2867 22.6667 26.3333 23.7133 26.3333 25C26.3333 26.2867 25.2867 27.3333 24 27.3333V28C24 28.368 23.702 28.6667 23.3333 28.6667C22.9647 28.6667 22.6667 28.368 22.6667 28V27.3307C21.8373 27.3247 21.0786 27.0214 20.5286 26.4714C20.268 26.2107 20.268 25.7906 20.5286 25.5299C20.7893 25.2693 21.2107 25.2693 21.4714 25.5299C21.686 25.7439 22.0721 26 22.6914 26H24C24.5513 26 25 25.5513 25 25C25 24.4487 24.5513 24 24 24H22.8333C21.5467 24 20.5 22.9533 20.5 21.6667C20.5 20.4373 21.4593 19.4376 22.6667 19.3503V18.6667C22.6667 18.2987 22.9647 18 23.3333 18Z" fill="#1BEFEF"/>
</svg>
