<svg width="74" height="74" viewBox="0 0 74 74" fill="none" xmlns="http://www.w3.org/2000/svg">
<rect x="0.5" y="0.5" width="73" height="73" rx="36.5" fill="#F0F0F0"/>
<rect x="0.5" y="0.5" width="73" height="73" rx="36.5" stroke="#00B074"/>
<path d="M42.8254 29.6284C42.7304 29.1171 42.5341 28.6301 42.2481 28.1959C41.962 27.7617 41.5921 27.389 41.1599 27.0999C40.7277 26.8108 40.2421 26.611 39.7316 26.5124C39.2211 26.4137 38.696 26.4181 38.1872 26.5254C37.6784 26.6327 37.1962 26.8406 36.769 27.137C36.3418 27.4334 35.9781 27.8122 35.6995 28.2512C35.4208 28.6902 35.2328 29.1805 35.1464 29.6932C35.06 30.2059 35.0771 30.7308 35.1965 31.2368L35.5246 32.8204C35.6285 33.3253 35.5345 33.8508 35.2621 34.2884L34.2981 35.8398C34.1199 36.1266 34.0169 36.4538 33.9986 36.791C33.9802 37.1282 34.0471 37.4646 34.1931 37.7691L34.5698 38.5566C34.7114 38.8519 34.7787 39.1774 34.7658 39.5046C34.7529 39.8318 34.6601 40.151 34.4956 40.4342C34.3339 40.7131 34.2416 41.0269 34.2265 41.349C34.2115 41.6712 34.2742 41.9922 34.4094 42.285C34.5445 42.5778 34.7481 42.8338 35.003 43.0313C35.2579 43.2289 35.5565 43.3622 35.8738 43.4201L40.2811 44.2188V34.146C41.1803 33.8287 41.9339 33.1959 42.4018 32.365C42.8697 31.5342 43.0202 30.5618 42.8254 29.6284Z" fill="#93999A"/>
<path d="M35.8765 43.4181L40.2813 44.2187V34.146C41.0877 33.861 41.7794 33.3213 42.2518 32.6084C42.7242 31.8955 42.9517 31.0481 42.8998 30.1945C42.8479 29.3408 42.5195 28.5272 41.9642 27.8768C41.4089 27.2263 40.6569 26.7744 39.8219 26.5892C39.7563 26.5748 39.6907 26.5709 39.6211 26.5604C38.9571 26.6737 38.3332 26.9554 37.809 27.3784C37.2848 27.8014 36.8777 28.3516 36.6266 28.9767C36.3719 29.6622 36.3238 30.4074 36.4882 31.12L36.8412 32.8262C36.945 33.3303 36.851 33.8549 36.5787 34.2916L35.6147 35.843C35.4365 36.1299 35.3335 36.4571 35.3152 36.7943C35.2968 37.1315 35.3637 37.4679 35.5097 37.7724L35.8864 38.5599L35.8942 38.5763C35.9708 38.7665 35.999 38.9728 35.9765 39.1766C35.9539 39.3804 35.8812 39.5754 35.7648 39.7443C35.6485 39.9131 35.4921 40.0505 35.3097 40.1442C35.1273 40.2379 34.9246 40.285 34.7196 40.2812H34.5621C34.5428 40.3326 34.5209 40.383 34.4964 40.4322C34.3346 40.7113 34.2424 41.0252 34.2275 41.3475C34.2126 41.6697 34.2755 41.9908 34.4108 42.2837C34.5462 42.5765 34.75 42.8324 35.0051 43.0299C35.2602 43.2274 35.5591 43.3605 35.8765 43.4181Z" fill="#656B76"/>
<path d="M46.595 26.2624C45.79 25.7394 44.8549 25.4516 43.8951 25.4315C42.9353 25.4113 41.9889 25.6595 41.1626 26.1483C40.7291 26.3711 40.3601 26.7014 40.0908 27.1078C39.8216 27.5141 39.6612 27.9827 39.625 28.4688C39.625 30.2807 41.9757 31.75 44.875 31.75V47.5L50.6756 45.843C51.0985 45.7221 51.4907 45.5124 51.826 45.2279C52.1614 44.9433 52.4321 44.5905 52.6202 44.1929C52.8083 43.7954 52.9094 43.3623 52.9167 42.9226C52.9241 42.4828 52.8375 42.0466 52.6627 41.643C52.4845 41.2312 52.398 40.7856 52.4094 40.337C52.4207 39.8885 52.5295 39.4478 52.7283 39.0455L52.8596 38.7778C53.1914 38.105 53.2671 37.3346 53.0727 36.6101C52.8783 35.8856 52.427 35.2566 51.803 34.8403L51.5031 34.6375C51.0793 34.3554 50.7317 33.973 50.4913 33.5242C50.2508 33.0754 50.125 32.5741 50.125 32.065V31.4088C50.1251 30.5089 49.8962 29.6237 49.4599 28.8367C49.0237 28.0496 48.3944 27.3864 47.6313 26.9095L46.595 26.2624Z" fill="#B8BEBF"/>
<path d="M52.647 41.5937C52.4239 41.5956 52.2038 41.5418 52.0068 41.4371C51.8098 41.3324 51.6421 41.1801 51.5189 40.9941C51.3956 40.8081 51.3208 40.5943 51.3012 40.372C51.2817 40.1498 51.3179 39.9261 51.4067 39.7215L51.4152 39.7031L51.5464 39.4353C51.8782 38.7626 51.9539 37.9921 51.7595 37.2676C51.5651 36.5432 51.1139 35.9141 50.4899 35.4978L50.1906 35.2937C49.7668 35.0116 49.4192 34.6292 49.1788 34.1804C48.9383 33.7316 48.8125 33.2304 48.8125 32.7212V32.065C48.8125 31.1651 48.5836 30.28 48.1474 29.4929C47.7111 28.7059 47.0819 28.0427 46.3188 27.5657L45.2832 26.918C44.6375 26.5085 43.9106 26.2441 43.1527 26.143C42.3948 26.042 41.624 26.1067 40.8935 26.3326C40.5269 26.5616 40.2204 26.8749 39.9997 27.2466C39.7791 27.6182 39.6506 28.0373 39.625 28.4687C39.625 30.2806 41.9757 31.75 44.875 31.75V47.5L50.6756 45.8423C51.0985 45.7215 51.4908 45.5119 51.8262 45.2274C52.1616 44.9428 52.4324 44.59 52.6205 44.1924C52.8086 43.7948 52.9097 43.3617 52.917 42.9219C52.9242 42.4821 52.8376 42.0459 52.6627 41.6423C52.6555 41.6265 52.6535 41.6088 52.647 41.5937Z" fill="#93999A"/>
<path d="M37.3123 43.3184L40.0961 46.1022L32.208 53.9903L29.4248 51.2058L37.3123 43.3184Z" fill="#0096C7"/>
<path d="M48.1562 56.0312H38.3125V52.4672C38.3124 51.3711 37.968 50.3028 37.3281 49.413C36.6881 48.5229 36.3438 47.4544 36.3438 46.3581C36.3438 44.9205 36.9148 43.5417 37.9314 42.5252C38.948 41.5086 40.3267 40.9375 41.7644 40.9375H46.1875C47.5799 40.9375 48.9152 41.4906 49.8998 42.4752C50.8844 43.4598 51.4375 44.7951 51.4375 46.1875V52.75C51.4375 53.6202 51.0918 54.4548 50.4764 55.0702C49.8611 55.6855 49.0265 56.0312 48.1562 56.0312Z" fill="#48CAE4"/>
<path d="M47.5 50.7812C45.5855 50.7812 43.7494 50.0207 42.3956 48.6669C41.0418 47.3131 40.2812 45.477 40.2812 43.5625V41.1481C39.1477 41.4704 38.1501 42.1533 37.4396 43.0934C36.7291 44.0336 36.3444 45.1797 36.3438 46.3581C36.3438 47.4544 36.6881 48.5229 37.3281 49.413C37.968 50.3028 38.3124 51.3711 38.3125 52.4671V56.0312H48.1562C49.0265 56.0312 49.8611 55.6855 50.4764 55.0702C51.0918 54.4548 51.4375 53.6202 51.4375 52.75V50.7812H47.5Z" fill="#00B4D8"/>
<path d="M47.5 46.1875V51.4375H46.1875V47.5C46.1875 47.1519 46.3258 46.8181 46.5719 46.5719C46.8181 46.3258 47.1519 46.1875 47.5 46.1875Z" fill="#00B4D8"/>
<path d="M29.125 53.4062H38.9688C38.9688 54.1024 38.6922 54.7701 38.1999 55.2624C37.7076 55.7547 37.0399 56.0312 36.3438 56.0312H29.125V53.4062Z" fill="#B8BEBF"/>
<path d="M29.755 42.9063H20.5938C20.2269 42.9062 19.8641 42.9831 19.5288 43.132C19.1935 43.2808 18.8931 43.4983 18.647 43.7703C18.4009 44.0424 18.2146 44.363 18.1 44.7116C17.9855 45.0601 17.9452 45.4287 17.9819 45.7938L18.7694 53.6688C18.8345 54.3162 19.1377 54.9165 19.6204 55.353C20.103 55.7895 20.7305 56.0313 21.3813 56.0312H31.9928C32.1763 56.0313 32.3578 55.993 32.5255 55.9186C32.6933 55.8442 32.8435 55.7355 32.9667 55.5995C33.0898 55.4634 33.183 55.3031 33.2403 55.1288C33.2977 54.9545 33.3178 54.7701 33.2994 54.5875L32.3676 45.2687C32.3025 44.6211 31.9991 44.0208 31.5164 43.5843C31.0336 43.1477 30.4059 42.9061 29.755 42.9063Z" fill="#E9F1F2"/>
<path d="M33.2987 54.5875C33.3171 54.77 33.2969 54.9543 33.2397 55.1286C33.1824 55.3029 33.0892 55.4632 32.9662 55.5992C32.8431 55.7352 32.6929 55.844 32.5253 55.9184C32.3576 55.9928 32.1762 56.0313 31.9928 56.0313H21.3812C20.7305 56.0313 20.1029 55.7896 19.6203 55.353C19.1377 54.9165 18.8344 54.3162 18.7693 53.6688L17.9818 45.7938C17.9445 45.4286 17.9843 45.0597 18.0986 44.7109C18.213 44.3621 18.3993 44.0412 18.6455 43.769C18.8917 43.4968 19.1924 43.2794 19.528 43.1307C19.8636 42.9821 20.2267 42.9056 20.5937 42.9063H20.7578C21.2675 45.493 22.6588 47.8229 24.6945 49.4983C26.7302 51.1738 29.2841 52.0911 31.9206 52.0938H33.0493L33.2987 54.5875Z" fill="#D0D8DA"/>
<path d="M25.1875 50.7812C25.9124 50.7812 26.5 50.1936 26.5 49.4688C26.5 48.7439 25.9124 48.1562 25.1875 48.1562C24.4626 48.1562 23.875 48.7439 23.875 49.4688C23.875 50.1936 24.4626 50.7812 25.1875 50.7812Z" fill="#F9DBAF"/>
<path d="M25.1875 50.7813C25.504 50.7799 25.8092 50.6632 26.0459 50.4531C25.4218 50.0773 24.8355 49.6422 24.295 49.1538C24.1992 49.0671 24.1112 48.9733 24.0187 48.8834C23.9254 49.0645 23.8762 49.265 23.875 49.4688C23.875 49.8168 24.0133 50.1507 24.2594 50.3968C24.5056 50.643 24.8394 50.7813 25.1875 50.7813Z" fill="#EDB88E"/>
<path d="M47.5 46.8438V52.0938L40.2812 52.75V56.0312H48.1562C49.0265 56.0312 49.8611 55.6855 50.4764 55.0702C51.0918 54.4548 51.4375 53.6202 51.4375 52.75V46.8438H47.5Z" fill="#48CAE4"/>
<path d="M38.3125 52.75H40.2812V56.0312H36.3438V54.7188C36.3438 54.1966 36.5512 53.6958 36.9204 53.3266C37.2896 52.9574 37.7904 52.75 38.3125 52.75Z" fill="#F9DBAF"/>
<path d="M40.2812 37H45.5312V40.2812C45.5312 41.1515 45.1855 41.9861 44.5702 42.6014C43.9548 43.2168 43.1202 43.5625 42.25 43.5625C41.7279 43.5625 41.2271 43.3551 40.8579 42.9859C40.4887 42.6167 40.2812 42.1159 40.2812 41.5938V37Z" fill="#EDB88E"/>
<path d="M41.6594 41.5905C42.4414 41.5793 43.2076 41.3685 43.8852 40.978C44.5629 40.5875 45.1295 40.0302 45.5312 39.3592V37H40.2812V41.5938C40.2812 42.1159 40.4887 42.6167 40.8579 42.9859C41.2271 43.3551 41.7279 43.5625 42.25 43.5625C42.9788 43.5599 43.6856 43.3124 44.2568 42.8597C43.2767 42.7281 42.3655 42.2829 41.6594 41.5905Z" fill="#DA9367"/>
<path d="M42.25 40.2812C41.0317 40.2812 39.8632 39.7973 39.0017 38.9358C38.1402 38.0743 37.6562 36.9058 37.6562 35.6875V34.0528C37.6563 33.1221 37.8531 32.202 38.2338 31.3527C38.6145 30.5034 39.1705 29.7443 39.8652 29.125C40.5124 29.8373 41.3057 30.4015 42.1909 30.7792C43.0761 31.157 44.0324 31.3392 44.9944 31.3136C45.2485 31.3066 45.5012 31.3539 45.7356 31.4521C45.9701 31.5503 46.1809 31.6972 46.3542 31.8832C46.6687 32.2194 46.8437 32.6625 46.8438 33.1229V35.6875C46.8438 36.9058 46.3598 38.0743 45.4983 38.9358C44.6368 39.7973 43.4683 40.2812 42.25 40.2812Z" fill="#F9DBAF"/>
<path d="M46.3542 31.8813C46.1809 31.6953 45.9701 31.5483 45.7356 31.4501C45.5012 31.3519 45.2485 31.3047 44.9944 31.3116C44.0325 31.3375 43.0763 31.1555 42.1911 30.7782C41.3059 30.4008 40.5126 29.8369 39.8652 29.125C39.1705 29.7443 38.6145 30.5034 38.2338 31.3527C37.8531 32.202 37.6563 33.1221 37.6562 34.0528V35.6875C37.6582 36.776 38.0467 37.8285 38.7524 38.6572C39.458 39.486 40.4351 40.0373 41.5094 40.2128C42.5836 40.3883 43.6853 40.1766 44.618 39.6155C45.5508 39.0544 46.254 38.1803 46.6023 37.149C45.9418 37.7382 45.1249 38.1236 44.2502 38.2586C43.3754 38.3936 42.4803 38.2723 41.673 37.9096C40.8657 37.5468 40.1807 36.958 39.7008 36.2143C39.2209 35.4706 38.9667 34.6038 38.9688 33.7188V32.084C38.969 31.8462 38.9821 31.6085 39.0081 31.372C39.2631 31.0337 39.5501 30.7207 39.8652 30.4375C40.5124 31.1498 41.3057 31.714 42.1909 32.0917C43.0761 32.4695 44.0324 32.6517 44.9944 32.6261C45.2608 32.6195 45.5252 32.6729 45.7682 32.7823C45.4827 33.0132 45.2539 33.3063 45.0991 33.6392C44.9443 33.9722 44.8676 34.3361 44.875 34.7031C44.8436 35.2341 45.0076 35.7581 45.3361 36.1764C45.6646 36.5947 46.1348 36.8783 46.658 36.9737C46.7805 36.5559 46.843 36.1229 46.8438 35.6875V33.1229C46.8442 32.6618 46.6692 32.2179 46.3542 31.8813ZM40.2812 52.75V56.0312H36.3438V54.7188H37.6562C38.1784 54.7188 38.6792 54.5113 39.0484 54.1421C39.4176 53.7729 39.625 53.2721 39.625 52.75H40.2812Z" fill="#EDB88E"/>
<path d="M42.5373 38.304C42.3655 38.332 42.1897 38.2906 42.0484 38.189C41.9071 38.0873 41.812 37.9337 41.784 37.7619C41.7559 37.5901 41.7973 37.4142 41.899 37.273C42.0006 37.1317 42.1542 37.0366 42.326 37.0085C43.4543 36.8267 44.4963 36.2932 45.3034 35.4841L46.1979 34.5896C46.2584 34.5269 46.3308 34.4769 46.4109 34.4425C46.491 34.4081 46.5771 34.39 46.6642 34.3893C46.7514 34.3885 46.8378 34.4051 46.9184 34.4381C46.9991 34.4711 47.0723 34.5198 47.134 34.5815C47.1956 34.6431 47.2443 34.7164 47.2773 34.797C47.3103 34.8777 47.3269 34.9641 47.3261 35.0512C47.3254 35.1383 47.3073 35.2245 47.2729 35.3045C47.2385 35.3846 47.1885 35.457 47.1258 35.5175L46.2307 36.4094C45.2303 37.4147 43.9375 38.0779 42.5373 38.304Z" fill="#E53935"/>
<path d="M39.625 34.375C39.9874 34.375 40.2812 34.0812 40.2812 33.7188C40.2812 33.3563 39.9874 33.0625 39.625 33.0625C39.2626 33.0625 38.9688 33.3563 38.9688 33.7188C38.9688 34.0812 39.2626 34.375 39.625 34.375Z" fill="#0096C7"/>
<path d="M42.9062 34.375C43.2687 34.375 43.5625 34.0812 43.5625 33.7188C43.5625 33.3563 43.2687 33.0625 42.9062 33.0625C42.5438 33.0625 42.25 33.3563 42.25 33.7188C42.25 34.0812 42.5438 34.375 42.9062 34.375Z" fill="#0096C7"/>
<path d="M43.4832 25.6587L43.1084 25.4979C42.4041 25.1958 41.6253 25.1118 40.8727 25.2566C40.1201 25.4014 39.4281 25.7684 38.8861 26.3103L38.6833 26.5138C39.0635 26.4856 39.4456 26.511 39.8187 26.5892C40.033 26.6362 40.2427 26.7021 40.4454 26.7861C40.7758 26.6177 41.1389 26.5233 41.5095 26.5095C41.8801 26.4956 42.2493 26.5627 42.5913 26.706L42.966 26.8668C43.9223 27.2758 44.7374 27.9565 45.3101 28.8247C45.8828 29.6928 46.1879 30.71 46.1876 31.75C46.1876 31.924 46.2567 32.091 46.3798 32.214C46.5029 32.3371 46.6698 32.4062 46.8438 32.4062C47.0179 32.4062 47.1848 32.3371 47.3079 32.214C47.4309 32.091 47.5001 31.924 47.5001 31.75C47.5012 30.4527 47.121 29.1837 46.4069 28.1008C45.6927 27.0178 44.676 26.1686 43.4832 25.6587Z" fill="#E53935"/>
<path d="M47.5 35.6875C48.5873 35.6875 49.4688 34.6592 49.4688 33.3906C49.4688 32.1221 48.5873 31.0938 47.5 31.0938C46.4127 31.0938 45.5312 32.1221 45.5312 33.3906C45.5312 34.6592 46.4127 35.6875 47.5 35.6875Z" fill="#EF5350"/>
<path d="M49.3047 34.3028C49.1819 34.6906 48.943 35.0314 48.6202 35.279C48.2974 35.5267 47.9064 35.6692 47.5 35.6875C46.9357 35.6407 46.4125 35.3734 46.0439 34.9434C45.6754 34.5134 45.4912 33.9555 45.5313 33.3906C45.5082 32.9116 45.6391 32.4379 45.9048 32.0387C46.1705 31.6395 46.5571 31.336 47.0078 31.1725C46.8987 31.4619 46.8431 31.7688 46.8438 32.0781C46.8037 32.643 46.9879 33.2009 47.3564 33.6309C47.725 34.0609 48.2482 34.3282 48.8125 34.375C48.9792 34.3745 49.1449 34.3502 49.3047 34.3028Z" fill="#E53935"/>
<path d="M29.7817 22.5625H20.5942C19.898 22.5625 19.2304 22.8391 18.7381 23.3313C18.2458 23.8236 17.9692 24.4913 17.9692 25.1875V31.75C17.9692 32.4462 18.2458 33.1139 18.7381 33.6062C19.2304 34.0984 19.898 34.375 20.5942 34.375H24.5317L29.1255 38.9688V34.375H29.7817C30.4779 34.375 31.1456 34.0984 31.6379 33.6062C32.1302 33.1139 32.4067 32.4462 32.4067 31.75V25.1875C32.4067 24.4913 32.1302 23.8236 31.6379 23.3313C31.1456 22.8391 30.4779 22.5625 29.7817 22.5625Z" fill="#FF7373"/>
<path d="M32.4067 31.75C32.4067 32.4462 32.1302 33.1139 31.6379 33.6062C31.1456 34.0984 30.4779 34.375 29.7817 34.375H29.1255V38.9688L24.5317 34.375H20.5942C19.898 34.375 19.2304 34.0984 18.7381 33.6062C18.2458 33.1139 17.9692 32.4462 17.9692 31.75V25.1875C17.9692 24.4913 18.2458 23.8236 18.7381 23.3313C19.2304 22.8391 19.898 22.5625 20.5942 22.5625H23.8755V24.5312C23.875 25.4794 24.0613 26.4183 24.4239 27.2944C24.7865 28.1704 25.3182 28.9664 25.9887 29.6368C26.6591 30.3073 27.4551 30.839 28.3311 31.2016C29.2072 31.5642 30.1461 31.7505 31.0942 31.75H32.4067Z" fill="#EF5350"/>
<path d="M21.9062 27.8125C22.6311 27.8125 23.2188 27.2249 23.2188 26.5C23.2188 25.7751 22.6311 25.1875 21.9062 25.1875C21.1814 25.1875 20.5938 25.7751 20.5938 26.5C20.5938 27.2249 21.1814 27.8125 21.9062 27.8125Z" fill="#F9DBAF"/>
<path d="M21.9062 27.8125C22.2543 27.8125 22.5882 27.9508 22.8343 28.1969C23.0805 28.4431 23.2188 28.7769 23.2188 29.125V30.4375H20.5938V29.125C20.5938 28.7769 20.732 28.4431 20.9782 28.1969C21.2243 27.9508 21.5582 27.8125 21.9062 27.8125Z" fill="#F9DBAF"/>
<path d="M22.5626 27.1563C22.3432 27.1572 22.127 27.1028 21.9341 26.9983C21.7412 26.8937 21.5778 26.7422 21.4588 26.5579C21.3398 26.3735 21.2691 26.1622 21.2533 25.9434C21.2375 25.7245 21.277 25.5052 21.3682 25.3056C21.1736 25.3922 21.0029 25.5248 20.871 25.692C20.739 25.8592 20.6498 26.056 20.6109 26.2654C20.572 26.4748 20.5847 26.6906 20.6478 26.894C20.711 27.0974 20.8227 27.2824 20.9733 27.433C21.1239 27.5836 21.3089 27.6953 21.5123 27.7585C21.7158 27.8216 21.9315 27.8343 22.1409 27.7954C22.3503 27.7565 22.5471 27.6673 22.7144 27.5353C22.8816 27.4034 23.0142 27.2328 23.1007 27.0381C22.9318 27.1153 22.7483 27.1556 22.5626 27.1563ZM22.5626 29.125C22.2452 29.1245 21.9388 29.0085 21.7006 28.7988C21.4624 28.5891 21.3086 28.2999 21.2678 27.9851C21.0641 28.0979 20.8943 28.263 20.7758 28.4634C20.6573 28.6638 20.5945 28.8922 20.5938 29.125V30.4375H23.2188V29.125C23.2169 29.0671 23.211 29.0095 23.2011 28.9524C23.0068 29.0643 22.7868 29.1238 22.5626 29.125Z" fill="#EDB88E"/>
<path d="M29.7812 25.8438H27.8125C27.6385 25.8438 27.4715 25.7746 27.3485 25.6515C27.2254 25.5285 27.1562 25.3615 27.1562 25.1875C27.1562 25.0135 27.2254 24.8465 27.3485 24.7235C27.4715 24.6004 27.6385 24.5312 27.8125 24.5312H29.7812C29.9553 24.5312 30.1222 24.6004 30.2453 24.7235C30.3684 24.8465 30.4375 25.0135 30.4375 25.1875C30.4375 25.3615 30.3684 25.5285 30.2453 25.6515C30.1222 25.7746 29.9553 25.8438 29.7812 25.8438ZM29.7812 28.4688H25.8438C25.6697 28.4688 25.5028 28.3996 25.3797 28.2765C25.2566 28.1535 25.1875 27.9865 25.1875 27.8125C25.1875 27.6385 25.2566 27.4715 25.3797 27.3485C25.5028 27.2254 25.6697 27.1562 25.8438 27.1562H29.7812C29.9553 27.1562 30.1222 27.2254 30.2453 27.3485C30.3684 27.4715 30.4375 27.6385 30.4375 27.8125C30.4375 27.9865 30.3684 28.1535 30.2453 28.2765C30.1222 28.3996 29.9553 28.4688 29.7812 28.4688ZM29.7812 31.0938H25.8438C25.6697 31.0938 25.5028 31.0246 25.3797 30.9015C25.2566 30.7785 25.1875 30.6115 25.1875 30.4375C25.1875 30.2635 25.2566 30.0965 25.3797 29.9735C25.5028 29.8504 25.6697 29.7812 25.8438 29.7812H29.7812C29.9553 29.7812 30.1222 29.8504 30.2453 29.9735C30.3684 30.0965 30.4375 30.2635 30.4375 30.4375C30.4375 30.6115 30.3684 30.7785 30.2453 30.9015C30.1222 31.0246 29.9553 31.0938 29.7812 31.0938Z" fill="#48CAE4"/>
<path d="M28.0816 31.0938H25.8438C25.6697 31.0938 25.5028 31.0246 25.3797 30.9015C25.2566 30.7785 25.1875 30.6115 25.1875 30.4375C25.1875 30.2635 25.2566 30.0965 25.3797 29.9735C25.5028 29.8504 25.6697 29.7812 25.8438 29.7812H26.1391C26.7086 30.3243 27.3652 30.768 28.0816 31.0938Z" fill="#00B4D8"/>
</svg>
