<svg width="28" height="28" viewBox="0 0 28 28" fill="none" xmlns="http://www.w3.org/2000/svg">
<path d="M14 0.666656C6.64803 0.666656 0.666656 6.64804 0.666656 14C0.666656 21.3519 6.64803 27.3333 14 27.3333C21.3519 27.3333 27.3333 21.3519 27.3333 14C27.3333 6.64804 21.3519 0.666656 14 0.666656ZM14 2.66666C20.2711 2.66666 25.3333 7.72892 25.3333 14C25.3333 20.2711 20.2711 25.3333 14 25.3333C7.72891 25.3333 2.66666 20.2711 2.66666 14C2.66666 7.72892 7.72891 2.66666 14 2.66666ZM12.9844 5.98567C12.7194 5.98981 12.4669 6.09896 12.2823 6.28914C12.0977 6.47933 11.9962 6.73499 12 6.99999V14.3333C12 14.5985 12.1054 14.8528 12.293 15.0404L15.6263 18.3737C15.7184 18.4697 15.8288 18.5463 15.9509 18.5991C16.0731 18.6518 16.2045 18.6797 16.3375 18.6811C16.4706 18.6824 16.6025 18.6572 16.7257 18.6069C16.8489 18.5566 16.9608 18.4823 17.0549 18.3882C17.149 18.2941 17.2233 18.1822 17.2736 18.0591C17.3239 17.9359 17.3491 17.8039 17.3477 17.6709C17.3464 17.5378 17.3185 17.4064 17.2657 17.2843C17.2129 17.1621 17.1363 17.0518 17.0404 16.9596L14 13.9193V6.99999C14.0019 6.86615 13.9769 6.73328 13.9266 6.60926C13.8762 6.48525 13.8014 6.3726 13.7067 6.27801C13.612 6.18342 13.4993 6.10881 13.3752 6.05859C13.2511 6.00837 13.1182 5.98357 12.9844 5.98567Z" fill="#656D09"/>
</svg>
