<svg width="32" height="32" viewBox="0 0 32 32" fill="none" xmlns="http://www.w3.org/2000/svg">
<path d="M16 2.66667C8.64806 2.66667 2.66669 8.64805 2.66669 16C2.66669 23.352 8.64806 29.3333 16 29.3333C23.352 29.3333 29.3334 23.352 29.3334 16C29.3334 8.64805 23.352 2.66667 16 2.66667ZM16 4.66667C22.2711 4.66667 27.3334 9.72893 27.3334 16C27.3334 22.2711 22.2711 27.3333 16 27.3333C9.72894 27.3333 4.66669 22.2711 4.66669 16C4.66669 9.72893 9.72894 4.66667 16 4.66667ZM20.3242 10.6523C20.0601 10.6586 19.8092 10.7691 19.6263 10.9596L16 14.5859L12.3737 10.9596C12.2805 10.8636 12.169 10.7873 12.0457 10.7352C11.9225 10.6831 11.7901 10.6563 11.6563 10.6563C11.4573 10.6563 11.2628 10.7157 11.0977 10.8269C10.9327 10.9381 10.8046 11.096 10.7297 11.2804C10.6549 11.4649 10.6369 11.6674 10.6778 11.8622C10.7188 12.0569 10.8169 12.235 10.9597 12.3737L14.586 16L10.9597 19.6263C10.8637 19.7185 10.7871 19.8288 10.7343 19.9509C10.6815 20.0731 10.6536 20.2045 10.6523 20.3375C10.6509 20.4706 10.6761 20.6026 10.7264 20.7257C10.7767 20.8489 10.8511 20.9608 10.9451 21.0549C11.0392 21.149 11.1511 21.2233 11.2743 21.2736C11.3975 21.3239 11.5294 21.3491 11.6625 21.3478C11.7955 21.3464 11.9269 21.3185 12.0491 21.2657C12.1712 21.213 12.2816 21.1363 12.3737 21.0404L16 17.4141L19.6263 21.0404C19.7185 21.1363 19.8288 21.213 19.951 21.2657C20.0731 21.3185 20.2045 21.3464 20.3376 21.3478C20.4706 21.3491 20.6026 21.3239 20.7257 21.2736C20.8489 21.2233 20.9608 21.149 21.0549 21.0549C21.149 20.9608 21.2233 20.8489 21.2736 20.7257C21.3239 20.6026 21.3491 20.4706 21.3478 20.3375C21.3464 20.2045 21.3185 20.0731 21.2658 19.9509C21.213 19.8288 21.1364 19.7185 21.0404 19.6263L17.4141 16L21.0404 12.3737C21.1858 12.2341 21.2857 12.0539 21.3268 11.8566C21.368 11.6593 21.3487 11.4541 21.2712 11.268C21.1938 11.0819 21.062 10.9236 20.893 10.8137C20.724 10.7038 20.5257 10.6476 20.3242 10.6523Z" fill="#EF3826"/>
</svg>
