<svg width="32" height="32" viewBox="0 0 32 32" fill="none" xmlns="http://www.w3.org/2000/svg">
<path d="M8.33334 2.66666C6.67934 2.66666 5.33334 4.01266 5.33334 5.66666V26.3333C5.33334 27.9873 6.67934 29.3333 8.33334 29.3333H17.0938C16.5238 28.7407 16.037 28.0687 15.6524 27.3333H8.33334C7.78201 27.3333 7.33334 26.8847 7.33334 26.3333V5.66666C7.33334 5.11532 7.78201 4.66666 8.33334 4.66666H16V10.3333C16 11.9873 17.346 13.3333 19 13.3333H24.6667V14.7799C25.3633 14.8879 26.0353 15.0713 26.6667 15.3359V12.3333C26.6667 12.057 26.5546 11.8072 26.3737 11.6263L17.707 2.95963C17.5261 2.77871 17.2763 2.66666 17 2.66666H8.33334ZM18 6.08072L23.2526 11.3333H19C18.4487 11.3333 18 10.8847 18 10.3333V6.08072ZM23.3333 16C19.29 16 16 19.29 16 23.3333C16 27.3767 19.29 30.6667 23.3333 30.6667C27.3767 30.6667 30.6667 27.3767 30.6667 23.3333C30.6667 19.29 27.3767 16 23.3333 16ZM23.3333 18C24.4433 18 25.4735 18.3418 26.3281 18.9245L18.9245 26.3281C18.3418 25.4734 18 24.4433 18 23.3333C18 20.3927 20.3927 18 23.3333 18ZM27.7422 20.3385C28.3249 21.1932 28.6667 22.2233 28.6667 23.3333C28.6667 26.274 26.274 28.6667 23.3333 28.6667C22.2233 28.6667 21.1932 28.3248 20.3386 27.7422L27.7422 20.3385Z" fill="#EF3826"/>
</svg>
