<svg width="313" height="205" viewBox="0 0 313 205" fill="none" xmlns="http://www.w3.org/2000/svg">
<g filter="url(#filter0_d_359_1395)">
<rect x="48" width="205" height="205" rx="18" fill="white"/>
</g>
<mask id="mask0_359_1395" style="mask-type:luminance" maskUnits="userSpaceOnUse" x="48" y="0" width="205" height="205">
<rect x="48" width="205" height="205" rx="18" fill="white"/>
</mask>
<g mask="url(#mask0_359_1395)">
<g opacity="0.08">
<path d="M226.732 190.523C218.991 189.14 218.068 183.97 216.895 177.417C215.576 170.101 213.948 160.999 202.103 153.741C196.166 150.111 190.478 147.836 184.702 146.784C179.542 145.848 174.411 145.906 169.046 146.972C159.077 148.959 149.665 154.259 140.547 159.372C132.015 164.167 123.19 169.136 113.69 171.584C108.589 172.909 103.722 173.399 98.8107 173.111C93.2986 172.78 87.8745 171.469 82.2452 169.093C72.4085 164.945 62.6304 163.505 53.1896 164.801C51.445 165.046 49.7152 165.377 48 165.809V166.256C49.7445 165.824 51.489 165.478 53.2629 165.233C62.6304 163.937 72.3205 165.377 82.0839 169.482C89.018 172.405 95.4389 173.615 101.493 173.615C116.109 173.615 128.585 166.601 140.767 159.76C150.266 154.417 159.224 149.377 169.134 147.404C174.44 146.338 179.513 146.28 184.614 147.217C190.346 148.253 195.99 150.515 201.869 154.115C207.073 157.298 213.553 161.258 216.47 177.489C217.071 180.873 217.599 183.797 218.991 186.144C220.531 188.751 222.979 190.278 226.658 190.94C237.551 192.899 244.03 195.995 247.035 200.69C247.754 201.799 248.281 203.009 248.633 204.291H249.088C248.721 202.922 248.179 201.655 247.402 200.46C244.323 195.664 237.756 192.51 226.732 190.523Z" fill="#848484"/>
<path d="M218.224 195.299C209.004 193.953 208.139 191.247 206.262 185.348C204.62 180.208 202.143 172.419 192.453 161.123C179.421 145.917 165.597 155.424 149.589 166.435C133.361 177.602 114.964 190.245 92.5058 181.139C83.9007 177.645 75.2224 175.927 66.6907 175.999C60.3432 176.056 54.0543 177.116 48 179.149V179.607C54.0543 177.559 60.3285 176.5 66.6907 176.443C75.1638 176.357 83.7835 178.089 92.3299 181.554C102.445 185.663 112.662 185.735 123.54 181.797C133.054 178.347 141.585 172.477 149.838 166.807C157.755 161.366 165.231 156.226 172.223 154.393C179.949 152.36 186.267 154.594 192.116 161.423C201.747 172.663 204.21 180.394 205.837 185.506C207.714 191.405 208.666 194.368 218.166 195.757C223.722 196.573 227.196 198.578 228.501 201.713C228.823 202.501 229.014 203.36 229.087 204.291H229.527C229.468 203.303 229.263 202.386 228.911 201.556C227.533 198.234 223.941 196.144 218.224 195.299Z" fill="#848484"/>
<path d="M172.753 176.431C168.686 173.764 163.229 173.85 156.544 176.733C151.233 179.011 145.133 183.047 138.403 188.697C131.527 194.492 125.383 200.834 121.55 205H122.135C125.968 200.834 131.966 194.665 138.681 189.014C145.381 183.378 151.438 179.371 156.705 177.108C163.244 174.297 168.555 174.182 172.49 176.777C181.633 182.787 186.49 192.935 190.777 201.886C191.289 202.939 191.772 203.977 192.269 204.986H192.752C192.225 203.919 191.699 202.823 191.172 201.699C186.885 192.704 181.999 182.499 172.753 176.431Z" fill="#848484"/>
<path d="M161.088 191.072C159.214 189.753 156.791 189.782 153.893 191.158C151.615 192.248 149.034 194.169 146.222 196.878C143.54 199.473 141.132 202.298 139.546 204.291H140.108C144.607 198.714 154.917 187.258 160.829 191.416C164.65 194.111 166.885 199.459 168.817 204.291H169.279C167.318 199.373 165.068 193.868 161.088 191.072Z" fill="#848484"/>
<path d="M88.5294 190.891C84.7785 189.96 80.8964 189 77.4082 187.856C68.7536 184.99 58.7271 187.404 51.8384 189.931C50.4811 190.426 49.1968 190.948 48 191.47V191.936C49.2405 191.4 50.5833 190.849 51.9989 190.327C58.8146 187.828 68.739 185.441 77.2623 188.265C80.7504 189.423 84.6472 190.383 88.4126 191.315C96.8775 193.405 104.875 195.381 105.43 198.968C105.664 200.478 104.584 202.243 102.161 204.291H102.803C105.094 202.243 106.101 200.464 105.868 198.897C105.269 195.028 97.5197 193.122 88.5294 190.891Z" fill="#848484"/>
<path d="M83.4587 196.84C80.5309 196.343 76.9673 196.372 73.6846 196.927C67.6073 197.95 55.7187 201.223 48 203.429V203.882C55.7187 201.676 67.6812 198.388 73.7733 197.351C77.0117 196.811 80.5161 196.767 83.3995 197.263C87.5694 197.979 89.0333 199.484 89.536 200.638C89.9944 201.676 89.8761 202.903 89.196 204.291H89.6987C90.3493 202.859 90.4233 201.573 89.9353 200.463C88.9446 198.213 85.8689 197.249 83.4587 196.84Z" fill="#848484"/>
<path d="M66.7539 117.075C73.358 121.475 77.6682 127.786 81.4525 133.359C85.7481 139.669 89.4739 145.126 95.289 146.009C95.8296 146.096 96.3848 146.125 96.94 146.125C101.426 146.125 106.759 143.563 113.523 138.164C118.593 134.111 122.816 130.435 126.542 127.178C134.402 120.303 140.086 115.338 146.369 113.732C152.783 112.082 159.825 113.819 170.667 119.71C179.521 124.529 190.085 127.844 199.626 128.799C204.067 129.248 208.1 129.161 211.3 128.524C214.675 127.858 217.042 126.657 218.313 124.935C220.052 122.575 220.475 118.19 212.571 110.678C203.118 101.689 192.364 100.604 180.982 99.4604C173.443 98.7078 165.641 97.9117 157.765 94.7708C148.853 91.2247 141.123 85.0588 134.125 75.9546C128.953 69.2242 122.918 66.0399 116.65 66.7492C112.384 67.2268 108.19 69.4558 104.187 73.3493C100.169 77.2862 96.5455 82.714 93.448 89.4878C91.1395 94.5103 88.5972 97.0867 85.6312 97.3472C79.217 97.9117 71.7946 87.2299 64.6353 76.8954C61.0556 71.7282 57.359 66.4018 53.8378 62.5807C52.0115 60.5977 50.3458 59.1358 48.7824 58.1661V58.7016C53.7063 61.9149 59.0539 69.615 64.27 77.1415C67.8643 82.3232 71.5901 87.693 75.1698 91.601C78.9978 95.7695 82.2707 97.8104 85.149 97.8104C85.3243 97.8104 85.4997 97.7959 85.675 97.7814C88.8017 97.5064 91.4755 94.8577 93.8425 89.676C96.9254 82.9456 100.505 77.5612 104.494 73.6677C108.424 69.8321 112.53 67.6466 116.694 67.1834C122.787 66.5031 128.704 69.6295 133.774 76.2296C140.817 85.4062 148.619 91.601 157.59 95.1761C165.524 98.3459 173.355 99.1275 180.924 99.8946C192.232 101.038 202.913 102.109 212.264 110.996C219.949 118.306 219.599 122.474 217.962 124.689C215.566 127.916 208.728 129.291 199.669 128.379C190.187 127.424 179.682 124.124 170.871 119.333C159.928 113.384 152.798 111.648 146.252 113.326C139.867 114.962 134.154 119.956 126.25 126.874C122.524 130.131 118.316 133.807 113.246 137.845C105.736 143.838 100.052 146.298 95.3474 145.589C89.7222 144.75 86.0549 139.365 81.8031 133.127C77.9897 127.525 73.6648 121.186 66.9876 116.728C61.4501 113.037 56.1756 111.184 51.2517 111.184C50.4189 111.184 49.6007 111.242 48.7824 111.344V111.778C54.32 111.04 60.3543 112.82 66.7539 117.075Z" fill="#848484"/>
<path d="M56.2355 159.415C63.0324 159.517 70.6366 160.872 77.3454 162.051C86.9608 163.755 94.5357 165.095 95.4753 162.008C96.8845 157.376 92.3044 153.545 84.7001 147.209C79.2538 142.665 72.457 137.014 65.1903 128.886C59.7294 122.784 54.2831 120.016 49.0276 120.686C48.7046 120.73 48.367 120.788 48 120.861V121.313C48.3523 121.24 48.7193 121.167 49.0863 121.123C54.195 120.482 59.4945 123.191 64.8674 129.178C72.1633 137.334 78.9602 143 84.4212 147.559C91.8787 153.778 96.3854 157.536 95.0642 161.891C94.2421 164.6 86.447 163.217 77.4335 161.629C67.7006 159.91 56.2795 157.886 48.0147 159.633V160.085C50.3341 159.59 53.0793 159.357 56.2355 159.415Z" fill="#848484"/>
<path d="M75.9145 157.474C79.7709 157.474 81.9364 156.781 82.3517 155.379C83.2713 152.326 75.603 146.824 70.9308 143.815C64.3304 139.552 56.4693 135.54 52.2421 134.256C50.833 133.828 49.4091 133.533 48.0148 133.356V133.799C49.3646 133.976 50.744 134.271 52.1086 134.684C56.3061 135.953 64.1228 139.935 70.6787 144.184C78.3173 149.125 82.5149 153.255 81.9068 155.247C81.3135 157.194 76.0332 157.548 67.0299 156.25C59.7324 155.202 52.1234 153.388 48 152.237V152.695C52.1531 153.86 59.7176 155.645 66.9558 156.692C70.5897 157.209 73.5562 157.474 75.9145 157.474Z" fill="#848484"/>
<path d="M56.7474 148.962C58.5176 148.962 59.5059 148.622 59.6977 147.941C60.1107 146.579 57.1605 144.315 54.6085 142.657C52.4106 141.222 49.9029 139.86 48 139.031V139.52C49.8586 140.348 52.2631 141.666 54.3725 143.042C57.6473 145.173 59.5207 147.008 59.2699 147.822C58.8716 149.14 52.9564 148.4 48 147.29V147.734C49.4899 148.059 51.1568 148.385 52.7794 148.622C54.3873 148.844 55.7001 148.962 56.7474 148.962Z" fill="#848484"/>
<path fill-rule="evenodd" clip-rule="evenodd" d="M98.5867 137.612C98.1641 137.612 97.756 137.569 97.3626 137.467C93.7923 136.583 90.9507 134.075 89.1437 130.204C87.3222 126.261 86.7101 121.172 87.395 115.475C88.0216 110.343 89.8432 105.254 92.6994 100.76C102.856 84.7405 111.294 75.9551 117.779 74.6503C119.862 74.2299 121.771 74.5923 123.418 75.7376C129.594 80.0054 133.622 84.1599 137.175 87.824L137.306 87.9589L137.337 87.9917C142.831 93.6592 147.175 98.1411 156.687 100.731C162.705 102.369 165.547 103.877 165.358 105.356C165.212 106.501 163.172 107.414 159.281 108.081C155.507 108.719 150.056 109.111 143.528 109.198C138.603 109.27 133.488 111.169 127.877 115.04C122.981 118.432 118.347 122.854 114.252 126.768C108.204 132.553 102.915 137.612 98.5867 137.612ZM93.0783 100.992C90.2658 105.428 88.4588 110.459 87.8468 115.533C87.1765 121.143 87.7739 126.145 89.5663 130.016C91.3004 133.771 94.0401 136.206 97.4792 137.047C97.8435 137.134 98.2224 137.178 98.6012 137.178C102.74 137.178 107.971 132.176 113.945 126.465L113.946 126.464C118.041 122.535 122.689 118.099 127.63 114.692C133.313 110.778 138.515 108.835 143.528 108.763C150.042 108.676 155.463 108.284 159.208 107.646C164.031 106.82 164.862 105.82 164.935 105.298C165.139 103.645 159.164 101.833 156.585 101.137C146.938 98.4985 142.552 93.9753 137.014 88.2489L136.954 88.187C133.399 84.5198 129.373 80.3672 123.185 76.0855C122.048 75.3027 120.795 74.9113 119.425 74.9113C118.93 74.9113 118.405 74.9692 117.881 75.0707C111.527 76.361 103.177 85.0739 93.0783 100.992Z" fill="#848484"/>
<path fill-rule="evenodd" clip-rule="evenodd" d="M202.245 121.909C195.411 120.929 187.615 119.3 183.011 118.191C175.332 116.346 172.039 114.703 171.66 112.555C171.325 110.61 173.452 108.26 178.334 105.161C181 103.475 184.468 103.115 188.679 104.124C192.016 104.916 195.819 106.56 199.986 109.01C206.922 113.089 212.59 118.075 212.867 118.32C214.907 119.747 215.723 120.814 215.359 121.606C215.009 122.342 213.61 122.716 211.104 122.716C208.962 122.716 206.019 122.442 202.245 121.909ZM184.308 103.98C182.093 103.98 180.184 104.498 178.581 105.507C173.933 108.462 171.806 110.739 172.097 112.44C172.505 114.876 177.896 116.49 183.113 117.744C195.761 120.785 213.872 123.754 214.951 121.405C215.096 121.088 214.994 120.309 212.605 118.637L212.59 118.623C212.587 118.621 212.565 118.601 212.525 118.567C211.869 117.998 206.401 113.254 199.768 109.356C195.644 106.934 191.885 105.306 188.592 104.527C187.062 104.167 185.634 103.98 184.308 103.98Z" fill="#848484"/>
<path d="M253 114.275C251.958 113.201 250.768 112.097 249.417 110.994C244.278 106.799 237.759 103.344 230.036 100.717C220.39 97.4365 208.834 95.4333 195.693 94.7656C188.175 94.3882 173.757 93.0672 161.585 88.4367C148.767 83.5739 141.66 76.3886 140.486 67.0839C139.12 56.3132 140.456 49.6359 144.7 46.0505C149.339 42.1313 157.738 41.9571 170.365 45.557C179.131 48.0537 186.223 51.4795 191.92 54.2375C197.543 56.9664 201.992 59.1148 205.956 59.4922C210.258 59.8986 213.621 58.1712 216.851 53.8891C218.907 51.1601 220.536 48.5763 221.975 46.2973C224.868 41.6958 226.967 38.3717 230.388 37.1378C234 35.8314 238.89 36.9346 246.76 40.8249C249.006 41.9281 251.077 43.1619 253 44.4393V43.9167C251.135 42.6829 249.124 41.5071 246.965 40.4329C238.978 36.4846 233.986 35.3814 230.242 36.7169C226.674 38.0088 224.559 41.3765 221.608 46.0505C220.184 48.315 218.554 50.8843 216.513 53.6133C209.877 62.4244 203.196 59.1873 192.125 53.831C186.414 51.0585 179.292 47.6183 170.497 45.1215C157.709 41.4926 149.178 41.6813 144.421 45.7022C140.06 49.3892 138.68 56.1971 140.06 67.1275C141.264 76.6063 148.459 83.9077 161.438 88.8431C173.669 93.4882 188.146 94.8091 195.678 95.201C208.775 95.8542 220.272 97.8574 229.875 101.123C237.539 103.736 244.014 107.162 249.109 111.314C250.607 112.533 251.899 113.752 253 114.913V114.275Z" fill="#848484"/>
<path d="M253 105.125C249.909 102.815 246.192 100.491 241.979 98.297C230.01 92.0497 215.897 87.7056 202.266 86.0784C188.461 84.4221 178.387 82.606 170.573 80.3396C160.586 77.4629 154.288 73.8743 151.314 69.3995C149.302 66.363 148.865 62.8616 149.988 58.968C150.833 56.0913 152.379 54.188 154.726 53.1565C162.671 49.6406 177.906 57.0066 191.347 63.5009C196.26 65.8836 200.911 68.121 204.861 69.661C211.524 72.2617 215.62 72.8428 218.565 71.5788C221.408 70.3584 223.041 67.5399 225.286 63.6316C226.642 61.278 228.173 58.6193 230.33 55.6845C232.634 52.5463 235.549 50.9046 239.005 50.8029C243.728 50.6721 248.845 53.4471 253 56.4981V55.9605C246.542 51.2678 241.891 50.2944 239.005 50.367C235.418 50.4687 232.386 52.1686 229.995 55.423C227.823 58.3723 226.292 61.0601 224.922 63.4137C220.519 71.0413 218.507 74.5281 205.022 69.2542C201.086 67.7142 196.45 65.4768 191.537 63.1086C178.008 56.5707 162.671 49.1611 154.551 52.7642C152.102 53.8393 150.425 55.9024 149.565 58.8663C148.399 62.8762 148.851 66.5083 150.935 69.661C153.982 74.2085 160.353 77.8552 170.456 80.7609C178.299 83.0274 188.402 84.8435 202.223 86.4997C215.795 88.1269 229.849 92.4565 241.774 98.6747C246.046 100.912 249.866 103.309 253 105.692V105.125Z" fill="#848484"/>
<path d="M252.985 98.7118C244.667 91.5144 233.386 88.6355 224.542 86.3963C215.961 84.2153 209.773 82.6449 210.444 78.3992C210.634 77.1633 212.356 77.2505 215.377 77.5123C218.179 77.7449 221.652 78.0502 224.936 76.9452C228.818 75.6366 231.489 72.6849 233.094 67.9158C234.218 64.5715 236.013 62.6522 238.406 62.2451C242.784 61.489 248.534 65.7347 253 69.9514V69.3407C252.883 69.2389 252.781 69.1226 252.664 69.0208C246.768 63.6119 241.952 61.1837 238.333 61.8089C235.765 62.2451 233.867 64.2516 232.685 67.7704C229.154 78.2538 220.893 77.5413 215.421 77.0761C212.444 76.8143 210.284 76.6399 210.021 78.341C209.685 80.493 210.867 82.1506 213.786 83.5319C216.384 84.7678 220.12 85.7274 224.44 86.818C233.357 89.0862 244.725 91.9797 253 99.3079V98.7118H252.985Z" fill="#848484"/>
<path d="M253 94.5186C250.19 92.7111 247.104 90.1481 244.453 87.3925C240.484 83.2591 238.123 79.4368 237.819 76.6071C237.66 75.0812 238.109 73.8663 239.181 73.0071C242.947 69.9848 249.089 75.0219 253 79.0368V78.3998C252.189 77.5849 251.305 76.7405 250.378 75.9404C248.22 74.0886 246.221 72.8145 244.468 72.1626C242.237 71.333 240.354 71.4959 238.905 72.6663C237.718 73.6145 237.211 74.9627 237.384 76.6664C237.993 82.4443 246.467 90.9037 253 95.0519V94.5186Z" fill="#848484"/>
<path fill-rule="evenodd" clip-rule="evenodd" d="M202.402 77.2114C202.452 77.2466 202.48 77.2663 202.485 77.2694C204.225 78.5465 204.824 79.5941 204.312 80.3977C203.728 81.2443 201.842 81.5744 199.357 81.5744C195.952 81.5744 191.391 80.9573 187.386 80.1681C177.637 78.2595 168.341 75.0164 162.523 71.5007C155.975 67.54 153.754 63.2494 156.107 59.0879C156.735 57.9686 157.788 57.2511 159.22 56.9353C163.839 55.9165 172.536 59.0448 185.048 66.2055C193.84 71.2274 201.521 76.5959 202.402 77.2114ZM198.524 81.1152C202.573 81.2156 203.654 80.5412 203.932 80.1394C204.4 79.4362 203.26 78.3887 202.222 77.6281C201.842 77.3555 173.194 57.1793 161.076 57.1793C160.433 57.1793 159.849 57.2367 159.308 57.3515C158.007 57.6385 157.057 58.2843 156.487 59.2888C155.317 61.3552 155.332 63.4503 156.545 65.531C157.642 67.4252 159.732 69.3051 162.743 71.1276C168.516 74.6146 177.754 77.8434 187.459 79.7376C191.625 80.5555 195.557 81.0434 198.524 81.1152Z" fill="#848484"/>
<path fill-rule="evenodd" clip-rule="evenodd" d="M188.004 73.6209C188.109 73.6831 188.167 73.7176 188.174 73.7207C188.186 73.7301 188.2 73.7405 188.215 73.7519C188.467 73.9405 189.058 74.3844 188.756 74.816C188.567 75.0933 187.985 75.1903 187.199 75.1903C185.046 75.1903 181.394 74.3862 180.463 74.1782C175.619 73.069 171.123 71.4746 168.446 69.9079C165.755 68.3273 164.824 66.7884 165.667 65.3326C165.871 64.986 166.22 64.7503 166.686 64.6394C168.577 64.168 172.767 65.5683 179.154 68.771C183.355 70.8774 187.165 73.1261 188.004 73.6209ZM180.551 73.7761C185.497 74.8992 188.145 74.9269 188.392 74.5803C188.407 74.5525 188.378 74.3862 187.912 74.0673C187.505 73.8177 172.636 64.9721 167.501 64.9721C167.224 64.9721 166.991 64.9998 166.773 65.0553C166.409 65.1385 166.177 65.3049 166.031 65.5406C165.318 66.7606 166.191 68.1055 168.65 69.5474C171.283 71.1003 175.735 72.6808 180.551 73.7761Z" fill="#848484"/>
<path fill-rule="evenodd" clip-rule="evenodd" d="M101.604 126.818C100.149 127.433 98.9556 127.682 97.9806 127.682C96.0016 127.682 94.9103 126.642 94.3136 125.574C90.4284 118.65 99.2029 96.3565 111.135 87.6616C114.7 85.0707 117.902 84.0167 120.637 84.5437C122.893 84.9828 124.828 86.4613 126.4 88.9497C127.942 91.3796 128.684 94.1901 128.582 97.0884C128.481 99.9721 127.535 102.739 125.861 105.081L125.41 105.71L125.384 105.747C119.833 113.508 114.098 121.527 101.604 126.818ZM111.397 88.0275C105.998 91.9651 100.687 99.2402 97.1948 107.481C93.9208 115.21 92.9313 122.222 94.692 125.354C95.8707 127.447 98.1261 127.799 101.429 126.394C113.827 121.139 119.531 113.161 125.046 105.432L125.497 104.803C127.127 102.534 128.044 99.855 128.146 97.0591C128.248 94.2487 127.52 91.526 126.036 89.1839C124.537 86.8126 122.689 85.3927 120.565 84.9828C120.128 84.895 119.677 84.8511 119.226 84.8511C116.912 84.8511 114.293 85.9197 111.397 88.0275Z" fill="#848484"/>
<path fill-rule="evenodd" clip-rule="evenodd" d="M105.372 117.199C104.447 117.587 103.686 117.751 103.075 117.751C101.911 117.751 101.27 117.17 100.912 116.559C99.8821 114.74 100.509 110.895 102.538 106.529C104.656 101.998 107.834 97.8846 111.057 95.5596C113.19 94.0246 115.1 93.3986 116.756 93.7116C118.113 93.965 119.292 94.8443 120.232 96.3346C122.097 99.2855 121.978 103.041 119.904 105.918C116.607 110.493 113.011 113.98 105.372 117.199ZM111.325 95.9322C108.177 98.2124 105.044 102.251 102.955 106.722C101.016 110.895 100.374 114.666 101.314 116.35C101.941 117.468 103.254 117.617 105.208 116.797C112.757 113.623 116.293 110.18 119.546 105.664C121.515 102.937 121.634 99.3749 119.859 96.588C118.979 95.2168 117.919 94.3972 116.681 94.1587C116.428 94.114 116.174 94.0842 115.905 94.0842C114.548 94.0842 113.026 94.7101 111.325 95.9322Z" fill="#848484"/>
<path opacity="0.2" d="M109.036 109.239C109.204 109.239 109.411 109.195 109.657 109.076C111.571 108.162 112.463 107.159 113.29 105.846C113.834 104.99 113.872 103.854 113.381 102.984C113.122 102.527 112.812 102.261 112.437 102.173C111.997 102.069 111.48 102.261 110.924 102.718C109.23 104.12 107.782 107.601 108.389 108.826C108.48 109.003 108.661 109.239 109.036 109.239Z" fill="#848484" stroke="#575757" stroke-width="5"/>
<path d="M252.956 191.823C248.747 191.633 244.656 191.092 241.036 190.215C236.268 189.061 232.266 187.323 229.146 185.072C225.32 182.311 222.804 178.746 221.641 174.45C220.023 168.416 217.462 162.717 214.239 157.954C210.458 152.358 205.822 148.048 200.436 145.126C190.533 139.734 178.481 139.223 164.634 143.606C147.858 148.91 134.805 154.477 125.27 158.553C113.1 163.74 106.39 166.604 104.859 163.463C104.727 163.185 104.712 162.893 104.83 162.571C105.698 160.19 112.894 156.946 121.238 153.206C127.447 150.415 134.496 147.244 140.044 143.884C146.46 139.997 149.83 136.476 150.345 133.13C151.066 128.425 152.979 125.123 155.863 123.589C159.145 121.85 163.633 122.303 169.225 124.933C179.496 129.755 204.571 135.512 219.802 135.512C225.055 135.512 229.146 134.825 231.044 133.174C232.192 132.18 232.516 130.88 232.001 129.302C230.309 124.086 232.266 118.694 236.548 116.78C241.919 114.384 247.85 117.861 252.956 123.428V122.698C250.955 120.564 248.924 118.899 246.878 117.701C243.126 115.494 239.388 115.027 236.372 116.386C231.883 118.387 229.823 123.998 231.589 129.433C232.045 130.836 231.766 131.961 230.765 132.838C227.601 135.585 217.374 135.818 202.688 133.466C190.003 131.435 176.332 127.768 169.431 124.524C163.706 121.836 159.086 121.397 155.686 123.194C152.67 124.787 150.683 128.206 149.933 133.057C148.814 140.319 133.437 147.244 121.076 152.796C112.305 156.741 105.374 159.854 104.447 162.411C104.285 162.849 104.3 163.258 104.491 163.638C105.315 165.333 107.331 165.625 111.054 164.588C114.483 163.623 119.339 161.563 125.476 158.948C134.997 154.886 148.049 149.319 164.795 144.015C178.525 139.676 190.459 140.173 200.26 145.491C205.572 148.384 210.163 152.65 213.901 158.173C217.094 162.907 219.64 168.562 221.244 174.538C222.421 178.921 224.996 182.574 228.911 185.394C232.075 187.673 236.136 189.427 240.963 190.61C244.627 191.501 248.762 192.057 253 192.232V191.823H252.956Z" fill="#848484"/>
<path d="M252.985 182.991C246.088 184.574 240.649 184.327 236.464 182.25C230.289 179.171 227.577 172.46 225.572 165.661C223.45 158.485 217.363 153.183 212.47 148.927C209.183 146.066 206.59 143.814 206.472 142.013C206.442 141.504 206.619 141.054 207.002 140.633C208.343 139.151 212.617 140.081 218.041 141.258C222.389 142.202 227.813 143.378 233.457 143.698C236.066 143.843 237.776 143.407 238.704 142.361C240.03 140.851 239.529 138.323 238.999 135.65C238.247 131.917 237.481 128.068 241.062 125.947C242.256 125.235 243.582 125.104 244.997 125.511C247.385 126.223 250.111 128.576 253 132.368V131.627C250.642 128.605 247.886 125.918 245.13 125.104C243.597 124.64 242.153 124.799 240.841 125.569C236.994 127.85 237.834 132.033 238.571 135.738C239.087 138.309 239.574 140.735 238.38 142.085C237.554 143.015 235.948 143.407 233.487 143.262C227.871 142.943 222.477 141.766 218.144 140.822C212.382 139.572 208.211 138.657 206.693 140.328C206.236 140.836 206.015 141.403 206.059 142.027C206.177 144.003 208.83 146.313 212.205 149.232C217.054 153.445 223.096 158.703 225.174 165.763C227.208 172.648 229.95 179.461 236.287 182.613C238.719 183.819 241.563 184.429 244.85 184.429C247.311 184.429 250.023 184.095 253 183.412V182.991H252.985Z" fill="#848484"/>
<path d="M253 171.734C249.546 172.626 245.331 173.138 241.906 171.836C239.388 170.885 237.559 169.042 236.476 166.379C234.983 162.693 232.363 159.269 230.255 156.519C228.177 153.813 226.391 151.472 226.947 150.418C227.299 149.76 228.572 149.511 230.841 149.643L231.602 149.687C238.393 150.097 241.818 150.301 243.501 148.765C244.321 148.019 244.716 146.849 244.76 144.991C244.833 142.431 246.194 140.295 248.155 139.666C249.619 139.198 251.273 139.563 253 140.675V140.134C250.775 138.788 249.048 138.92 248.024 139.256C245.887 139.944 244.394 142.241 244.321 144.991C244.277 146.717 243.926 147.785 243.208 148.444C241.657 149.863 238.1 149.643 231.631 149.248L230.87 149.204C228.367 149.058 227.006 149.38 226.552 150.214C225.864 151.516 227.548 153.725 229.889 156.797C231.982 159.533 234.588 162.927 236.051 166.555C237.178 169.334 239.096 171.251 241.73 172.26C243.282 172.846 244.979 173.08 246.677 173.08C248.916 173.08 251.141 172.685 252.985 172.216V171.734H253Z" fill="#848484"/>
<path d="M253 163.426C249.471 163.513 244.472 163.081 243.531 160.06C242.958 158.218 243.355 156.434 244.619 155.038C246.325 153.153 249.339 152.175 253 152.232V151.801C249.207 151.757 246.075 152.779 244.296 154.75C242.913 156.275 242.487 158.203 243.105 160.189C243.781 162.347 246.281 163.57 250.53 163.815C251.089 163.844 251.647 163.858 252.177 163.858C252.456 163.858 252.721 163.858 252.985 163.844V163.426H253Z" fill="#848484"/>
<path d="M64.2348 109.745C69.8187 112.019 75.1515 114.204 78.756 114.204C79.7309 114.204 80.573 114.043 81.2673 113.691C82.2422 113.192 82.8627 112.297 83.1286 111.051C83.7638 108.117 80.6173 105.286 75.8458 101.003C71.1187 96.7642 64.6484 90.9704 58.9315 82.2871C55.0612 76.4053 51.3976 72.6211 48.0148 70.9343V71.4183C51.2795 73.1051 54.81 76.8014 58.5622 82.5218C64.3234 91.2638 70.8085 97.0722 75.5504 101.326C80.2037 105.506 83.2911 108.264 82.7002 110.948C82.4491 112.077 81.9172 112.84 81.0605 113.28C78.0026 114.879 71.3994 112.18 64.412 109.32C59.8031 107.442 55.0316 105.492 50.8954 104.611C49.8613 104.391 48.8863 104.245 48 104.171V104.611C48.8568 104.685 49.8022 104.817 50.8067 105.037C54.8987 105.932 59.6406 107.868 64.2348 109.745Z" fill="#848484"/>
<path d="M61.4796 102.145C62.9461 102.145 63.8767 101.778 64.2574 101.057C65.188 99.2467 62.3821 95.7966 55.896 90.7629C52.9632 88.5005 49.9176 86.4078 48 85.1211V85.616C54.4155 89.9003 65.3572 98.0024 63.8908 100.859C63.5806 101.467 62.7346 101.735 61.5501 101.735C58.434 101.735 52.9068 99.9537 48 98.059V98.5114C49.0575 98.9215 50.1714 99.3315 51.2994 99.7274C55.8819 101.339 59.2941 102.145 61.4796 102.145Z" fill="#848484"/>
<path fill-rule="evenodd" clip-rule="evenodd" d="M125.402 135.795C126.183 134.502 127.007 133.337 127.874 132.314C130.635 129.046 134.783 127.341 138.961 127.739C141.418 127.98 142.661 128.833 142.676 130.296C142.704 135.141 127.715 145.258 120.965 145.968C119.982 146.082 119.23 146.125 118.666 146.125C117.452 146.125 117.047 145.911 116.903 145.599C116.614 144.945 117.655 144.007 119.389 142.445C121.239 140.782 123.769 138.509 125.402 135.795ZM134.104 139.361C139.149 135.838 142.285 132.356 142.271 130.31C142.256 129.103 141.143 128.392 138.961 128.179C138.57 128.136 138.18 128.122 137.79 128.122C134.147 128.122 130.649 129.742 128.235 132.584C127.383 133.578 126.573 134.743 125.807 136.008C124.16 138.754 121.618 141.039 119.757 142.712L119.707 142.757C119.685 142.777 119.663 142.797 119.642 142.816C118.419 143.92 117.166 145.051 117.337 145.414C117.438 145.641 118.146 145.84 120.95 145.542C124.044 145.215 129.204 142.786 134.104 139.361Z" fill="#848484"/>
<path d="M63.1079 58.2007C66.407 64.2142 69.9407 70.402 73.3865 74.9194C77.1841 79.8725 80.4832 82.2837 83.4891 82.2837C83.5184 82.2837 83.5477 82.2837 83.5771 82.2837C86.5683 82.2402 89.2076 79.858 91.6416 75.0356C96.7589 64.9114 102.815 58.7236 109.164 57.1694C113.504 56.109 117.961 57.1549 122.404 60.3069C125.82 62.7326 128.254 63.5315 129.809 62.7617C132.111 61.6287 132.243 57.4018 132.389 52.5213C132.551 47.1614 132.726 41.0753 135.967 38.2864C137.477 36.9937 139.501 36.5143 142.155 36.8048C149.105 37.5892 155.718 36.5434 161.275 33.8126C166.553 31.2126 170.644 27.2472 173.093 22.3376C175.424 17.6749 176.099 12.4168 175.072 7.15859C174.647 4.96526 173.929 2.81551 172.946 0.709335H172.448C175.879 7.88486 176.069 15.438 172.712 22.1488C170.307 26.9712 166.289 30.864 161.099 33.4204C155.615 36.1222 149.075 37.1389 142.213 36.3691C139.471 36.064 137.272 36.587 135.688 37.9523C132.301 40.8574 132.125 47.0452 131.949 52.4922C131.817 57.0387 131.685 61.3382 129.618 62.3549C128.21 63.0522 125.938 62.2533 122.653 59.9292C118.093 56.7046 113.518 55.6297 109.046 56.7191C102.565 58.3169 96.4069 64.5773 91.2457 74.8177C88.885 79.4803 86.3776 81.7753 83.5771 81.8189C83.5477 81.8189 83.5184 81.8189 83.4891 81.8189C77.1108 81.8189 70.1167 70.0389 63.4891 57.9538C59.4276 50.5458 54.4862 45.462 48.7824 42.7602V43.2396C54.3396 45.9703 59.149 50.9671 63.1079 58.2007Z" fill="#848484"/>
<path d="M68.4909 39.7232C71.0128 39.7232 73.2285 39.3582 75.0507 38.6135C79.2052 36.9198 81.2752 33.4594 81.2023 28.2906C81.1294 23.2241 82.4851 19.457 85.3423 16.785C92.3831 10.1562 107.543 11.2951 123.608 12.5215C125.969 12.6967 128.418 12.8866 130.823 13.0472C133.17 13.2078 135.328 13.2808 137.31 13.2808C146.363 13.2808 151.494 11.6601 152.616 8.43326C153.404 6.1555 152.092 3.39592 149.993 0.709335H149.424C151.581 3.38132 152.952 6.1117 152.208 8.30185C150.925 12.0105 143.753 13.4706 130.867 12.6237C128.462 12.4631 126.013 12.2733 123.651 12.0981C107.5 10.8716 92.2373 9.71815 85.0507 16.4784C82.1061 19.2526 80.7067 23.1219 80.7796 28.3198C80.8525 33.2841 78.8699 36.6278 74.9049 38.2339C69.8029 40.3072 61.5084 39.3582 52.1206 35.6349C50.9982 35.1969 49.8903 34.715 48.7824 34.2186V34.7004C49.832 35.1823 50.8961 35.6349 51.9603 36.0437C58.0973 38.4675 63.8116 39.7232 68.4909 39.7232Z" fill="#848484"/>
<path d="M60.164 25.5075C65.4103 25.1903 69.8551 22.4654 73.3963 17.4048L73.9792 16.5686C78.2783 10.4268 80.4351 7.3414 83.6266 6.05824C86.8181 4.77508 91.1463 5.23644 99.7735 6.17358C100.823 6.28892 101.945 6.40426 103.125 6.53402C113.341 7.62975 120.744 7.99019 125.757 7.64417C130.581 7.31256 133.321 6.34659 134.37 4.60207C135.011 3.53517 134.982 2.23759 134.457 0.709335H134.006C134.53 2.17992 134.589 3.40541 133.991 4.38581C133.029 5.98615 130.333 6.90887 125.728 7.22606C120.744 7.55766 113.37 7.19722 103.169 6.10149C101.989 5.97173 100.867 5.85639 99.8173 5.74105C91.1171 4.7895 86.7598 4.31372 83.4517 5.65455C80.1436 6.99538 77.9577 10.1096 73.6149 16.3235L73.032 17.1597C69.5636 22.105 65.2354 24.7722 60.1348 25.075C57.5117 25.2336 53.7081 24.7866 48.7824 22.5086V22.9844C53.1106 24.9596 56.579 25.5363 59.1585 25.5363C59.5082 25.5363 59.8434 25.5219 60.164 25.5075Z" fill="#848484"/>
<path d="M65.8989 15.9296C68.0498 14.9249 69.5238 13.2154 70.2608 10.8462C71.3588 7.39724 71.5995 3.91833 71.419 0.709335H70.9677C71.1482 3.87334 70.9076 7.30726 69.8246 10.7112C69.1177 12.9605 67.7189 14.58 65.6883 15.5247C60.8601 17.789 53.3396 15.9296 48 14.1001V14.58C51.5948 15.8096 56.1372 17.0242 60.2284 17.0242C62.289 17.0092 64.2444 16.7093 65.8989 15.9296Z" fill="#848484"/>
<path d="M155.852 11.3994C152.951 17.0631 140.182 16.2954 140.036 16.2809C132.878 16.2809 126.231 15.7739 120.371 15.3104C111.654 14.6296 104.118 14.0502 98.5494 15.4842C95.6048 16.2374 93.3162 17.5266 91.5669 19.4097C89.6719 21.4376 88.3891 24.1753 87.6311 27.7531C85.1093 39.7179 78.5059 41.1519 73.1852 42.2962C69.9783 42.9915 67.2086 43.5854 66.2903 46.4245C65.4594 49.0173 66.4215 54.1741 68.7684 59.5625C71.2756 65.3421 74.6867 69.818 77.8936 71.5273C78.9286 72.0777 79.9636 72.3529 80.9402 72.3529C82.8061 72.3529 84.5699 71.3679 86.1151 69.4414C88.462 66.5154 90.3716 63.3287 92.2229 60.2433C95.6777 54.4783 98.6514 49.5098 103.272 48.3945C106.115 47.7137 109.424 48.5538 113.36 51.0018C118.578 54.232 122.193 55.246 124.424 54.1016C127.193 52.6821 127.47 48.2931 127.762 43.6289C128.155 37.3713 128.564 30.8964 135.036 31.1861C136.523 31.2441 137.951 31.2875 139.336 31.2875C153.33 31.2875 162.412 27.9994 166.333 21.4811C169.423 16.3678 168.636 10.1971 167.441 5.93848C166.872 3.89607 166.158 2.09991 165.531 0.709335H165.05C165.691 2.09991 166.435 3.9685 167.018 6.06884C169.132 13.6446 167.601 18.5116 165.954 21.2638C161.727 28.2746 151.318 31.4758 135.05 30.766C131.945 30.6357 129.876 31.9393 128.724 34.7639C127.718 37.2119 127.514 40.4711 127.325 43.6289C127.048 48.1627 126.771 52.4358 124.22 53.7395C122.135 54.8114 118.666 53.7974 113.578 50.6542C109.526 48.1482 106.115 47.2791 103.156 48.0034C98.3599 49.1622 95.3278 54.203 91.8293 60.055C89.9926 63.1259 88.083 66.2981 85.7507 69.1952C83.4767 72.0198 80.8965 72.6716 78.0686 71.1652C74.9491 69.4994 71.5963 65.1104 69.1328 59.4177C66.8733 54.203 65.8821 49.0463 66.6693 46.5838C67.5147 43.9765 70.0366 43.4261 73.2435 42.7453C75.9257 42.1659 78.9578 41.514 81.6691 39.4571C84.8032 37.0816 86.8877 33.2865 88.0247 27.8545C89.4387 21.1189 92.704 17.4397 98.6223 15.9188C101.1 15.2814 104.001 15.0496 107.223 15.0496C111.129 15.0496 115.546 15.3973 120.298 15.7594C126.173 16.2085 132.82 16.7299 139.977 16.7299C139.977 16.7299 139.977 16.7299 139.992 16.7299C140.021 16.7299 143.316 16.9472 146.916 16.4257C151.814 15.7304 154.934 14.1081 156.216 11.6167C157.601 8.90794 156.712 5.25768 153.563 0.72382H153.039C156.246 5.21422 157.178 8.79206 155.852 11.3994Z" fill="#848484"/>
<path d="M156.797 16.9359C154.403 19.9544 147.165 21.206 135.884 20.5581C127.318 20.0722 119.379 18.6439 119.306 18.6292C119.262 18.6145 114.417 17.7457 108.96 18.8206C105.734 19.4391 102.932 20.6023 100.612 22.2809C97.708 24.3718 95.5628 27.2578 94.2493 30.8506C91.7101 37.8154 88.8644 42.5714 85.5371 45.3986C82.6476 47.8576 79.831 48.5055 77.2042 48.9619C73.3661 49.6245 72.0673 52.0983 71.6587 54.0566C70.8415 57.885 72.8116 63.0534 75.8762 65.1295C76.708 65.6891 77.5545 65.9688 78.3717 65.9688C79.1306 65.9688 79.8748 65.7333 80.5753 65.2473C83.4502 63.2742 86.3981 59.4753 89.5211 55.4702C95.4606 47.8281 101.604 39.9357 107.777 43.8966C108.682 44.4709 109.558 45.0452 110.39 45.6047C114.914 48.5938 118.504 50.9645 120.766 49.8454C122.108 49.1828 122.867 47.4306 123.144 44.3089C123.713 37.8596 124.764 33.0004 128.048 30.2616C130.383 28.3033 133.71 27.5818 138.234 28.0235C150.901 29.2751 159.249 27.0075 163.057 21.3091C166.107 16.7444 165.582 10.8104 164.604 6.62863C164.05 4.25797 163.291 2.16707 162.693 0.709335H162.226C162.824 2.15235 163.612 4.28742 164.181 6.7317C165.13 10.8251 165.64 16.6266 162.693 21.0588C158.986 26.6099 150.77 28.8039 138.278 27.5818C133.637 27.1253 130.208 27.891 127.77 29.923C124.385 32.7648 123.29 37.7123 122.707 44.2795C122.444 47.195 121.758 48.8883 120.576 49.4625C118.533 50.4638 115.045 48.1668 110.638 45.2513C109.791 44.6918 108.916 44.1175 108.011 43.5433C105.078 41.6585 101.911 42.1297 98.3355 44.9863C95.2125 47.46 92.1479 51.4062 89.1854 55.2199C86.0916 59.2103 83.1583 62.965 80.3418 64.9087C78.6927 66.0425 77.1458 65.4682 76.1243 64.7762C73.191 62.7883 71.3085 57.8261 72.0819 54.1597C72.4759 52.3338 73.6872 50.0221 77.2772 49.4037C79.9624 48.9325 82.8373 48.2699 85.8143 45.7372C89.2 42.8512 92.0895 38.0362 94.658 30.9979C95.9422 27.4787 98.029 24.6663 100.846 22.6343C103.108 20.9999 105.866 19.8661 109.018 19.2476C111.061 18.8501 113.017 18.7175 114.666 18.7175C117.351 18.7175 119.19 19.0562 119.219 19.0562C119.292 19.0709 127.26 20.4992 135.855 20.9851C147.442 21.6477 154.608 20.3814 157.132 17.2009C159.628 14.0646 160.212 9.85332 158.811 4.97948C158.329 3.31559 157.702 1.84313 157.147 0.709335H156.651C157.22 1.82841 157.891 3.35977 158.387 5.09727C159.336 8.41031 159.832 13.1222 156.797 16.9359Z" fill="#848484"/>
<path fill-rule="evenodd" clip-rule="evenodd" d="M110.54 22.6985C112.103 21.942 113.842 21.7819 115.449 22.262C117.012 22.7276 118.195 23.7023 118.955 25.1572C121.234 29.5362 119.218 37.2323 117.816 41.4223C117.45 42.5279 116.998 43.1099 116.399 43.2408C116.311 43.2554 116.223 43.2699 116.136 43.2699C115.162 43.2699 114.045 42.1337 112.653 40.7193L112.629 40.6948C111.3 39.3418 109.795 37.8143 107.984 36.7377C104.96 34.9337 103.469 32.9114 103.557 30.7001C103.718 26.8448 108.787 23.5568 110.54 22.6985ZM116.311 42.8189C116.735 42.7171 117.1 42.2224 117.407 41.2913C120.621 31.6603 119.51 27.1794 118.561 25.3754C117.859 24.0369 116.764 23.1349 115.317 22.6985C114.748 22.5239 114.163 22.4366 113.564 22.4366C112.6 22.4366 111.636 22.6548 110.73 23.0913C109.036 23.9205 104.141 27.0775 103.995 30.7146C103.908 32.7514 105.339 34.6573 108.217 36.3594C110.055 37.4404 111.635 39.0496 112.915 40.3526L112.951 40.3893L112.967 40.4062C114.334 41.7957 115.511 42.9928 116.311 42.8189Z" fill="#848484"/>
<path fill-rule="evenodd" clip-rule="evenodd" d="M111.769 30.0361C112.219 29.7796 112.721 29.7193 113.184 29.8852C113.647 30.0512 113.994 30.3831 114.213 30.8961C114.856 32.3445 114.303 34.8339 113.917 36.1918C113.853 36.4483 113.724 36.7953 113.441 36.8707C113.402 36.8858 113.377 36.8858 113.338 36.8858C113.02 36.8858 112.714 36.5158 112.308 36.0249L112.296 36.0107C111.949 35.5883 111.55 35.1055 111.075 34.7736C110.213 34.1701 109.788 33.476 109.814 32.7066C109.862 31.2646 111.525 30.1935 111.745 30.0519C111.76 30.0424 111.768 30.037 111.769 30.0361ZM113.364 36.4181C113.402 36.4181 113.48 36.2974 113.557 36.0409C113.84 34.9999 114.47 32.435 113.891 31.0922C113.711 30.6999 113.454 30.4435 113.094 30.3228C112.952 30.2775 112.798 30.2473 112.657 30.2473C112.412 30.2473 112.181 30.3077 111.949 30.4435C111.602 30.6547 110.251 31.6354 110.213 32.7368C110.187 33.3101 110.547 33.8683 111.28 34.3813C111.795 34.7434 112.232 35.2715 112.579 35.6939C112.597 35.7144 112.615 35.7353 112.633 35.7564C112.906 36.078 113.231 36.4606 113.364 36.4181Z" fill="#848484"/>
<path d="M253 34.1329C244.902 28.4518 235.148 23.7223 227.416 26.3754C221.822 28.2932 217.941 33.8878 215.905 43.0007C214.968 47.2111 212.625 49.8643 208.949 50.888C202.066 52.8202 191.053 48.3791 183.365 40.5495C177.199 34.2916 174.724 27.4136 176.57 21.6892C178.283 16.383 178.766 10.6153 178.019 4.57367C177.858 3.29037 177.639 2.00706 177.375 0.709335H176.921C177.199 2.0359 177.419 3.33362 177.58 4.63135C178.327 10.6153 177.844 16.3253 176.16 21.5739C174.256 27.4569 176.775 34.479 183.057 40.8667C186.718 44.5868 191.317 47.7158 196.018 49.6768C199.357 51.0755 202.578 51.782 205.42 51.782C206.738 51.782 207.968 51.6234 209.081 51.3206C212.859 50.268 215.378 47.4274 216.344 43.1017C218.351 34.1474 222.114 28.6681 227.562 26.7936C235.207 24.1693 244.945 28.9853 253 34.6809V34.1329Z" fill="#848484"/>
<path d="M253 23.0501C247.047 17.9872 237.708 13.5045 230.12 15.0278C225.407 15.9707 221.817 19.0897 219.468 24.2687C216.214 31.4352 212.085 36.4546 207.182 39.2109C201.929 42.1558 197.259 41.6626 194.268 40.7342C190.649 39.6026 187.527 37.2235 185.469 34.0319C183.339 30.7388 182.551 26.851 183.266 23.0936C184.74 15.2889 185.309 7.77425 184.944 0.709335H184.506C184.856 7.73073 184.302 15.2308 182.843 23.0066C182.113 26.88 182.916 30.8694 185.104 34.2495C187.22 37.5281 190.43 39.9653 194.151 41.1259C195.713 41.6191 197.318 41.8512 198.923 41.8512C201.797 41.8512 204.701 41.0823 207.401 39.5736C212.391 36.7738 216.579 31.6818 219.877 24.4283C222.168 19.3799 225.64 16.3624 230.208 15.4339C233.914 14.6941 238.364 15.3614 243.078 17.3924C246.609 18.9156 250.169 21.1497 253 23.6159V23.0501Z" fill="#848484"/>
<path d="M157.378 199.761C157.006 199.419 156.534 199.282 155.989 199.337C154.142 199.528 151.622 202.06 149.718 204.291H150.276C152.095 202.183 154.414 199.925 156.032 199.747C156.448 199.706 156.791 199.802 157.078 200.062C158.066 200.952 159.168 202.58 160.171 204.291H160.672C159.626 202.484 158.438 200.733 157.378 199.761Z" fill="#848484"/>
<path d="M253 14.6897C251.796 14.793 250.459 14.793 249.035 14.6602C244.027 14.1883 237.977 12.2417 232.426 9.29223C225.993 5.87087 220.618 10.9734 214.407 16.8723C209.678 21.3702 204.318 26.458 197.68 28.3014C195.345 28.9503 193.538 28.6111 192.29 27.3281C188.046 22.9187 190.88 8.48113 192.819 0.709335H192.364C191.776 3.08364 191.101 6.04784 190.572 9.14476C188.942 18.7747 189.412 24.9981 191.967 27.6526C192.892 28.6111 194.082 29.083 195.521 29.083C196.226 29.083 196.975 28.9651 197.797 28.7439C204.523 26.8857 209.942 21.7537 214.7 17.2115C220.795 11.4306 226.052 6.43127 232.205 9.70516C237.874 12.7283 243.836 14.6455 248.976 15.1174C250.415 15.2501 251.766 15.2649 252.985 15.1616V14.6897H253Z" fill="#848484"/>
<path d="M198.987 19.8181C199.223 19.8471 199.444 19.8616 199.68 19.8616C203.603 19.8616 207.983 15.6281 210.328 12.9894C213.44 9.5098 216.464 4.98633 218.573 0.709335H218.086C216.006 4.88484 213.042 9.29233 210.004 12.6994C205.815 17.3969 201.922 19.7746 199.046 19.3831C197.851 19.2237 197.07 18.6872 196.657 17.7738C195.108 14.2942 199.297 6.20419 202.585 0.723834H202.069C201.42 1.8257 200.727 3.01456 200.063 4.24692C196.45 10.9306 195.167 15.5411 196.258 17.9478C196.716 19.0062 197.645 19.6441 198.987 19.8181Z" fill="#848484"/>
<path d="M204.261 10.6251C204.352 10.6401 204.458 10.6401 204.564 10.6401C205.475 10.6401 206.917 10.0985 208.921 7.82641C210.409 6.15623 211.835 3.88418 212.67 1.89802C212.807 1.56699 212.959 1.16074 213.095 0.724382H212.625C212.519 1.04036 212.397 1.37139 212.261 1.71746C210.545 5.81015 206.629 10.4897 204.337 10.1586C203.912 10.0985 203.638 9.91789 203.487 9.58687C202.712 7.84145 205.855 2.68045 207.206 0.709335H206.659C205.688 2.16886 202.151 7.66089 203.077 9.76742C203.274 10.2489 203.669 10.5348 204.261 10.6251Z" fill="#848484"/>
<path d="M252.986 8.92077C251.053 10.0176 248.809 10.4178 246.298 10.0769C243.49 9.70634 240.343 8.46128 236.928 6.37137C233.951 4.54825 231.284 2.38423 229.393 0.709335H228.744C230.677 2.44352 233.514 4.80023 236.717 6.75675C240.188 8.8763 243.391 10.151 246.255 10.5216C246.848 10.5957 247.426 10.6401 248.005 10.6401C249.839 10.6401 251.504 10.2399 253 9.42472V8.92077H252.986Z" fill="#848484"/>
<path fill-rule="evenodd" clip-rule="evenodd" d="M158.637 131.08C161.439 129.429 166.295 129.385 173.073 130.962C177.755 132.059 181.779 133.584 182.357 133.803C182.376 133.81 182.392 133.816 182.403 133.821C186.76 134.631 187.303 135.353 187.274 135.884C187.244 136.606 186.071 137.593 177.21 138.919C171.709 139.744 165.151 140.422 160.369 140.909L159.18 141.027C158.315 141.115 157.537 141.159 156.833 141.159C154.148 141.159 152.579 140.511 152.168 139.243C151.42 136.959 154.867 133.305 158.637 131.08ZM177.122 138.492C185.821 137.18 186.79 136.223 186.804 135.869C186.819 135.692 186.511 135.044 182.271 134.248L182.227 134.233C182.225 134.232 182.212 134.227 182.189 134.218C181.751 134.051 177.691 132.494 172.956 131.389C170.388 130.785 167.322 130.254 164.535 130.254C162.349 130.254 160.325 130.593 158.843 131.463C156.98 132.568 155.234 133.997 154.046 135.397C152.799 136.886 152.271 138.197 152.564 139.111C153.019 140.467 155.278 140.982 159.107 140.584L160.31 140.481C160.663 140.444 161.026 140.406 161.398 140.368C166.054 139.881 172.041 139.256 177.122 138.492Z" fill="#848484"/>
<path fill-rule="evenodd" clip-rule="evenodd" d="M162.243 38.498C162.121 37.3907 163.779 36.0895 167.154 34.6084C169.374 33.6395 172.004 33.944 173.859 35.3974C175.319 36.5463 176.9 38.1797 176.11 39.5362C175.501 40.5882 173.57 41.1419 171.001 41.1419C169.283 41.1419 167.276 40.8927 165.177 40.3806C163.277 39.9238 162.319 39.3009 162.243 38.498ZM165.284 39.9791C170.134 41.1696 174.802 40.8789 175.699 39.3424C176.216 38.4704 175.471 37.2107 173.555 35.7158C172.491 34.8991 171.168 34.47 169.83 34.47C168.979 34.47 168.127 34.6361 167.336 34.9822C164.25 36.3387 162.593 37.5706 162.684 38.4565C162.745 39.0517 163.642 39.5777 165.284 39.9791Z" fill="#848484"/>
<path d="M208.632 199.796C200.959 198.839 196.452 192.431 190.767 184.312C189.177 182.05 187.527 179.701 185.672 177.265C181.018 171.162 175.804 167.493 170.193 166.363C163.816 165.087 156.806 167.058 149.369 172.22C141.195 177.889 129.369 187.008 119.222 195.476C116.379 197.853 112.668 201.014 109.031 204.291H109.679C112.565 201.71 115.849 198.868 119.502 195.809C129.634 187.356 141.445 178.237 149.604 172.582C163.463 162.97 175.48 164.637 185.303 177.541C187.144 179.962 188.794 182.311 190.384 184.573C196.143 192.779 200.694 199.245 208.558 200.231C214.14 200.927 217.335 202.29 218.101 204.291H218.573C217.851 202.043 214.508 200.536 208.632 199.796Z" fill="#848484"/>
<path d="M167.038 183.102C164.271 181.907 161.43 182.051 158.59 183.519C151.547 187.147 145.163 191.436 139.614 196.287C136.202 199.267 133.625 202.002 131.721 204.291H132.307C136.641 199.152 145.016 190.99 158.78 183.894C161.504 182.497 164.212 182.354 166.848 183.491C172.163 185.779 176.322 192.833 178.869 198.36C179.85 200.462 180.67 202.52 181.329 204.291H181.798C181.124 202.477 180.29 200.361 179.279 198.187C175.531 190.055 171.402 184.973 167.038 183.102Z" fill="#848484"/>
<path opacity="0.459984" d="M226.455 114.769C226.879 114.87 227.272 114.913 227.65 114.913C229.675 114.913 231.096 113.541 231.626 112.067C232.26 110.26 231.762 107.832 229.161 106.792C224.959 105.101 222.011 104.595 220.378 105.275C219.637 105.578 219.29 106.301 219.365 107.312C219.471 108.598 220.272 110.202 221.512 111.619C222.903 113.208 224.656 114.321 226.455 114.769Z" fill="#848484" stroke="#575757" stroke-width="5"/>
<path fill-rule="evenodd" clip-rule="evenodd" d="M97.597 153.115C97.0529 152.061 97.1461 150.539 98.6697 149.691C100.971 148.417 104.08 149.003 105.308 149.998C105.837 150.422 106.023 150.92 105.821 151.388C105.417 152.383 103.862 153.407 101.219 154.417C100.831 154.564 100.442 154.637 100.084 154.637C98.934 154.637 98.0323 153.934 97.597 153.115ZM101.048 154.007C103.536 153.056 105.044 152.09 105.401 151.227C105.557 150.861 105.277 150.539 104.997 150.334C104.344 149.808 103.054 149.412 101.686 149.412C100.737 149.412 99.758 149.603 98.9029 150.071C97.6281 150.773 97.5348 152.003 98.0167 152.91C98.4987 153.817 99.6491 154.549 101.048 154.007Z" fill="#848484"/>
<path fill-rule="evenodd" clip-rule="evenodd" d="M122.272 189.529C121.696 190.938 115.454 194.014 113.388 194.825C112.946 195.01 112.533 195.082 112.119 195.067C110.85 195.067 109.862 194.284 109.375 193.345C108.755 192.149 108.873 190.426 110.555 189.472C113.507 187.792 120.604 187.521 122.021 188.689C122.316 188.916 122.405 189.215 122.272 189.529ZM110.777 189.842C109.33 190.668 109.227 192.106 109.773 193.159C110.319 194.213 111.632 195.067 113.211 194.427C115.823 193.387 121.387 190.483 121.844 189.372C121.888 189.272 121.903 189.158 121.726 189.016C120.457 187.977 113.477 188.304 110.777 189.842Z" fill="#848484"/>
<path d="M60.4343 10.1587C62.9059 8.63196 62.0821 3.7766 61.2734 0.709335H60.8005C61.0141 1.47959 61.2124 2.37364 61.3802 3.30895C61.7769 5.68849 61.899 8.75576 60.175 9.82861C58.161 11.0665 54.0722 9.44348 48 5.00076V5.53719C52.6838 8.93456 56.2387 10.6401 58.6188 10.6401C59.3206 10.6264 59.9308 10.4751 60.4343 10.1587Z" fill="#848484"/>
<path fill-rule="evenodd" clip-rule="evenodd" d="M147.047 107.111C144.914 107.111 142.636 106.904 141.012 106.312C138.69 105.471 138.574 104.217 138.894 103.308C139.227 102.329 139.909 101.613 140.939 101.185C142.782 100.428 145.683 100.607 149.556 101.737C152.414 102.577 154.779 103.638 154.808 103.652C156.027 104.231 156.07 104.782 155.911 105.14C155.432 106.174 152.414 106.78 149.76 107C148.933 107.069 148.004 107.111 147.047 107.111ZM141.113 101.558C140.199 101.93 139.59 102.563 139.3 103.432C138.937 104.506 139.561 105.347 141.186 105.926C143.101 106.615 146.379 106.863 149.731 106.587C152.821 106.325 155.2 105.664 155.519 104.975C155.679 104.617 155.113 104.258 154.62 104.024C154.474 103.955 148.178 101.144 143.652 101.144C142.709 101.144 141.839 101.254 141.113 101.558Z" fill="#848484"/>
<path d="M226.732 190.523C218.991 189.14 218.068 183.97 216.895 177.417C215.576 170.101 213.948 160.999 202.103 153.741C196.166 150.111 190.478 147.836 184.702 146.784C179.542 145.848 174.411 145.906 169.046 146.972C159.077 148.959 149.665 154.259 140.547 159.372C132.015 164.167 123.19 169.136 113.69 171.584C108.589 172.909 103.722 173.399 98.8107 173.111C93.2986 172.78 87.8745 171.469 82.2452 169.093C72.4085 164.945 62.6304 163.505 53.1896 164.801C51.445 165.046 49.7152 165.377 48 165.809V166.256C49.7445 165.824 51.489 165.478 53.2629 165.233C62.6304 163.937 72.3205 165.377 82.0839 169.482C89.018 172.405 95.4389 173.615 101.493 173.615C116.109 173.615 128.585 166.601 140.767 159.76C150.266 154.417 159.224 149.377 169.134 147.404C174.44 146.338 179.513 146.28 184.614 147.217C190.346 148.253 195.99 150.515 201.869 154.115C207.073 157.298 213.553 161.258 216.47 177.489C217.071 180.873 217.599 183.797 218.991 186.144C220.531 188.751 222.979 190.278 226.658 190.94C237.551 192.899 244.03 195.995 247.035 200.69C247.754 201.799 248.281 203.009 248.633 204.291H249.088C248.721 202.922 248.179 201.655 247.402 200.46C244.323 195.664 237.756 192.496 226.732 190.523Z" fill="#848484"/>
<path d="M218.224 195.299C209.004 193.953 208.139 191.247 206.262 185.348C204.62 180.208 202.143 172.419 192.453 161.123C179.421 145.917 165.597 155.424 149.589 166.435C133.361 177.602 114.964 190.245 92.5058 181.139C83.9007 177.645 75.2224 175.927 66.6907 175.999C60.3432 176.056 54.0543 177.116 48 179.149V179.607C54.0543 177.559 60.3285 176.5 66.6907 176.443C75.1638 176.357 83.7835 178.089 92.3299 181.554C102.445 185.663 112.662 185.735 123.54 181.797C133.054 178.347 141.585 172.477 149.838 166.807C157.755 161.366 165.231 156.226 172.223 154.393C179.949 152.36 186.267 154.594 192.116 161.423C201.747 172.663 204.21 180.394 205.837 185.506C207.714 191.405 208.666 194.368 218.166 195.757C223.722 196.573 227.196 198.578 228.501 201.713C228.823 202.501 229.014 203.36 229.087 204.291H229.527C229.468 203.303 229.263 202.386 228.911 201.556C227.533 198.234 223.941 196.144 218.224 195.299Z" fill="#848484"/>
<path d="M171.971 175.721C167.904 173.055 162.447 173.141 155.761 176.024C150.451 178.301 144.35 182.337 137.62 187.988C130.745 193.783 124.6 200.125 120.767 204.291H121.352C125.185 200.125 131.183 193.955 137.898 188.305C144.599 182.669 150.655 178.662 155.922 176.399C162.462 173.588 167.772 173.473 171.707 176.067C180.851 182.078 185.708 192.226 189.994 201.177C190.507 202.229 190.989 203.267 191.487 204.276H191.969C191.443 203.21 190.916 202.114 190.389 200.99C186.103 191.995 181.217 181.79 171.971 175.721Z" fill="#848484"/>
<path d="M161.088 191.072C159.214 189.753 156.791 189.782 153.893 191.158C151.615 192.248 149.034 194.169 146.222 196.878C143.54 199.473 141.132 202.298 139.546 204.291H140.108C144.607 198.714 154.917 187.258 160.829 191.416C164.65 194.111 166.885 199.459 168.817 204.291H169.279C167.318 199.373 165.054 193.868 161.088 191.072Z" fill="#848484"/>
<path d="M88.5294 190.891C84.7785 189.96 80.8964 189 77.4082 187.856C68.7536 184.99 58.7271 187.404 51.8384 189.931C50.4811 190.426 49.1968 190.948 48 191.47V191.936C49.2405 191.4 50.5833 190.849 51.9989 190.327C58.8146 187.828 68.739 185.441 77.2623 188.265C80.7504 189.423 84.6472 190.383 88.4126 191.315C96.8775 193.405 104.875 195.381 105.43 198.968C105.664 200.478 104.584 202.243 102.161 204.291H102.803C105.094 202.243 106.101 200.464 105.868 198.897C105.255 195.028 97.5051 193.108 88.5294 190.891Z" fill="#848484"/>
<path d="M83.4587 196.84C80.5309 196.343 76.9673 196.372 73.6846 196.927C67.6073 197.95 55.7187 201.223 48 203.429V203.882C55.7187 201.676 67.6812 198.388 73.7733 197.351C77.0117 196.811 80.5161 196.767 83.3995 197.263C87.5694 197.979 89.0333 199.484 89.536 200.638C89.9944 201.676 89.8761 202.903 89.196 204.291H89.6987C90.3493 202.859 90.4233 201.573 89.9353 200.463C88.9446 198.213 85.8689 197.249 83.4587 196.84Z" fill="#848484"/>
<path d="M65.9584 116.375C72.5631 120.774 76.8737 127.083 80.6582 132.653C84.9542 138.962 88.6803 144.417 94.4959 145.299C95.0366 145.386 95.5918 145.415 96.1471 145.415C100.633 145.415 105.966 142.854 112.732 137.457C117.802 133.406 122.025 129.731 125.751 126.475C133.613 119.602 139.297 114.639 145.58 113.033C151.995 111.384 159.038 113.12 169.88 119.009C178.735 123.827 189.3 127.141 198.841 128.096C203.284 128.544 207.316 128.457 210.517 127.821C213.892 127.155 216.259 125.954 217.53 124.232C219.269 121.874 219.693 117.49 211.788 109.98C202.334 100.995 191.579 99.9095 180.196 98.7664C172.656 98.014 164.854 97.2182 156.978 94.0784C148.064 90.5334 140.334 84.3695 133.335 75.2684C128.162 68.5402 122.128 65.357 115.859 66.0659C111.592 66.5434 107.398 68.7717 103.395 72.6639C99.3764 76.5995 95.7526 82.0255 92.6548 88.7971C90.3461 93.8179 87.8036 96.3935 84.8373 96.6539C78.4225 97.2182 70.9996 86.5399 63.8396 76.2089C60.2596 71.0434 56.5627 65.7187 53.0412 61.8988C51.2147 59.8876 49.5489 58.4262 48 57.4567V57.9921C52.9243 61.2043 58.2724 68.9019 63.4889 76.4259C67.0835 81.6059 70.8096 86.974 74.3896 90.8807C78.218 95.0478 81.4911 97.088 84.3697 97.088C84.545 97.088 84.7204 97.0735 84.8957 97.059C88.0227 96.7841 90.6968 94.1363 93.0639 88.9563C96.1471 82.2281 99.7271 76.8455 103.716 72.9533C107.647 69.119 111.753 66.9341 115.917 66.4711C122.011 65.791 127.929 68.9164 132.999 75.5144C140.042 84.6878 147.845 90.8807 156.817 94.4546C164.751 97.6233 172.583 98.4047 180.152 99.1716C191.462 100.315 202.144 101.385 211.496 110.269C219.182 117.576 218.831 121.744 217.194 123.957C214.798 127.184 207.959 128.559 198.9 127.647C189.417 126.692 178.91 123.393 170.099 118.604C159.155 112.657 152.024 110.921 145.478 112.599C139.092 114.234 133.379 119.226 125.474 126.142C121.748 129.398 117.539 133.073 112.469 137.11C104.958 143.1 99.2741 145.56 94.569 144.851C88.9433 144.012 85.2757 138.629 81.0235 132.393C77.2097 126.793 72.8845 120.456 66.2068 115.999C60.6688 112.31 55.3938 110.458 50.4695 110.458C49.6366 110.458 48.8183 110.515 48 110.617V111.051C53.538 110.342 59.5582 112.107 65.9584 116.375Z" fill="#848484"/>
<path d="M56.2355 159.414C63.0324 159.515 70.6366 160.871 77.3454 162.051C86.9608 163.755 94.5357 165.096 95.4753 162.007C96.8845 157.374 92.3044 153.542 84.7001 147.204C79.2538 142.658 72.457 137.005 65.1903 128.875C59.7294 122.784 54.2831 120.016 49.0276 120.686C48.7046 120.73 48.367 120.788 48 120.861V121.313C48.3523 121.24 48.7193 121.167 49.0863 121.123C54.195 120.482 59.4945 123.192 64.8674 129.181C72.1633 137.34 78.9602 143.008 84.4212 147.568C91.8787 153.789 96.3854 157.549 95.0642 161.905C94.2421 164.615 86.447 163.231 77.4335 161.643C67.7006 159.909 56.2649 157.884 48 159.647V160.098C50.3488 159.588 53.0793 159.37 56.2355 159.414Z" fill="#848484"/>
<path d="M75.9117 157.474C79.7698 157.474 81.9362 156.781 82.3517 155.379C83.2717 152.326 75.6001 146.824 70.9259 143.815C64.3226 139.552 56.4581 135.54 52.229 134.256C50.8194 133.828 49.3948 133.533 48 133.356V133.799C49.3503 133.976 50.7303 134.271 52.0955 134.684C56.2949 135.953 64.1149 139.935 70.6736 144.184C78.3156 149.125 82.5149 153.255 81.9065 155.247C81.313 157.194 76.0304 157.548 67.0233 156.25C59.7375 155.217 52.1252 153.403 48.0148 152.252V152.71C52.1697 153.875 59.7375 155.66 66.9788 156.707C70.5846 157.223 73.5672 157.474 75.9117 157.474Z" fill="#848484"/>
<path d="M56.7474 148.962C58.5176 148.962 59.5059 148.622 59.6977 147.941C60.1107 146.579 57.1605 144.315 54.6085 142.657C52.4106 141.222 49.9029 139.86 48 139.031V139.52C49.8586 140.348 52.2631 141.666 54.3725 143.042C57.6473 145.173 59.5207 147.008 59.2699 147.822C58.8716 149.14 52.9564 148.4 48 147.29V147.734C49.4899 148.059 51.1568 148.385 52.7794 148.622C54.402 148.844 55.7149 148.962 56.7474 148.962Z" fill="#848484"/>
<path fill-rule="evenodd" clip-rule="evenodd" d="M97.8042 137.612C97.3816 137.612 96.9736 137.569 96.5801 137.467C93.0099 136.598 90.1683 134.075 88.3613 130.204C86.5397 126.261 85.9277 121.172 86.6126 115.475C87.2392 110.343 89.0608 105.254 91.917 100.76C102.074 84.7405 110.511 75.9551 116.996 74.6503C119.08 74.2299 120.989 74.5923 122.636 75.7376C128.811 80.0054 132.84 84.1599 136.392 87.824L136.523 87.9589L136.555 87.9917C142.048 93.6592 146.392 98.1411 155.904 100.731C161.923 102.369 164.765 103.877 164.575 105.356C164.429 106.501 162.389 107.414 158.498 108.081C154.724 108.719 149.274 109.111 142.746 109.198C137.82 109.27 132.705 111.169 127.095 115.04C122.198 118.432 117.564 122.854 113.47 126.768C107.422 132.553 102.132 137.612 97.8042 137.612ZM92.2958 100.992C89.4834 105.428 87.6764 110.459 87.0643 115.533C86.394 121.143 86.9915 126.16 88.7839 130.03C90.518 133.785 93.2576 136.221 96.6967 137.062C97.061 137.149 97.4399 137.192 97.8188 137.192C101.957 137.192 107.189 132.191 113.163 126.479L113.164 126.478C117.258 122.55 121.907 118.113 126.847 114.707C132.53 110.792 137.733 108.85 142.746 108.777C149.259 108.69 154.68 108.299 158.426 107.661C163.249 106.835 164.08 105.834 164.152 105.312C164.357 103.66 158.382 101.847 155.802 101.152C146.156 98.513 141.769 93.9898 136.232 88.2634L136.172 88.2015C132.616 84.5343 128.59 80.3817 122.402 76.1C121.266 75.3172 120.013 74.9258 118.643 74.9258C118.147 74.9258 117.623 74.9837 117.098 75.0852C110.745 76.361 102.395 85.0739 92.2958 100.992Z" fill="#848484"/>
<path fill-rule="evenodd" clip-rule="evenodd" d="M201.462 121.909C194.628 120.929 186.833 119.3 182.228 118.191C174.535 116.346 171.242 114.717 170.878 112.555C170.542 110.61 172.67 108.26 177.551 105.161C180.218 103.475 183.686 103.115 187.897 104.124C191.233 104.916 195.036 106.56 199.204 109.01C206.14 113.089 211.808 118.075 212.084 118.32C214.124 119.747 214.94 120.814 214.576 121.606C214.226 122.342 212.828 122.716 210.321 122.716C208.179 122.716 205.236 122.442 201.462 121.909ZM183.511 103.994C181.296 103.994 179.387 104.513 177.784 105.522C173.136 108.476 171.023 110.754 171.3 112.454C171.708 114.89 177.099 116.504 182.316 117.758C194.964 120.799 213.075 123.768 214.154 121.419C214.299 121.102 214.197 120.324 211.808 118.652L211.793 118.637C211.79 118.635 211.768 118.616 211.728 118.581C211.072 118.012 205.604 113.269 198.971 109.37C194.847 106.949 191.088 105.32 187.795 104.542C186.265 104.181 184.837 103.994 183.511 103.994Z" fill="#848484"/>
<path fill-rule="evenodd" clip-rule="evenodd" d="M195.552 116.02C193.033 115.633 190.147 114.993 188.449 114.561C186.001 113.936 184.345 113.296 184.161 112.224C184.02 111.39 184.798 110.453 186.68 109.187C188.491 107.952 191.236 108.458 194.802 110.691C197.335 112.269 199.415 114.204 199.571 114.352C200.137 114.769 200.745 115.32 200.533 115.811C200.42 116.079 200.094 116.332 198.849 116.332C198.113 116.332 197.066 116.243 195.552 116.02ZM188.958 108.994C188.208 108.994 187.515 109.173 186.921 109.574C185.279 110.676 184.487 111.554 184.572 112.15C184.713 113.028 186.652 113.638 188.534 114.114C194.859 115.737 199.868 116.243 200.137 115.633C200.137 115.633 200.222 115.409 199.316 114.725L199.302 114.71C199.299 114.708 199.289 114.698 199.272 114.682C198.803 114.251 193.078 108.994 188.958 108.994Z" fill="#848484"/>
<path d="M229.926 36.7251C226.37 38.0216 224.263 41.4013 221.322 46.092C219.903 48.3645 218.279 50.943 216.245 53.6817C209.632 62.5242 202.974 59.2756 191.942 53.9002C186.25 51.1178 179.154 47.6653 170.39 45.1597C157.645 41.5178 149.144 41.7072 144.404 45.7424C140.058 49.4425 138.683 56.2747 140.058 67.2441C141.258 76.7567 148.427 84.0841 161.362 89.0371C173.55 93.6987 187.977 95.0243 195.483 95.4177C208.534 96.0732 219.991 98.0835 229.56 101.361C237.198 103.983 243.65 107.421 248.728 111.588C250.396 112.957 251.815 114.312 253 115.623V114.982C251.873 113.787 250.571 112.535 249.049 111.282C243.928 107.072 237.432 103.605 229.736 100.968C220.123 97.6756 208.608 95.6653 195.512 94.9952C188.021 94.6165 173.652 93.2908 161.523 88.6438C148.749 83.7636 141.668 76.5527 140.497 67.2149C139.136 56.4058 140.468 49.7048 144.696 46.1066C149.32 42.1733 157.689 41.9985 170.273 45.6113C179.008 48.1169 186.075 51.5548 191.752 54.3227C197.356 57.0614 201.789 59.2174 205.74 59.5961C210.027 60.004 213.377 58.2705 216.596 53.973C218.645 51.2344 220.269 48.6413 221.703 46.3542C224.585 41.7363 226.678 38.4004 230.087 37.1621C233.686 35.851 238.559 36.9582 246.401 40.8623C248.786 42.0568 250.981 43.3679 253 44.7518V44.1982C251.039 42.858 248.903 41.6052 246.591 40.4544C238.617 36.492 233.642 35.3703 229.926 36.7251Z" fill="#848484"/>
<path d="M238.583 50.3684C234.982 50.4708 231.937 52.183 229.537 55.4609C227.356 58.4316 225.819 61.1389 224.443 63.5096C220.023 71.1923 218.003 74.7045 204.464 69.3924C200.512 67.8412 195.857 65.5876 190.925 63.2023C177.342 56.617 161.944 49.1538 153.791 52.7829C151.332 53.8659 149.649 55.9439 148.785 58.9292C147.614 62.9681 148.068 66.6266 150.161 69.8021C153.205 74.4118 159.616 78.0703 169.745 80.997C177.62 83.2799 187.763 85.1091 201.639 86.7774C215.266 88.4164 229.376 92.7773 241.349 99.0406C245.813 101.382 249.78 103.899 253 106.401V105.816C249.824 103.387 245.96 100.958 241.539 98.6454C229.522 92.3529 215.354 87.9774 201.668 86.3384C187.807 84.6701 177.693 82.8409 169.848 80.558C159.821 77.6605 153.498 74.0459 150.512 69.5387C148.492 66.4802 148.053 62.9535 149.18 59.0316C150.029 56.1341 151.581 54.2171 153.937 53.1781C161.914 49.6367 177.21 57.056 190.705 63.5974C195.638 65.9973 200.307 68.2509 204.274 69.8021C210.963 72.4216 215.076 73.0069 218.032 71.7338C220.887 70.5045 222.526 67.6656 224.78 63.7291C226.141 61.3584 227.678 58.6804 229.844 55.7244C232.157 52.5634 235.084 50.9098 238.553 50.8074C243.442 50.6757 248.755 53.661 252.985 56.8365V56.2804C246.34 51.3049 241.539 50.2806 238.583 50.3684Z" fill="#848484"/>
<path d="M237.804 61.0987C235.213 61.5311 233.299 63.5199 232.106 67.0076C228.543 77.3986 220.209 76.6924 214.687 76.2313C211.683 75.9718 209.504 75.7989 209.239 77.4851C208.9 79.6181 210.093 81.261 213.038 82.6302C215.659 83.8552 219.428 84.8064 223.787 85.8873C232.916 88.1644 244.607 91.09 252.985 98.5986V98.0077C244.563 90.6288 232.96 87.732 223.89 85.4693C215.232 83.3075 208.989 81.751 209.666 77.5427C209.858 76.3177 211.595 76.4042 214.643 76.6636C217.47 76.8942 220.974 77.1969 224.287 76.1015C228.204 74.8045 230.899 71.8788 232.518 67.1517C233.652 63.837 235.463 61.9346 237.878 61.5311C242.428 60.7528 248.421 65.2349 253 69.5297V68.9244C252.764 68.6938 252.514 68.4776 252.264 68.247C246.315 62.8858 241.456 60.479 237.804 61.0987Z" fill="#848484"/>
<path d="M243.866 72.173C241.578 71.3268 239.648 71.493 238.162 72.6867C236.944 73.6538 236.425 75.0289 236.603 76.7667C237.241 82.7809 246.257 91.6359 253 95.7612V95.2173C250.015 93.3586 246.688 90.6386 243.836 87.692C239.766 83.476 237.345 79.5774 237.034 76.6912C236.87 75.1347 237.331 73.8956 238.43 73.0192C242.425 69.8308 249.005 75.4218 253 79.5622V78.9125C252.079 77.9605 251.025 76.9632 249.911 76.0112C247.698 74.1374 245.663 72.8379 243.866 72.173Z" fill="#848484"/>
<path fill-rule="evenodd" clip-rule="evenodd" d="M202.396 77.225C202.447 77.2603 202.475 77.2799 202.479 77.283C204.219 78.5604 204.832 79.6081 204.306 80.3975C203.722 81.2443 201.836 81.5744 199.352 81.5744C195.947 81.5744 191.387 80.9572 187.382 80.1679C177.634 78.259 168.339 75.0153 162.523 71.499C155.975 67.5377 153.754 63.2464 156.107 59.0842C156.735 57.9647 157.787 57.247 159.22 56.9313C163.838 55.9266 172.534 59.0411 185.044 66.2173C193.836 71.2401 201.516 76.6095 202.396 77.225ZM198.519 81.1151C202.567 81.2156 203.649 80.541 203.926 80.1392C204.409 79.4502 203.269 78.3882 202.216 77.6275C201.836 77.3548 173.191 57.1753 161.076 57.1753C160.433 57.1753 159.848 57.2327 159.307 57.3475C158.007 57.6346 157.057 58.2804 156.487 59.2851C155.317 61.3518 155.332 63.4473 156.545 65.5284C157.641 67.4229 159.731 69.3031 162.742 71.1258C168.515 74.6135 177.751 77.8428 187.455 79.7373C191.621 80.5554 195.552 81.0434 198.519 81.1151Z" fill="#848484"/>
<path fill-rule="evenodd" clip-rule="evenodd" d="M188.012 72.911C188.117 72.9732 188.175 73.0077 188.182 73.0108C188.4 73.1633 189.084 73.6488 188.749 74.1065C188.56 74.3839 187.978 74.481 187.193 74.481C185.04 74.481 181.39 73.6765 180.459 73.4685C175.616 72.3589 171.121 70.7639 168.445 69.1966C165.755 67.6154 164.824 66.0759 165.667 64.6196C165.871 64.2728 166.22 64.037 166.685 63.9261C168.576 63.4684 172.78 64.8553 179.164 68.0593C183.364 70.1664 187.173 72.4159 188.012 72.911ZM180.561 73.0524C185.506 74.1758 188.153 74.2036 188.4 73.8568C188.429 73.843 188.385 73.6765 187.92 73.3436C187.513 73.094 172.649 64.2451 167.515 64.2451C167.238 64.2451 167.005 64.2728 166.787 64.3283C166.424 64.4115 166.191 64.5779 166.046 64.8137C165.333 66.0343 166.206 67.3796 168.664 68.8221C171.296 70.3755 175.747 71.9567 180.561 73.0524Z" fill="#848484"/>
<path fill-rule="evenodd" clip-rule="evenodd" d="M100.821 126.818C99.3663 127.433 98.1731 127.682 97.1982 127.682C95.2192 127.682 94.1424 126.657 93.5312 125.574C89.646 118.65 98.4205 96.3565 110.353 87.6616C113.918 85.0707 117.119 84.0167 119.855 84.5437C122.11 84.9828 124.046 86.4613 125.617 88.9497C127.16 91.3796 127.902 94.1901 127.8 97.0884C127.698 99.9721 126.752 102.739 125.079 105.081L124.628 105.71L124.601 105.747C119.051 113.508 113.316 121.527 100.821 126.818ZM110.615 88.0422C105.216 91.9798 99.9048 99.2548 96.4124 107.496C93.1383 115.21 92.1634 122.236 93.9095 125.369C95.0882 127.462 97.3437 127.813 100.647 126.408C113.045 121.153 118.749 113.175 124.264 105.447L124.715 104.817C126.345 102.548 127.262 99.8696 127.363 97.0738C127.465 94.2633 126.738 91.5406 125.253 89.1986C123.755 86.8272 121.907 85.4073 119.782 84.9975C119.346 84.9097 118.894 84.8657 118.443 84.8657C116.13 84.8657 113.51 85.9343 110.615 88.0422Z" fill="#848484"/>
<path fill-rule="evenodd" clip-rule="evenodd" d="M105.372 117.199C104.447 117.587 103.686 117.751 103.075 117.751C101.896 117.751 101.255 117.17 100.912 116.559C99.8821 114.74 100.509 110.895 102.538 106.529C104.656 101.998 107.834 97.8846 111.057 95.5596C113.19 94.0246 115.1 93.3986 116.756 93.7116C118.113 93.965 119.292 94.8443 120.232 96.3346C122.097 99.2855 121.978 103.041 119.904 105.918C116.607 110.493 113.011 113.98 105.372 117.199ZM111.325 95.9322C108.177 98.2124 105.044 102.251 102.955 106.722C101.001 110.88 100.359 114.666 101.314 116.35C101.941 117.468 103.254 117.617 105.208 116.797C112.757 113.623 116.293 110.18 119.546 105.664C121.515 102.937 121.634 99.3749 119.859 96.588C118.979 95.2168 117.919 94.3972 116.681 94.1587C116.428 94.114 116.174 94.0842 115.905 94.0842C114.548 94.0842 113.026 94.7101 111.325 95.9322Z" fill="#848484"/>
<path d="M246.512 117.7C242.77 115.494 239.041 115.027 236.033 116.385C231.556 118.387 229.501 123.996 231.262 129.431C231.717 130.833 231.438 131.958 230.44 132.834C227.285 135.581 217.084 135.815 202.435 133.463C189.783 131.432 176.147 127.765 169.264 124.522C163.554 121.834 158.945 121.396 155.555 123.193C152.546 124.785 150.564 128.204 149.816 133.054C148.7 140.314 133.362 147.238 121.033 152.789C112.285 156.734 105.372 159.845 104.447 162.402C104.285 162.84 104.3 163.249 104.491 163.629C105.313 165.323 107.324 165.615 111.037 164.578C114.457 163.614 119.301 161.554 125.421 158.939C134.918 154.878 147.937 149.313 164.64 144.01C178.334 139.671 190.238 140.168 200.013 145.485C205.312 148.378 209.892 152.643 213.62 158.165C216.805 162.898 219.344 168.552 220.944 174.527C222.118 178.909 224.687 182.561 228.591 185.381C231.747 187.659 235.798 189.412 240.612 190.596C244.37 191.516 248.641 192.071 253 192.232V191.794C248.67 191.633 244.443 191.078 240.715 190.157C235.959 189.003 231.967 187.265 228.855 185.015C225.039 182.254 222.529 178.69 221.37 174.395C219.755 168.362 217.201 162.665 213.987 157.902C210.214 152.307 205.591 147.998 200.219 145.076C190.341 139.686 178.32 139.189 164.508 143.557C147.775 148.86 134.756 154.426 125.245 158.501C113.107 163.687 106.414 166.55 104.887 163.41C104.755 163.132 104.74 162.84 104.858 162.519C105.724 160.137 112.901 156.894 121.224 153.155C127.417 150.364 134.448 147.194 139.982 143.835C146.381 139.949 149.742 136.428 150.256 133.083C150.975 128.379 152.883 125.077 155.76 123.544C159.033 121.805 163.51 122.258 169.088 124.888C179.333 129.708 204.343 135.464 219.535 135.464C224.775 135.464 228.855 134.777 230.749 133.127C231.893 132.133 232.216 130.833 231.703 129.255C230.015 124.04 231.967 118.65 236.238 116.736C241.728 114.282 247.804 117.992 252.985 123.807V123.061C250.842 120.797 248.685 118.986 246.512 117.7Z" fill="#848484"/>
<path d="M244.801 125.104C243.282 124.64 241.849 124.799 240.549 125.569C236.734 127.85 237.567 132.033 238.298 135.738C238.81 138.309 239.292 140.735 238.108 142.085C237.29 143.015 235.697 143.407 233.256 143.262C227.688 142.943 222.339 141.766 218.043 140.822C212.328 139.572 208.193 138.657 206.687 140.328C206.234 140.836 206.015 141.403 206.059 142.027C206.176 144.003 208.806 146.313 212.153 149.232C216.961 153.445 222.953 158.703 225.014 165.763C227.03 172.648 229.749 179.461 236.033 182.613C238.444 183.819 241.265 184.429 244.524 184.429C247.067 184.429 249.887 184.066 252.985 183.325V182.875C245.971 184.56 240.446 184.342 236.223 182.221C230.099 179.142 227.41 172.431 225.423 165.632C223.318 158.456 217.283 153.154 212.431 148.898C209.172 146.037 206.6 143.785 206.483 141.984C206.454 141.475 206.629 141.025 207.009 140.604C208.339 139.122 212.577 140.052 217.955 141.228C222.266 142.173 227.644 143.349 233.242 143.669C235.828 143.814 237.523 143.378 238.444 142.332C239.759 140.822 239.263 138.294 238.736 135.621C237.991 131.888 237.231 128.039 240.782 125.918C241.966 125.206 243.282 125.075 244.684 125.482C247.154 126.223 250.004 128.765 253 132.847V132.092C250.574 128.91 247.68 125.962 244.801 125.104Z" fill="#848484"/>
<path d="M247.719 139.251C245.612 139.938 244.14 142.235 244.068 144.986C244.025 146.713 243.678 147.781 242.971 148.439C241.442 149.859 237.935 149.639 231.557 149.244L230.807 149.2C228.339 149.054 226.997 149.376 226.55 150.21C225.872 151.512 227.531 153.722 229.84 156.794C231.904 159.53 234.472 162.925 235.915 166.554C237.026 169.334 238.916 171.251 241.514 172.26C243.043 172.845 244.717 173.08 246.391 173.08C248.758 173.08 251.11 172.626 253 172.114V171.646C249.537 172.597 245.193 173.197 241.673 171.851C239.191 170.899 237.387 169.056 236.319 166.393C234.847 162.706 232.264 159.282 230.186 156.531C228.137 153.824 226.377 151.483 226.925 150.429C227.272 149.771 228.527 149.522 230.764 149.654L231.514 149.698C238.209 150.107 241.586 150.312 243.245 148.776C244.054 148.03 244.443 146.859 244.486 145.001C244.559 142.44 245.901 140.304 247.834 139.675C249.378 139.177 251.153 139.631 253 140.933V140.377C250.634 138.782 248.801 138.899 247.719 139.251Z" fill="#848484"/>
<path d="M244.242 154.765C242.91 156.288 242.499 158.213 243.095 160.195C243.746 162.35 246.155 163.571 250.251 163.815C250.789 163.844 251.328 163.858 251.838 163.858C252.235 163.858 252.632 163.844 253 163.829V163.398C249.585 163.528 244.427 163.183 243.491 160.051C242.939 158.213 243.321 156.431 244.54 155.038C246.24 153.099 249.287 152.108 252.986 152.237V151.806C249.188 151.705 246.028 152.74 244.242 154.765Z" fill="#848484"/>
<path d="M64.2427 109.745C69.8243 112.019 75.1549 114.204 78.7578 114.204C79.7324 114.204 80.5741 114.043 81.2681 113.691C82.2426 113.192 82.8628 112.297 83.1286 111.051C83.7636 108.117 80.6184 105.286 75.8489 101.003C71.1238 96.7642 64.6562 90.9704 58.9417 82.2871C55.0582 76.4053 51.411 72.6211 48.0148 70.9343V71.4183C51.2781 73.1051 54.8072 76.8014 58.5578 82.5218C64.3166 91.2638 70.7989 97.0722 75.5388 101.326C80.1902 105.506 83.2763 108.264 82.6856 110.948C82.4346 112.077 81.903 112.84 81.0466 113.28C77.99 114.879 71.3895 112.18 64.4052 109.32C59.7981 107.442 55.0287 105.492 50.8942 104.611C49.8605 104.391 48.886 104.245 48 104.171V104.611C48.8564 104.685 49.8015 104.817 50.8056 105.037C54.9105 105.932 59.6652 107.868 64.2427 109.745Z" fill="#848484"/>
<path d="M61.4796 101.436C62.9461 101.436 63.8767 101.068 64.2574 100.347C65.188 98.5373 62.3821 95.0873 55.896 90.0535C52.9632 87.7912 49.9176 85.6985 48 84.4118V84.9067C54.4155 89.191 65.3572 97.293 63.8908 100.149C63.5806 100.757 62.7346 101.026 61.5501 101.026C58.434 101.026 52.9068 99.2443 48 97.3496V97.8021C49.0575 98.2121 50.1714 98.6222 51.2994 99.0181C55.8678 100.63 59.28 101.436 61.4796 101.436Z" fill="#848484"/>
<path fill-rule="evenodd" clip-rule="evenodd" d="M124.62 135.795C125.4 134.502 126.224 133.337 127.092 132.314C129.838 129.046 134.001 127.341 138.178 127.739C140.636 127.98 141.879 128.833 141.893 130.296C141.922 135.141 126.933 145.258 120.182 145.968C119.199 146.082 118.448 146.125 117.884 146.125C116.67 146.125 116.265 145.911 116.121 145.599C115.831 144.945 116.872 144.007 118.607 142.445C120.457 140.782 122.986 138.509 124.62 135.795ZM133.307 139.361C138.352 135.838 141.488 132.356 141.474 130.31C141.474 129.103 140.346 128.378 138.164 128.179C137.774 128.136 137.383 128.122 136.993 128.122C133.35 128.122 129.852 129.742 127.438 132.584C126.586 133.578 125.776 134.743 125.01 136.008C123.363 138.754 120.821 141.039 118.961 142.712L118.91 142.757L118.845 142.816C117.622 143.92 116.369 145.051 116.54 145.414C116.641 145.641 117.349 145.84 120.153 145.542C123.247 145.215 128.407 142.786 133.307 139.361Z" fill="#848484"/>
<path d="M62.3255 58.2007C65.6246 64.2142 69.1583 70.402 72.604 74.9194C76.4017 79.8725 79.7008 82.2837 82.7066 82.2837C82.736 82.2837 82.7653 82.2837 82.7946 82.2837C85.7858 82.2402 88.4251 79.858 90.8591 75.0356C95.9764 64.9114 102.032 58.7236 108.381 57.1694C112.721 56.109 117.179 57.1549 121.622 60.3069C125.038 62.7326 127.472 63.5315 129.026 62.7617C131.328 61.6287 131.46 57.4018 131.607 52.5213C131.768 47.1614 131.944 41.0753 135.185 38.2864C136.695 36.9937 138.718 36.5143 141.372 36.8048C148.322 37.5892 154.935 36.5434 160.492 33.8126C165.771 31.2126 169.862 27.2472 172.311 22.3376C174.642 17.6749 175.316 12.4168 174.29 7.15859C173.865 4.96526 173.146 2.81551 172.164 0.709335H171.665C175.096 7.88486 175.287 15.438 171.929 22.1488C169.525 26.9712 165.507 30.864 160.316 33.4204C154.833 36.1222 148.293 37.1389 141.431 36.3691C138.689 36.064 136.489 36.587 134.906 37.9523C131.519 40.8574 131.343 47.0452 131.167 52.4922C131.035 57.0387 130.903 61.3382 128.836 62.3549C127.428 63.0522 125.155 62.2533 121.871 59.9292C117.311 56.7046 112.736 55.6297 108.264 56.7191C101.783 58.3169 95.6245 64.5773 90.4632 74.8177C88.1025 79.4803 85.5952 81.7753 82.7946 81.8189C82.7653 81.8189 82.736 81.8189 82.7066 81.8189C76.3284 81.8189 69.3343 70.0389 62.7067 57.9538C58.6451 50.5894 53.7185 45.5055 48 42.8038V43.2831C53.5425 45.9703 58.3519 50.9671 62.3255 58.2007Z" fill="#848484"/>
<path d="M67.7085 39.7232C70.2304 39.7232 72.4461 39.3582 74.2683 38.6135C78.4228 36.9198 80.4928 33.4594 80.4199 28.2906C80.347 23.2241 81.7027 19.457 84.5598 16.785C91.6006 10.1562 106.761 11.2951 122.825 12.5215C125.187 12.6967 127.636 12.8866 130.041 13.0472C132.388 13.2078 134.545 13.2808 136.528 13.2808C145.58 13.2808 150.712 11.6601 151.834 8.43326C152.621 6.1555 151.309 3.39592 149.21 0.709335H148.642C150.799 3.38132 152.169 6.1117 151.426 8.30185C150.143 12.0105 142.971 13.4706 130.085 12.6237C127.679 12.4631 125.23 12.2733 122.869 12.0981C106.717 10.8716 91.4549 9.71815 84.2683 16.4784C81.3237 19.2526 79.9242 23.1219 79.9971 28.3198C80.07 33.2841 78.0875 36.6278 74.1225 38.2339C69.0204 40.3072 60.726 39.3582 51.3382 35.6349C50.2157 35.1969 49.1079 34.715 48 34.2186V34.7004C49.0496 35.1823 50.1137 35.6349 51.1778 36.0437C57.3295 38.4675 63.0438 39.7232 67.7085 39.7232Z" fill="#848484"/>
<path d="M59.3816 25.5075C64.6278 25.1903 69.0726 22.4654 72.6139 17.4048L73.1968 16.5686C77.4959 10.4268 79.6527 7.3414 82.8442 6.05824C86.0357 4.77508 90.3639 5.23644 98.9911 6.17358C100.04 6.28892 101.162 6.40426 102.343 6.53402C112.573 7.61533 119.976 7.99019 124.975 7.64417C129.799 7.31256 132.538 6.34659 133.588 4.60207C134.229 3.53517 134.2 2.23759 133.675 0.709335H133.223C133.748 2.17992 133.806 3.40541 133.209 4.38581C132.247 5.95732 129.551 6.89446 124.946 7.21164C119.962 7.55766 112.588 7.19722 102.387 6.10149C101.206 5.97173 100.084 5.85639 99.0348 5.74105C90.3347 4.7895 85.9774 4.31372 82.6693 5.65455C79.3612 6.99538 77.1752 10.1096 72.8325 16.3235L72.2496 17.1597C68.7812 22.105 64.453 24.7722 59.3524 25.075C56.7293 25.2336 52.9257 24.7866 48 22.5086V22.9844C52.3282 24.9596 55.7966 25.5363 58.376 25.5363C58.7403 25.5363 59.0755 25.5219 59.3816 25.5075Z" fill="#848484"/>
<path d="M65.8989 15.9436C68.0498 14.938 69.5238 13.2269 70.2608 10.8555C71.3588 7.40339 71.5995 3.92128 71.419 0.709335H70.9677C71.1482 3.87625 70.9076 7.31333 69.8246 10.7204C69.1177 12.9718 67.7189 14.5927 65.6883 15.5383C60.8601 17.7897 53.3546 15.9436 48 14.0974V14.5777C51.5948 15.8085 56.1372 17.0242 60.2284 17.0242C62.289 17.0242 64.2444 16.709 65.8989 15.9436Z" fill="#848484"/>
<path d="M155.852 11.3994C152.966 17.0631 140.182 16.2954 140.036 16.2809C132.878 16.2809 126.231 15.7739 120.371 15.3104C111.654 14.6296 104.118 14.0502 98.5494 15.4842C95.6048 16.2374 93.3162 17.5266 91.5669 19.4097C89.6719 21.4376 88.3891 24.1753 87.6311 27.7531C85.1093 39.7179 78.5059 41.1519 73.1852 42.2962C69.9783 42.9915 67.2086 43.5854 66.2903 46.4245C65.4594 49.0173 66.4215 54.1741 68.7684 59.5625C71.2756 65.3421 74.6867 69.818 77.8936 71.5273C78.9286 72.0777 79.9636 72.3529 80.9402 72.3529C82.8061 72.3529 84.5699 71.3679 86.1151 69.4414C88.462 66.5154 90.3716 63.3287 92.2229 60.2433C95.6777 54.4783 98.6514 49.5098 103.272 48.3945C106.115 47.7137 109.424 48.5538 113.36 51.0018C118.578 54.232 122.193 55.246 124.424 54.1016C127.193 52.6821 127.47 48.2931 127.762 43.6289C128.155 37.3713 128.564 30.8964 135.036 31.1861C136.523 31.2441 137.951 31.2875 139.336 31.2875C153.33 31.2875 162.412 27.9994 166.333 21.4811C169.423 16.3678 168.636 10.1971 167.441 5.93848C166.872 3.89607 166.158 2.09991 165.531 0.709335H165.05C165.691 2.09991 166.435 3.9685 167.018 6.06884C169.132 13.6446 167.601 18.5116 165.954 21.2638C161.727 28.2746 151.318 31.4758 135.05 30.766C131.945 30.6357 129.876 31.9393 128.724 34.7639C127.718 37.2119 127.514 40.4711 127.325 43.6289C127.048 48.1627 126.771 52.4358 124.22 53.7395C122.135 54.8114 118.666 53.7974 113.578 50.6542C109.526 48.1482 106.115 47.2791 103.156 48.0034C98.3599 49.1622 95.3278 54.203 91.8293 60.055C89.9926 63.1259 88.083 66.2981 85.7507 69.1952C83.4767 72.0198 80.8965 72.6716 78.0686 71.1652C74.9491 69.4994 71.5963 65.1104 69.1328 59.4177C66.8733 54.203 65.8821 49.0463 66.6693 46.5838C67.5147 43.9765 70.0366 43.4261 73.2435 42.7453C75.9257 42.1659 78.9578 41.514 81.6691 39.4571C84.8032 37.0816 86.8877 33.2865 88.0247 27.8545C89.4387 21.1189 92.704 17.4397 98.6223 15.9188C101.1 15.2814 104.001 15.0496 107.223 15.0496C111.129 15.0496 115.546 15.3973 120.298 15.7594C126.173 16.2085 132.82 16.7299 139.977 16.7299C139.977 16.7299 139.977 16.7299 139.992 16.7299C140.021 16.7299 143.316 16.9472 146.916 16.4257C151.814 15.7304 154.934 14.1081 156.216 11.6167C157.601 8.90794 156.712 5.25768 153.563 0.72382H153.039C156.246 5.19974 157.178 8.79206 155.852 11.3994Z" fill="#848484"/>
<path d="M156.797 16.2265C154.403 19.2451 147.165 20.4967 135.884 19.8488C127.318 19.3629 119.379 17.9346 119.306 17.9199C119.262 17.9051 114.417 17.0364 108.96 18.1113C105.734 18.7297 102.932 19.893 100.612 21.5716C97.708 23.6625 95.5628 26.5485 94.2493 30.1413C91.7101 37.106 88.8644 41.8621 85.5371 44.6892C82.6476 47.1482 79.831 47.7961 77.2042 48.2526C73.3661 48.9152 72.0673 51.3889 71.6587 53.3473C70.8415 57.1757 72.8116 62.344 75.8762 64.4202C76.708 64.9797 77.5545 65.2595 78.3717 65.2595C79.1306 65.2595 79.8748 65.0239 80.5753 64.538C83.4502 62.5649 86.3981 58.766 89.5211 54.7609C95.4606 47.1188 101.604 39.2264 107.777 43.1873C108.682 43.7616 109.558 44.3358 110.39 44.8954C114.914 47.8845 118.504 50.2551 120.766 49.1361C122.108 48.4734 122.867 46.7212 123.144 43.5996C123.713 37.1502 124.764 32.2911 128.048 29.5523C130.383 27.5939 133.71 26.8724 138.234 27.3142C150.901 28.5658 159.249 26.2982 163.057 20.5997C166.107 16.0351 165.582 10.1011 164.604 5.9193C164.05 3.54863 163.291 1.45774 162.693 0H162.226C162.824 1.44301 163.612 3.57808 164.181 6.02237C165.13 10.1158 165.64 15.9173 162.693 20.3494C158.986 25.9006 150.77 28.0946 138.278 26.8724C133.637 26.416 130.208 27.1816 127.77 29.2136C124.385 32.0555 123.29 37.003 122.707 43.5701C122.444 46.4856 121.758 48.179 120.576 48.7532C118.533 49.7545 115.045 47.4574 110.638 44.542C109.791 43.9824 108.916 43.4082 108.011 42.8339C105.078 40.9492 101.911 41.4204 98.3355 44.2769C95.2125 46.7507 92.1479 50.6969 89.1854 54.5105C86.0916 58.5009 83.1583 62.2557 80.3418 64.1993C78.6927 65.3331 77.1458 64.7589 76.1243 64.0668C73.191 62.079 71.3085 57.1168 72.0819 53.4504C72.4759 51.6245 73.6872 49.3127 77.2772 48.6943C79.9624 48.2231 82.8373 47.5605 85.8143 45.0279C89.2 42.1419 92.0895 37.3269 94.658 30.2885C95.9422 26.7694 98.029 23.957 100.846 21.925C103.108 20.2905 105.866 19.1567 109.018 18.5383C111.061 18.1407 113.017 18.0082 114.666 18.0082C117.351 18.0082 119.19 18.3469 119.219 18.3469C119.292 18.3616 127.26 19.7899 135.855 20.2758C147.442 20.9384 154.608 19.6721 157.132 16.4916C159.628 13.37 160.212 9.14399 158.811 4.28486C158.329 2.62098 157.702 1.14852 157.147 0.0147246H156.651C157.22 1.1338 157.891 2.66516 158.387 4.40266C159.336 7.68625 159.818 12.4129 156.797 16.2265Z" fill="#848484"/>
<path fill-rule="evenodd" clip-rule="evenodd" d="M109.758 22.6985C111.321 21.942 113.06 21.7819 114.667 22.262C116.244 22.7276 117.428 23.7023 118.173 25.1572C120.452 29.5362 118.436 37.2323 117.033 41.4223C116.668 42.5279 116.215 43.1099 115.616 43.2408C115.528 43.2554 115.441 43.2699 115.353 43.2699C114.38 43.2699 113.262 42.1337 111.871 40.7193L111.847 40.6948C110.518 39.3418 109.013 37.8143 107.201 36.7377C104.177 34.9337 102.687 32.9114 102.775 30.7001C102.935 26.8448 108.005 23.5568 109.758 22.6985ZM115.528 42.8189C115.952 42.7171 116.317 42.2224 116.624 41.2913C119.853 31.6603 118.742 27.1794 117.778 25.3754C117.077 24.0369 115.981 23.1349 114.535 22.6985C113.965 22.5239 113.381 22.4366 112.782 22.4366C111.818 22.4366 110.854 22.6548 109.948 23.0913C108.253 23.9205 103.359 27.0775 103.213 30.7146C103.125 32.7514 104.557 34.6573 107.435 36.3594C109.273 37.4404 110.853 39.0496 112.132 40.3526L112.168 40.3893L112.185 40.4062C113.551 41.7957 114.728 42.9928 115.528 42.8189Z" fill="#848484"/>
<path fill-rule="evenodd" clip-rule="evenodd" d="M110.987 29.3267C111.437 29.0703 111.938 29.0099 112.401 29.1759C112.852 29.3418 113.199 29.6738 113.43 30.1867C114.073 31.6351 113.52 34.1246 113.134 35.4824C113.07 35.7389 112.942 36.0859 112.659 36.1614C112.62 36.1765 112.594 36.1765 112.556 36.1765C112.237 36.1765 111.931 35.8064 111.526 35.3156L111.514 35.3014C111.167 34.8789 110.768 34.3961 110.292 34.0642C109.43 33.4607 109.006 32.7667 109.032 31.9972C109.08 30.5552 110.743 29.4841 110.963 29.3425C110.978 29.333 110.986 29.3277 110.987 29.3267ZM112.569 35.7088C112.607 35.7088 112.684 35.5881 112.762 35.3316C113.057 34.2905 113.675 31.7257 113.096 30.3829C112.916 29.9906 112.659 29.7341 112.298 29.6134C112.157 29.5681 112.003 29.538 111.861 29.538C111.617 29.538 111.385 29.5983 111.154 29.7341C110.807 29.9453 109.456 30.926 109.417 32.0274C109.392 32.6007 109.752 33.159 110.485 33.6719C110.999 34.034 111.437 34.5621 111.784 34.9846C111.801 35.005 111.819 35.0259 111.837 35.0471C112.111 35.3686 112.436 35.7512 112.569 35.7088Z" fill="#848484"/>
<path d="M227.162 26.3754C221.595 28.2932 217.733 33.8878 215.708 43.0007C214.775 47.2111 212.443 49.8643 208.785 50.888C201.936 52.8202 190.977 48.3791 183.326 40.5495C177.191 34.2916 174.728 27.4136 176.565 21.6892C178.27 16.383 178.75 10.6153 178.007 4.57367C177.847 3.30478 177.628 2.00706 177.366 0.709335H176.914C177.191 2.0359 177.41 3.33362 177.57 4.63135C178.313 10.6153 177.832 16.3253 176.157 21.5739C174.262 27.4569 176.769 34.479 183.02 40.8667C186.664 44.5868 191.24 47.7158 195.918 49.6768C199.24 51.0755 202.446 51.782 205.273 51.782C206.585 51.782 207.809 51.6234 208.917 51.3206C212.676 50.268 215.183 47.4274 216.145 43.1017C218.141 34.1474 221.887 28.6681 227.308 26.7936C235.031 24.1261 244.927 29.1439 253 34.9548V34.4213C244.868 28.6104 234.973 23.6935 227.162 26.3754Z" fill="#848484"/>
<path d="M229.608 15.0278C224.868 15.9707 221.258 19.0897 218.896 24.2687C215.623 31.4352 211.47 36.4546 206.539 39.2109C201.256 42.1558 196.561 41.6626 193.552 40.7342C189.913 39.6026 186.772 37.2235 184.703 34.0319C182.561 30.7388 181.768 26.851 182.487 23.0936C183.97 15.2889 184.527 7.75974 184.175 0.709335H183.735C184.087 7.73073 183.529 15.2308 182.062 23.0066C181.328 26.88 182.135 30.8694 184.336 34.2495C186.464 37.5281 189.693 39.9653 193.435 41.1259C195.005 41.6191 196.619 41.8512 198.233 41.8512C201.124 41.8512 204.045 41.0823 206.76 39.5736C211.778 36.7738 215.99 31.6818 219.307 24.4283C221.61 19.3799 225.103 16.3624 229.696 15.4339C233.424 14.6941 237.9 15.3614 242.64 17.3924C246.352 18.9737 250.109 21.3528 253 23.9496V23.3693C247.027 18.1758 237.401 13.4755 229.608 15.0278Z" fill="#848484"/>
<path d="M157.378 199.823C157.006 199.432 156.534 199.276 155.989 199.339C154.142 199.558 151.622 202.451 149.718 205H150.276C152.095 202.592 154.414 200.011 156.032 199.808C156.448 199.761 156.791 199.87 157.078 200.167C158.066 201.184 159.168 203.045 160.171 205H160.672C159.626 202.936 158.452 200.918 157.378 199.823Z" fill="#848484"/>
<path d="M248.665 14.675C243.687 14.2031 237.673 12.2564 232.155 9.30698C225.761 5.88562 220.418 10.9882 214.244 16.8871C209.543 21.385 204.215 26.4728 197.617 28.3162C195.296 28.9651 193.5 28.6259 192.26 27.3429C188.041 22.9334 190.873 8.49588 192.8 0.709335H192.347C191.763 3.08364 191.092 6.04784 190.566 9.14476C188.946 18.7747 189.413 24.9981 191.953 27.6526C192.873 28.6111 194.055 29.083 195.486 29.083C196.186 29.083 196.931 28.9651 197.748 28.7439C204.434 26.8857 209.82 21.7537 214.55 17.2115C220.608 11.4306 225.834 6.43127 231.95 9.70516C237.585 12.7283 243.512 14.6455 248.621 15.1174C250.212 15.2649 251.672 15.2649 253 15.1174V14.675C251.701 14.8225 250.241 14.8225 248.665 14.675Z" fill="#848484"/>
<path d="M198.987 19.8181C199.223 19.8471 199.444 19.8616 199.68 19.8616C203.603 19.8616 207.983 15.6281 210.328 12.9894C213.44 9.5098 216.464 4.98633 218.573 0.709335H218.086C216.006 4.88484 213.042 9.29233 210.004 12.6994C205.815 17.3969 201.922 19.7746 199.046 19.3831C197.851 19.2237 197.07 18.6872 196.657 17.7738C195.108 14.2942 199.297 6.20419 202.585 0.723834H202.069C201.42 1.8257 200.727 3.01456 200.063 4.24692C196.45 10.9306 195.167 15.5411 196.258 17.9478C196.73 19.0062 197.645 19.6296 198.987 19.8181Z" fill="#848484"/>
<path d="M204.261 10.6251C204.352 10.6401 204.458 10.6401 204.564 10.6401C205.475 10.6401 206.917 10.0985 208.921 7.82641C210.409 6.15623 211.835 3.88418 212.67 1.89802C212.807 1.56699 212.959 1.16074 213.095 0.724382H212.625C212.519 1.04036 212.397 1.37139 212.261 1.71746C210.545 5.81015 206.629 10.4897 204.337 10.1586C203.912 10.0985 203.638 9.91789 203.487 9.58687C202.712 7.84145 205.855 2.68045 207.206 0.709335H206.659C205.688 2.16886 202.151 7.66089 203.077 9.76742C203.274 10.264 203.684 10.5499 204.261 10.6251Z" fill="#848484"/>
<path d="M245.801 10.0769C242.947 9.70634 239.75 8.46128 236.279 6.37137C233.253 4.54825 230.543 2.38423 228.621 0.709335H227.962C229.926 2.44352 232.809 4.80023 236.064 6.75675C239.592 8.8763 242.847 10.151 245.758 10.5216C246.36 10.5957 246.948 10.6401 247.536 10.6401C249.558 10.6401 251.38 10.1658 253 9.21721V8.69844C250.921 9.95831 248.526 10.4326 245.801 10.0769Z" fill="#848484"/>
<path fill-rule="evenodd" clip-rule="evenodd" d="M158.637 131.08C161.439 129.429 166.295 129.385 173.073 130.962C177.929 132.096 182.066 133.688 182.403 133.821C186.76 134.631 187.303 135.353 187.274 135.884C187.244 136.606 186.071 137.593 177.21 138.919C171.709 139.744 165.151 140.422 160.369 140.909L159.18 141.027C158.315 141.115 157.537 141.159 156.833 141.159C154.148 141.159 152.579 140.511 152.168 139.243C151.42 136.959 154.867 133.305 158.637 131.08ZM177.137 138.492C185.836 137.18 186.804 136.223 186.819 135.869C186.819 135.692 186.511 135.044 182.301 134.263L182.257 134.248C182.254 134.247 182.241 134.242 182.218 134.233C181.781 134.066 177.72 132.509 172.985 131.404C170.418 130.8 167.352 130.269 164.564 130.269C162.378 130.269 160.354 130.608 158.872 131.477C157.009 132.583 155.263 134.012 154.075 135.412C152.828 136.9 152.3 138.212 152.593 139.126C153.048 140.481 155.307 140.997 159.136 140.599L160.325 140.481C160.678 140.444 161.041 140.406 161.413 140.368C166.068 139.881 172.055 139.256 177.137 138.492Z" fill="#848484"/>
<path fill-rule="evenodd" clip-rule="evenodd" d="M162.243 38.498C162.121 37.3907 163.779 36.0895 167.154 34.6084C169.374 33.6395 172.019 33.944 173.859 35.3974C175.319 36.5463 176.9 38.1797 176.11 39.5362C175.501 40.5882 173.57 41.1419 171.001 41.1419C169.283 41.1419 167.276 40.8927 165.177 40.3806C163.277 39.9238 162.319 39.3009 162.243 38.498ZM165.299 39.9791C170.149 41.1696 174.817 40.8789 175.714 39.3424C176.216 38.4565 175.486 37.2107 173.57 35.7158C172.506 34.8991 171.183 34.47 169.845 34.47C168.994 34.47 168.142 34.6361 167.352 34.9822C164.265 36.3387 162.608 37.5706 162.699 38.4565C162.76 39.0517 163.657 39.5777 165.299 39.9791Z" fill="#848484"/>
<path d="M208.632 199.796C200.959 198.839 196.452 192.431 190.767 184.312C189.177 182.05 187.527 179.701 185.672 177.265C181.018 171.162 175.804 167.493 170.193 166.363C163.816 165.087 156.806 167.058 149.369 172.22C141.195 177.889 129.369 187.008 119.222 195.476C116.379 197.853 112.668 201.014 109.031 204.291H109.679C112.565 201.71 115.849 198.868 119.502 195.809C129.634 187.356 141.445 178.237 149.604 172.582C163.463 162.97 175.48 164.637 185.303 177.541C187.144 179.962 188.794 182.311 190.384 184.573C196.143 192.779 200.694 199.245 208.558 200.231C214.14 200.927 217.335 202.29 218.101 204.291H218.573C217.851 202.043 214.508 200.536 208.632 199.796Z" fill="#848484"/>
<path d="M166.487 183.128C163.762 181.895 160.966 182.043 158.17 183.559C151.237 187.303 144.953 191.731 139.49 196.739C136.132 199.814 133.595 202.637 131.721 205H132.298C136.564 199.695 144.809 191.27 158.357 183.945C161.038 182.504 163.705 182.355 166.299 183.529C171.531 185.892 175.625 193.172 178.133 198.878C179.098 201.048 179.905 203.172 180.554 205H181.015C180.352 203.128 179.531 200.944 178.536 198.7C174.846 190.305 170.782 185.06 166.487 183.128Z" fill="#848484"/>
<path fill-rule="evenodd" clip-rule="evenodd" d="M97.597 153.115C97.0529 152.061 97.1461 150.539 98.6697 149.691C100.955 148.417 104.08 149.003 105.308 149.998C105.837 150.422 106.023 150.92 105.821 151.388C105.417 152.383 103.862 153.407 101.219 154.417C100.831 154.564 100.442 154.637 100.084 154.637C98.934 154.637 98.0323 153.934 97.597 153.115ZM101.033 154.007C103.52 153.056 105.028 152.09 105.386 151.227C105.541 150.861 105.261 150.525 104.982 150.334C104.329 149.808 103.038 149.412 101.67 149.412C100.722 149.412 99.7424 149.603 98.8873 150.071C97.6125 150.773 97.5193 152.003 98.0012 152.91C98.4831 153.817 99.6336 154.549 101.033 154.007Z" fill="#848484"/>
<path fill-rule="evenodd" clip-rule="evenodd" d="M121.489 189.529C120.914 190.938 114.672 194.014 112.606 194.826C112.163 194.996 111.735 195.082 111.337 195.068C110.068 195.068 109.079 194.285 108.592 193.345C107.973 192.149 108.091 190.426 109.773 189.472C112.724 187.792 119.822 187.521 121.239 188.689C121.534 188.916 121.622 189.215 121.489 189.529ZM109.994 189.842C108.548 190.668 108.445 192.106 108.991 193.16C109.537 194.213 110.835 195.068 112.429 194.427C115.041 193.387 120.604 190.483 121.062 189.372C121.106 189.272 121.121 189.159 120.943 189.016C119.674 187.977 112.695 188.304 109.994 189.842Z" fill="#848484"/>
<path d="M60.4275 10.1718C62.9007 8.64295 62.0916 3.78086 61.2672 0.709335H60.7939C61.0076 1.48066 61.2061 2.37595 61.374 3.31255C61.771 5.69539 61.8931 8.76692 60.1832 9.84126C58.1679 11.0809 54.0763 9.4556 48 5.00671V5.53011C52.687 8.9322 56.2443 10.6401 58.6259 10.6401C59.3282 10.6401 59.9236 10.4748 60.4275 10.1718Z" fill="#848484"/>
<path fill-rule="evenodd" clip-rule="evenodd" d="M147.05 107.111C144.918 107.111 142.641 106.904 141.017 106.312C138.697 105.485 138.566 104.217 138.9 103.308C139.233 102.329 139.915 101.613 140.944 101.185C142.786 100.428 145.687 100.607 149.559 101.737C152.416 102.577 154.78 103.638 154.809 103.652C156.027 104.231 156.07 104.782 155.911 105.14C155.432 106.174 152.416 106.78 149.762 107C148.935 107.069 148.007 107.111 147.05 107.111ZM141.104 101.571C140.19 101.943 139.581 102.577 139.291 103.445C138.929 104.506 139.552 105.347 141.176 105.939C143.091 106.628 146.368 106.876 149.718 106.601C152.807 106.339 155.186 105.678 155.505 104.989C155.664 104.63 155.099 104.272 154.605 104.038C154.46 103.969 148.167 101.158 143.642 101.158C142.699 101.158 141.829 101.268 141.104 101.571Z" fill="#848484"/>
</g>
</g>
<defs>
<filter id="filter0_d_359_1395" x="0" y="-48" width="313" height="313" filterUnits="userSpaceOnUse" color-interpolation-filters="sRGB">
<feFlood flood-opacity="0" result="BackgroundImageFix"/>
<feColorMatrix in="SourceAlpha" type="matrix" values="0 0 0 0 0 0 0 0 0 0 0 0 0 0 0 0 0 0 127 0" result="hardAlpha"/>
<feOffset dx="6" dy="6"/>
<feGaussianBlur stdDeviation="27"/>
<feColorMatrix type="matrix" values="0 0 0 0 0 0 0 0 0 0 0 0 0 0 0 0 0 0 0.03 0"/>
<feBlend mode="normal" in2="BackgroundImageFix" result="effect1_dropShadow_359_1395"/>
<feBlend mode="normal" in="SourceGraphic" in2="effect1_dropShadow_359_1395" result="shape"/>
</filter>
</defs>
</svg>
