<svg width="32" height="32" viewBox="0 0 32 32" fill="none" xmlns="http://www.w3.org/2000/svg">
<path d="M16.0001 2.66667C14.0947 2.66667 12.4811 3.77006 11.6394 5.34896C9.88108 4.73201 7.86432 5.06545 6.46492 6.46485C5.06549 7.86428 4.73331 9.87966 5.35034 11.638C3.77068 12.4799 2.66675 14.0942 2.66675 16C2.66675 17.9054 3.77014 19.519 5.34904 20.3607C4.73209 22.119 5.06553 24.1358 6.46492 25.5352C7.86436 26.9346 9.87974 27.2668 11.6381 26.6497C12.48 28.2294 14.0943 29.3333 16.0001 29.3333C17.9055 29.3333 19.519 28.2299 20.3608 26.651C22.1191 27.268 24.1358 26.9346 25.5352 25.5352C26.9347 24.1357 27.2668 22.1203 26.6498 20.362C28.2295 19.5201 29.3334 17.9058 29.3334 16C29.3334 14.0946 28.23 12.481 26.6511 11.6393C27.2681 9.881 26.9346 7.86424 25.5352 6.46485C24.1358 5.06541 22.1204 4.73324 20.3621 5.35027C19.5202 3.7706 17.9059 2.66667 16.0001 2.66667ZM16.0001 4.66667C17.3964 4.66667 18.5496 5.6106 18.8933 6.88803C18.9342 7.03953 19.0101 7.1793 19.115 7.29603C19.2198 7.41276 19.3507 7.50317 19.497 7.55996C19.6433 7.61675 19.8009 7.63832 19.957 7.62293C20.1132 7.60754 20.2635 7.55561 20.3959 7.47136C21.5553 6.73425 23.1021 6.85983 24.1212 7.87891C25.1403 8.898 25.2658 10.4448 24.5287 11.6042C24.4445 11.7366 24.3926 11.8871 24.3773 12.0433C24.362 12.1996 24.3837 12.3572 24.4406 12.5035C24.4975 12.6498 24.5881 12.7807 24.705 12.8855C24.8218 12.9903 24.9617 13.0661 25.1134 13.1068C26.3897 13.4498 27.3334 14.6037 27.3334 16C27.3334 17.3963 26.3895 18.5495 25.1121 18.8932C24.9606 18.9341 24.8208 19.01 24.7041 19.1149C24.5873 19.2198 24.4969 19.3506 24.4401 19.4969C24.3833 19.6432 24.3618 19.8008 24.3772 19.9569C24.3925 20.1131 24.4445 20.2635 24.5287 20.3958C25.2658 21.5552 25.1403 23.102 24.1212 24.1211C23.1021 25.1402 21.5553 25.2658 20.3959 24.5287C20.2634 24.4444 20.113 24.3925 19.9568 24.3772C19.8005 24.3619 19.6429 24.3836 19.4966 24.4405C19.3503 24.4974 19.2194 24.588 19.1146 24.7049C19.0098 24.8218 18.934 24.9617 18.8933 25.1133C18.5502 26.3897 17.3964 27.3333 16.0001 27.3333C14.6038 27.3333 13.4506 26.3894 13.1069 25.112C13.066 24.9605 12.9901 24.8207 12.8852 24.704C12.7803 24.5872 12.6495 24.4968 12.5032 24.44C12.3569 24.3833 12.1993 24.3617 12.0431 24.3771C11.887 24.3925 11.7366 24.4444 11.6042 24.5287C10.4449 25.2658 8.89807 25.1402 7.87899 24.1211C6.8599 23.102 6.73433 21.5552 7.47144 20.3958C7.55568 20.2634 7.60756 20.1129 7.62287 19.9567C7.63818 19.8005 7.6165 19.6428 7.55958 19.4965C7.50265 19.3502 7.41209 19.2194 7.29521 19.1146C7.17833 19.0097 7.03842 18.9339 6.8868 18.8932C5.61043 18.5502 4.66675 17.3963 4.66675 16C4.66675 14.6037 5.61068 13.4505 6.8881 13.1068C7.03961 13.0659 7.17938 12.99 7.29611 12.8851C7.41284 12.7802 7.50325 12.6494 7.56004 12.5031C7.61683 12.3568 7.6384 12.1992 7.62301 12.0431C7.60761 11.8869 7.55569 11.7366 7.47144 11.6042C6.73433 10.4448 6.8599 8.898 7.87899 7.87891C8.89807 6.85983 10.4449 6.73425 11.6042 7.47136C11.7367 7.5556 11.8872 7.60748 12.0434 7.62279C12.1996 7.63811 12.3573 7.61642 12.5036 7.5595C12.6499 7.50258 12.7807 7.41201 12.8855 7.29513C12.9903 7.17825 13.0662 7.03834 13.1069 6.88672C13.4499 5.61035 14.6038 4.66667 16.0001 4.66667ZM20.9805 11.9909C20.7208 11.9985 20.4743 12.1068 20.293 12.293L14.3334 18.2526L11.7071 15.6263C11.615 15.5303 11.5046 15.4537 11.3825 15.4009C11.2603 15.3481 11.1289 15.3203 10.9959 15.3189C10.8628 15.3176 10.7309 15.3428 10.6077 15.3931C10.4845 15.4433 10.3726 15.5177 10.2785 15.6118C10.1844 15.7059 10.1101 15.8178 10.0598 15.9409C10.0095 16.0641 9.9843 16.1961 9.98566 16.3291C9.98701 16.4622 10.0149 16.5936 10.0677 16.7157C10.1205 16.8379 10.1971 16.9482 10.293 17.0404L13.6264 20.3737C13.8139 20.5612 14.0682 20.6665 14.3334 20.6665C14.5986 20.6665 14.8529 20.5612 15.0404 20.3737L21.7071 13.707C21.8514 13.5665 21.9499 13.3857 21.9897 13.1883C22.0295 12.9909 22.0088 12.7861 21.9303 12.6007C21.8518 12.4152 21.7191 12.2578 21.5497 12.149C21.3802 12.0402 21.1818 11.9851 20.9805 11.9909Z" fill="#2D9CDB"/>
</svg>
