<svg width="32" height="32" viewBox="0 0 32 32" fill="none" xmlns="http://www.w3.org/2000/svg">
<path d="M16 2.66667C14.0946 2.66667 12.481 3.77006 11.6393 5.34896C9.88098 4.73201 7.86423 5.06545 6.46483 6.46485C5.0654 7.86428 4.73322 9.87966 5.35025 11.638C3.77059 12.4799 2.66666 14.0942 2.66666 16C2.66666 17.9054 3.77005 19.519 5.34895 20.3607C4.732 22.119 5.06544 24.1358 6.46483 25.5352C7.86427 26.9346 9.87965 27.2668 11.638 26.6497C12.4799 28.2294 14.0942 29.3333 16 29.3333C17.9054 29.3333 19.519 28.2299 20.3607 26.651C22.119 27.268 24.1358 26.9346 25.5351 25.5352C26.9346 24.1357 27.2668 22.1203 26.6497 20.362C28.2294 19.5201 29.3333 17.9058 29.3333 16C29.3333 14.0946 28.2299 12.481 26.651 11.6393C27.268 9.881 26.9345 7.86424 25.5351 6.46485C24.1357 5.06541 22.1203 4.73324 20.362 5.35027C19.5201 3.7706 17.9058 2.66667 16 2.66667ZM16 4.66667C17.3963 4.66667 18.5495 5.6106 18.8932 6.88803C18.9341 7.03953 19.01 7.1793 19.1149 7.29603C19.2197 7.41276 19.3506 7.50317 19.4969 7.55996C19.6432 7.61675 19.8008 7.63832 19.9569 7.62293C20.1131 7.60754 20.2634 7.55561 20.3958 7.47136C21.5552 6.73425 23.102 6.85983 24.1211 7.87891C25.1402 8.898 25.2657 10.4448 24.5286 11.6042C24.4444 11.7366 24.3925 11.8871 24.3772 12.0433C24.3619 12.1996 24.3836 12.3572 24.4405 12.5035C24.4974 12.6498 24.588 12.7807 24.7049 12.8855C24.8217 12.9903 24.9617 13.0661 25.1133 13.1068C26.3896 13.4498 27.3333 14.6037 27.3333 16C27.3333 17.3963 26.3894 18.5495 25.112 18.8932C24.9605 18.9341 24.8207 19.01 24.704 19.1149C24.5872 19.2198 24.4968 19.3506 24.44 19.4969C24.3832 19.6432 24.3617 19.8008 24.3771 19.9569C24.3925 20.1131 24.4444 20.2635 24.5286 20.3958C25.2657 21.5552 25.1402 23.102 24.1211 24.1211C23.102 25.1402 21.5552 25.2658 20.3958 24.5287C20.2634 24.4444 20.1129 24.3925 19.9567 24.3772C19.8004 24.3619 19.6428 24.3836 19.4965 24.4405C19.3502 24.4974 19.2193 24.588 19.1145 24.7049C19.0097 24.8218 18.9339 24.9617 18.8932 25.1133C18.5502 26.3897 17.3963 27.3333 16 27.3333C14.6037 27.3333 13.4505 26.3894 13.1068 25.112C13.0659 24.9605 12.99 24.8207 12.8851 24.704C12.7802 24.5872 12.6494 24.4968 12.5031 24.44C12.3568 24.3833 12.1992 24.3617 12.043 24.3771C11.8869 24.3925 11.7365 24.4444 11.6042 24.5287C10.4448 25.2658 8.89798 25.1402 7.8789 24.1211C6.85981 23.102 6.73424 21.5552 7.47134 20.3958C7.55559 20.2634 7.60747 20.1129 7.62278 19.9567C7.63809 19.8005 7.61641 19.6428 7.55948 19.4965C7.50256 19.3502 7.412 19.2194 7.29512 19.1146C7.17824 19.0097 7.03833 18.9339 6.88671 18.8932C5.61033 18.5502 4.66666 17.3963 4.66666 16C4.66666 14.6037 5.61058 13.4505 6.88801 13.1068C7.03952 13.0659 7.17929 12.99 7.29602 12.8851C7.41274 12.7802 7.50316 12.6494 7.55995 12.5031C7.61674 12.3568 7.63831 12.1992 7.62291 12.0431C7.60752 11.8869 7.5556 11.7366 7.47134 11.6042C6.73424 10.4448 6.85981 8.898 7.8789 7.87891C8.89798 6.85983 10.4448 6.73425 11.6042 7.47136C11.7366 7.5556 11.8871 7.60748 12.0433 7.62279C12.1995 7.63811 12.3572 7.61642 12.5035 7.5595C12.6498 7.50258 12.7806 7.41201 12.8854 7.29513C12.9902 7.17825 13.0661 7.03834 13.1068 6.88672C13.4498 5.61035 14.6037 4.66667 16 4.66667ZM20.9805 11.9909C20.7208 11.9985 20.4742 12.1068 20.293 12.293L14.3333 18.2526L11.707 15.6263C11.6149 15.5303 11.5045 15.4537 11.3824 15.4009C11.2603 15.3481 11.1288 15.3203 10.9958 15.3189C10.8627 15.3176 10.7308 15.3428 10.6076 15.3931C10.4844 15.4433 10.3725 15.5177 10.2784 15.6118C10.1844 15.7059 10.11 15.8178 10.0597 15.9409C10.0094 16.0641 9.98421 16.1961 9.98556 16.3291C9.98692 16.4622 10.0148 16.5936 10.0676 16.7157C10.1204 16.8379 10.197 16.9482 10.293 17.0404L13.6263 20.3737C13.8138 20.5612 14.0682 20.6665 14.3333 20.6665C14.5985 20.6665 14.8528 20.5612 15.0404 20.3737L21.707 13.707C21.8513 13.5665 21.9498 13.3857 21.9896 13.1883C22.0294 12.9909 22.0087 12.7861 21.9302 12.6007C21.8517 12.4152 21.719 12.2578 21.5496 12.149C21.3801 12.0402 21.1818 11.9851 20.9805 11.9909Z" fill="#00B074"/>
</svg>
