<svg width="24" height="24" viewBox="0 0 24 24" fill="none" xmlns="http://www.w3.org/2000/svg">
<path d="M4.25 2.5C3.01625 2.5 2 3.51625 2 4.75V15.25C2 16.4838 3.01625 17.5 4.25 17.5H8.5V20H6.75C6.65062 19.9986 6.55194 20.017 6.45972 20.054C6.36749 20.0911 6.28355 20.1461 6.21277 20.2159C6.142 20.2857 6.08579 20.3688 6.04743 20.4605C6.00907 20.5522 5.98932 20.6506 5.98932 20.75C5.98932 20.8494 6.00907 20.9478 6.04743 21.0395C6.08579 21.1312 6.142 21.2143 6.21277 21.2841C6.28355 21.3539 6.36749 21.4089 6.45972 21.446C6.55194 21.483 6.65062 21.5014 6.75 21.5H9.12695C9.20747 21.5132 9.2896 21.5132 9.37012 21.5H14.627C14.7075 21.5132 14.7896 21.5132 14.8701 21.5H17.25C17.3494 21.5014 17.4481 21.483 17.5403 21.446C17.6325 21.4089 17.7164 21.3539 17.7872 21.2841C17.858 21.2143 17.9142 21.1312 17.9526 21.0395C17.9909 20.9478 18.0107 20.8494 18.0107 20.75C18.0107 20.6506 17.9909 20.5522 17.9526 20.4605C17.9142 20.3688 17.858 20.2857 17.7872 20.2159C17.7164 20.1461 17.6325 20.0911 17.5403 20.054C17.4481 20.017 17.3494 19.9986 17.25 20H15.5V17.5H19.75C20.9838 17.5 22 16.4838 22 15.25V4.75C22 3.51625 20.9838 2.5 19.75 2.5H4.25ZM4.25 4H19.75C20.1733 4 20.5 4.32675 20.5 4.75V15.25C20.5 15.6732 20.1733 16 19.75 16H14.873C14.7925 15.9868 14.7104 15.9868 14.6299 16H9.37305C9.29253 15.9868 9.2104 15.9868 9.12988 16H4.25C3.82675 16 3.5 15.6732 3.5 15.25V4.75C3.5 4.32675 3.82675 4 4.25 4ZM11.9883 5.48926C11.7895 5.49236 11.6002 5.57423 11.4617 5.71686C11.3233 5.8595 11.2471 6.05125 11.25 6.25V10.75C11.2486 10.8494 11.267 10.9481 11.304 11.0403C11.3411 11.1325 11.3961 11.2164 11.4659 11.2872C11.5357 11.358 11.6188 11.4142 11.7105 11.4526C11.8022 11.4909 11.9006 11.5107 12 11.5107C12.0994 11.5107 12.1978 11.4909 12.2895 11.4526C12.3812 11.4142 12.4643 11.358 12.5341 11.2872C12.6039 11.2164 12.6589 11.1325 12.696 11.0403C12.733 10.9481 12.7514 10.8494 12.75 10.75V6.25C12.7514 6.14962 12.7327 6.04997 12.6949 5.95695C12.6571 5.86394 12.6011 5.77946 12.53 5.70852C12.459 5.63757 12.3745 5.58161 12.2814 5.54395C12.1883 5.50629 12.0887 5.48769 11.9883 5.48926ZM12 12.5C11.7348 12.5 11.4804 12.6054 11.2929 12.7929C11.1054 12.9804 11 13.2348 11 13.5C11 13.7652 11.1054 14.0196 11.2929 14.2071C11.4804 14.3946 11.7348 14.5 12 14.5C12.2652 14.5 12.5196 14.3946 12.7071 14.2071C12.8946 14.0196 13 13.7652 13 13.5C13 13.2348 12.8946 12.9804 12.7071 12.7929C12.5196 12.6054 12.2652 12.5 12 12.5ZM10 17.5H14V20H10V17.5Z" fill="black"/>
</svg>
