<svg width="32" height="32" viewBox="0 0 32 32" fill="none" xmlns="http://www.w3.org/2000/svg">
<path d="M26.9805 4.03908C26.9448 4.04021 26.9091 4.04325 26.8737 4.04819H20.3334C20.2008 4.04632 20.0693 4.0708 19.9463 4.12021C19.8233 4.16963 19.7114 4.24299 19.6171 4.33603C19.5227 4.42908 19.4477 4.53995 19.3966 4.66221C19.3455 4.78446 19.3191 4.91567 19.3191 5.04819C19.3191 5.18072 19.3455 5.31192 19.3966 5.43418C19.4477 5.55643 19.5227 5.66731 19.6171 5.76035C19.7114 5.8534 19.8233 5.92676 19.9463 5.97617C20.0693 6.02558 20.2008 6.05007 20.3334 6.04819H24.586L4.29299 26.3412C4.19702 26.4333 4.12039 26.5437 4.06761 26.6658C4.01483 26.7879 3.98694 26.9194 3.98559 27.0524C3.98423 27.1854 4.00944 27.3174 4.05973 27.4406C4.11002 27.5638 4.18438 27.6757 4.27846 27.7698C4.37254 27.8638 4.48444 27.9382 4.60762 27.9885C4.73079 28.0388 4.86277 28.064 4.99581 28.0626C5.12885 28.0613 5.26028 28.0334 5.38241 27.9806C5.50454 27.9278 5.61491 27.8512 5.70705 27.7552L26 7.46225V11.7149C25.9981 11.8474 26.0226 11.9789 26.072 12.1019C26.1215 12.2249 26.1948 12.3368 26.2879 12.4312C26.3809 12.5255 26.4918 12.6005 26.614 12.6516C26.7363 12.7028 26.8675 12.7291 27 12.7291C27.1325 12.7291 27.2638 12.7028 27.386 12.6516C27.5083 12.6005 27.6191 12.5255 27.7122 12.4312C27.8052 12.3368 27.8786 12.2249 27.928 12.1019C27.9774 11.9789 28.0019 11.8474 28 11.7149V5.17449C28.0197 5.03062 28.0079 4.88418 27.9653 4.74535C27.9227 4.60652 27.8503 4.47863 27.7533 4.37058C27.6563 4.26253 27.5369 4.17691 27.4034 4.11966C27.27 4.06241 27.1256 4.03491 26.9805 4.03908ZM5.00002 4.04949C4.74419 4.04949 4.48832 4.14713 4.29299 4.34246C3.90232 4.73246 3.90232 5.36653 4.29299 5.75653L13.6433 15.1055L15.0573 13.6914L5.70705 4.34246C5.51172 4.14713 5.25585 4.04949 5.00002 4.04949ZM18.3568 16.9909L16.9427 18.405L24.586 26.0482H20.3334C20.2008 26.0463 20.0693 26.0708 19.9463 26.1202C19.8233 26.1696 19.7114 26.243 19.6171 26.336C19.5227 26.4291 19.4477 26.5399 19.3966 26.6622C19.3455 26.7845 19.3191 26.9157 19.3191 27.0482C19.3191 27.1807 19.3455 27.3119 19.3966 27.4342C19.4477 27.5564 19.5227 27.6673 19.6171 27.7604C19.7114 27.8534 19.8233 27.9268 19.9463 27.9762C20.0693 28.0256 20.2008 28.0501 20.3334 28.0482H27C27.063 28.048 27.1257 28.0419 27.1875 28.03C27.1888 28.03 27.1901 28.03 27.1914 28.03C27.1918 28.0299 27.1923 28.03 27.1927 28.03C27.2483 28.0185 27.3027 28.0024 27.3555 27.9818C27.3659 27.9778 27.3764 27.9744 27.3867 27.9701C27.3876 27.9697 27.3885 27.9691 27.3893 27.9688C27.4381 27.9478 27.4851 27.923 27.53 27.8945C27.5394 27.8886 27.5493 27.8839 27.5586 27.8776C27.6089 27.8433 27.656 27.8046 27.6992 27.7617C27.7027 27.7587 27.7062 27.7557 27.7097 27.7526C27.7504 27.7112 27.7874 27.6663 27.8203 27.6185C27.8273 27.6085 27.8346 27.5987 27.8412 27.5886C27.842 27.5868 27.8429 27.5851 27.8438 27.5833C27.8716 27.5393 27.896 27.4932 27.9167 27.4453C27.9209 27.4357 27.9259 27.4264 27.9297 27.4167C27.9498 27.3643 27.9655 27.3103 27.9766 27.2552C27.9783 27.2473 27.9816 27.2398 27.9831 27.2318C27.9944 27.1712 28 27.1098 28 27.0482V20.3815C28.0018 20.2478 27.9767 20.1151 27.9262 19.9912C27.8758 19.8673 27.801 19.7548 27.7063 19.6604C27.6116 19.5659 27.4989 19.4914 27.3749 19.4413C27.2509 19.3912 27.1181 19.3664 26.9844 19.3685C26.7196 19.3726 26.4673 19.4816 26.2828 19.6715C26.0983 19.8614 25.9966 20.1168 26 20.3815V24.6341L18.3568 16.9909Z" fill="#8B9DB8"/>
</svg>
