<svg width="20" height="20" viewBox="0 0 20 20" fill="none" xmlns="http://www.w3.org/2000/svg">
<path d="M15.992 13.925C16.4247 13.4085 16.6634 12.7571 16.667 12.0833C16.667 11.3098 16.3597 10.5679 15.8127 10.0209C15.2657 9.47393 14.5239 9.16664 13.7503 9.16664H13.517C14.2042 8.34996 14.5819 7.31733 14.5837 6.24997C14.5856 5.48043 14.3938 4.72278 14.0258 4.04691C13.6578 3.37103 13.1256 2.79868 12.4783 2.38263C11.8309 1.96659 11.0891 1.72025 10.3215 1.66633C9.55384 1.6124 8.78496 1.75264 8.08577 2.0741C7.38658 2.39555 6.77959 2.88789 6.32077 3.50569C5.86194 4.12349 5.56606 4.84688 5.46041 5.60914C5.35476 6.3714 5.44273 7.14799 5.71623 7.86729C5.98972 8.5866 6.43993 9.22546 7.02533 9.72497C5.45055 10.3268 4.09535 11.3922 3.13867 12.7803C2.182 14.1684 1.66885 15.8141 1.66699 17.5C1.66699 17.721 1.75479 17.9329 1.91107 18.0892C2.06735 18.2455 2.27931 18.3333 2.50033 18.3333C2.72134 18.3333 2.9333 18.2455 3.08958 18.0892C3.24586 17.9329 3.33366 17.721 3.33366 17.5C3.33366 15.7319 4.03604 14.0362 5.28628 12.7859C6.53652 11.5357 8.23222 10.8333 10.0003 10.8333H11.1253C10.8812 11.33 10.7875 11.8871 10.8556 12.4363C10.9237 12.9856 11.1507 13.5029 11.5087 13.925C10.7987 14.3221 10.2075 14.9013 9.79589 15.6029C9.38429 16.3045 9.1672 17.1032 9.16699 17.9166C9.16699 18.1376 9.25479 18.3496 9.41107 18.5059C9.56735 18.6622 9.77931 18.75 10.0003 18.75C10.2213 18.75 10.4333 18.6622 10.5896 18.5059C10.7459 18.3496 10.8337 18.1376 10.8337 17.9166C10.8337 17.1431 11.141 16.4012 11.6879 15.8542C12.2349 15.3073 12.9768 15 13.7503 15C14.5239 15 15.2657 15.3073 15.8127 15.8542C16.3597 16.4012 16.667 17.1431 16.667 17.9166C16.667 18.1376 16.7548 18.3496 16.9111 18.5059C17.0674 18.6622 17.2793 18.75 17.5003 18.75C17.7213 18.75 17.9333 18.6622 18.0896 18.5059C18.2459 18.3496 18.3337 18.1376 18.3337 17.9166C18.3334 17.1032 18.1164 16.3045 17.7048 15.6029C17.2932 14.9013 16.7019 14.3221 15.992 13.925ZM10.0003 9.16664C9.42346 9.16664 8.85956 8.99558 8.37991 8.67509C7.90027 8.3546 7.52643 7.89908 7.30568 7.36613C7.08492 6.83318 7.02716 6.24674 7.1397 5.68096C7.25224 5.11518 7.53003 4.59548 7.93793 4.18758C8.34583 3.77968 8.86553 3.50189 9.43131 3.38935C9.99709 3.27681 10.5835 3.33457 11.1165 3.55532C11.6494 3.77608 12.105 4.14992 12.4254 4.62956C12.7459 5.1092 12.917 5.67311 12.917 6.24997C12.917 7.02352 12.6097 7.76539 12.0627 8.31237C11.5157 8.85935 10.7739 9.16664 10.0003 9.16664ZM13.7503 13.3333C13.4188 13.3333 13.1009 13.2016 12.8664 12.9672C12.632 12.7328 12.5003 12.4148 12.5003 12.0833C12.5025 11.7525 12.6349 11.4358 12.8689 11.2018C13.1028 10.9679 13.4195 10.8355 13.7503 10.8333C14.0818 10.8333 14.3998 10.965 14.6342 11.1994C14.8686 11.4338 15.0003 11.7518 15.0003 12.0833C15.0003 12.4148 14.8686 12.7328 14.6342 12.9672C14.3998 13.2016 14.0818 13.3333 13.7503 13.3333Z" fill="#464255"/>
</svg>
