<svg width="24" height="24" viewBox="0 0 24 24" fill="none" xmlns="http://www.w3.org/2000/svg">
<path d="M9 3.5C4.31446 3.5 0.5 7.31446 0.5 12C0.5 16.6855 4.31446 20.5 9 20.5C9.51248 20.5 10.0122 20.4468 10.5 20.3594C10.9861 20.4467 11.4858 20.5 12 20.5C12.5127 20.5 13.012 20.4469 13.5 20.3594C13.9861 20.4467 14.4858 20.5 15 20.5C19.6854 20.5 23.5 16.6854 23.5 12C23.5 7.31463 19.6854 3.5 15 3.5C14.4858 3.5 13.9861 3.55327 13.5 3.64062C13.012 3.55313 12.5127 3.5 12 3.5C11.4858 3.5 10.9861 3.55327 10.5 3.64062C10.0122 3.55321 9.51248 3.5 9 3.5ZM9 5C9.43577 5 9.86001 5.04445 10.2734 5.12012C10.3291 5.13646 10.3864 5.14629 10.4443 5.14941C13.6225 5.8127 16 8.62073 16 12C16 15.3796 13.6219 18.1877 10.4434 18.8506C10.3848 18.8536 10.3268 18.8634 10.2705 18.8799C9.85797 18.9552 9.43478 19 9 19C5.12512 19 2 15.8749 2 12C2 8.12512 5.12512 5 9 5ZM14.3672 5.41699C17.0702 6.38546 19 8.95804 19 12C19 15.042 17.0702 17.6145 14.3672 18.583C16.2772 17.0228 17.5 14.6518 17.5 12C17.5 9.34817 16.2772 6.9772 14.3672 5.41699ZM17.3672 5.41699C20.0702 6.38546 22 8.95804 22 12C22 15.042 20.0702 17.6145 17.3672 18.583C19.2772 17.0228 20.5 14.6517 20.5 12C20.5 9.34826 19.2772 6.97723 17.3672 5.41699ZM7.92285 8.5C7.56235 8.5 7.25205 8.75683 7.18555 9.11133L6.7627 11.3613C6.7217 11.5808 6.78035 11.807 6.92285 11.9785C7.06485 12.15 7.277 12.25 7.5 12.25H9.125C9.6075 12.25 10 12.6425 10 13.125C10 13.848 9.4565 14 9 14C8.1925 14 7.74246 13.6812 7.70996 13.6572C7.38646 13.4057 6.92006 13.4602 6.66406 13.7812C6.40506 14.1047 6.45775 14.5769 6.78125 14.8359C6.86625 14.9039 7.651 15.5 9 15.5C10.472 15.5 11.4995 14.5235 11.499 13.125C11.499 11.8155 10.4335 10.75 9.12402 10.75H8.4043L8.54492 10H10.5C10.9145 10 11.25 9.6645 11.25 9.25C11.25 8.8355 10.9145 8.5 10.5 8.5H7.92285Z" fill="black"/>
</svg>
