<svg width="32" height="32" viewBox="0 0 32 32" fill="none" xmlns="http://www.w3.org/2000/svg">
<path d="M5 4C4.448 4 4 4.44733 4 5V24.3333C4 26.3553 5.64533 28 7.66667 28H16.0378C15.6411 27.382 15.3192 26.712 15.0885 26H7.66667C6.74733 26 6 25.252 6 24.3333V6H26V15.0898C26.712 15.3198 27.382 15.6424 28 16.0391V5C28 4.44733 27.552 4 27 4H5ZM13.6667 8.66667C13.5342 8.66479 13.4026 8.68927 13.2796 8.73869C13.1567 8.7881 13.0447 8.86146 12.9504 8.95451C12.856 9.04755 12.7811 9.15842 12.7299 9.28068C12.6788 9.40294 12.6524 9.53414 12.6524 9.66667C12.6524 9.79919 12.6788 9.93039 12.7299 10.0527C12.7811 10.1749 12.856 10.2858 12.9504 10.3788C13.0447 10.4719 13.1567 10.5452 13.2796 10.5946C13.4026 10.6441 13.5342 10.6685 13.6667 10.6667H18.3333C18.4658 10.6685 18.5974 10.6441 18.7204 10.5946C18.8433 10.5452 18.9553 10.4719 19.0496 10.3788C19.144 10.2858 19.2189 10.1749 19.2701 10.0527C19.3212 9.93039 19.3476 9.79919 19.3476 9.66667C19.3476 9.53414 19.3212 9.40294 19.2701 9.28068C19.2189 9.15842 19.144 9.04755 19.0496 8.95451C18.9553 8.86146 18.8433 8.7881 18.7204 8.73869C18.5974 8.68927 18.4658 8.66479 18.3333 8.66667H13.6667ZM23.3333 16C19.2833 16 16 19.2833 16 23.3333C16 27.3833 19.2833 30.6667 23.3333 30.6667C27.3833 30.6667 30.6667 27.3833 30.6667 23.3333C30.6667 19.2833 27.3833 16 23.3333 16ZM27.3333 20C27.5038 20 27.6744 20.065 27.8047 20.1953C28.0654 20.456 28.0654 20.8774 27.8047 21.138L22.4714 26.4714C22.3414 26.6014 22.1707 26.6667 22 26.6667C21.8293 26.6667 21.6586 26.6014 21.5286 26.4714L18.862 23.8047C18.6013 23.544 18.6013 23.1226 18.862 22.862C19.1226 22.6013 19.544 22.6013 19.8047 22.862L22 25.0573L26.862 20.1953C26.9923 20.065 27.1628 20 27.3333 20Z" fill="#2D9CDB"/>
</svg>
