<svg width="48" height="48" viewBox="0 0 48 48" fill="none" xmlns="http://www.w3.org/2000/svg">
<path d="M36.26 27.952C35.7451 26.929 35.0192 26.0268 34.13 25.305C33.0835 24.4644 31.9301 23.7663 30.7 23.229C29.0112 22.4873 27.2857 21.8325 25.53 21.267C23.9835 20.8539 22.5238 20.1667 21.22 19.238C20.8408 18.9138 20.5396 18.5082 20.3388 18.0515C20.1379 17.5947 20.0427 17.0986 20.06 16.6C20.0335 16.0412 20.1259 15.4832 20.331 14.9628C20.5362 14.4424 20.8494 13.9714 21.25 13.581C22.205 12.8524 23.3913 12.4937 24.59 12.571C25.2283 12.5397 25.8664 12.6374 26.4661 12.8584C27.0657 13.0793 27.6146 13.419 28.08 13.857C28.719 14.6164 29.1216 15.5464 29.238 16.532C29.2813 16.7598 29.4037 16.965 29.5836 17.1113C29.7634 17.2577 29.9892 17.3359 30.221 17.332H35.845C35.9867 17.3358 36.1275 17.3087 36.2577 17.2526C36.3878 17.1965 36.5042 17.1127 36.5987 17.0071C36.6932 16.9015 36.7636 16.7765 36.8049 16.6409C36.8462 16.5053 36.8575 16.3624 36.838 16.222C36.563 14.3023 35.7009 12.5146 34.37 11.104C32.3671 9.24618 29.794 8.12142 27.07 7.913L27 7.907V4.952C26.9935 4.69321 26.8845 4.4476 26.697 4.26911C26.5095 4.09061 26.2588 3.99383 26 4H23C22.7412 3.99383 22.4905 4.09061 22.303 4.26911C22.1156 4.4476 22.0066 4.69321 22 4.952V7.942C19.4176 8.15355 16.942 9.06602 14.84 10.581C13.934 11.2903 13.2057 12.2009 12.7127 13.2407C12.2198 14.2804 11.9757 15.4206 12 16.571C11.9667 17.8405 12.2521 19.0982 12.83 20.229C13.4005 21.2784 14.1921 22.1915 15.15 22.905C16.4093 23.7252 17.758 24.3992 19.17 24.914C20.7881 25.5904 22.4403 26.1819 24.12 26.686C25.4767 27.0447 26.7347 27.7055 27.8 28.619C28.1981 28.9714 28.5125 29.4083 28.7201 29.8977C28.9277 30.3872 29.0233 30.9168 29 31.448C29.0169 32.0125 28.9051 32.5734 28.6729 33.0882C28.4407 33.6029 28.0943 34.0581 27.66 34.419C26.7282 35.1477 25.5604 35.5073 24.38 35.429C22.8306 35.5337 21.2998 35.043 20.1 34.057C19.082 33.1053 18.376 31.8677 18.075 30.507C18.0305 30.2811 17.9082 30.078 17.7293 29.933C17.5503 29.7881 17.3262 29.7106 17.096 29.714H12.043C11.9067 29.7113 11.7712 29.737 11.6454 29.7895C11.5195 29.842 11.4059 29.9201 11.3119 30.0189C11.2178 30.1176 11.1454 30.2349 11.0991 30.3632C11.0528 30.4914 11.0337 30.6279 11.043 30.764C11.1743 33.1273 12.2205 35.3467 13.96 36.952C15.878 38.677 18.571 39.629 22 40.059V43.048C22.0066 43.3068 22.1156 43.5524 22.303 43.7309C22.4905 43.9094 22.7412 44.0062 23 44H26C26.2588 44.0062 26.5095 43.9094 26.697 43.7309C26.8845 43.5524 26.9935 43.3068 27 43.048V40.024C29.6125 39.8705 32.1211 38.9474 34.21 37.371C35.1078 36.6616 35.8275 35.7524 36.3119 34.7158C36.7963 33.6792 37.0319 32.5438 37 31.4C37.0257 30.2087 36.7723 29.0279 36.26 27.952Z" fill="url(#paint0_linear_312_13402)"/>
<defs>
<linearGradient id="paint0_linear_312_13402" x1="24.02" y1="4" x2="24.02" y2="44" gradientUnits="userSpaceOnUse">
<stop offset="0.278" stop-color="#4ADB2E"/>
<stop offset="0.554" stop-color="#43CE21"/>
<stop offset="1" stop-color="#33B004"/>
</linearGradient>
</defs>
</svg>
