<svg width="32" height="32" viewBox="0 0 32 32" fill="none" xmlns="http://www.w3.org/2000/svg">
<path d="M9.66667 4.66666C7.65348 4.66666 6 6.32014 6 8.33332V20.3333C6 22.3465 7.65348 24 9.66667 24H25.6667C27.6798 24 29.3333 22.3465 29.3333 20.3333V8.33332C29.3333 6.32014 27.6798 4.66666 25.6667 4.66666H9.66667ZM9.66667 6.66666H25.6667C26.5988 6.66666 27.3333 7.40117 27.3333 8.33332V20.3333C27.3333 21.2655 26.5988 22 25.6667 22H9.66667C8.73452 22 8 21.2655 8 20.3333V8.33332C8 7.40117 8.73452 6.66666 9.66667 6.66666ZM4.66667 7.99999L3.85417 8.54166C3.11217 9.03632 2.66667 9.86907 2.66667 10.7604V21C2.66667 24.498 5.502 27.3333 9 27.3333H23.2396C24.1316 27.3333 24.9643 26.8878 25.4583 26.1458L26 25.3333H9C6.60667 25.3333 4.66667 23.3933 4.66667 21V7.99999ZM17.651 9.98567C17.3861 9.98981 17.1335 10.099 16.949 10.2891C16.7644 10.4793 16.6629 10.735 16.6667 11V13.3333H14.3333C14.2008 13.3314 14.0693 13.3559 13.9463 13.4053C13.8233 13.4548 13.7114 13.5281 13.617 13.6212C13.5227 13.7142 13.4477 13.8251 13.3966 13.9473C13.3454 14.0696 13.3191 14.2008 13.3191 14.3333C13.3191 14.4658 13.3454 14.5971 13.3966 14.7193C13.4477 14.8416 13.5227 14.9524 13.617 15.0455C13.7114 15.1385 13.8233 15.2119 13.9463 15.2613C14.0693 15.3107 14.2008 15.3352 14.3333 15.3333H16.6667V17.6667C16.6648 17.7992 16.6893 17.9307 16.7387 18.0537C16.7881 18.1767 16.8615 18.2886 16.9545 18.383C17.0476 18.4773 17.1584 18.5523 17.2807 18.6034C17.4029 18.6546 17.5341 18.6809 17.6667 18.6809C17.7992 18.6809 17.9304 18.6546 18.0527 18.6034C18.1749 18.5523 18.2858 18.4773 18.3788 18.383C18.4719 18.2886 18.5452 18.1767 18.5946 18.0537C18.6441 17.9307 18.6685 17.7992 18.6667 17.6667V15.3333H21C21.1325 15.3352 21.2641 15.3107 21.387 15.2613C21.51 15.2119 21.6219 15.1385 21.7163 15.0455C21.8107 14.9524 21.8856 14.8416 21.9368 14.7193C21.9879 14.5971 22.0142 14.4658 22.0142 14.3333C22.0142 14.2008 21.9879 14.0696 21.9368 13.9473C21.8856 13.8251 21.8107 13.7142 21.7163 13.6212C21.6219 13.5281 21.51 13.4548 21.387 13.4053C21.2641 13.3559 21.1325 13.3314 21 13.3333H18.6667V11C18.6686 10.8661 18.6436 10.7333 18.5932 10.6093C18.5429 10.4852 18.4681 10.3726 18.3734 10.278C18.2787 10.1834 18.1659 10.1088 18.0419 10.0586C17.9178 10.0084 17.7849 9.98357 17.651 9.98567Z" fill="#8976FF"/>
</svg>
