<svg width="32" height="32" viewBox="0 0 32 32" fill="none" xmlns="http://www.w3.org/2000/svg">
<path d="M11.5 3.33334C6.63349 3.33334 2.66666 7.30017 2.66666 12.1667C2.66666 17.0332 6.63349 21 11.5 21C11.8693 21 12.2316 20.9701 12.5898 20.9258L10.3034 25.0755C9.43738 26.6469 10.6181 28.6667 12.4141 28.6667H26.9193C28.7148 28.6667 29.8967 26.6484 29.0312 25.0768L29.0299 25.0755L21.7773 11.9154C21.4316 11.2887 20.8523 10.9075 20.2213 10.7669C19.5491 6.55788 15.8905 3.33334 11.5 3.33334ZM11.5 5.33334C14.9371 5.33334 17.7619 7.85062 18.2539 11.1432C17.9766 11.3372 17.7342 11.5923 17.556 11.9154L13.8945 18.5599C13.1489 18.8397 12.3465 19 11.5 19C7.71449 19 4.66666 15.9522 4.66666 12.1667C4.66666 8.38118 7.71449 5.33334 11.5 5.33334ZM11.651 7.31902C11.386 7.32316 11.1335 7.43231 10.949 7.6225C10.7644 7.81268 10.6629 8.06835 10.6667 8.33334V11.3333H8.99999C8.86748 11.3315 8.73592 11.356 8.61295 11.4054C8.48998 11.4548 8.37806 11.5281 8.28369 11.6212C8.18932 11.7142 8.11438 11.8251 8.06323 11.9474C8.01209 12.0696 7.98575 12.2008 7.98575 12.3333C7.98575 12.4659 8.01209 12.5971 8.06323 12.7193C8.11438 12.8416 8.18932 12.9525 8.28369 13.0455C8.37806 13.1385 8.48998 13.2119 8.61295 13.2613C8.73592 13.3107 8.86748 13.3352 8.99999 13.3333H11.6667C11.9319 13.3333 12.1862 13.228 12.3737 13.0404C12.5613 12.8529 12.6666 12.5986 12.6667 12.3333V8.33334C12.6686 8.1995 12.6436 8.06663 12.5932 7.94262C12.5429 7.8186 12.4681 7.70596 12.3734 7.61137C12.2787 7.51678 12.1659 7.44216 12.0419 7.39194C11.9178 7.34173 11.7849 7.31693 11.651 7.31902ZM19.6667 12.6289C19.8003 12.6289 19.9335 12.7139 20.026 12.8815L27.2786 26.0417C27.4558 26.3635 27.2757 26.6667 26.9193 26.6667H12.4141C12.058 26.6667 11.878 26.3623 12.0547 26.0417L19.3073 12.8815C19.3998 12.7139 19.533 12.6289 19.6667 12.6289ZM19.651 15.9857C19.386 15.9898 19.1335 16.099 18.949 16.2892C18.7644 16.4793 18.6629 16.735 18.6667 17V20.3333C18.6648 20.4659 18.6893 20.5974 18.7387 20.7204C18.7881 20.8434 18.8615 20.9553 18.9545 21.0496C19.0475 21.144 19.1584 21.219 19.2807 21.2701C19.4029 21.3212 19.5341 21.3476 19.6667 21.3476C19.7992 21.3476 19.9304 21.3212 20.0526 21.2701C20.1749 21.219 20.2858 21.144 20.3788 21.0496C20.4719 20.9553 20.5452 20.8434 20.5946 20.7204C20.644 20.5974 20.6685 20.4659 20.6667 20.3333V17C20.6686 16.8662 20.6436 16.7333 20.5932 16.6093C20.5429 16.4853 20.4681 16.3726 20.3734 16.278C20.2787 16.1834 20.1659 16.1088 20.0419 16.0586C19.9178 16.0084 19.7849 15.9836 19.651 15.9857ZM19.6667 22.6667C19.313 22.6667 18.9739 22.8072 18.7238 23.0572C18.4738 23.3072 18.3333 23.6464 18.3333 24C18.3333 24.3536 18.4738 24.6928 18.7238 24.9428C18.9739 25.1929 19.313 25.3333 19.6667 25.3333C20.0203 25.3333 20.3594 25.1929 20.6095 24.9428C20.8595 24.6928 21 24.3536 21 24C21 23.6464 20.8595 23.3072 20.6095 23.0572C20.3594 22.8072 20.0203 22.6667 19.6667 22.6667Z" fill="#F4952B"/>
</svg>
