<svg width="21" height="21" viewBox="0 0 21 21" fill="none" xmlns="http://www.w3.org/2000/svg">
<path d="M3.75 0C2.51625 0 1.5 1.01625 1.5 2.25V9.02539C0.930115 9.14138 0.5 9.64603 0.5 10.25V15.75C0.5 16.354 0.93 16.8581 1.5 16.9746V17.75C1.5 18.9905 2.5095 20 3.75 20H15.0254L14.0127 18.9873C13.8682 18.8433 13.7525 18.6785 13.668 18.5H3.75C3.3365 18.5 3 18.1635 3 17.75V17H13.6699C13.7539 16.8215 13.8687 16.6567 14.0127 16.5127C14.5492 15.9767 15.35 15.8614 16 16.1689V15.5H2V10.5H17V11.6689C17.2275 11.5609 17.482 11.5 17.75 11.5C18.018 11.5 18.2725 11.5609 18.5 11.6689V10.25C18.5 9.64603 18.0699 9.14138 17.5 9.02539V7.25C17.5 7.0511 17.4209 6.86036 17.2803 6.71973L17.2725 6.71191L10.7803 0.219727C10.6396 0.0790744 10.4489 3.82642e-05 10.25 0H3.75ZM3.75 1.5H9.5V5.75C9.5 6.98375 10.5162 8 11.75 8H16V9H3V2.25C3 1.82675 3.32675 1.5 3.75 1.5ZM11 2.56055L14.9395 6.5H11.75C11.3268 6.5 11 6.17325 11 5.75V2.56055ZM9 11C8.724 11 8.5 11.224 8.5 11.5V14.5C8.5 14.776 8.724 15 9 15H10.5C10.776 15 11 14.776 11 14.5C11 14.224 10.776 14 10.5 14H9.5V11.5C9.5 11.224 9.276 11 9 11ZM12.8125 11C12.1235 11 11.5625 11.561 11.5625 12.25C11.5625 12.939 12.1235 13.5 12.8125 13.5H13.25C13.388 13.5 13.5 13.612 13.5 13.75C13.5 13.888 13.388 14 13.25 14H12.7041C12.5331 14 12.3925 13.873 12.3535 13.834C12.158 13.6385 11.842 13.6385 11.6465 13.834C11.451 14.0295 11.451 14.3455 11.6465 14.541C11.7845 14.679 12.1636 15 12.7041 15H13.25C13.939 15 14.5 14.439 14.5 13.75C14.5 13.061 13.939 12.5 13.25 12.5H12.8125C12.6745 12.5 12.5625 12.388 12.5625 12.25C12.5625 12.112 12.6745 12 12.8125 12H13.25C13.402 12 13.5215 12.1035 13.5215 12.1035C13.717 12.2985 14.033 12.299 14.2285 12.1035C14.424 11.908 14.424 11.592 14.2285 11.3965C14.188 11.356 13.8155 11 13.25 11H12.8125ZM5.40625 11.0088C5.34245 11.021 5.28016 11.0465 5.22266 11.085C4.99266 11.238 4.93048 11.5488 5.08398 11.7783L5.89844 13L5.08398 14.2227C4.93048 14.4527 4.99266 14.763 5.22266 14.916C5.30816 14.973 5.40402 15.001 5.49902 15.001C5.66052 15.001 5.81952 14.9223 5.91602 14.7783L6.5 13.9023L7.08398 14.7783C7.17998 14.9228 7.33948 15.001 7.50098 15.001C7.59598 15.001 7.69134 14.9725 7.77734 14.916C8.00734 14.763 8.06952 14.4522 7.91602 14.2227L7.10156 13L7.91602 11.7783C8.06952 11.5483 8.00734 11.238 7.77734 11.085C7.54634 10.931 7.23698 10.9932 7.08398 11.2227L6.5 12.0986L5.91602 11.2227C5.80089 11.0505 5.59766 10.9723 5.40625 11.0088ZM17.75 12.5C17.3355 12.5 17 12.8355 17 13.25V18.4395L15.7803 17.2197C15.4873 16.9267 15.0127 16.9267 14.7197 17.2197C14.4272 17.5127 14.4272 17.9873 14.7197 18.2803L17.2197 20.7803C17.3662 20.9268 17.558 21 17.75 21C17.942 21 18.1343 20.9268 18.2803 20.7803L20.7803 18.2803C21.0733 17.9878 21.0733 17.5122 20.7803 17.2197C20.4873 16.9267 20.0127 16.9267 19.7197 17.2197L18.5 18.4395V13.25C18.5 12.8355 18.1645 12.5 17.75 12.5Z" fill="white"/>
</svg>
