<svg width="19" height="18" viewBox="0 0 19 18" fill="none" xmlns="http://www.w3.org/2000/svg">
<g clip-path="url(#clip0_433_15684)">
<path d="M9.79575 3.6875C5.55089 3.6875 1.8107 6.46626 0.818453 10.1075C0.781351 10.244 0.80318 10.3888 0.879138 10.5101C0.955096 10.6314 1.07896 10.7192 1.22348 10.7542C1.368 10.7893 1.52135 10.7687 1.64977 10.6969C1.7782 10.6252 1.87119 10.5082 1.9083 10.3717C2.7633 7.23415 6.07561 4.75 9.79575 4.75C13.5159 4.75 16.8387 7.23503 17.6934 10.3717C17.7306 10.5082 17.8235 10.6252 17.952 10.6969C18.0804 10.7687 18.2337 10.7893 18.3783 10.7542C18.5228 10.7192 18.6467 10.6314 18.7226 10.5101C18.7986 10.3888 18.8204 10.244 18.7833 10.1075C17.7908 6.46539 14.0406 3.6875 9.79575 3.6875ZM9.80161 6.52083C7.80658 6.52083 6.17758 8.05933 6.17758 9.94352C6.17758 11.8277 7.80658 13.3669 9.80161 13.3669C11.7966 13.3669 13.4264 11.8277 13.4264 9.94352C13.4264 8.05933 11.7966 6.52083 9.80161 6.52083ZM9.80161 7.58333C11.1886 7.58333 12.3014 8.63355 12.3014 9.94352C12.3014 11.2535 11.1886 12.3044 9.80161 12.3044C8.41458 12.3044 7.30258 11.2535 7.30258 9.94352C7.30258 8.63355 8.41458 7.58333 9.80161 7.58333Z" fill="#646565"/>
</g>
<defs>
<clipPath id="clip0_433_15684">
<rect width="18" height="17" fill="white" transform="translate(0.800781 0.5)"/>
</clipPath>
</defs>
</svg>
