<svg width="20" height="20" viewBox="0 0 20 20" fill="none" xmlns="http://www.w3.org/2000/svg">
<path d="M7.91634 1.66586C7.83717 1.66586 7.75778 1.681 7.68278 1.71225L5.84521 2.44549L4.21191 1.7212C4.01608 1.6337 3.79538 1.65011 3.61621 1.76677C3.44121 1.88344 3.33301 2.07918 3.33301 2.29168V17.7083C3.33301 17.9208 3.44121 18.1166 3.61621 18.2332C3.79538 18.3499 4.02025 18.3663 4.21191 18.2788L5.84521 17.5545L7.68278 18.2878C7.83278 18.3503 7.9999 18.3503 8.1499 18.2878L9.99967 17.5497L10.0705 17.5789C9.82881 17.2164 9.63291 16.8254 9.48291 16.4087L7.91634 17.0337L6.06657 16.2956C5.90824 16.2331 5.73327 16.2337 5.5791 16.3045L4.58301 16.7456V3.2544L5.5791 3.69549C5.73327 3.76632 5.90824 3.76694 6.06657 3.70444L7.91634 2.96632L9.76611 3.70444C9.91611 3.76694 10.0832 3.76694 10.2332 3.70444L12.083 2.96632L13.9328 3.70444C14.0911 3.76694 14.2661 3.76632 14.4202 3.69549L15.4163 3.2544V9.22934C15.8538 9.30017 16.2705 9.41668 16.6663 9.58334V2.29168C16.6663 2.07918 16.5581 1.88344 16.3831 1.76677C16.204 1.65427 15.9833 1.6337 15.7874 1.7212L14.1541 2.44549L12.3166 1.71225C12.1666 1.64975 11.9994 1.64975 11.8494 1.71225L9.99967 2.45037L8.1499 1.71225C8.0749 1.681 7.99551 1.66586 7.91634 1.66586ZM6.45801 6.25001C6.37519 6.24884 6.29296 6.26414 6.21611 6.29502C6.13925 6.32591 6.0693 6.37176 6.01032 6.42991C5.95134 6.48806 5.9045 6.55736 5.87254 6.63377C5.84057 6.71018 5.82411 6.79218 5.82411 6.87501C5.82411 6.95784 5.84057 7.03984 5.87254 7.11625C5.9045 7.19266 5.95134 7.26196 6.01032 7.32011C6.0693 7.37826 6.13925 7.42411 6.21611 7.455C6.29296 7.48588 6.37519 7.50118 6.45801 7.50001H13.5413C13.6242 7.50118 13.7064 7.48588 13.7832 7.455C13.8601 7.42411 13.93 7.37826 13.989 7.32011C14.048 7.26196 14.0948 7.19266 14.1268 7.11625C14.1588 7.03984 14.1752 6.95784 14.1752 6.87501C14.1752 6.79218 14.1588 6.71018 14.1268 6.63377C14.0948 6.55736 14.048 6.48806 13.989 6.42991C13.93 6.37176 13.8601 6.32591 13.7832 6.29502C13.7064 6.26414 13.6242 6.24884 13.5413 6.25001H6.45801ZM14.583 10C12.0518 10 9.99967 12.0521 9.99967 14.5833C9.99967 17.1146 12.0518 19.1667 14.583 19.1667C17.1143 19.1667 19.1663 17.1146 19.1663 14.5833C19.1663 12.0521 17.1143 10 14.583 10ZM6.45801 10.4167C6.11217 10.4167 5.83301 10.6958 5.83301 11.0417C5.83301 11.3875 6.11217 11.6667 6.45801 11.6667H10.0208C10.3208 11.1917 10.6952 10.7708 11.1243 10.4167H6.45801ZM17.083 12.5C17.1896 12.5 17.2961 12.5406 17.3776 12.6221C17.5405 12.785 17.5405 13.0484 17.3776 13.2113L14.0443 16.5446C13.963 16.6259 13.8563 16.6667 13.7497 16.6667C13.643 16.6667 13.5363 16.6259 13.4551 16.5446L11.7884 14.8779C11.6255 14.715 11.6255 14.4517 11.7884 14.2887C11.9513 14.1258 12.2147 14.1258 12.3776 14.2887L13.7497 15.6608L16.7884 12.6221C16.8699 12.5406 16.9764 12.5 17.083 12.5ZM6.45801 12.9167C6.11217 12.9167 5.83301 13.1958 5.83301 13.5417C5.83301 13.8875 6.11217 14.1667 6.45801 14.1667H9.1875C9.21667 13.7333 9.30003 13.3167 9.4292 12.9167H6.45801Z" fill="#464255"/>
</svg>
