<svg width="133" height="105" viewBox="0 0 133 105" fill="none" xmlns="http://www.w3.org/2000/svg">
<g clip-path="url(#clip0_107_3417)">
<path d="M31.9308 56.9295C30.8693 51.2356 32.5405 44.7579 37.1854 41.3114C36.9221 47.6049 38.8884 53.7889 42.7364 58.7693C44.2274 60.6846 46.0847 62.6593 46.027 65.0879C45.9911 66.5991 45.1757 68.0069 44.1012 69.0674C43.0265 70.128 41.7028 70.8927 40.3949 71.6455L40.1914 71.9629C36.3574 67.6286 32.9923 62.6234 31.9308 56.9295Z" fill="#F0F0F0"/>
<path d="M37.27 41.3984C35.3186 45.7758 34.7928 50.6582 35.7675 55.352C35.9595 56.3663 36.3097 57.3438 36.8054 58.2487C37.3166 59.1146 38.0499 59.8274 38.929 60.3132C39.7396 60.7826 40.623 61.1687 41.3056 61.8275C41.65 62.1699 41.9183 62.5814 42.0929 63.035C42.2675 63.4886 42.3445 63.9741 42.3188 64.4596C42.2861 65.6711 41.8211 66.7985 41.3281 67.8852C40.7807 69.0918 40.193 70.3364 40.2285 71.6929C40.2328 71.8572 39.9781 71.8543 39.9738 71.6902C39.9121 69.3301 41.6145 67.4347 41.9938 65.17C42.1708 64.1133 42.0312 62.9967 41.2899 62.1776C40.6417 61.4614 39.7311 61.0624 38.9063 60.5942C38.0418 60.133 37.3031 59.4665 36.7548 58.6532C36.2148 57.7765 35.8276 56.8141 35.6097 55.8072C35.0832 53.5481 34.9143 51.2202 35.1092 48.9086C35.3171 46.2691 35.974 43.6847 37.0514 41.2673C37.1182 41.1177 37.3363 41.2498 37.27 41.3984Z" fill="white"/>
<path d="M35.3649 53.8591C34.557 53.9161 33.7551 53.6834 33.1026 53.2026C32.45 52.7217 31.9892 52.024 31.8025 51.2341C31.7653 51.0741 32.0116 51.0086 32.0488 51.1688C32.2213 51.9047 32.6506 52.5546 33.2592 53.0011C33.8678 53.4476 34.6156 53.6614 35.3676 53.6039C35.531 53.5915 35.5274 53.8469 35.3649 53.8591Z" fill="white"/>
<path d="M38.4867 60.1294C39.5835 58.8863 40.1725 57.2745 40.1363 55.6155C40.1326 55.4511 40.3873 55.454 40.391 55.6181C40.4255 57.3447 39.8091 59.0207 38.6649 60.3118C38.5558 60.4348 38.3781 60.2517 38.4867 60.1294Z" fill="white"/>
<path d="M35.6156 46.4276C35.9328 46.4708 36.2557 46.4344 36.5554 46.3217C36.8551 46.2089 37.1222 46.0233 37.3326 45.7815C37.4401 45.6572 37.6176 45.8404 37.5108 45.9639C37.2771 46.23 36.9819 46.4346 36.651 46.5599C36.3202 46.6852 35.9638 46.7275 35.6129 46.6829C35.5795 46.6815 35.5478 46.6673 35.5244 46.6434C35.501 46.6194 35.4876 46.5874 35.4869 46.5539C35.4874 46.5201 35.5012 46.4879 35.5253 46.4642C35.5494 46.4406 35.5819 46.4274 35.6156 46.4276Z" fill="white"/>
<path d="M56.1804 46.021C56.1155 46.1006 56.0505 46.1801 55.9861 46.2617C55.1185 47.3356 54.3394 48.4783 53.6564 49.6786C53.6022 49.7705 53.5486 49.8645 53.497 49.9579C51.8824 52.8672 50.8207 56.0517 50.3659 59.3495C50.1862 60.662 50.1063 61.9862 50.127 63.3108C50.1557 65.1401 50.332 67.1213 49.7726 68.8037C49.7162 68.9799 49.6489 69.1524 49.5712 69.3203L40.5935 72.1871C40.5699 72.1834 40.5467 72.1817 40.523 72.178L40.1697 72.3089C40.1639 72.2406 40.1593 72.1697 40.1535 72.1015C40.15 72.0619 40.1484 72.0217 40.1449 71.9821C40.1431 71.9556 40.1415 71.9289 40.1384 71.9051C40.1378 71.8962 40.1373 71.8873 40.1373 71.8805C40.1343 71.8566 40.1339 71.8341 40.1315 71.8123C40.1048 71.416 40.0801 71.0191 40.0596 70.6209C40.059 70.6188 40.059 70.6189 40.0603 70.6162C39.9062 67.5832 40.0034 64.5106 40.5628 61.5506C40.5796 61.4615 40.5958 61.3704 40.6167 61.2801C40.8763 59.9472 41.244 58.6378 41.7164 57.365C41.9773 56.6689 42.2732 55.9865 42.6029 55.3204C43.4583 53.6008 44.5781 52.0268 45.9214 50.6561C48.5998 47.9239 52.1201 46.0807 55.8922 46.0226C55.9887 46.0212 56.0833 46.0204 56.1804 46.021Z" fill="#F0F0F0"/>
<path d="M56.1965 46.1417C52.0088 48.4592 48.6562 52.0403 46.6148 56.3763C46.1588 57.3019 45.8512 58.2938 45.7033 59.3154C45.5914 60.3152 45.7487 61.3268 46.1588 62.2452C46.524 63.1091 46.9974 63.9505 47.1467 64.8884C47.216 65.3696 47.1831 65.86 47.05 66.3276C46.9169 66.7952 46.6867 67.2293 46.3745 67.6014C45.6207 68.549 44.5721 69.1685 43.5257 69.7387C42.3638 70.3718 41.147 71.0109 40.3605 72.1154C40.2652 72.2492 40.0636 72.0932 40.1587 71.9596C41.5272 70.0379 44.0251 69.5518 45.6883 67.9725C46.4644 67.2356 47.0237 66.2598 46.9239 65.1585C46.8366 64.1955 46.3492 63.3274 45.9719 62.4559C45.5587 61.5659 45.3692 60.5881 45.42 59.6078C45.5155 58.5819 45.7844 57.5798 46.2154 56.6444C47.1519 54.523 48.4155 52.5623 49.9598 50.8343C51.7113 48.8523 53.7883 47.1852 56.1007 45.9051C56.2439 45.8259 56.3387 46.0631 56.1965 46.1417Z" fill="white"/>
<path d="M47.1901 54.9413C46.5108 54.4992 46.0103 53.8296 45.7781 53.0519C45.546 52.2741 45.5972 51.439 45.9226 50.6957C45.989 50.5455 46.2249 50.6418 46.1585 50.7922C45.8542 51.4838 45.8065 52.2617 46.0242 52.9855C46.2419 53.7093 46.7106 54.3312 47.3456 54.7391C47.4835 54.8279 47.3272 55.0296 47.1901 54.9413Z" fill="white"/>
<path d="M45.9161 61.8315C47.5386 61.5008 48.9771 60.5693 49.9448 59.2228C50.0405 59.0893 50.2422 59.2453 50.1465 59.3787C49.1369 60.778 47.638 61.7443 45.9488 62.0847C45.7878 62.117 45.7559 61.8637 45.9161 61.8315Z" fill="white"/>
<path d="M51.8544 49.1589C52.0817 49.3848 52.3614 49.5506 52.6685 49.6414C52.9755 49.7322 53.3002 49.7452 53.6135 49.6791C53.774 49.6447 53.8057 49.8981 53.6462 49.9323C53.2998 50.0036 52.9412 49.9889 52.6017 49.8893C52.2623 49.7898 51.9523 49.6084 51.6989 49.3611C51.6731 49.3398 51.6563 49.3094 51.652 49.2761C51.6477 49.2429 51.6562 49.2092 51.6758 49.182C51.6965 49.1554 51.7269 49.138 51.7603 49.1336C51.7938 49.1293 51.8276 49.1384 51.8544 49.1589Z" fill="white"/>
<path d="M70.2824 14.8849C70.3125 15.0174 70.3321 15.1521 70.3411 15.2877L80.8672 21.3739L83.4257 19.8977L86.1532 23.4765L81.8773 26.5311C81.5318 26.7778 81.1158 26.9056 80.6918 26.8953C80.2677 26.8849 79.8584 26.737 79.5254 26.4736L68.6711 17.8913C68.1813 18.073 67.6478 18.101 67.1418 17.9714C66.6357 17.8419 66.1809 17.561 65.838 17.1661C65.4951 16.7712 65.2802 16.281 65.2221 15.7608C65.1639 15.2405 65.2651 14.7148 65.5123 14.2537C65.7595 13.7925 66.1409 13.4176 66.6058 13.179C67.0707 12.9404 67.5971 12.8493 68.1149 12.9178C68.6328 12.9863 69.1175 13.2113 69.5047 13.5627C69.8919 13.914 70.1631 14.3752 70.2824 14.8849Z" fill="#FFB6B6"/>
<path d="M81.0133 20.702C81.0467 20.5467 81.1131 20.4005 81.208 20.2733C81.3029 20.1462 81.4241 20.041 81.5632 19.9651L86.4229 17.3112C87.0701 16.8217 87.8845 16.6093 88.6877 16.7208C89.4908 16.8322 90.2171 17.2583 90.7072 17.9057C91.1973 18.553 91.4113 19.3688 91.3022 20.174C91.1931 20.9793 90.7698 21.7083 90.1252 22.2012L86.2303 26.1669C86.1191 26.2801 85.9849 26.3679 85.8369 26.4244C85.6888 26.4809 85.5303 26.5048 85.3722 26.4944C85.214 26.4839 85.06 26.4395 84.9206 26.364C84.7812 26.2886 84.6596 26.1839 84.5642 26.0571L81.2107 21.6008C81.1153 21.4741 81.0482 21.3281 81.0141 21.173C80.98 21.0179 80.9798 20.8572 81.0133 20.702Z" fill="#3F3D56"/>
<path d="M89.6954 5.27358C90.3946 3.04016 91.9846 0.991756 94.1836 0.23674C96.3827 -0.518273 99.6027 0.631859 101.256 2.28323C104.28 5.30393 105.018 15.6811 102.94 18.9604C102.527 18.9385 101.101 18.9223 100.683 18.9066L100.091 16.9301V18.8871C96.8265 18.786 93.4277 18.8493 90.027 18.9148C89.7222 16.593 88.9961 7.50699 89.6954 5.27358Z" fill="#2F2E41"/>
<path d="M88.7597 99.0205H85.7821L84.3656 87.509L88.7603 87.5093L88.7597 99.0205Z" fill="#FFB6B6"/>
<path d="M114.826 97.1647L111.945 97.9174L107.677 87.1363L111.93 86.0256L114.826 97.1647Z" fill="#FFB6B6"/>
<path d="M98.4168 28.3188L99.0916 30.077L98.9566 31.8351L85.752 36.4191L86.4072 28.7245L87.8914 26.9661L98.4168 28.3188Z" fill="#FFB6B6"/>
<path d="M94.2418 12.4967C96.8465 12.4967 98.958 10.3804 98.958 7.76985C98.958 5.15927 96.8465 3.04297 94.2418 3.04297C91.6371 3.04297 89.5256 5.15927 89.5256 7.76985C89.5256 10.3804 91.6371 12.4967 94.2418 12.4967Z" fill="#FFB7B7"/>
<path d="M91.0012 1.61458C91.9074 1.06088 92.9454 0.761364 94.0066 0.747342C95.0678 0.73332 96.1133 1.00531 97.0337 1.53487C97.9542 2.06443 98.7158 2.83211 99.2389 3.75765C99.762 4.68318 100.027 5.73258 100.007 6.7961C97.4365 7.45466 94.6969 7.73011 91.7937 6.95471L91.1301 5.32683L90.7389 6.95591C89.8507 7.58211 88.9934 7.58098 88.1671 6.95253C88.132 5.89201 88.3753 4.84084 88.8727 3.90411C89.37 2.96738 90.104 2.17789 91.0012 1.61458Z" fill="#2F2E41"/>
<path d="M90.0918 104.687H87.9789L87.6017 102.688L86.6358 104.687H81.0318C80.7632 104.687 80.5016 104.601 80.2852 104.442C80.0688 104.282 79.909 104.057 79.829 103.8C79.7491 103.543 79.7532 103.268 79.8408 103.013C79.9284 102.759 80.0949 102.539 80.316 102.386L84.7911 99.288V97.2667L89.4983 97.5483L90.0918 104.687Z" fill="#2F2E41"/>
<path d="M117.803 102.243L115.758 102.777L114.89 100.938L114.458 103.117L109.036 104.534C108.776 104.602 108.501 104.585 108.251 104.485C108.002 104.385 107.791 104.208 107.648 103.98C107.506 103.751 107.441 103.483 107.462 103.215C107.482 102.946 107.588 102.691 107.764 102.488L111.314 98.3586L110.806 96.4027L115.432 95.4852L117.803 102.243Z" fill="#2F2E41"/>
<path d="M114.461 89.9255L105.733 71.9457L102.993 50.0621C104.882 46.5456 101.373 39.3905 101.373 39.3905V36.3863L87.7826 38.9561C85.0028 46.555 83.6548 54.6052 83.8072 62.6973L84.3548 91.7868H84.183C83.8979 91.7868 83.6245 91.9003 83.423 92.1024C83.2214 92.3044 83.1081 92.5784 83.1081 92.8641C83.1081 93.1498 83.2214 93.4239 83.423 93.6259C83.6245 93.8279 83.8979 93.9414 84.183 93.9414H89.5574C89.8425 93.9414 90.1159 93.8279 90.3174 93.6259C90.519 93.4239 90.6323 93.1498 90.6323 92.8641C90.6323 92.5784 90.519 92.3044 90.3174 92.1024C90.1159 91.9003 89.8425 91.7868 89.5574 91.7868H89.4188L93.277 54.7798L97.7631 73.0418L108.604 89.8563C108.328 89.8779 108.07 90.0061 107.886 90.2139C107.702 90.4217 107.605 90.693 107.616 90.9708C107.627 91.2486 107.745 91.5112 107.946 91.7036C108.146 91.8959 108.413 92.003 108.69 92.0023H114.065C114.315 92.0025 114.557 91.9154 114.75 91.7558C114.942 91.5963 115.073 91.3744 115.12 91.1283C115.167 90.8822 115.127 90.6274 115.007 90.4079C114.886 90.1883 114.693 90.0177 114.461 89.9255Z" fill="#2F2E41"/>
<path d="M102.602 41.2323C102.558 41.0565 102.458 40.8993 102.319 40.7834C102.18 40.6675 102.008 40.5987 101.827 40.587C101.648 38.5342 100.464 25.3692 100.419 24.983L100.418 24.9666L100.075 17.6285C100.062 17.362 99.9524 17.1094 99.766 16.919C99.5795 16.7286 99.3295 16.6137 99.0639 16.5963L97.2537 16.4777C97.2288 16.4769 97.2053 16.4664 97.188 16.4485C97.1707 16.4306 97.1611 16.4067 97.1611 16.3818C97.1611 16.1814 97.1217 15.983 97.0452 15.7979C96.9687 15.6128 96.8566 15.4446 96.7152 15.3029C96.5739 15.1612 96.406 15.0488 96.2213 14.9722C96.0366 14.8955 95.8387 14.856 95.6388 14.856H90.2792C89.932 14.8562 89.5969 14.9833 89.3366 15.2135C89.0763 15.4438 88.9088 15.7613 88.8656 16.1065C88.8632 16.1303 88.852 16.1523 88.8341 16.1681C88.8163 16.1839 88.7931 16.1924 88.7693 16.1919L88.7686 16.1919C88.1596 16.1793 87.5663 16.3859 87.0963 16.7743C86.6264 17.1627 86.3109 17.7071 86.2071 18.3086C85.4744 22.5815 84.006 32.2792 84.732 37.6705C84.9847 39.5473 84.8698 42.3701 84.7743 43.9404C84.7648 44.0922 84.7852 44.2443 84.8345 44.3881C84.8838 44.5319 84.9609 44.6646 85.0614 44.7785C84.8477 44.8402 84.6662 44.9828 84.5552 45.176C84.4443 45.3692 84.4126 45.5981 84.4667 45.8143C84.5224 46.036 84.6638 46.2264 84.8595 46.3436C85.0553 46.4608 85.2896 46.4952 85.5107 46.4394L101.979 42.2786C102.2 42.2227 102.39 42.0811 102.507 41.8849C102.624 41.6887 102.658 41.4539 102.602 41.2323Z" fill="#3F3D56"/>
<path d="M75.3851 72.0827C75.382 71.6009 75.2088 71.1357 74.8961 70.7696C74.5835 70.4035 74.1516 70.1603 73.677 70.0829L44.4802 65.2776C44.2002 65.2312 43.9137 65.2439 43.6389 65.3151L36.7965 67.0883L32.8705 68.107L25.6253 69.9841C25.1879 70.098 24.8006 70.3541 24.5241 70.7123C24.2476 71.0705 24.0975 71.5106 24.0974 71.9635V102.627C24.0995 103.094 24.2607 103.547 24.5542 103.91C24.8478 104.274 25.2562 104.526 25.7119 104.625L55.4509 104.287C55.5905 104.317 55.733 104.332 55.8758 104.332C56.0839 104.332 56.2908 104.3 56.4893 104.238L74.158 104.679C74.575 104.548 74.9389 104.287 75.1957 103.932C75.4526 103.578 75.5887 103.151 75.5839 102.713L75.3851 72.0827Z" fill="white"/>
<path d="M75.3851 72.0827C75.382 71.6009 75.2088 71.1357 74.8961 70.7696C74.5835 70.4035 74.1516 70.1603 73.677 70.0829L44.4802 65.2776C44.2002 65.2312 43.9137 65.2439 43.6389 65.3151L36.7965 67.0883L32.8705 68.107L25.6253 69.9841C25.1879 70.098 24.8006 70.3541 24.5241 70.7123C24.2476 71.0705 24.0975 71.5106 24.0974 71.9635V102.627C24.0995 103.094 24.2607 103.547 24.5542 103.91C24.8478 104.274 25.2562 104.526 25.7119 104.625L55.4509 104.287C55.5905 104.317 55.733 104.332 55.8758 104.332C56.0839 104.332 56.2908 104.3 56.4893 104.238L74.158 104.679C74.575 104.548 74.9389 104.287 75.1957 103.932C75.4526 103.578 75.5887 103.151 75.5839 102.713L75.3851 72.0827ZM74.005 104.191L56.3364 104.613C56.0843 104.691 55.8164 104.704 55.558 104.65L25.8173 104.126C25.4756 104.051 25.1695 103.862 24.9495 103.589C24.7295 103.317 24.6088 102.977 24.6072 102.627V71.9635C24.6074 71.6496 24.7037 71.3433 24.883 71.0859C25.0623 70.8286 25.316 70.6325 25.61 70.5241C25.6566 70.5066 25.7043 70.4918 25.7527 70.4798L33.4178 68.4937L37.9505 67.3183L43.7664 65.8108C43.8911 65.7774 44.0197 65.7608 44.1488 65.7614C44.2319 65.7614 44.3149 65.7682 44.3969 65.7818L73.5937 70.5871C73.8287 70.6258 74.0514 70.7187 74.2444 70.8586C74.4373 70.9984 74.5951 71.1813 74.7053 71.3929C74.8155 71.6073 74.8738 71.8449 74.8752 72.0861L75.0741 102.716C75.0777 103.045 74.9757 103.366 74.7832 103.631C74.5906 103.897 74.3178 104.093 74.005 104.191Z" fill="#CCCCCC"/>
<path d="M74.7052 71.3929C74.6854 71.4059 74.6636 71.4157 74.6407 71.4218L66.0527 73.7487L63.3793 74.4726L55.7755 76.5321C55.7538 76.5374 55.7316 76.5403 55.7092 76.5406C55.6939 76.5403 55.6785 76.5392 55.6633 76.5372L25.0032 70.9347L24.9012 70.9159C24.8348 70.9034 24.776 70.8651 24.7377 70.8092C24.6995 70.7534 24.6848 70.6847 24.6969 70.6181C24.709 70.5514 24.747 70.4923 24.8025 70.4536C24.858 70.415 24.9265 70.3999 24.993 70.4117L25.61 70.5241L55.699 76.0227L62.2525 74.2478L65.9185 73.2547L74.3738 70.9636L74.5081 70.9278C74.5661 70.9125 74.6277 70.9181 74.6821 70.9436C74.7364 70.9691 74.7801 71.013 74.8055 71.0675C74.8121 71.0805 74.8172 71.0942 74.8208 71.1084C74.8348 71.162 74.8311 71.2186 74.8103 71.2699C74.7894 71.3212 74.7526 71.3644 74.7052 71.3929Z" fill="#CCCCCC"/>
<path d="M55.9642 104.391C55.8244 104.391 55.7106 104.279 55.7092 105L55.4543 77.1492C55.453 76.1463 55.5662 76.0309 55.7069 76.0295H55.7092C55.849 76.0295 55.9628 76.1423 55.9642 77.1446L56.2191 104.995C56.2204 104.275 56.1072 104.39 55.9665 104.391H55.9642Z" fill="#CCCCCC"/>
<path d="M66.1251 104.715L63.3794 104.744L62.2526 74.2478L33.5011 68.5141C33.4729 68.5091 33.4451 68.5023 33.4178 68.4937C33.197 68.4307 33.004 68.2943 32.8705 68.107L36.7965 67.0884L37.9505 67.3183L65.2319 72.7573C65.3754 72.7857 65.511 72.8449 65.6295 72.9307C65.7481 73.0166 65.8466 73.1271 65.9185 73.2547C66.0035 73.4029 66.1234 104.537 66.1251 104.715Z" fill="#CCCCCC"/>
<path d="M88.1176 16.2651C88.1153 15.9019 87.9848 15.5513 87.7491 15.2754C87.5135 14.9996 87.188 14.8162 86.8303 14.758L64.8261 11.1364C64.6151 11.1014 64.3991 11.111 64.1921 11.1647L59.0352 12.5011L56.0764 13.2688L50.616 14.6835C50.2864 14.7693 49.9945 14.9623 49.7861 15.2323C49.5777 15.5023 49.4646 15.8339 49.4645 16.1753V34.2509C49.4661 34.6032 49.5876 34.9444 49.8088 35.2182C50.03 35.4919 50.3378 35.6819 50.6813 35.7567L73.0942 40.5363C73.1994 40.5589 73.3068 40.5701 73.4144 40.5696C73.5712 40.5699 73.7272 40.5461 73.8768 40.499L87.1928 36.2844C87.5071 36.1861 87.7814 35.9889 87.975 35.722C88.1685 35.4551 88.2711 35.1328 88.2675 34.8029L88.1176 16.2651Z" fill="white"/>
<path d="M64.5769 12.4638C64.5609 12.4638 64.5449 12.4659 64.5293 12.47L50.9532 15.9888C50.912 15.9995 50.8756 16.0236 50.8495 16.0573C50.8235 16.091 50.8094 16.1324 50.8094 16.175V34.2503C50.8095 34.2943 50.8247 34.337 50.8523 34.3712C50.8799 34.4054 50.9184 34.4292 50.9613 34.4385L73.3742 39.218C73.4066 39.2248 73.4403 39.2232 73.472 39.2132L86.7883 34.9987C86.8275 34.9864 86.8617 34.9618 86.8859 34.9284C86.91 34.8951 86.9228 34.8548 86.9222 34.8136L86.773 16.2759C86.7727 16.2306 86.7564 16.1868 86.7269 16.1523C86.6975 16.1179 86.6568 16.095 86.6121 16.0877L64.6079 12.4663C64.5977 12.4647 64.5873 12.4638 64.5769 12.4638Z" fill="#00B074"/>
<path d="M88.1176 16.2651C88.1153 15.9019 87.9848 15.5513 87.7491 15.2754C87.5135 14.9996 87.188 14.8162 86.8303 14.758L64.8261 11.1364C64.6151 11.1014 64.3991 11.111 64.1921 11.1647L59.0352 12.5011L56.0764 13.2688L50.616 14.6835C50.2864 14.7693 49.9945 14.9623 49.7861 15.2323C49.5777 15.5023 49.4646 15.8339 49.4645 16.1753V34.2509C49.4661 34.6032 49.5876 34.9444 49.8088 35.2182C50.03 35.4919 50.3378 35.6819 50.6813 35.7567L73.0942 40.5363C73.1994 40.5589 73.3068 40.5701 73.4144 40.5696C73.5712 40.5699 73.7272 40.5461 73.8768 40.499L87.1928 36.2844C87.5071 36.1861 87.7814 35.9889 87.975 35.722C88.1685 35.4551 88.2711 35.1328 88.2675 34.8029L88.1176 16.2651ZM87.0776 35.9172L73.7615 40.1319C73.5716 40.1912 73.3696 40.2009 73.1749 40.1601L50.7607 35.3806C50.5032 35.3243 50.2725 35.1817 50.1067 34.9763C49.9409 34.771 49.8499 34.5151 49.8487 34.2509V16.1753C49.8489 15.9387 49.9214 15.7079 50.0566 15.5139C50.1917 15.3199 50.3829 15.1721 50.6045 15.0905C50.6396 15.0772 50.6756 15.0661 50.7121 15.0571L56.4888 13.5602L59.9049 12.6744L64.2881 11.5382C64.3821 11.5131 64.479 11.5006 64.5763 11.501C64.639 11.501 64.7015 11.5061 64.7633 11.5164L86.7676 15.138C86.9446 15.1671 87.1125 15.2371 87.2579 15.3425C87.4033 15.4479 87.5222 15.5858 87.6053 15.7452C87.6884 15.9068 87.7323 16.0859 87.7334 16.2677L87.8832 34.8055C87.886 35.053 87.8091 35.2948 87.664 35.495C87.5189 35.6953 87.3132 35.8433 87.0776 35.9172Z" fill="#3F3D56"/>
<path d="M87.6053 15.7452C87.5903 15.755 87.5739 15.7624 87.5566 15.767L81.0843 17.5207L79.0695 18.0663L73.3388 19.6183C73.3224 19.6224 73.3057 19.6245 73.2889 19.6248C73.2773 19.6246 73.2657 19.6237 73.2543 19.6222L50.1472 15.3998L50.0703 15.3857C50.0202 15.3763 49.9759 15.3474 49.947 15.3054C49.9181 15.2633 49.907 15.2115 49.9162 15.1612C49.9253 15.111 49.9539 15.0664 49.9958 15.0373C50.0376 15.0081 50.0893 14.9968 50.1395 15.0057L50.6044 15.0905L73.2812 19.2345L78.2202 17.8968L80.9831 17.1483L87.3555 15.4217L87.4567 15.3947C87.5004 15.3832 87.5468 15.3874 87.5878 15.4066C87.6288 15.4258 87.6617 15.4589 87.6808 15.5C87.6858 15.5098 87.6896 15.5201 87.6923 15.5308C87.7029 15.5712 87.7001 15.6139 87.6844 15.6525C87.6687 15.6912 87.641 15.7237 87.6053 15.7452Z" fill="#3F3D56"/>
<path d="M73.481 40.6146C73.4303 40.6146 73.3817 40.5945 73.3457 40.5588C73.3098 40.5231 73.2893 40.4745 73.2888 40.4238L73.0967 19.4339C73.0963 19.3829 73.1161 19.3337 73.1518 19.2973C73.1875 19.2608 73.2361 19.2401 73.2871 19.2396H73.2888C73.3395 19.2396 73.3881 19.2597 73.4241 19.2954C73.4601 19.3311 73.4805 19.3797 73.481 19.4304L73.6731 40.4202C73.6736 40.4713 73.6538 40.5205 73.6181 40.5569C73.5824 40.5934 73.5337 40.6141 73.4827 40.6146H73.481Z" fill="#3F3D56"/>
<path d="M81.0843 38.0612L79.0695 38.6068L78.2202 17.8968L56.5516 13.5756C56.5304 13.5718 56.5094 13.5667 56.4888 13.5602C56.3224 13.5127 56.1769 13.41 56.0764 13.2688L59.0352 12.5011L59.9049 12.6744L80.4656 16.7735C80.5737 16.7949 80.676 16.8395 80.7653 16.9042C80.8546 16.9689 80.9289 17.0522 80.9831 17.1484C81.0472 17.2601 81.083 37.9277 81.0843 38.0612Z" fill="#3F3D56"/>
<path d="M80.1816 26.2532C80.2847 26.3415 80.3806 26.4379 80.4685 26.5413L92.5386 25.1285L93.7125 22.4136L98.032 23.6536L96.42 28.6623C96.2897 29.0669 96.032 29.4183 95.6856 29.6636C95.3392 29.909 94.9227 30.0351 94.4986 30.023L80.6789 29.6292C80.3941 30.0681 79.9827 30.4096 79.4995 30.6084C79.0163 30.8072 78.4842 30.8538 77.9739 30.742C77.4636 30.6303 76.9993 30.3655 76.6428 29.9829C76.2864 29.6002 76.0546 29.1179 75.9783 28.6C75.902 28.0821 75.9848 27.5532 76.2158 27.0836C76.4467 26.6141 76.8148 26.2261 77.2711 25.9713C77.7274 25.7166 78.2503 25.6071 78.7702 25.6574C79.2901 25.7078 79.7824 25.9156 80.1816 26.2532Z" fill="#FFB6B6"/>
<path d="M92.2558 24.5019C92.1901 24.3573 92.1563 24.2003 92.1567 24.0415C92.1572 23.8827 92.1918 23.7258 92.2582 23.5817L94.5773 18.5454C94.8051 17.7655 95.3322 17.108 96.0429 16.7171C96.7537 16.3262 97.5901 16.2337 98.3688 16.4599C99.1475 16.6862 99.8049 17.2127 100.197 17.924C100.589 18.6353 100.683 19.4734 100.46 20.2544L99.696 25.7663C99.6741 25.9236 99.6188 26.0743 99.5336 26.2082C99.4484 26.3421 99.3354 26.4561 99.2024 26.5423C99.0693 26.6285 98.9193 26.685 98.7624 26.7078C98.6056 26.7307 98.4458 26.7194 98.2937 26.6747L92.9494 25.105C92.7973 25.0604 92.6566 24.9834 92.5369 24.8794C92.4172 24.7753 92.3213 24.6465 92.2558 24.5019Z" fill="#3F3D56"/>
<path d="M132.744 104.939H0.255957C0.188198 104.939 0.12328 104.912 0.0754372 104.863C0.027594 104.815 0.000732422 104.75 0.000732422 104.682C0.000732422 104.614 0.027594 104.549 0.0754372 104.501C0.12328 104.453 0.188198 104.426 0.255957 104.426H132.744C132.812 104.426 132.877 104.453 132.925 104.501C132.973 104.549 133 104.614 133 104.682C133 104.75 132.973 104.816 132.925 104.864C132.877 104.912 132.812 104.939 132.744 104.939Z" fill="#CACACA"/>
<path d="M25.8213 77.6791C30.0731 77.6791 33.5198 74.2246 33.5198 69.9632C33.5198 65.7018 30.0731 62.2473 25.8213 62.2473C21.5695 62.2473 18.1228 65.7018 18.1228 69.9632C18.1228 74.2246 21.5695 77.6791 25.8213 77.6791Z" fill="#00B074"/>
<path d="M24.771 73.979C24.6381 73.979 24.507 73.948 24.3881 73.8884C24.2692 73.8287 24.1658 73.7422 24.086 73.6356L21.9858 70.8289C21.8495 70.6467 21.791 70.4179 21.8231 70.1925C21.8553 69.9672 21.9754 69.7639 22.1571 69.6273C22.3388 69.4907 22.5672 69.4321 22.792 69.4643C23.0168 69.4965 23.2197 69.6169 23.3559 69.799L24.73 71.6351L28.2591 66.3295C28.3213 66.2353 28.4015 66.1544 28.4949 66.0913C28.5884 66.0283 28.6934 65.9843 28.8039 65.962C28.9143 65.9397 29.0281 65.9394 29.1387 65.9613C29.2492 65.9831 29.3544 66.0266 29.4481 66.0892C29.5419 66.1519 29.6224 66.2324 29.685 66.3263C29.7477 66.4202 29.7912 66.5256 29.8131 66.6364C29.835 66.7471 29.8349 66.8612 29.8128 66.9719C29.7907 67.0826 29.747 67.1879 29.6842 67.2817L25.4837 73.5968C25.4077 73.711 25.3055 73.8053 25.1856 73.8717C25.0658 73.9382 24.9318 73.9749 24.7949 73.9787C24.7869 73.9788 24.779 73.979 24.771 73.979Z" fill="white"/>
<path d="M58.6011 28.9797C58.5772 28.9797 58.5533 28.977 58.53 28.9717L51.8657 27.4635C51.7824 27.4445 51.71 27.3932 51.6644 27.3208C51.6188 27.2483 51.6037 27.1607 51.6225 27.0772C51.6413 26.9936 51.6925 26.921 51.7647 26.8752C51.8369 26.8294 51.9243 26.8142 52.0077 26.8329L58.6719 28.3411C58.7493 28.3587 58.8175 28.4041 58.8635 28.4689C58.9095 28.5336 58.9301 28.6131 58.9214 28.6921C58.9126 28.7711 58.8751 28.8442 58.816 28.8972C58.757 28.9503 58.6805 28.9796 58.6011 28.9797Z" fill="white"/>
<path d="M32.9532 89.6831C32.9298 89.6879 32.9059 89.6902 32.8819 89.6898L26.0509 89.5745C25.9655 89.5729 25.8842 89.5374 25.8248 89.4758C25.7655 89.4142 25.733 89.3315 25.7344 89.2459C25.7358 89.1604 25.7711 89.0788 25.8324 89.0192C25.8937 88.9596 25.9762 88.9269 26.0616 88.9281L32.8926 89.0434C32.9719 89.0448 33.048 89.0754 33.1062 89.1294C33.1644 89.1834 33.2007 89.257 33.2082 89.3361C33.2157 89.4152 33.1939 89.4944 33.1468 89.5584C33.0998 89.6224 33.0308 89.6668 32.9532 89.6831Z" fill="#E6E6E6"/>
<path d="M35.318 93.346C35.2945 93.3508 35.2706 93.3531 35.2467 93.3527L28.4156 93.2374C28.3302 93.2358 28.2489 93.2003 28.1896 93.1387C28.1303 93.0771 28.0977 92.9944 28.0992 92.9089C28.1006 92.8233 28.1358 92.7417 28.1972 92.6821C28.2585 92.6225 28.3409 92.5898 28.4263 92.591L35.2574 92.7063C35.3367 92.7077 35.4127 92.7383 35.4709 92.7923C35.5291 92.8463 35.5655 92.9199 35.573 92.999C35.5805 93.0781 35.5586 93.1573 35.5116 93.2213C35.4645 93.2853 35.3956 93.3297 35.318 93.346Z" fill="#E6E6E6"/>
</g>
<defs>
<clipPath id="clip0_107_3417">
<rect width="133" height="105" fill="white"/>
</clipPath>
</defs>
</svg>
