<svg width="74" height="74" viewBox="0 0 74 74" fill="none" xmlns="http://www.w3.org/2000/svg">
<rect x="0.5" y="0.5" width="73" height="73" rx="36.5" fill="#F0F0F0"/>
<rect x="0.5" y="0.5" width="73" height="73" rx="36.5" stroke="#00B074"/>
<g clip-path="url(#clip0_410_15081)">
<path d="M37 54.575C27.3091 54.575 19.425 46.6909 19.425 37C19.425 27.309 27.3091 19.425 37 19.425C46.691 19.425 54.575 27.309 54.575 37C54.575 46.6909 46.691 54.575 37 54.575Z" fill="#98CCFD"/>
<path d="M37 19.9C46.4287 19.9 54.1 27.5713 54.1 37C54.1 46.4288 46.4287 54.1 37 54.1C27.5712 54.1 19.9 46.4288 19.9 37C19.9 27.5713 27.5712 19.9 37 19.9ZM37 18.95C27.0316 18.95 18.95 27.0317 18.95 37C18.95 46.9684 27.0316 55.05 37 55.05C46.9683 55.05 55.05 46.9684 55.05 37C55.05 27.0317 46.9683 18.95 37 18.95Z" fill="#4788C7"/>
<path d="M33.2238 44.619L26.6621 38.0573L28.678 36.0424L33.2238 40.5881L44.7121 29.0998L46.728 31.1147L33.2238 44.619Z" fill="white"/>
</g>
<defs>
<clipPath id="clip0_410_15081">
<rect width="38" height="38" fill="white" transform="translate(18 18)"/>
</clipPath>
</defs>
</svg>
