<svg width="24" height="24" viewBox="0 0 24 24" fill="none" xmlns="http://www.w3.org/2000/svg">
<path d="M12.0284 1.99707C12.0037 1.99617 11.9789 1.9965 11.9542 1.99805C11.7578 2.0101 11.5741 2.09884 11.4425 2.24512L4.6925 9.75195C4.59578 9.85976 4.53234 9.99326 4.50984 10.1363C4.48734 10.2794 4.50675 10.4259 4.56571 10.5582C4.62468 10.6905 4.72068 10.8029 4.84213 10.8818C4.96358 10.9607 5.10528 11.0028 5.25012 11.0029H9.00012V21.2529C9.00014 21.4518 9.07916 21.6426 9.21981 21.7832C9.36046 21.9239 9.55121 22.0029 9.75012 22.0029H14.2501C14.449 22.0029 14.6398 21.9239 14.7804 21.7832C14.9211 21.6426 15.0001 21.4518 15.0001 21.2529V11.0029H18.7501C18.8949 11.0028 19.0366 10.9607 19.1581 10.8818C19.2795 10.8029 19.3756 10.6905 19.4345 10.5582C19.4935 10.4259 19.5129 10.2794 19.4904 10.1363C19.4679 9.99326 19.4045 9.85976 19.3077 9.75195L12.5577 2.24512C12.4906 2.17045 12.4092 2.11002 12.3182 2.06741C12.2273 2.0248 12.1288 2.00088 12.0284 1.99707ZM12.0001 3.86816L17.0665 9.50293H14.2501C14.0512 9.50295 13.8605 9.58197 13.7198 9.72262C13.5792 9.86327 13.5001 10.054 13.5001 10.2529V20.5029H10.5001V10.2529C10.5001 10.054 10.4211 9.86327 10.2804 9.72262C10.1398 9.58197 9.94902 9.50295 9.75012 9.50293H6.93371L12.0001 3.86816Z" fill="#842447"/>
</svg>
