<svg width="21" height="20" viewBox="0 0 21 20" fill="none" xmlns="http://www.w3.org/2000/svg">
<path d="M11.113 2.07741C10.9506 2.08214 10.7965 2.14985 10.6833 2.26621L9.0166 3.93288C8.89944 4.05009 8.83362 4.20904 8.83362 4.37477C8.83362 4.5405 8.89944 4.69945 9.0166 4.81667L10.6833 6.48333C10.7409 6.54331 10.8098 6.5912 10.8862 6.62419C10.9625 6.65718 11.0446 6.67461 11.1278 6.67545C11.2109 6.6763 11.2934 6.66054 11.3704 6.62911C11.4474 6.59768 11.5173 6.55121 11.5761 6.49241C11.6349 6.43361 11.6814 6.36367 11.7128 6.28669C11.7443 6.2097 11.76 6.12722 11.7592 6.04407C11.7583 5.96092 11.7409 5.87877 11.7079 5.80244C11.6749 5.72611 11.627 5.65713 11.5671 5.59954L10.9673 4.99977H12.3752C12.458 5.00094 12.5402 4.98564 12.6171 4.95476C12.6939 4.92387 12.7639 4.87802 12.8229 4.81987C12.8818 4.76172 12.9287 4.69242 12.9606 4.61601C12.9926 4.5396 13.0091 4.4576 13.0091 4.37477C13.0091 4.29194 12.9926 4.20994 12.9606 4.13353C12.9287 4.05712 12.8818 3.98782 12.8229 3.92967C12.7639 3.87152 12.6939 3.82567 12.6171 3.79478C12.5402 3.7639 12.458 3.7486 12.3752 3.74977H10.9673L11.5671 3.15C11.6572 3.06218 11.7188 2.94919 11.7437 2.82582C11.7686 2.70244 11.7556 2.57442 11.7066 2.45852C11.6575 2.34262 11.5746 2.24423 11.4687 2.17623C11.3627 2.10823 11.2388 2.07378 11.113 2.07741ZM4.87516 2.0831C4.16336 2.0831 3.55036 2.37253 3.15804 2.8139C2.76572 3.25526 2.5835 3.81922 2.5835 4.37477C2.5835 4.93033 2.76572 5.49428 3.15804 5.93564C3.55036 6.37701 4.16336 6.66644 4.87516 6.66644C5.58697 6.66644 6.19996 6.37701 6.59229 5.93564C6.98461 5.49428 7.16683 4.93033 7.16683 4.37477C7.16683 3.81922 6.98461 3.25526 6.59229 2.8139C6.19996 2.37253 5.58697 2.0831 4.87516 2.0831ZM4.87516 3.3331C5.27447 3.3331 5.49481 3.46034 5.65804 3.64398C5.82127 3.82761 5.91683 4.09699 5.91683 4.37477C5.91683 4.65255 5.82127 4.92193 5.65804 5.10556C5.49481 5.2892 5.27447 5.41644 4.87516 5.41644C4.47586 5.41644 4.25552 5.2892 4.09229 5.10556C3.92905 4.92193 3.8335 4.65255 3.8335 4.37477C3.8335 4.09699 3.92905 3.82761 4.09229 3.64398C4.25552 3.46034 4.47586 3.3331 4.87516 3.3331ZM14.4585 3.74977C14.3757 3.7486 14.2934 3.7639 14.2166 3.79478C14.1397 3.82567 14.0698 3.87152 14.0108 3.92967C13.9518 3.98782 13.905 4.05712 13.873 4.13353C13.8411 4.20994 13.8246 4.29194 13.8246 4.37477C13.8246 4.4576 13.8411 4.5396 13.873 4.61601C13.905 4.69242 13.9518 4.76172 14.0108 4.81987C14.0698 4.87802 14.1397 4.92387 14.2166 4.95476C14.2934 4.98564 14.3757 5.00094 14.4585 4.99977C15.0411 4.99977 15.5002 5.45884 15.5002 6.04144C15.499 6.12426 15.5143 6.20648 15.5452 6.28334C15.5761 6.36019 15.6219 6.43014 15.6801 6.48913C15.7382 6.54811 15.8075 6.59494 15.8839 6.62691C15.9603 6.65888 16.0423 6.67534 16.1252 6.67534C16.208 6.67534 16.29 6.65888 16.3664 6.62691C16.4428 6.59494 16.5121 6.54811 16.5703 6.48913C16.6284 6.43014 16.6743 6.36019 16.7051 6.28334C16.736 6.20648 16.7513 6.12426 16.7502 6.04144C16.7502 4.7832 15.7167 3.74977 14.4585 3.74977ZM4.8654 7.49082C4.69978 7.49341 4.54196 7.56163 4.4266 7.68049C4.31125 7.79936 4.24779 7.95915 4.25016 8.12477V8.9581C4.24899 9.04092 4.26429 9.12315 4.29518 9.20001C4.32606 9.27686 4.37191 9.34681 4.43006 9.40579C4.48822 9.46477 4.55751 9.51161 4.63392 9.54358C4.71033 9.57554 4.79233 9.59201 4.87516 9.59201C4.95799 9.59201 5.03999 9.57554 5.1164 9.54358C5.19281 9.51161 5.26211 9.46477 5.32026 9.40579C5.37842 9.34681 5.42427 9.27686 5.45515 9.20001C5.48603 9.12315 5.50133 9.04092 5.50016 8.9581V8.12477C5.50136 8.04112 5.48576 7.95808 5.45427 7.88057C5.42279 7.80306 5.37606 7.73265 5.31687 7.67354C5.25767 7.61442 5.18721 7.56778 5.10966 7.5364C5.03211 7.50501 4.94905 7.48951 4.8654 7.49082ZM16.1154 7.49082C15.9498 7.49341 15.792 7.56163 15.6766 7.68049C15.5612 7.79936 15.4978 7.95915 15.5002 8.12477V8.9581C15.499 9.04092 15.5143 9.12315 15.5452 9.20001C15.5761 9.27686 15.6219 9.34681 15.6801 9.40579C15.7382 9.46477 15.8075 9.51161 15.8839 9.54358C15.9603 9.57554 16.0423 9.59201 16.1252 9.59201C16.208 9.59201 16.29 9.57554 16.3664 9.54358C16.4428 9.51161 16.5121 9.46477 16.5703 9.40579C16.6284 9.34681 16.6743 9.27686 16.7051 9.20001C16.736 9.12315 16.7513 9.04092 16.7502 8.9581V8.12477C16.7514 8.04112 16.7358 7.95808 16.7043 7.88057C16.6728 7.80306 16.6261 7.73265 16.5669 7.67354C16.5077 7.61442 16.4372 7.56778 16.3597 7.5364C16.2821 7.50501 16.199 7.48951 16.1154 7.49082ZM4.8654 10.4075C4.69978 10.4101 4.54196 10.4783 4.4266 10.5972C4.31125 10.716 4.24779 10.8758 4.25016 11.0414V11.8748C4.24899 11.9576 4.26429 12.0398 4.29518 12.1167C4.32606 12.1935 4.37191 12.2635 4.43006 12.3225C4.48822 12.3814 4.55751 12.4283 4.63392 12.4602C4.71033 12.4922 4.79233 12.5087 4.87516 12.5087C4.95799 12.5087 5.03999 12.4922 5.1164 12.4602C5.19281 12.4283 5.26211 12.3814 5.32026 12.3225C5.37842 12.2635 5.42427 12.1935 5.45515 12.1167C5.48603 12.0398 5.50133 11.9576 5.50016 11.8748V11.0414C5.50136 10.9578 5.48576 10.8747 5.45427 10.7972C5.42279 10.7197 5.37606 10.6493 5.31687 10.5902C5.25767 10.5311 5.18721 10.4844 5.10966 10.4531C5.03211 10.4217 4.94905 10.4062 4.8654 10.4075ZM16.1154 10.4075C15.9498 10.4101 15.792 10.4783 15.6766 10.5972C15.5612 10.716 15.4978 10.8758 15.5002 11.0414V11.8748C15.499 11.9576 15.5143 12.0398 15.5452 12.1167C15.5761 12.1935 15.6219 12.2635 15.6801 12.3225C15.7382 12.3814 15.8075 12.4283 15.8839 12.4602C15.9603 12.4922 16.0423 12.5087 16.1252 12.5087C16.208 12.5087 16.29 12.4922 16.3664 12.4602C16.4428 12.4283 16.5121 12.3814 16.5703 12.3225C16.6284 12.2635 16.6743 12.1935 16.7051 12.1167C16.736 12.0398 16.7513 11.9576 16.7502 11.8748V11.0414C16.7514 10.9578 16.7358 10.8747 16.7043 10.7972C16.6728 10.7197 16.6261 10.6493 16.5669 10.5902C16.5077 10.5311 16.4372 10.4844 16.3597 10.4531C16.2821 10.4217 16.199 10.4062 16.1154 10.4075ZM4.8654 13.3242C4.69978 13.3267 4.54196 13.395 4.4266 13.5138C4.31125 13.6327 4.24779 13.7925 4.25016 13.9581C4.25016 15.2163 5.28359 16.2498 6.54183 16.2498C6.62465 16.2509 6.70688 16.2356 6.78373 16.2048C6.86059 16.1739 6.93054 16.128 6.98952 16.0699C7.0485 16.0117 7.09533 15.9424 7.1273 15.866C7.15927 15.7896 7.17573 15.7076 7.17573 15.6248C7.17573 15.5419 7.15927 15.4599 7.1273 15.3835C7.09533 15.3071 7.0485 15.2378 6.98952 15.1797C6.93054 15.1215 6.86059 15.0757 6.78373 15.0448C6.70688 15.0139 6.62465 14.9986 6.54183 14.9998C5.95924 14.9998 5.50016 14.5407 5.50016 13.9581C5.50136 13.8745 5.48576 13.7914 5.45427 13.7139C5.42279 13.6364 5.37606 13.566 5.31687 13.5069C5.25767 13.4477 5.18721 13.4011 5.10966 13.3697C5.03211 13.3383 4.94905 13.3228 4.8654 13.3242ZM9.86865 13.3266C9.74427 13.3266 9.62272 13.3638 9.51956 13.4333C9.41641 13.5028 9.33633 13.6014 9.28958 13.7167C9.24282 13.832 9.23152 13.9586 9.25712 14.0803C9.28272 14.202 9.34405 14.3133 9.43327 14.4L10.033 14.9998H8.62516C8.54234 14.9986 8.46012 15.0139 8.38326 15.0448C8.30641 15.0757 8.23645 15.1215 8.17747 15.1797C8.11849 15.2378 8.07166 15.3071 8.03969 15.3835C8.00772 15.4599 7.99126 15.5419 7.99126 15.6248C7.99126 15.7076 8.00772 15.7896 8.03969 15.866C8.07166 15.9424 8.11849 16.0117 8.17747 16.0699C8.23645 16.128 8.30641 16.1739 8.38326 16.2048C8.46012 16.2356 8.54234 16.2509 8.62516 16.2498H10.033L9.43327 16.8495C9.37329 16.9071 9.3254 16.9761 9.29241 17.0524C9.25942 17.1288 9.24199 17.2109 9.24115 17.2941C9.2403 17.3772 9.25606 17.4597 9.28749 17.5367C9.31892 17.6137 9.36539 17.6836 9.42419 17.7424C9.48299 17.8012 9.55293 17.8477 9.62991 17.8791C9.7069 17.9105 9.78938 17.9263 9.87253 17.9255C9.95568 17.9246 10.0378 17.9072 10.1142 17.8742C10.1905 17.8412 10.2595 17.7933 10.3171 17.7333L11.9837 16.0667C12.1009 15.9494 12.1667 15.7905 12.1667 15.6248C12.1667 15.459 12.1009 15.3001 11.9837 15.1829L10.3171 13.5162C10.2588 13.4562 10.1891 13.4085 10.1121 13.3759C10.0351 13.3434 9.95228 13.3266 9.86865 13.3266ZM16.1252 13.3331C15.4134 13.3331 14.8004 13.6225 14.408 14.0639C14.0157 14.5053 13.8335 15.0692 13.8335 15.6248C13.8335 16.1803 14.0157 16.7443 14.408 17.1856C14.8004 17.627 15.4134 17.9164 16.1252 17.9164C16.837 17.9164 17.45 17.627 17.8423 17.1856C18.2346 16.7443 18.4168 16.1803 18.4168 15.6248C18.4168 15.0692 18.2346 14.5053 17.8423 14.0639C17.45 13.6225 16.837 13.3331 16.1252 13.3331ZM16.1252 14.5831C16.5245 14.5831 16.7448 14.7103 16.908 14.894C17.0713 15.0776 17.1668 15.347 17.1668 15.6248C17.1668 15.9025 17.0713 16.1719 16.908 16.3556C16.7448 16.5392 16.5245 16.6664 16.1252 16.6664C15.7259 16.6664 15.5055 16.5392 15.3423 16.3556C15.1791 16.1719 15.0835 15.9025 15.0835 15.6248C15.0835 15.347 15.1791 15.0776 15.3423 14.894C15.5055 14.7103 15.7259 14.5831 16.1252 14.5831Z" fill="#464255"/>
</svg>
