<svg width="20" height="20" viewBox="0 0 20 20" fill="none" xmlns="http://www.w3.org/2000/svg">
<path d="M12.5757 1.40789C12.405 1.40893 12.2325 1.44371 12.0678 1.51531L8.32354 3.1421C7.66478 3.4278 7.35515 4.212 7.64157 4.87062L10.9717 12.5326C11.2573 13.1913 12.0407 13.501 12.6994 13.2145L16.4453 11.5869C17.1032 11.3005 17.4124 10.5178 17.1264 9.85923L13.7964 2.19647C13.6535 1.86709 13.3861 1.62532 13.0721 1.50148C12.9151 1.43956 12.7463 1.40685 12.5757 1.40789ZM12.6163 2.65708C12.6301 2.66269 12.6413 2.67514 12.6497 2.69451L14.104 6.04087L10.2555 7.74822L8.78822 4.37257V4.37176C8.77131 4.33288 8.78203 4.30637 8.82077 4.28956V4.28875L12.5667 2.66196V2.66115C12.5861 2.65269 12.6026 2.65146 12.6163 2.65708ZM4.29847 3.32928C4.00957 3.33902 3.71835 3.40746 3.44235 3.54087L2.01983 4.22934C1.94269 4.26297 1.87314 4.31182 1.81534 4.37297C1.75754 4.43412 1.71268 4.50631 1.68345 4.58522C1.65422 4.66413 1.64123 4.74812 1.64524 4.83217C1.64926 4.91622 1.67021 4.99859 1.70682 5.07435C1.74344 5.15011 1.79498 5.2177 1.85835 5.27306C1.92172 5.32842 1.99561 5.37042 2.07561 5.39653C2.1556 5.42265 2.24004 5.43234 2.32386 5.42504C2.40769 5.41773 2.48918 5.39358 2.56345 5.35402L3.98679 4.66635C4.46199 4.43665 5.01237 4.64453 5.21726 5.13104L8.8753 13.8192C8.93979 13.9723 9.06135 14.0761 9.14548 14.2139C8.67313 14.2704 8.24669 14.4564 7.97035 14.7673C7.64747 15.1305 7.49997 15.5903 7.49997 16.0417C7.49997 16.4931 7.64747 16.9529 7.97035 17.3161C8.29323 17.6793 8.80205 17.9167 9.37497 17.9167C9.94789 17.9167 10.4567 17.6793 10.7796 17.3161C11.1025 16.9529 11.25 16.4931 11.25 16.0417C11.25 15.9231 11.2106 15.8072 11.1897 15.6893C11.8548 15.8428 12.5588 15.8496 13.2291 15.5558V15.5567L18.0843 13.4294C18.1608 13.3974 18.2302 13.3505 18.2885 13.2914C18.3467 13.2323 18.3926 13.1622 18.4234 13.0852C18.4543 13.0081 18.4695 12.9258 18.4682 12.8428C18.4669 12.7598 18.4491 12.678 18.4158 12.602C18.3825 12.526 18.3345 12.4574 18.2744 12.4001C18.2143 12.3429 18.1435 12.2982 18.066 12.2686C17.9884 12.2391 17.9058 12.2252 17.8229 12.2279C17.74 12.2306 17.6584 12.2498 17.583 12.2844L12.7278 14.4116C11.6776 14.8719 10.4721 14.3905 10.0268 13.3333H10.0276L6.36879 4.64601C6.01182 3.79839 5.1652 3.30006 4.29847 3.32928ZM14.602 7.1867L15.9798 10.3573C15.9962 10.3951 15.9844 10.4233 15.9464 10.4403L12.2013 12.0679C12.1624 12.0848 12.1351 12.0741 12.1183 12.0353L10.7536 8.89487L14.602 7.1867ZM9.37497 15.4167C9.63539 15.4167 9.75156 15.4918 9.84535 15.5973C9.93914 15.7029 9.99997 15.8681 9.99997 16.0417C9.99997 16.2153 9.93914 16.3805 9.84535 16.486C9.75156 16.5915 9.63539 16.6667 9.37497 16.6667C9.11456 16.6667 8.99838 16.5915 8.90459 16.486C8.81081 16.3805 8.74997 16.2153 8.74997 16.0417C8.74997 15.8681 8.81081 15.7029 8.90459 15.5973C8.99838 15.4918 9.11456 15.4167 9.37497 15.4167Z" fill="#464255"/>
</svg>
