<svg width="17" height="18" viewBox="0 0 17 18" fill="none" xmlns="http://www.w3.org/2000/svg">
<path d="M4.60482 5.10416C2.45943 5.10416 0.708984 6.85461 0.708984 9C0.708984 11.1454 2.45943 12.8958 4.60482 12.8958H6.19857C6.26896 12.8968 6.33886 12.8838 6.40418 12.8576C6.46951 12.8313 6.52897 12.7923 6.5791 12.7429C6.62924 12.6935 6.66905 12.6346 6.69622 12.5696C6.72339 12.5047 6.73738 12.435 6.73738 12.3646C6.73738 12.2942 6.72339 12.2245 6.69622 12.1595C6.66905 12.0946 6.62924 12.0357 6.5791 11.9862C6.52897 11.9368 6.46951 11.8978 6.40418 11.8716C6.33886 11.8453 6.26896 11.8323 6.19857 11.8333H4.60482C3.03358 11.8333 1.77148 10.5712 1.77148 9C1.77148 7.42876 3.03358 6.16666 4.60482 6.16666H6.19857C6.26896 6.16766 6.33886 6.15465 6.40418 6.1284C6.46951 6.10215 6.52897 6.06318 6.5791 6.01375C6.62924 5.96432 6.66905 5.90542 6.69622 5.84047C6.72339 5.77552 6.73738 5.70582 6.73738 5.63541C6.73738 5.56501 6.72339 5.49531 6.69622 5.43036C6.66905 5.36541 6.62924 5.30651 6.5791 5.25708C6.52897 5.20765 6.46951 5.16868 6.40418 5.14242C6.33886 5.11617 6.26896 5.10317 6.19857 5.10416H4.60482ZM10.8027 5.10416C10.7323 5.10317 10.6624 5.11617 10.5971 5.14242C10.5318 5.16868 10.4723 5.20765 10.4222 5.25708C10.3721 5.30651 10.3323 5.36541 10.3051 5.43036C10.2779 5.49531 10.2639 5.56501 10.2639 5.63541C10.2639 5.70582 10.2779 5.77552 10.3051 5.84047C10.3323 5.90542 10.3721 5.96432 10.4222 6.01375C10.4723 6.06318 10.5318 6.10215 10.5971 6.1284C10.6624 6.15465 10.7323 6.16766 10.8027 6.16666H12.3965C13.9677 6.16666 15.2298 7.42876 15.2298 9C15.2298 10.5712 13.9677 11.8333 12.3965 11.8333H10.8027C10.7323 11.8323 10.6624 11.8453 10.5971 11.8716C10.5318 11.8978 10.4723 11.9368 10.4222 11.9862C10.3721 12.0357 10.3323 12.0946 10.3051 12.1595C10.2779 12.2245 10.2639 12.2942 10.2639 12.3646C10.2639 12.435 10.2779 12.5047 10.3051 12.5696C10.3323 12.6346 10.3721 12.6935 10.4222 12.7429C10.4723 12.7923 10.5318 12.8313 10.5971 12.8576C10.6624 12.8838 10.7323 12.8968 10.8027 12.8958H12.3965C14.5419 12.8958 16.2923 11.1454 16.2923 9C16.2923 6.85461 14.5419 5.10416 12.3965 5.10416H10.8027ZM4.07357 8.46875C4.00317 8.46775 3.93328 8.48076 3.86795 8.50701C3.80262 8.53326 3.74317 8.57223 3.69303 8.62166C3.6429 8.67109 3.60309 8.72999 3.57592 8.79494C3.54874 8.85989 3.53475 8.92959 3.53475 9C3.53475 9.0704 3.54874 9.1401 3.57592 9.20505C3.60309 9.27 3.6429 9.3289 3.69303 9.37833C3.74317 9.42776 3.80262 9.46673 3.86795 9.49299C3.93328 9.51924 4.00317 9.53224 4.07357 9.53125H12.9277C12.9981 9.53224 13.068 9.51924 13.1334 9.49299C13.1987 9.46673 13.2581 9.42776 13.3083 9.37833C13.3584 9.3289 13.3982 9.27 13.4254 9.20505C13.4526 9.1401 13.4665 9.0704 13.4665 9C13.4665 8.92959 13.4526 8.85989 13.4254 8.79494C13.3982 8.72999 13.3584 8.67109 13.3083 8.62166C13.2581 8.57223 13.1987 8.53326 13.1334 8.50701C13.068 8.48076 12.9981 8.46775 12.9277 8.46875H4.07357Z" fill="#646565"/>
</svg>
