<svg width="214" height="96" viewBox="0 0 214 96" fill="none" xmlns="http://www.w3.org/2000/svg">
<path d="M10.126 92C10.018 92 9.946 91.952 9.91 91.856L9.262 89.75C9.25 89.714 9.226 89.696 9.19 89.696H4.132C4.096 89.696 4.072 89.714 4.06 89.75L3.412 91.856C3.376 91.952 3.304 92 3.196 92H1.738C1.606 92 1.558 91.934 1.594 91.802L5.536 79.544C5.572 79.448 5.644 79.4 5.752 79.4H7.552C7.66 79.4 7.732 79.448 7.768 79.544L11.746 91.802L11.764 91.874C11.764 91.958 11.71 92 11.602 92H10.126ZM4.51 88.238C4.498 88.262 4.498 88.286 4.51 88.31C4.534 88.322 4.558 88.328 4.582 88.328H8.722C8.746 88.328 8.764 88.322 8.776 88.31C8.8 88.286 8.806 88.262 8.794 88.238L6.706 81.56C6.694 81.536 6.676 81.524 6.652 81.524C6.628 81.524 6.61 81.536 6.598 81.56L4.51 88.238ZM19.0398 79.58C19.0398 79.46 19.0998 79.4 19.2198 79.4H20.5878C20.7078 79.4 20.7678 79.46 20.7678 79.58V91.82C20.7678 91.94 20.7078 92 20.5878 92H19.2198C19.0998 92 19.0398 91.94 19.0398 91.82V91.226C19.0398 91.202 19.0278 91.184 19.0038 91.172C18.9918 91.16 18.9738 91.166 18.9498 91.19C18.6858 91.49 18.3738 91.724 18.0138 91.892C17.6538 92.06 17.2638 92.144 16.8438 92.144C15.9798 92.144 15.2598 91.934 14.6838 91.514C14.1198 91.082 13.7058 90.476 13.4418 89.696C13.2138 89.06 13.0998 88.292 13.0998 87.392C13.0998 86.552 13.1958 85.826 13.3878 85.214C13.6398 84.422 14.0538 83.804 14.6298 83.36C15.2058 82.916 15.9438 82.694 16.8438 82.694C17.2518 82.694 17.6358 82.778 17.9958 82.946C18.3678 83.102 18.6858 83.33 18.9498 83.63C18.9738 83.654 18.9918 83.66 19.0038 83.648C19.0278 83.636 19.0398 83.618 19.0398 83.594V79.58ZM18.5898 89.678C18.8658 89.174 19.0038 88.418 19.0038 87.41C19.0038 86.402 18.8538 85.634 18.5538 85.106C18.2058 84.494 17.6958 84.188 17.0238 84.188C16.3038 84.188 15.7698 84.476 15.4218 85.052C15.0378 85.652 14.8458 86.444 14.8458 87.428C14.8458 88.352 14.9958 89.096 15.2958 89.66C15.6438 90.32 16.2138 90.65 17.0058 90.65C17.7018 90.65 18.2298 90.326 18.5898 89.678ZM32.823 82.712C33.735 82.712 34.455 82.988 34.983 83.54C35.511 84.08 35.775 84.836 35.775 85.808V91.82C35.775 91.94 35.715 92 35.595 92H34.245C34.125 92 34.065 91.94 34.065 91.82V86.168C34.065 85.568 33.897 85.094 33.561 84.746C33.237 84.386 32.799 84.206 32.247 84.206C31.695 84.206 31.245 84.38 30.897 84.728C30.549 85.076 30.375 85.544 30.375 86.132V91.82C30.375 91.94 30.315 92 30.195 92H28.845C28.725 92 28.665 91.94 28.665 91.82V86.168C28.665 85.568 28.497 85.094 28.161 84.746C27.837 84.386 27.399 84.206 26.847 84.206C26.295 84.206 25.851 84.38 25.515 84.728C25.191 85.076 25.029 85.544 25.029 86.132V91.82C25.029 91.94 24.969 92 24.849 92H23.481C23.361 92 23.301 91.94 23.301 91.82V83.018C23.301 82.898 23.361 82.838 23.481 82.838H24.849C24.969 82.838 25.029 82.898 25.029 83.018V83.63C25.029 83.654 25.035 83.672 25.047 83.684C25.071 83.696 25.095 83.69 25.119 83.666C25.647 83.03 26.415 82.712 27.423 82.712C28.035 82.712 28.557 82.832 28.989 83.072C29.421 83.3 29.757 83.642 29.997 84.098C30.033 84.146 30.069 84.146 30.105 84.098C30.393 83.63 30.771 83.282 31.239 83.054C31.719 82.826 32.247 82.712 32.823 82.712ZM39.2161 81.398C38.8801 81.398 38.6041 81.29 38.3881 81.074C38.1721 80.858 38.0641 80.582 38.0641 80.246C38.0641 79.91 38.1721 79.634 38.3881 79.418C38.6041 79.202 38.8801 79.094 39.2161 79.094C39.5521 79.094 39.8281 79.202 40.0441 79.418C40.2601 79.634 40.3681 79.91 40.3681 80.246C40.3681 80.582 40.2601 80.858 40.0441 81.074C39.8281 81.29 39.5521 81.398 39.2161 81.398ZM38.4961 91.982C38.3761 91.982 38.3161 91.922 38.3161 91.802V83.018C38.3161 82.898 38.3761 82.838 38.4961 82.838H39.8641C39.9841 82.838 40.0441 82.898 40.0441 83.018V91.802C40.0441 91.922 39.9841 91.982 39.8641 91.982H38.4961ZM46.846 82.712C47.83 82.712 48.61 83 49.186 83.576C49.762 84.14 50.05 84.908 50.05 85.88V91.82C50.05 91.94 49.99 92 49.87 92H48.502C48.382 92 48.322 91.94 48.322 91.82V86.222C48.322 85.622 48.148 85.136 47.8 84.764C47.452 84.392 46.99 84.206 46.414 84.206C45.85 84.206 45.388 84.392 45.028 84.764C44.668 85.136 44.488 85.616 44.488 86.204V91.82C44.488 91.94 44.428 92 44.308 92H42.94C42.82 92 42.76 91.94 42.76 91.82V83.018C42.76 82.898 42.82 82.838 42.94 82.838H44.308C44.428 82.838 44.488 82.898 44.488 83.018V83.666C44.488 83.69 44.494 83.708 44.506 83.72C44.53 83.732 44.548 83.726 44.56 83.702C45.076 83.042 45.838 82.712 46.846 82.712ZM56.5154 92C56.3954 92 56.3354 91.94 56.3354 91.82V79.58C56.3354 79.46 56.3954 79.4 56.5154 79.4H60.8714C62.1194 79.4 63.1154 79.73 63.8594 80.39C64.6034 81.038 64.9754 81.908 64.9754 83V88.4C64.9754 89.492 64.6034 90.368 63.8594 91.028C63.1154 91.676 62.1194 92 60.8714 92H56.5154ZM58.0634 90.434C58.0634 90.482 58.0874 90.506 58.1354 90.506H60.9434C61.6394 90.506 62.1914 90.296 62.5994 89.876C63.0194 89.444 63.2354 88.868 63.2474 88.148V83.252C63.2474 82.532 63.0374 81.962 62.6174 81.542C62.2094 81.11 61.6514 80.894 60.9434 80.894H58.1354C58.0874 80.894 58.0634 80.918 58.0634 80.966V90.434ZM70.5064 82.694C71.2384 82.694 71.8744 82.826 72.4144 83.09C72.9664 83.342 73.3864 83.702 73.6744 84.17C73.9744 84.626 74.1244 85.148 74.1244 85.736V91.82C74.1244 91.94 74.0644 92 73.9444 92H72.5764C72.4564 92 72.3964 91.94 72.3964 91.82V91.172C72.3964 91.112 72.3664 91.1 72.3064 91.136C71.9944 91.46 71.6104 91.712 71.1544 91.892C70.7104 92.06 70.2124 92.144 69.6604 92.144C68.7724 92.144 68.0344 91.922 67.4464 91.478C66.8704 91.022 66.5824 90.338 66.5824 89.426C66.5824 88.49 66.9064 87.758 67.5544 87.23C68.2144 86.69 69.1324 86.42 70.3084 86.42H72.3244C72.3724 86.42 72.3964 86.396 72.3964 86.348V85.862C72.3964 85.334 72.2404 84.926 71.9284 84.638C71.6284 84.338 71.1664 84.188 70.5424 84.188C70.0384 84.188 69.6244 84.29 69.3004 84.494C68.9884 84.686 68.7964 84.95 68.7244 85.286C68.6884 85.406 68.6164 85.46 68.5084 85.448L67.0504 85.25C66.9304 85.226 66.8764 85.178 66.8884 85.106C66.9844 84.398 67.3624 83.822 68.0224 83.378C68.6824 82.922 69.5104 82.694 70.5064 82.694ZM70.0384 90.686C70.6744 90.686 71.2264 90.518 71.6944 90.182C72.1624 89.846 72.3964 89.42 72.3964 88.904V87.842C72.3964 87.794 72.3724 87.77 72.3244 87.77H70.6324C69.9244 87.77 69.3604 87.908 68.9404 88.184C68.5204 88.46 68.3104 88.844 68.3104 89.336C68.3104 89.78 68.4664 90.116 68.7784 90.344C69.1024 90.572 69.5224 90.686 70.0384 90.686ZM79.6793 92.108C78.9593 92.108 78.3233 92 77.7713 91.784C77.2313 91.568 76.8113 91.274 76.5113 90.902C76.2113 90.518 76.0613 90.098 76.0613 89.642V89.444C76.0613 89.324 76.1213 89.264 76.2413 89.264H77.5373C77.6573 89.264 77.7173 89.324 77.7173 89.444V89.534C77.7173 89.87 77.8973 90.164 78.2573 90.416C78.6293 90.668 79.0973 90.794 79.6613 90.794C80.2013 90.794 80.6393 90.68 80.9753 90.452C81.3113 90.212 81.4793 89.912 81.4793 89.552C81.4793 89.204 81.3233 88.946 81.0113 88.778C80.6993 88.598 80.1953 88.412 79.4993 88.22C78.8153 88.028 78.2393 87.836 77.7713 87.644C77.3153 87.44 76.9253 87.158 76.6013 86.798C76.2893 86.426 76.1333 85.952 76.1333 85.376C76.1333 84.572 76.4453 83.936 77.0693 83.468C77.7053 82.988 78.5453 82.748 79.5893 82.748C80.2853 82.748 80.8973 82.862 81.4253 83.09C81.9653 83.306 82.3793 83.612 82.6673 84.008C82.9553 84.404 83.0993 84.848 83.0993 85.34V85.394C83.0993 85.514 83.0393 85.574 82.9193 85.574H81.6593C81.5393 85.574 81.4793 85.514 81.4793 85.394V85.34C81.4793 84.992 81.3053 84.704 80.9573 84.476C80.6213 84.236 80.1593 84.116 79.5713 84.116C79.0433 84.116 78.6113 84.218 78.2753 84.422C77.9513 84.626 77.7893 84.902 77.7893 85.25C77.7893 85.598 77.9453 85.862 78.2573 86.042C78.5813 86.222 79.0973 86.414 79.8053 86.618C80.5013 86.81 81.0773 87.002 81.5333 87.194C82.0013 87.374 82.3973 87.65 82.7213 88.022C83.0453 88.382 83.2073 88.856 83.2073 89.444C83.2073 90.26 82.8833 90.908 82.2353 91.388C81.5993 91.868 80.7473 92.108 79.6793 92.108ZM89.3148 82.712C90.2988 82.712 91.0788 83 91.6548 83.576C92.2308 84.14 92.5188 84.908 92.5188 85.88V91.82C92.5188 91.94 92.4588 92 92.3388 92H90.9708C90.8508 92 90.7908 91.94 90.7908 91.82V86.222C90.7908 85.622 90.6168 85.136 90.2688 84.764C89.9208 84.392 89.4588 84.206 88.8828 84.206C88.3188 84.206 87.8568 84.392 87.4968 84.764C87.1368 85.136 86.9568 85.616 86.9568 86.204V91.82C86.9568 91.94 86.8968 92 86.7768 92H85.4088C85.2888 92 85.2288 91.94 85.2288 91.82V79.58C85.2288 79.46 85.2888 79.4 85.4088 79.4H86.7768C86.8968 79.4 86.9568 79.46 86.9568 79.58V83.666C86.9568 83.69 86.9628 83.708 86.9748 83.72C86.9988 83.732 87.0168 83.726 87.0288 83.702C87.5448 83.042 88.3068 82.712 89.3148 82.712ZM102.365 85.214C102.557 85.826 102.653 86.552 102.653 87.392C102.653 88.292 102.539 89.06 102.311 89.696C102.047 90.476 101.627 91.082 101.051 91.514C100.487 91.934 99.773 92.144 98.909 92.144C98.489 92.144 98.099 92.06 97.739 91.892C97.379 91.724 97.067 91.49 96.803 91.19C96.779 91.166 96.755 91.16 96.731 91.172C96.719 91.184 96.713 91.202 96.713 91.226V91.82C96.713 91.94 96.653 92 96.533 92H95.165C95.045 92 94.985 91.94 94.985 91.82V79.58C94.985 79.46 95.045 79.4 95.165 79.4H96.533C96.653 79.4 96.713 79.46 96.713 79.58V83.594C96.713 83.618 96.719 83.636 96.731 83.648C96.755 83.66 96.779 83.654 96.803 83.63C97.067 83.33 97.379 83.102 97.739 82.946C98.111 82.778 98.501 82.694 98.909 82.694C99.809 82.694 100.547 82.916 101.123 83.36C101.699 83.804 102.113 84.422 102.365 85.214ZM100.457 89.66C100.757 89.096 100.907 88.352 100.907 87.428C100.907 86.444 100.715 85.652 100.331 85.052C99.983 84.476 99.449 84.188 98.729 84.188C98.057 84.188 97.547 84.494 97.199 85.106C96.887 85.658 96.731 86.426 96.731 87.41C96.731 88.394 96.875 89.15 97.163 89.678C97.523 90.326 98.051 90.65 98.747 90.65C99.539 90.65 100.109 90.32 100.457 89.66ZM108.555 92.144C107.667 92.144 106.893 91.922 106.233 91.478C105.573 91.022 105.111 90.392 104.847 89.588C104.631 88.94 104.523 88.208 104.523 87.392C104.523 86.54 104.625 85.82 104.829 85.232C105.093 84.44 105.555 83.822 106.215 83.378C106.875 82.922 107.661 82.694 108.573 82.694C109.437 82.694 110.187 82.922 110.823 83.378C111.471 83.822 111.933 84.434 112.209 85.214C112.425 85.826 112.533 86.546 112.533 87.374C112.533 88.214 112.425 88.952 112.209 89.588C111.945 90.392 111.489 91.022 110.841 91.478C110.193 91.922 109.431 92.144 108.555 92.144ZM108.555 90.65C109.035 90.65 109.455 90.518 109.815 90.254C110.175 89.978 110.433 89.594 110.589 89.102C110.721 88.646 110.787 88.082 110.787 87.41C110.787 86.738 110.727 86.18 110.607 85.736C110.451 85.244 110.193 84.866 109.833 84.602C109.473 84.326 109.035 84.188 108.519 84.188C108.027 84.188 107.601 84.326 107.241 84.602C106.881 84.866 106.623 85.244 106.467 85.736C106.335 86.156 106.269 86.714 106.269 87.41C106.269 88.106 106.335 88.67 106.467 89.102C106.611 89.594 106.863 89.978 107.223 90.254C107.595 90.518 108.039 90.65 108.555 90.65ZM118.143 82.694C118.875 82.694 119.511 82.826 120.051 83.09C120.603 83.342 121.023 83.702 121.311 84.17C121.611 84.626 121.761 85.148 121.761 85.736V91.82C121.761 91.94 121.701 92 121.581 92H120.213C120.093 92 120.033 91.94 120.033 91.82V91.172C120.033 91.112 120.003 91.1 119.943 91.136C119.631 91.46 119.247 91.712 118.791 91.892C118.347 92.06 117.849 92.144 117.297 92.144C116.409 92.144 115.671 91.922 115.083 91.478C114.507 91.022 114.219 90.338 114.219 89.426C114.219 88.49 114.543 87.758 115.191 87.23C115.851 86.69 116.769 86.42 117.945 86.42H119.961C120.009 86.42 120.033 86.396 120.033 86.348V85.862C120.033 85.334 119.877 84.926 119.565 84.638C119.265 84.338 118.803 84.188 118.179 84.188C117.675 84.188 117.261 84.29 116.937 84.494C116.625 84.686 116.433 84.95 116.361 85.286C116.325 85.406 116.253 85.46 116.145 85.448L114.687 85.25C114.567 85.226 114.513 85.178 114.525 85.106C114.621 84.398 114.999 83.822 115.659 83.378C116.319 82.922 117.147 82.694 118.143 82.694ZM117.675 90.686C118.311 90.686 118.863 90.518 119.331 90.182C119.799 89.846 120.033 89.42 120.033 88.904V87.842C120.033 87.794 120.009 87.77 119.961 87.77H118.269C117.561 87.77 116.997 87.908 116.577 88.184C116.157 88.46 115.947 88.844 115.947 89.336C115.947 89.78 116.103 90.116 116.415 90.344C116.739 90.572 117.159 90.686 117.675 90.686ZM128.108 82.748C128.492 82.748 128.84 82.826 129.152 82.982C129.236 83.018 129.266 83.09 129.242 83.198L128.954 84.548C128.942 84.656 128.87 84.692 128.738 84.656C128.534 84.572 128.294 84.53 128.018 84.53L127.766 84.548C127.202 84.572 126.734 84.77 126.362 85.142C126.002 85.502 125.822 85.976 125.822 86.564V91.82C125.822 91.94 125.762 92 125.642 92H124.274C124.154 92 124.094 91.94 124.094 91.82V83.018C124.094 82.898 124.154 82.838 124.274 82.838H125.642C125.762 82.838 125.822 82.898 125.822 83.018V83.972C125.822 84.008 125.828 84.032 125.84 84.044C125.864 84.044 125.882 84.032 125.894 84.008C126.434 83.168 127.172 82.748 128.108 82.748ZM136.321 79.58C136.321 79.46 136.381 79.4 136.501 79.4H137.869C137.989 79.4 138.049 79.46 138.049 79.58V91.82C138.049 91.94 137.989 92 137.869 92H136.501C136.381 92 136.321 91.94 136.321 91.82V91.226C136.321 91.202 136.309 91.184 136.285 91.172C136.273 91.16 136.255 91.166 136.231 91.19C135.967 91.49 135.655 91.724 135.295 91.892C134.935 92.06 134.545 92.144 134.125 92.144C133.261 92.144 132.541 91.934 131.965 91.514C131.401 91.082 130.987 90.476 130.723 89.696C130.495 89.06 130.381 88.292 130.381 87.392C130.381 86.552 130.477 85.826 130.669 85.214C130.921 84.422 131.335 83.804 131.911 83.36C132.487 82.916 133.225 82.694 134.125 82.694C134.533 82.694 134.917 82.778 135.277 82.946C135.649 83.102 135.967 83.33 136.231 83.63C136.255 83.654 136.273 83.66 136.285 83.648C136.309 83.636 136.321 83.618 136.321 83.594V79.58ZM135.871 89.678C136.147 89.174 136.285 88.418 136.285 87.41C136.285 86.402 136.135 85.634 135.835 85.106C135.487 84.494 134.977 84.188 134.305 84.188C133.585 84.188 133.051 84.476 132.703 85.052C132.319 85.652 132.127 86.444 132.127 87.428C132.127 88.352 132.277 89.096 132.577 89.66C132.925 90.32 133.495 90.65 134.287 90.65C134.983 90.65 135.511 90.326 135.871 89.678Z" fill="#B9BBBD"/>
<path d="M11.184 46.664H21.936V53H2.976V19.304H11.184V46.664ZM38.043 53.384C35.419 53.384 33.051 52.824 30.939 51.704C28.859 50.584 27.211 48.984 25.995 46.904C24.811 44.824 24.219 42.392 24.219 39.608C24.219 36.856 24.827 34.44 26.043 32.36C27.259 30.248 28.923 28.632 31.035 27.512C33.147 26.392 35.515 25.832 38.139 25.832C40.763 25.832 43.131 26.392 45.243 27.512C47.355 28.632 49.019 30.248 50.235 32.36C51.451 34.44 52.059 36.856 52.059 39.608C52.059 42.36 51.435 44.792 50.187 46.904C48.971 48.984 47.291 50.584 45.147 51.704C43.035 52.824 40.667 53.384 38.043 53.384ZM38.043 46.28C39.611 46.28 40.939 45.704 42.027 44.552C43.147 43.4 43.707 41.752 43.707 39.608C43.707 37.464 43.163 35.816 42.075 34.664C41.019 33.512 39.707 32.936 38.139 32.936C36.539 32.936 35.211 33.512 34.155 34.664C33.099 35.784 32.571 37.432 32.571 39.608C32.571 41.752 33.083 43.4 34.107 44.552C35.163 45.704 36.475 46.28 38.043 46.28ZM66.5895 25.832C68.4775 25.832 70.1255 26.216 71.5335 26.984C72.9735 27.752 74.0775 28.76 74.8455 30.008V26.216H83.0535V52.952C83.0535 55.416 82.5575 57.64 81.5655 59.624C80.6055 61.64 79.1175 63.24 77.1015 64.424C75.1175 65.608 72.6375 66.2 69.6615 66.2C65.6935 66.2 62.4775 65.256 60.0135 63.368C57.5495 61.512 56.1415 58.984 55.7895 55.784H63.9015C64.1575 56.808 64.7655 57.608 65.7255 58.184C66.6855 58.792 67.8695 59.096 69.2775 59.096C70.9735 59.096 72.3175 58.6 73.3095 57.608C74.3335 56.648 74.8455 55.096 74.8455 52.952V49.16C74.0455 50.408 72.9415 51.432 71.5335 52.232C70.1255 53 68.4775 53.384 66.5895 53.384C64.3815 53.384 62.3815 52.824 60.5895 51.704C58.7975 50.552 57.3735 48.936 56.3175 46.856C55.2935 44.744 54.7815 42.312 54.7815 39.56C54.7815 36.808 55.2935 34.392 56.3175 32.312C57.3735 30.232 58.7975 28.632 60.5895 27.512C62.3815 26.392 64.3815 25.832 66.5895 25.832ZM74.8455 39.608C74.8455 37.56 74.2695 35.944 73.1175 34.76C71.9975 33.576 70.6215 32.984 68.9895 32.984C67.3575 32.984 65.9655 33.576 64.8135 34.76C63.6935 35.912 63.1335 37.512 63.1335 39.56C63.1335 41.608 63.6935 43.24 64.8135 44.456C65.9655 45.64 67.3575 46.232 68.9895 46.232C70.6215 46.232 71.9975 45.64 73.1175 44.456C74.2695 43.272 74.8455 41.656 74.8455 39.608ZM101.184 53.384C98.5596 53.384 96.1916 52.824 94.0796 51.704C91.9996 50.584 90.3516 48.984 89.1356 46.904C87.9516 44.824 87.3596 42.392 87.3596 39.608C87.3596 36.856 87.9676 34.44 89.1836 32.36C90.3996 30.248 92.0636 28.632 94.1756 27.512C96.2876 26.392 98.6556 25.832 101.28 25.832C103.904 25.832 106.272 26.392 108.384 27.512C110.496 28.632 112.16 30.248 113.376 32.36C114.592 34.44 115.2 36.856 115.2 39.608C115.2 42.36 114.576 44.792 113.328 46.904C112.112 48.984 110.432 50.584 108.288 51.704C106.176 52.824 103.808 53.384 101.184 53.384ZM101.184 46.28C102.752 46.28 104.08 45.704 105.168 44.552C106.288 43.4 106.848 41.752 106.848 39.608C106.848 37.464 106.304 35.816 105.216 34.664C104.16 33.512 102.848 32.936 101.28 32.936C99.6796 32.936 98.3516 33.512 97.2956 34.664C96.2396 35.784 95.7116 37.432 95.7116 39.608C95.7116 41.752 96.2236 43.4 97.2476 44.552C98.3036 45.704 99.6156 46.28 101.184 46.28Z" fill="#333333"/>
<path d="M123.394 53.384C121.954 53.384 120.77 52.968 119.842 52.136C118.946 51.272 118.498 50.216 118.498 48.968C118.498 47.688 118.946 46.616 119.842 45.752C120.77 44.888 121.954 44.456 123.394 44.456C124.802 44.456 125.954 44.888 126.85 45.752C127.778 46.616 128.242 47.688 128.242 48.968C128.242 50.216 127.778 51.272 126.85 52.136C125.954 52.968 124.802 53.384 123.394 53.384Z" fill="#00B074"/>
</svg>
