<svg width="16" height="16" viewBox="0 0 16 16" fill="none" xmlns="http://www.w3.org/2000/svg">
<path d="M3 0.5C1.62879 0.5 0.5 1.62879 0.5 3V13C0.5 14.3712 1.62879 15.5 3 15.5H10.0833C11.2551 15.5 12.2958 14.7365 12.5614 13.6079C12.5865 13.5014 12.5904 13.3909 12.5728 13.2829C12.5552 13.1748 12.5165 13.0713 12.459 12.9782C12.4014 12.8851 12.326 12.8042 12.2372 12.7402C12.1484 12.6762 12.0478 12.6304 11.9413 12.6053C11.8347 12.5802 11.7242 12.5763 11.6162 12.5938C11.5081 12.6114 11.4046 12.6501 11.3115 12.7077C11.2184 12.7653 11.1376 12.8406 11.0736 12.9295C11.0096 13.0183 10.9638 13.1189 10.9386 13.2254C10.8708 13.5135 10.4949 13.8333 10.0833 13.8333H3C2.53788 13.8333 2.16667 13.4621 2.16667 13V3C2.16667 2.53788 2.53788 2.16667 3 2.16667H10.0833C10.4949 2.16667 10.8708 2.48646 10.9386 2.77458C10.9638 2.88113 11.0096 2.98169 11.0736 3.07053C11.1376 3.15936 11.2184 3.23472 11.3115 3.29231C11.4046 3.34989 11.5081 3.38858 11.6162 3.40615C11.7242 3.42372 11.8347 3.41984 11.9413 3.39473C12.0478 3.36961 12.1484 3.32376 12.2372 3.25978C12.326 3.1958 12.4014 3.11495 12.459 3.02184C12.5165 2.92874 12.5552 2.8252 12.5728 2.71715C12.5904 2.6091 12.5865 2.49864 12.5614 2.39209C12.2958 1.26354 11.2551 0.5 10.0833 0.5H3ZM12.1577 4.65853C11.992 4.65873 11.8301 4.70833 11.6927 4.80099C11.5554 4.89365 11.4487 5.02515 11.3864 5.17871C11.3242 5.33227 11.3091 5.50091 11.3431 5.66309C11.3771 5.82527 11.4587 5.97362 11.5775 6.08919L12.6549 7.16667H5.08333C4.97291 7.1651 4.86327 7.18551 4.7608 7.22668C4.65832 7.26786 4.56506 7.329 4.48642 7.40653C4.40777 7.48407 4.34533 7.57646 4.3027 7.67834C4.26008 7.78023 4.23813 7.88956 4.23813 8C4.23813 8.11044 4.26008 8.21977 4.3027 8.32166C4.34533 8.42354 4.40777 8.51593 4.48642 8.59347C4.56506 8.671 4.65832 8.73214 4.7608 8.77332C4.86327 8.81449 4.97291 8.8349 5.08333 8.83333H12.6549L11.5775 9.91081C11.4975 9.98759 11.4336 10.0796 11.3897 10.1813C11.3457 10.2831 11.3224 10.3926 11.3213 10.5035C11.3202 10.6144 11.3412 10.7244 11.3831 10.827C11.425 10.9297 11.487 11.0229 11.5654 11.1013C11.6438 11.1797 11.737 11.2417 11.8397 11.2836C11.9423 11.3255 12.0523 11.3465 12.1632 11.3454C12.274 11.3442 12.3836 11.321 12.4853 11.277C12.5871 11.233 12.6791 11.1692 12.7559 11.0892L15.2559 8.58919C15.4121 8.43291 15.4998 8.22098 15.4998 8C15.4998 7.77902 15.4121 7.56709 15.2559 7.41081L12.7559 4.91081C12.6781 4.83088 12.5851 4.76737 12.4824 4.72404C12.3796 4.6807 12.2692 4.65843 12.1577 4.65853Z" fill="#EF3826"/>
</svg>
