<svg width="25" height="24" viewBox="0 0 25 24" fill="none" xmlns="http://www.w3.org/2000/svg">
<path d="M10.8008 2.5C6.3915 2.5 2.80078 6.08968 2.80078 10.499C2.80078 11.7833 3.13921 12.9825 3.67871 14.0586L2.84375 17.0508C2.61504 17.8708 3.42983 18.6864 4.25 18.458L7.24414 17.623C7.55619 17.7794 7.88007 17.9161 8.21191 18.0352C9.65435 20.1272 12.0723 21.499 14.8008 21.499C16.084 21.499 17.2822 21.1616 18.3574 20.623L21.3516 21.458C22.1717 21.6864 22.9865 20.8708 22.7578 20.0508L21.9229 17.0586C22.4624 15.9825 22.8008 14.7833 22.8008 13.499C22.8008 9.98034 20.5193 6.98664 17.3496 5.9209C15.901 3.85642 13.5072 2.5 10.8008 2.5ZM10.8008 4C14.3995 4 17.3008 6.90079 17.3008 10.5C17.3008 14.0987 14.3995 16.999 10.8008 16.999C9.65235 16.999 8.57954 16.7005 7.64355 16.1787C7.47099 16.0825 7.26746 16.0583 7.07715 16.1113L4.45898 16.8418L5.19043 14.2256C5.2437 14.035 5.21948 13.831 5.12305 13.6582C4.60022 12.7212 4.30078 11.6484 4.30078 10.499C4.30078 6.90037 7.20206 4 10.8008 4ZM18.4375 8.11621C20.1629 9.28274 21.3008 11.2527 21.3008 13.499C21.3008 14.6484 21.0013 15.7212 20.4785 16.6582C20.3821 16.831 20.3579 17.035 20.4111 17.2256L21.1426 19.8418L18.5244 19.1113C18.3341 19.0583 18.1306 19.0825 17.958 19.1787C17.022 19.7005 15.9492 19.999 14.8008 19.999C13.2194 19.999 11.7817 19.4286 10.6572 18.4941C10.7052 18.4951 10.7526 18.499 10.8008 18.499C15.2101 18.499 18.8008 14.9093 18.8008 10.5C18.8008 9.67022 18.6733 8.86949 18.4375 8.11621Z" fill="#646565"/>
</svg>
