<svg width="32" height="32" viewBox="0 0 32 32" fill="none" xmlns="http://www.w3.org/2000/svg">
<path d="M16 2.66667C14.7221 2.66667 13.6429 3.29121 12.8255 4.15626C11.6855 3.81647 10.4394 3.81466 9.33333 4.45313C8.22697 5.0918 7.60496 6.17205 7.32943 7.32943C6.17195 7.6051 5.09178 8.2277 4.45312 9.33334C3.81465 10.4394 3.81647 11.6855 4.15625 12.8255C3.29121 13.6429 2.66667 14.7221 2.66667 16C2.66667 17.2779 3.29121 18.3571 4.15625 19.1745C3.81647 20.3145 3.81465 21.5606 4.45312 22.6667C5.09179 23.773 6.17204 24.395 7.32943 24.6706C7.60509 25.8281 8.22769 26.9082 9.33333 27.5469C10.4394 28.1854 11.6855 28.1835 12.8255 27.8438C13.6429 28.7088 14.7221 29.3333 16 29.3333C17.2779 29.3333 18.3571 28.7088 19.1745 27.8438C20.3145 28.1835 21.5606 28.1854 22.6667 27.5469C23.773 26.9082 24.395 25.828 24.6706 24.6706C25.8281 24.3949 26.9082 23.7723 27.5469 22.6667C28.1853 21.5606 28.1835 20.3145 27.8437 19.1745C28.7088 18.3571 29.3333 17.2779 29.3333 16C29.3333 14.7221 28.7088 13.6429 27.8437 12.8255C28.1835 11.6855 28.1853 10.4394 27.5469 9.33334C26.9082 8.22697 25.828 7.60496 24.6706 7.32943C24.3949 6.17195 23.7723 5.09179 22.6667 4.45313C21.5606 3.81466 20.3145 3.81647 19.1745 4.15626C18.3571 3.29121 17.2779 2.66667 16 2.66667ZM16 4.66667C16.8657 4.66667 17.6146 5.10366 18.0599 5.76823C18.1947 5.96952 18.3979 6.11504 18.6319 6.17779C18.8658 6.24053 19.1146 6.21622 19.332 6.10938C20.0496 5.75651 20.9165 5.75186 21.6667 6.1849C22.4162 6.61787 22.8465 7.37134 22.8997 8.16928C22.9159 8.41086 23.0192 8.63837 23.1904 8.80958C23.3616 8.98079 23.5891 9.08407 23.8307 9.10027C24.6291 9.15355 25.3821 9.58332 25.8151 10.3333C26.2481 11.0835 26.2435 11.9504 25.8906 12.668C25.7838 12.8854 25.7595 13.1342 25.8222 13.3681C25.885 13.6021 26.0305 13.8053 26.2318 13.9401C26.8963 14.3854 27.3333 15.1343 27.3333 16C27.3333 16.8657 26.8963 17.6146 26.2318 18.0599C26.0305 18.1947 25.885 18.3979 25.8222 18.6319C25.7595 18.8658 25.7838 19.1146 25.8906 19.332C26.2435 20.0497 26.2481 20.9165 25.8151 21.6667C25.3821 22.4162 24.6287 22.8465 23.8307 22.8997C23.5891 22.9159 23.3616 23.0192 23.1904 23.1904C23.0192 23.3616 22.9159 23.5891 22.8997 23.8307C22.8465 24.6291 22.4167 25.3821 21.6667 25.8151C20.9165 26.2481 20.0496 26.2435 19.332 25.8906C19.1146 25.7838 18.8658 25.7595 18.6319 25.8222C18.3979 25.885 18.1947 26.0305 18.0599 26.2318C17.6146 26.8963 16.8657 27.3333 16 27.3333C15.1343 27.3333 14.3854 26.8963 13.9401 26.2318C13.8053 26.0305 13.6021 25.885 13.3681 25.8222C13.1342 25.7595 12.8854 25.7838 12.668 25.8906C11.9503 26.2435 11.0835 26.2481 10.3333 25.8151C9.58377 25.3821 9.15352 24.6287 9.10026 23.8307C9.08407 23.5891 8.98079 23.3616 8.80958 23.1904C8.63837 23.0192 8.41086 22.9159 8.16927 22.8997C7.37094 22.8465 6.61786 22.4167 6.1849 21.6667C5.75186 20.9165 5.75651 20.0497 6.10937 19.332C6.21622 19.1146 6.24052 18.8658 6.17778 18.6319C6.11504 18.3979 5.96951 18.1947 5.76823 18.0599C5.10366 17.6146 4.66667 16.8657 4.66667 16C4.66667 15.1343 5.10366 14.3854 5.76823 13.9401C5.96951 13.8053 6.11504 13.6021 6.17778 13.3681C6.24052 13.1342 6.21622 12.8854 6.10937 12.668C5.75651 11.9504 5.75186 11.0835 6.1849 10.3333C6.61787 9.58378 7.37133 9.15352 8.16927 9.10027C8.41086 9.08407 8.63837 8.98079 8.80958 8.80958C8.98079 8.63837 9.08407 8.41086 9.10026 8.16928C9.15354 7.37094 9.58331 6.61786 10.3333 6.1849C11.0835 5.75186 11.9503 5.75651 12.668 6.10938C12.8854 6.21622 13.1342 6.24053 13.3681 6.17779C13.6021 6.11504 13.8053 5.96952 13.9401 5.76823C14.3854 5.10366 15.1343 4.66667 16 4.66667ZM8.6862 13.3333C8.61573 13.3313 8.54412 13.3407 8.47396 13.362C8.19329 13.4467 8 13.7067 8 14V18C8 18.368 8.29867 18.6667 8.66667 18.6667C9.03467 18.6667 9.33333 18.368 9.33333 18V16.2018L10.7786 18.3698C10.9046 18.5585 11.1147 18.6667 11.3333 18.6667C11.398 18.6667 11.462 18.658 11.526 18.638C11.8067 18.5534 12 18.2933 12 18V14C12 13.632 11.7013 13.3333 11.3333 13.3333C10.9653 13.3333 10.6667 13.632 10.6667 14V15.7982L9.22135 13.6302C9.09835 13.4467 8.8976 13.3394 8.6862 13.3333ZM14.6667 13.3333C14.2987 13.3333 14 13.632 14 14V18C14 18.368 14.2987 18.6667 14.6667 18.6667H16.6667C17.0347 18.6667 17.3333 18.368 17.3333 18C17.3333 17.632 17.0347 17.3333 16.6667 17.3333H15.3333V16.6667H16.3333C16.7013 16.6667 17 16.368 17 16C17 15.632 16.7013 15.3333 16.3333 15.3333H15.3333V14.6667H16.6667C17.0347 14.6667 17.3333 14.368 17.3333 14C17.3333 13.632 17.0347 13.3333 16.6667 13.3333H14.6667ZM19.224 13.3425C18.8606 13.4031 18.6151 13.746 18.6758 14.1094L19.3424 18.1094C19.3871 18.3794 19.592 18.595 19.8594 18.6523C20.128 18.7097 20.4027 18.5971 20.5547 18.3698L21.3333 17.2018L22.112 18.3698C22.2366 18.5571 22.4467 18.6667 22.6667 18.6667C22.7127 18.6667 22.7606 18.6623 22.8073 18.6523C23.0746 18.595 23.2796 18.3794 23.3242 18.1094L23.9909 14.1094C24.0515 13.746 23.806 13.4031 23.4427 13.3425C23.078 13.2831 22.7358 13.528 22.6758 13.8906L22.2865 16.2279L21.888 15.6302C21.6407 15.2589 21.026 15.2589 20.7786 15.6302L20.3802 16.2279L19.9909 13.8906C19.9302 13.528 19.5906 13.2825 19.224 13.3425Z" fill="#05B52C"/>
</svg>
