<svg width="32" height="32" viewBox="0 0 32 32" fill="none" xmlns="http://www.w3.org/2000/svg">
<path d="M11.6667 3.33334C8.16871 3.33334 5.33337 6.16867 5.33337 9.66667V22.5729C5.33337 23.4643 5.77887 24.297 6.52087 24.7917L7.33337 25.3333V9.66667C7.33337 7.27334 9.27337 5.33334 11.6667 5.33334H23.3334L22.7917 4.52084C22.2977 3.77884 21.465 3.33334 20.573 3.33334H11.6667ZM12.3334 6.66667C10.3202 6.66667 8.66671 8.32015 8.66671 10.3333V25C8.66671 27.0132 10.3202 28.6667 12.3334 28.6667H23C25.0132 28.6667 26.6667 27.0132 26.6667 25V10.3333C26.6667 8.32015 25.0132 6.66667 23 6.66667H12.3334ZM12.3334 8.66667H23C23.9322 8.66667 24.6667 9.40119 24.6667 10.3333V25C24.6667 25.9322 23.9322 26.6667 23 26.6667H12.3334C11.4012 26.6667 10.6667 25.9322 10.6667 25V10.3333C10.6667 9.40119 11.4012 8.66667 12.3334 8.66667ZM17.6511 10.6523C17.3861 10.6565 17.1336 10.7656 16.949 10.9558C16.7644 11.146 16.6629 11.4017 16.6667 11.6667V19C16.6648 19.1325 16.6893 19.2641 16.7387 19.387C16.7881 19.51 16.8615 19.6219 16.9545 19.7163C17.0476 19.8107 17.1585 19.8856 17.2807 19.9368C17.403 19.9879 17.5342 20.0142 17.6667 20.0142C17.7992 20.0142 17.9304 19.9879 18.0527 19.9368C18.175 19.8856 18.2858 19.8107 18.3789 19.7163C18.4719 19.6219 18.5453 19.51 18.5947 19.387C18.6441 19.2641 18.6686 19.1325 18.6667 19V11.6667C18.6686 11.5328 18.6437 11.4 18.5933 11.2759C18.5429 11.1519 18.4681 11.0393 18.3734 10.9447C18.2787 10.8501 18.166 10.7755 18.0419 10.7253C17.9178 10.6751 17.7849 10.6503 17.6511 10.6523ZM17.6667 22C17.3131 22 16.9739 22.1405 16.7239 22.3905C16.4739 22.6406 16.3334 22.9797 16.3334 23.3333C16.3334 23.687 16.4739 24.0261 16.7239 24.2761C16.9739 24.5262 17.3131 24.6667 17.6667 24.6667C18.0203 24.6667 18.3595 24.5262 18.6095 24.2761C18.8596 24.0261 19 23.687 19 23.3333C19 22.9797 18.8596 22.6406 18.6095 22.3905C18.3595 22.1405 18.0203 22 17.6667 22Z" fill="#F04C3D"/>
</svg>
