<svg width="32" height="32" viewBox="0 0 32 32" fill="none" xmlns="http://www.w3.org/2000/svg">
<path d="M24.3359 3.98958C24.2923 3.99021 24.2488 3.99369 24.2057 4H20.3333C20.2008 3.99812 20.0692 4.0226 19.9463 4.07202C19.8233 4.12143 19.7114 4.19479 19.617 4.28784C19.5226 4.38088 19.4477 4.49175 19.3966 4.61401C19.3454 4.73627 19.3191 4.86747 19.3191 5C19.3191 5.13252 19.3454 5.26372 19.3966 5.38598C19.4477 5.50824 19.5226 5.61911 19.617 5.71216C19.7114 5.8052 19.8233 5.87856 19.9463 5.92798C20.0692 5.97739 20.2008 6.00187 20.3333 6H21.8424L15.9778 11.6159L9.69008 5.61067C9.59652 5.51359 9.48429 5.43642 9.36015 5.38381C9.236 5.33121 9.1025 5.30425 8.96767 5.30455C8.83284 5.30486 8.69946 5.33242 8.57556 5.38559C8.45165 5.43876 8.33978 5.51644 8.24666 5.61395C8.15354 5.71146 8.0811 5.82679 8.03369 5.95302C7.98629 6.07924 7.96489 6.21374 7.9708 6.34844C7.9767 6.48315 8.00978 6.61526 8.06805 6.73685C8.12632 6.85844 8.20858 6.967 8.30987 7.05599L15.289 13.7227C15.4751 13.9004 15.7225 13.9995 15.9798 13.9995C16.2371 13.9995 16.4845 13.9004 16.6705 13.7227L23.3333 7.34244V9C23.3314 9.13251 23.3559 9.26407 23.4053 9.38704C23.4547 9.51001 23.5281 9.62193 23.6211 9.7163C23.7142 9.81067 23.8251 9.8856 23.9473 9.93675C24.0696 9.9879 24.2008 10.0142 24.3333 10.0142C24.4658 10.0142 24.597 9.9879 24.7193 9.93675C24.8415 9.8856 24.9524 9.81067 25.0455 9.7163C25.1385 9.62193 25.2119 9.51001 25.2613 9.38704C25.3107 9.26407 25.3352 9.13251 25.3333 9V5.13541C25.3543 4.99263 25.3442 4.84698 25.3036 4.70847C25.2631 4.56997 25.193 4.44188 25.0982 4.33302C25.0035 4.22416 24.8863 4.1371 24.7547 4.07781C24.6231 4.01853 24.4802 3.98843 24.3359 3.98958ZM16 16C9.75708 16 6.18249 17.795 4.29555 19.3711C2.94806 20.4964 2.37659 22.2994 2.80075 23.9935L3.09893 25.1836C3.56111 27.0314 5.3705 28.2381 7.25388 27.9557L10.1133 27.5273C11.3452 27.3428 12.3406 26.4083 12.6015 25.1901V25.1888L13.1653 22.5586C13.1929 22.4301 13.2746 22.3442 13.3802 22.3125C13.8581 22.1694 14.6962 22 16 22C17.3037 22 18.1418 22.1693 18.6198 22.3125C18.7256 22.3442 18.8076 22.4307 18.8346 22.5573V22.5586L19.3984 25.1901C19.6597 26.4078 20.6542 27.3427 21.8867 27.5273L24.7461 27.9557C26.6295 28.2381 28.4396 27.0321 28.901 25.1836L29.1992 23.9935V23.9922C29.6227 22.2985 29.0515 20.4961 27.7044 19.3711C25.8175 17.795 22.2429 16 16 16ZM16 18C21.8656 18 24.9072 19.6385 26.4231 20.9049C27.1783 21.5356 27.5003 22.5433 27.2591 23.5065V23.5078L26.9609 24.6992C26.745 25.5641 25.9248 26.1101 25.0429 25.9779L22.1836 25.5495C21.7694 25.4874 21.4422 25.1811 21.3541 24.7708L20.7903 22.1406V22.1393C20.6157 21.3224 20.0118 20.6426 19.194 20.3971C18.5146 20.1936 17.4776 20 16 20C14.5224 20 13.4853 20.1936 12.806 20.3971C11.9875 20.6428 11.3847 21.3238 11.2096 22.1393L10.6458 24.7708C10.5583 25.18 10.2307 25.4874 9.81638 25.5495L6.957 25.9779C6.07505 26.1101 5.25552 25.5647 5.03904 24.6992L4.74086 23.5078V23.5065C4.49969 22.5433 4.82162 21.5356 5.5768 20.9049C7.09271 19.6385 10.1343 18 16 18Z" fill="#EF3826"/>
</svg>
