<svg width="32" height="32" viewBox="0 0 32 32" fill="none" xmlns="http://www.w3.org/2000/svg">
<path d="M8.33333 4C5.95204 4 4 5.95204 4 8.33333V23.6667C4 26.048 5.95204 28 8.33333 28H23.6667C26.048 28 28 26.048 28 23.6667V8.33333C28 5.95204 26.048 4 23.6667 4H8.33333ZM8.33333 6H23.6667C24.9667 6 26 7.03329 26 8.33333V9.33333H6V8.33333C6 7.03329 7.03329 6 8.33333 6ZM6 11.3333H26V23.6667C26 24.9667 24.9667 26 23.6667 26H8.33333C7.03329 26 6 24.9667 6 23.6667V11.3333ZM10.3333 13.3333C9.7145 13.3333 9.121 13.5792 8.68342 14.0168C8.24583 14.4543 8 15.0478 8 15.6667C8 16.2855 8.24583 16.879 8.68342 17.3166C9.121 17.7542 9.7145 18 10.3333 18C10.9522 18 11.5457 17.7542 11.9832 17.3166C12.4208 16.879 12.6667 16.2855 12.6667 15.6667C12.6667 15.0478 12.4208 14.4543 11.9832 14.0168C11.5457 13.5792 10.9522 13.3333 10.3333 13.3333ZM16 14C15.558 14 15.134 14.1756 14.8215 14.4882C14.5089 14.8007 14.3333 15.2246 14.3333 15.6667C14.3333 16.1087 14.5089 16.5326 14.8215 16.8452C15.134 17.1577 15.558 17.3333 16 17.3333C16.442 17.3333 16.866 17.1577 17.1785 16.8452C17.4911 16.5326 17.6667 16.1087 17.6667 15.6667C17.6667 15.2246 17.4911 14.8007 17.1785 14.4882C16.866 14.1756 16.442 14 16 14ZM21.6667 14C21.2246 14 20.8007 14.1756 20.4882 14.4882C20.1756 14.8007 20 15.2246 20 15.6667C20 16.1087 20.1756 16.5326 20.4882 16.8452C20.8007 17.1577 21.2246 17.3333 21.6667 17.3333C22.1087 17.3333 22.5326 17.1577 22.8452 16.8452C23.1577 16.5326 23.3333 16.1087 23.3333 15.6667C23.3333 15.2246 23.1577 14.8007 22.8452 14.4882C22.5326 14.1756 22.1087 14 21.6667 14ZM21.6667 19.3333C21.0478 19.3333 20.4543 19.5792 20.0168 20.0168C19.5792 20.4543 19.3333 21.0478 19.3333 21.6667C19.3333 22.2855 19.5792 22.879 20.0168 23.3166C20.4543 23.7542 21.0478 24 21.6667 24C22.2855 24 22.879 23.7542 23.3166 23.3166C23.7542 22.879 24 22.2855 24 21.6667C24 21.0478 23.7542 20.4543 23.3166 20.0168C22.879 19.5792 22.2855 19.3333 21.6667 19.3333Z" fill="#CB14B8"/>
</svg>
