<svg width="32" height="32" viewBox="0 0 32 32" fill="none" xmlns="http://www.w3.org/2000/svg">
<path d="M9.83594 4.32163C9.66261 4.32585 9.49336 4.37505 9.34478 4.46442C9.19621 4.55378 9.07342 4.68024 8.98846 4.83137C8.90351 4.98251 8.8593 5.15314 8.86018 5.32651C8.86106 5.49989 8.907 5.67006 8.99349 5.82033L10.5938 8.68751C10.6567 8.80414 10.7422 8.9071 10.8453 8.99038C10.9484 9.07367 11.0671 9.13563 11.1943 9.17267C11.3216 9.2097 11.455 9.22107 11.5867 9.20611C11.7183 9.19116 11.8458 9.15017 11.9615 9.08554C12.0772 9.02091 12.1789 8.93392 12.2607 8.82963C12.3425 8.72534 12.4028 8.60584 12.438 8.47806C12.4732 8.35028 12.4826 8.21677 12.4658 8.0853C12.4489 7.95384 12.4061 7.82703 12.3398 7.71225L10.7396 4.84637C10.652 4.68409 10.5212 4.5492 10.3617 4.45659C10.2023 4.36399 10.0203 4.31728 9.83594 4.32163ZM5.34375 8.85939C5.11918 8.85425 4.89943 8.92485 4.71988 9.05983C4.54033 9.19481 4.41146 9.3863 4.35401 9.60346C4.29656 9.82061 4.31389 10.0508 4.40321 10.2569C4.49252 10.463 4.64862 10.633 4.84635 10.7396L7.71224 12.3399C7.82702 12.4061 7.95382 12.4489 8.08529 12.4658C8.21676 12.4826 8.35026 12.4732 8.47804 12.438C8.60582 12.4028 8.72533 12.3425 8.82962 12.2607C8.9339 12.1789 9.02089 12.0772 9.08552 11.9615C9.15016 11.8458 9.19114 11.7184 9.2061 11.5867C9.22106 11.455 9.20969 11.3216 9.17265 11.1944C9.13562 11.0671 9.07366 10.9485 8.99037 10.8454C8.90708 10.7423 8.80413 10.6567 8.6875 10.5938L5.82031 8.9935C5.67521 8.90957 5.51133 8.86345 5.34375 8.85939ZM3.66667 15C3.53415 14.9981 3.40259 15.0226 3.27962 15.072C3.15666 15.1214 3.04473 15.1948 2.95036 15.2879C2.85599 15.3809 2.78106 15.4918 2.72991 15.614C2.67876 15.7363 2.65242 15.8675 2.65242 16C2.65242 16.1325 2.67876 16.2637 2.72991 16.386C2.78106 16.5083 2.85599 16.6191 2.95036 16.7122C3.04473 16.8052 3.15666 16.8786 3.27962 16.928C3.40259 16.9774 3.53415 17.0019 3.66667 17H7C7.13251 17.0019 7.26407 16.9774 7.38704 16.928C7.51001 16.8786 7.62193 16.8052 7.7163 16.7122C7.81067 16.6191 7.88561 16.5083 7.93676 16.386C7.9879 16.2637 8.01424 16.1325 8.01424 16C8.01424 15.8675 7.9879 15.7363 7.93676 15.614C7.88561 15.4918 7.81067 15.3809 7.7163 15.2879C7.62193 15.1948 7.51001 15.1214 7.38704 15.072C7.26407 15.0226 7.13251 14.9981 7 15H3.66667ZM25 15C24.8675 14.9981 24.7359 15.0226 24.613 15.072C24.49 15.1214 24.3781 15.1948 24.2837 15.2879C24.1893 15.3809 24.1144 15.4918 24.0632 15.614C24.0121 15.7363 23.9858 15.8675 23.9858 16C23.9858 16.1325 24.0121 16.2637 24.0632 16.386C24.1144 16.5083 24.1893 16.6191 24.2837 16.7122C24.3781 16.8052 24.49 16.8786 24.613 16.928C24.7359 16.9774 24.8675 17.0019 25 17H28.3333C28.4658 17.0019 28.5974 16.9774 28.7204 16.928C28.8433 16.8786 28.9553 16.8052 29.0496 16.7122C29.144 16.6191 29.2189 16.5083 29.2701 16.386C29.3212 16.2637 29.3476 16.1325 29.3476 16C29.3476 15.8675 29.3212 15.7363 29.2701 15.614C29.2189 15.4918 29.144 15.3809 29.0496 15.2879C28.9553 15.1948 28.8433 15.1214 28.7204 15.072C28.5974 15.0226 28.4658 14.9981 28.3333 15H25ZM23.8112 19.5261C23.5865 19.5206 23.3666 19.591 23.1868 19.7259C23.007 19.8607 22.8779 20.0522 22.8203 20.2695C22.7626 20.4867 22.7799 20.717 22.8692 20.9233C22.9585 21.1295 23.1147 21.2996 23.3125 21.4063L26.1797 23.0065C26.2946 23.0751 26.422 23.1198 26.5546 23.1382C26.6871 23.1566 26.8219 23.1482 26.9511 23.1135C27.0803 23.0789 27.2013 23.0186 27.3068 22.9364C27.4123 22.8542 27.5002 22.7516 27.5654 22.6348C27.6306 22.518 27.6716 22.3892 27.6862 22.2563C27.7007 22.1233 27.6884 21.9887 27.65 21.8606C27.6116 21.7324 27.5479 21.6133 27.4626 21.5102C27.3774 21.4071 27.2723 21.3222 27.1536 21.2604L24.2878 19.6602C24.1427 19.5762 23.9788 19.5301 23.8112 19.5261ZM8.15885 19.5274C8.0016 19.5358 7.84858 19.5814 7.71224 19.6602L4.84635 21.2604C4.72769 21.3222 4.62261 21.4071 4.53735 21.5102C4.45209 21.6133 4.38838 21.7324 4.34999 21.8606C4.3116 21.9887 4.2993 22.1233 4.31384 22.2563C4.32837 22.3892 4.36944 22.518 4.4346 22.6348C4.49977 22.7516 4.58771 22.8542 4.69323 22.9364C4.79874 23.0187 4.91968 23.0789 5.04889 23.1135C5.17809 23.1482 5.31294 23.1566 5.44544 23.1382C5.57795 23.1198 5.70542 23.0751 5.82031 23.0065L8.6875 21.4063C8.88754 21.2984 9.04486 21.1256 9.13357 20.9164C9.22228 20.7071 9.23707 20.4739 9.17552 20.2551C9.11397 20.0364 8.97974 19.8451 8.79494 19.7128C8.61014 19.5805 8.38579 19.5151 8.15885 19.5274ZM11.4674 22.7878C11.2882 22.7889 11.1125 22.8382 10.9587 22.9305C10.805 23.0228 10.679 23.1548 10.5938 23.3125L8.99349 26.1797C8.92496 26.2946 8.88019 26.4221 8.8618 26.5546C8.84342 26.6871 8.85181 26.8219 8.88647 26.9511C8.92113 27.0803 8.98137 27.2013 9.0636 27.3068C9.14584 27.4123 9.2484 27.5002 9.36523 27.5654C9.48206 27.6306 9.61078 27.6716 9.74376 27.6862C9.87674 27.7007 10.0113 27.6884 10.1394 27.65C10.2676 27.6116 10.3867 27.5479 10.4898 27.4627C10.5929 27.3774 10.6778 27.2723 10.7396 27.1537L12.3398 24.2878C12.4279 24.1353 12.474 23.9623 12.4738 23.7862C12.4735 23.6101 12.4267 23.4373 12.3382 23.2851C12.2497 23.1329 12.1225 23.0067 11.9696 22.9194C11.8167 22.8321 11.6435 22.7867 11.4674 22.7878ZM20.5026 22.7878C20.3291 22.7919 20.1596 22.8411 20.0109 22.9305C19.8621 23.0199 19.7392 23.1465 19.6542 23.2979C19.5692 23.4492 19.5251 23.62 19.5261 23.7936C19.5272 23.9672 19.5734 24.1375 19.6602 24.2878L21.2604 27.1537C21.3222 27.2723 21.4071 27.3774 21.5102 27.4627C21.6133 27.5479 21.7324 27.6116 21.8606 27.65C21.9887 27.6884 22.1233 27.7007 22.2562 27.6862C22.3892 27.6716 22.5179 27.6306 22.6348 27.5654C22.7516 27.5002 22.8542 27.4123 22.9364 27.3068C23.0186 27.2013 23.0789 27.0803 23.1135 26.9511C23.1482 26.8219 23.1566 26.6871 23.1382 26.5546C23.1198 26.4221 23.075 26.2946 23.0065 26.1797L21.4062 23.3125C21.3186 23.1502 21.1879 23.0153 21.0284 22.9227C20.8689 22.8301 20.687 22.7834 20.5026 22.7878ZM15.9844 23.9857C15.7194 23.9898 15.4669 24.099 15.2823 24.2892C15.0977 24.4794 14.9962 24.735 15 25V28.3333C14.9981 28.4659 15.0226 28.5974 15.072 28.7204C15.1214 28.8434 15.1948 28.9553 15.2878 29.0496C15.3809 29.144 15.4918 29.219 15.614 29.2701C15.7363 29.3212 15.8675 29.3476 16 29.3476C16.1325 29.3476 16.2637 29.3212 16.386 29.2701C16.5082 29.219 16.6191 29.144 16.7122 29.0496C16.8052 28.9553 16.8786 28.8434 16.928 28.7204C16.9774 28.5974 17.0019 28.4659 17 28.3333V25C17.0019 24.8662 16.977 24.7333 16.9266 24.6093C16.8762 24.4853 16.8014 24.3726 16.7067 24.278C16.612 24.1834 16.4993 24.1088 16.3752 24.0586C16.2511 24.0084 16.1182 23.9836 15.9844 23.9857Z" fill="#2BDCF4"/>
</svg>
