<svg width="24" height="24" viewBox="0 0 24 24" fill="none" xmlns="http://www.w3.org/2000/svg">
<path d="M17.7354 2.49316C17.7086 2.49401 17.6818 2.49629 17.6553 2.5H15.25C15.1506 2.49859 15.0519 2.51695 14.9597 2.55401C14.8675 2.59107 14.7836 2.64609 14.7128 2.71588C14.642 2.78566 14.5858 2.86882 14.5474 2.96051C14.5091 3.0522 14.4893 3.1506 14.4893 3.25C14.4893 3.34939 14.5091 3.44779 14.5474 3.53949C14.5858 3.63118 14.642 3.71433 14.7128 3.78412C14.7836 3.8539 14.8675 3.90892 14.9597 3.94598C15.0519 3.98304 15.1506 4.0014 15.25 4H15.9395L13.25 6.68945L10.7803 4.21972C10.6396 4.07912 10.4489 4.00014 10.25 4.00014C10.0511 4.00014 9.86038 4.07912 9.71973 4.21972L6.71973 7.21972C6.64775 7.28883 6.59028 7.37161 6.5507 7.46321C6.51111 7.5548 6.4902 7.65338 6.48918 7.75316C6.48817 7.85293 6.50707 7.95191 6.54479 8.0443C6.58251 8.13668 6.63828 8.22061 6.70883 8.29116C6.77939 8.36172 6.86332 8.41749 6.9557 8.45521C7.04808 8.49293 7.14706 8.51183 7.24684 8.51082C7.34662 8.5098 7.4452 8.48889 7.53679 8.4493C7.62839 8.40972 7.71116 8.35225 7.78027 8.28027L10.25 5.81054L12.7197 8.28027C12.8604 8.42087 13.0511 8.49985 13.25 8.49985C13.4489 8.49985 13.6396 8.42087 13.7803 8.28027L17 5.06054V5.75C16.9986 5.84938 17.017 5.94805 17.054 6.04028C17.0911 6.13251 17.1461 6.21645 17.2159 6.28722C17.2857 6.358 17.3688 6.4142 17.4605 6.45256C17.5522 6.49092 17.6506 6.51068 17.75 6.51068C17.8494 6.51068 17.9478 6.49092 18.0395 6.45256C18.1312 6.4142 18.2143 6.358 18.2841 6.28722C18.3539 6.21645 18.4089 6.13251 18.446 6.04028C18.483 5.94805 18.5014 5.84938 18.5 5.75V3.33691C18.5135 3.2296 18.5037 3.12063 18.4712 3.01748C18.4387 2.91432 18.3843 2.81941 18.3116 2.73927C18.239 2.65912 18.1499 2.59563 18.0504 2.55315C17.951 2.51067 17.8435 2.49021 17.7354 2.49316ZM4.25 9.5C3.29252 9.5 2.5 10.2925 2.5 11.25V19.75C2.5 20.7075 3.29252 21.5 4.25 21.5H19.75C20.7075 21.5 21.5 20.7075 21.5 19.75V11.25C21.5 10.2925 20.7075 9.5 19.75 9.5H4.25ZM5.5 11H18.5C18.5 11.83 19.17 12.5 20 12.5V18.5C19.17 18.5 18.5 19.17 18.5 20H5.5C5.5 19.17 4.83 18.5 4 18.5V12.5C4.83 12.5 5.5 11.83 5.5 11ZM12 12C11.0208 12 10.1976 12.4921 9.70605 13.168C9.21448 13.8439 9 14.6761 9 15.5C9 16.3239 9.21448 17.1561 9.70605 17.832C10.1976 18.5079 11.0208 19 12 19C12.9792 19 13.8024 18.5079 14.2939 17.832C14.7855 17.1561 15 16.3239 15 15.5C15 14.6761 14.7855 13.8439 14.2939 13.168C13.8024 12.4921 12.9792 12 12 12ZM12 13.5C12.5208 13.5 12.8226 13.6954 13.0811 14.0508C13.3395 14.4061 13.5 14.9489 13.5 15.5C13.5 16.0511 13.3395 16.5939 13.0811 16.9492C12.8226 17.3046 12.5208 17.5 12 17.5C11.4792 17.5 11.1774 17.3046 10.9189 16.9492C10.6605 16.5939 10.5 16.0511 10.5 15.5C10.5 14.9489 10.6605 14.4061 10.9189 14.0508C11.1774 13.6954 11.4792 13.5 12 13.5ZM6 14.5C5.73478 14.5 5.48043 14.6054 5.29289 14.7929C5.10536 14.9804 5 15.2348 5 15.5C5 15.7652 5.10536 16.0196 5.29289 16.2071C5.48043 16.3946 5.73478 16.5 6 16.5C6.26522 16.5 6.51957 16.3946 6.70711 16.2071C6.89464 16.0196 7 15.7652 7 15.5C7 15.2348 6.89464 14.9804 6.70711 14.7929C6.51957 14.6054 6.26522 14.5 6 14.5ZM18 14.5C17.7348 14.5 17.4804 14.6054 17.2929 14.7929C17.1054 14.9804 17 15.2348 17 15.5C17 15.7652 17.1054 16.0196 17.2929 16.2071C17.4804 16.3946 17.7348 16.5 18 16.5C18.2652 16.5 18.5196 16.3946 18.7071 16.2071C18.8946 16.0196 19 15.7652 19 15.5C19 15.2348 18.8946 14.9804 18.7071 14.7929C18.5196 14.6054 18.2652 14.5 18 14.5Z" fill="#CB14B8"/>
</svg>
