<svg width="32" height="32" viewBox="0 0 32 32" fill="none" xmlns="http://www.w3.org/2000/svg">
<path d="M9.83598 4.32161C9.66265 4.32583 9.4934 4.37504 9.34482 4.4644C9.19625 4.55377 9.07346 4.68022 8.98851 4.83136C8.90355 4.9825 8.85934 5.15312 8.86022 5.3265C8.8611 5.49988 8.90704 5.67005 8.99353 5.82031L10.5938 8.6875C10.6568 8.80413 10.7423 8.90708 10.8454 8.99037C10.9485 9.07365 11.0671 9.13562 11.1944 9.17265C11.3216 9.20969 11.455 9.22106 11.5867 9.2061C11.7184 9.19114 11.8458 9.15016 11.9615 9.08552C12.0772 9.02089 12.1789 8.9339 12.2607 8.82962C12.3425 8.72533 12.4028 8.60582 12.438 8.47804C12.4732 8.35026 12.4827 8.21676 12.4658 8.08529C12.449 7.95382 12.4062 7.82702 12.3399 7.71224L10.7396 4.84635C10.652 4.68408 10.5213 4.54918 10.3618 4.45658C10.2023 4.36397 10.0203 4.31726 9.83598 4.32161ZM5.34379 8.85937C5.11923 8.85423 4.89947 8.92484 4.71992 9.05982C4.54038 9.19479 4.4115 9.38629 4.35405 9.60344C4.29661 9.82059 4.31394 10.0508 4.40325 10.2569C4.49256 10.463 4.64866 10.633 4.8464 10.7396L7.71228 12.3398C7.82706 12.4061 7.95387 12.4489 8.08533 12.4658C8.2168 12.4826 8.3503 12.4732 8.47808 12.438C8.60586 12.4028 8.72537 12.3425 8.82966 12.2607C8.93395 12.1789 9.02094 12.0772 9.08557 11.9615C9.1502 11.8458 9.19118 11.7183 9.20614 11.5866C9.2211 11.455 9.20973 11.3216 9.17269 11.1943C9.13566 11.0671 9.0737 10.9484 8.99041 10.8453C8.90712 10.7422 8.80417 10.6567 8.68754 10.5937L5.82035 8.99349C5.67525 8.90955 5.51138 8.86343 5.34379 8.85937ZM3.66671 15C3.5342 14.9981 3.40263 15.0226 3.27967 15.072C3.1567 15.1214 3.04478 15.1948 2.95041 15.2878C2.85604 15.3809 2.7811 15.4918 2.72995 15.614C2.67881 15.7363 2.65247 15.8675 2.65247 16C2.65247 16.1325 2.67881 16.2637 2.72995 16.386C2.7811 16.5082 2.85604 16.6191 2.95041 16.7122C3.04478 16.8052 3.1567 16.8786 3.27967 16.928C3.40263 16.9774 3.5342 17.0019 3.66671 17H7.00004C7.13255 17.0019 7.26412 16.9774 7.38708 16.928C7.51005 16.8786 7.62197 16.8052 7.71634 16.7122C7.81071 16.6191 7.88565 16.5082 7.9368 16.386C7.98795 16.2637 8.01428 16.1325 8.01428 16C8.01428 15.8675 7.98795 15.7363 7.9368 15.614C7.88565 15.4918 7.81071 15.3809 7.71634 15.2878C7.62197 15.1948 7.51005 15.1214 7.38708 15.072C7.26412 15.0226 7.13255 14.9981 7.00004 15H3.66671ZM25 15C24.8675 14.9981 24.736 15.0226 24.613 15.072C24.49 15.1214 24.3781 15.1948 24.2837 15.2878C24.1894 15.3809 24.1144 15.4918 24.0633 15.614C24.0121 15.7363 23.9858 15.8675 23.9858 16C23.9858 16.1325 24.0121 16.2637 24.0633 16.386C24.1144 16.5082 24.1894 16.6191 24.2837 16.7122C24.3781 16.8052 24.49 16.8786 24.613 16.928C24.736 16.9774 24.8675 17.0019 25 17H28.3334C28.4659 17.0019 28.5975 16.9774 28.7204 16.928C28.8434 16.8786 28.9553 16.8052 29.0497 16.7122C29.144 16.6191 29.219 16.5082 29.2701 16.386C29.3213 16.2637 29.3476 16.1325 29.3476 16C29.3476 15.8675 29.3213 15.7363 29.2701 15.614C29.219 15.4918 29.144 15.3809 29.0497 15.2878C28.9553 15.1948 28.8434 15.1214 28.7204 15.072C28.5975 15.0226 28.4659 14.9981 28.3334 15H25ZM23.8112 19.526C23.5866 19.5206 23.3666 19.591 23.1868 19.7258C23.007 19.8607 22.8779 20.0522 22.8203 20.2694C22.7627 20.4867 22.7799 20.717 22.8692 20.9232C22.9585 21.1295 23.1147 21.2996 23.3125 21.4062L26.1797 23.0065C26.2946 23.075 26.4221 23.1198 26.5546 23.1382C26.6871 23.1566 26.8219 23.1482 26.9512 23.1135C27.0804 23.0789 27.2013 23.0186 27.3068 22.9364C27.4123 22.8542 27.5003 22.7516 27.5654 22.6348C27.6306 22.5179 27.6717 22.3892 27.6862 22.2562C27.7007 22.1233 27.6884 21.9887 27.6501 21.8606C27.6117 21.7324 27.5479 21.6133 27.4627 21.5102C27.3774 21.4071 27.2724 21.3222 27.1537 21.2604L24.2878 19.6602C24.1427 19.5762 23.9788 19.5301 23.8112 19.526ZM8.1589 19.5273C8.00164 19.5358 7.84862 19.5813 7.71228 19.6602L4.8464 21.2604C4.72773 21.3222 4.62265 21.4071 4.53739 21.5102C4.45214 21.6133 4.38842 21.7324 4.35003 21.8606C4.31164 21.9887 4.29935 22.1233 4.31388 22.2562C4.32841 22.3892 4.36948 22.5179 4.43465 22.6348C4.49981 22.7516 4.58776 22.8542 4.69327 22.9364C4.79878 23.0186 4.91972 23.0789 5.04893 23.1135C5.17813 23.1482 5.31298 23.1566 5.44549 23.1382C5.57799 23.1198 5.70546 23.075 5.82035 23.0065L8.68754 21.4062C8.88758 21.2984 9.04491 21.1256 9.13361 20.9163C9.22232 20.7071 9.23712 20.4739 9.17556 20.2551C9.11401 20.0363 8.97978 19.8451 8.79498 19.7128C8.61018 19.5805 8.38583 19.5151 8.1589 19.5273ZM11.4675 22.7878C11.2882 22.7889 11.1125 22.8382 10.9588 22.9305C10.8051 23.0228 10.679 23.1547 10.5938 23.3125L8.99353 26.1797C8.92501 26.2946 8.88023 26.422 8.86185 26.5546C8.84346 26.6871 8.85185 26.8219 8.88651 26.9511C8.92118 27.0803 8.98141 27.2013 9.06364 27.3068C9.14588 27.4123 9.24845 27.5002 9.36528 27.5654C9.4821 27.6306 9.61082 27.6716 9.7438 27.6862C9.87679 27.7007 10.0113 27.6884 10.1395 27.65C10.2676 27.6116 10.3868 27.5479 10.4899 27.4626C10.5929 27.3774 10.6779 27.2723 10.7396 27.1536L12.3399 24.2878C12.4279 24.1353 12.4741 23.9622 12.4738 23.7862C12.4735 23.6101 12.4267 23.4372 12.3382 23.285C12.2497 23.1328 12.1226 23.0067 11.9697 22.9194C11.8168 22.8321 11.6436 22.7867 11.4675 22.7878ZM20.5026 22.7878C20.3291 22.7919 20.1597 22.841 20.0109 22.9305C19.8622 23.0199 19.7392 23.1465 19.6543 23.2978C19.5693 23.4492 19.5251 23.62 19.5262 23.7936C19.5272 23.9672 19.5734 24.1375 19.6602 24.2878L21.2605 27.1536C21.3222 27.2723 21.4071 27.3774 21.5102 27.4626C21.6133 27.5479 21.7325 27.6116 21.8606 27.65C21.9888 27.6884 22.1233 27.7007 22.2563 27.6862C22.3893 27.6716 22.518 27.6306 22.6348 27.5654C22.7516 27.5002 22.8542 27.4123 22.9364 27.3068C23.0187 27.2013 23.0789 27.0803 23.1136 26.9511C23.1482 26.8219 23.1566 26.6871 23.1382 26.5546C23.1199 26.422 23.0751 26.2946 23.0066 26.1797L21.4063 23.3125C21.3187 23.1502 21.1879 23.0153 21.0285 22.9227C20.869 22.8301 20.687 22.7834 20.5026 22.7878ZM15.9844 23.9857C15.7194 23.9898 15.4669 24.099 15.2823 24.2892C15.0978 24.4793 14.9962 24.735 15 25V28.3333C14.9982 28.4658 15.0226 28.5974 15.0721 28.7204C15.1215 28.8433 15.1948 28.9553 15.2879 29.0496C15.3809 29.144 15.4918 29.2189 15.6141 29.2701C15.7363 29.3212 15.8675 29.3476 16 29.3476C16.1326 29.3476 16.2638 29.3212 16.386 29.2701C16.5083 29.2189 16.6192 29.144 16.7122 29.0496C16.8052 28.9553 16.8786 28.8433 16.928 28.7204C16.9774 28.5974 17.0019 28.4658 17 28.3333V25C17.002 24.8662 16.977 24.7333 16.9266 24.6093C16.8762 24.4853 16.8015 24.3726 16.7068 24.278C16.6121 24.1834 16.4993 24.1088 16.3752 24.0586C16.2512 24.0084 16.1183 23.9836 15.9844 23.9857Z" fill="#05B52C"/>
</svg>
