<svg width="18" height="18" viewBox="0 0 18 18" fill="none" xmlns="http://www.w3.org/2000/svg">
<path d="M2.87484 0.0834961C1.38317 0.0834961 0.166504 1.30016 0.166504 2.79183V10.7085C0.166504 12.2002 1.38317 13.4168 2.87484 13.4168H7.72917C7.6875 13.146 7.6665 12.8668 7.6665 12.5835C7.6665 12.4418 7.671 12.3043 7.68766 12.1668H2.87484C2.07067 12.1668 1.4165 11.5127 1.4165 10.7085V4.67334L8.2028 8.34196C8.29405 8.39124 8.39613 8.41705 8.49984 8.41705C8.60355 8.41705 8.70562 8.39124 8.79688 8.34196L15.5832 4.67334V7.77962C16.0415 8.01712 16.4623 8.32135 16.8332 8.67969V2.79183C16.8332 1.30016 15.6165 0.0834961 14.1248 0.0834961H2.87484ZM2.87484 1.3335H14.1248C14.929 1.3335 15.5832 1.98766 15.5832 2.79183V3.25244L8.49984 7.08138L1.4165 3.25244V2.79183C1.4165 1.98766 2.07067 1.3335 2.87484 1.3335ZM13.0832 8.00016C10.5519 8.00016 8.49984 10.0522 8.49984 12.5835C8.49984 15.1147 10.5519 17.1668 13.0832 17.1668C15.6144 17.1668 17.6665 15.1147 17.6665 12.5835C17.6665 10.0522 15.6144 8.00016 13.0832 8.00016ZM15.5832 10.5002C15.6897 10.5002 15.7963 10.5408 15.8778 10.6222C16.0407 10.7852 16.0407 11.0485 15.8778 11.2114L12.5444 14.5448C12.4632 14.626 12.3565 14.6668 12.2498 14.6668C12.1432 14.6668 12.0365 14.626 11.9552 14.5448L10.2886 12.8781C10.1257 12.7152 10.1257 12.4518 10.2886 12.2889C10.4515 12.126 10.7149 12.126 10.8778 12.2889L12.2498 13.661L15.2886 10.6222C15.37 10.5408 15.4766 10.5002 15.5832 10.5002Z" fill="#464255"/>
</svg>
