<svg width="19" height="20" viewBox="0 0 19 20" fill="none" xmlns="http://www.w3.org/2000/svg">
<path d="M15.7384 0.989258C15.5397 0.992363 15.3503 1.07423 15.2118 1.21686C15.0734 1.3595 14.9973 1.55125 15.0001 1.75V2.11328C14.0022 2.39837 13.2501 3.28427 13.2501 4.36621V4.36719C13.2501 5.6741 14.326 6.75 15.6329 6.75H16.3673C16.8634 6.75 17.2501 7.13675 17.2501 7.63281C17.2501 8.12608 16.8678 8.51052 16.3741 8.51465L15.4542 8.52246C15.1316 8.52246 14.8714 8.31318 14.7823 8.03027C14.7544 7.93446 14.7076 7.84519 14.6446 7.7677C14.5817 7.69021 14.504 7.62606 14.416 7.579C14.3279 7.53194 14.2314 7.50292 14.132 7.49365C14.0326 7.48438 13.9324 7.49503 13.8372 7.52499C13.742 7.55496 13.6537 7.60362 13.5775 7.66813C13.5014 7.73265 13.4388 7.81171 13.3936 7.9007C13.3484 7.98968 13.3214 8.0868 13.3142 8.18636C13.307 8.28591 13.3197 8.3859 13.3517 8.48047C13.5849 9.22154 14.2401 9.69708 15.0001 9.87207V10.25C14.9987 10.3494 15.0171 10.4481 15.0541 10.5403C15.0912 10.6325 15.1462 10.7164 15.216 10.7872C15.2858 10.858 15.3689 10.9142 15.4606 10.9526C15.5523 10.9909 15.6507 11.0107 15.7501 11.0107C15.8495 11.0107 15.9479 10.9909 16.0396 10.9526C16.1313 10.9142 16.2145 10.858 16.2842 10.7872C16.354 10.7164 16.409 10.6325 16.4461 10.5403C16.4832 10.4481 16.5015 10.3494 16.5001 10.25V9.99121C17.7446 9.91804 18.7501 8.89248 18.7501 7.63281C18.7501 6.32588 17.6742 5.25 16.3673 5.25H15.6329C15.1369 5.25 14.7501 4.86325 14.7501 4.36719V4.36621C14.7501 3.87511 15.129 3.49055 15.6202 3.4834L16.0323 3.47754C16.3568 3.47754 16.6189 3.68938 16.7062 3.97461C16.7343 4.06964 16.7809 4.15816 16.8434 4.23507C16.9059 4.31197 16.983 4.37573 17.0702 4.42266C17.1575 4.4696 17.2532 4.49878 17.3518 4.50851C17.4504 4.51824 17.55 4.50834 17.6447 4.47938C17.7395 4.45042 17.8276 4.40296 17.9039 4.33976C17.9802 4.27656 18.0433 4.19886 18.0894 4.11116C18.1355 4.02345 18.1638 3.92748 18.1726 3.82878C18.1814 3.73009 18.1706 3.63062 18.1407 3.53613C17.9131 2.79177 17.2591 2.31411 16.5001 2.13379V1.75C16.5016 1.64962 16.4828 1.54997 16.445 1.45695C16.4073 1.36394 16.3512 1.27946 16.2802 1.20852C16.2091 1.13757 16.1246 1.08161 16.0315 1.04395C15.9385 1.00629 15.8388 0.987689 15.7384 0.989258ZM9.73547 4.49316C9.70835 4.49397 9.68129 4.49626 9.65441 4.5H5.75012C5.65073 4.49859 5.55206 4.51696 5.45983 4.55402C5.36761 4.59108 5.28367 4.6461 5.21289 4.71588C5.14211 4.78566 5.08591 4.86882 5.04755 4.96051C5.00919 5.0522 4.98944 5.15061 4.98944 5.25C4.98944 5.34939 5.00919 5.4478 5.04755 5.53949C5.08591 5.63118 5.14211 5.71434 5.21289 5.78412C5.28367 5.8539 5.36761 5.90892 5.45983 5.94598C5.55206 5.98304 5.65073 6.00141 5.75012 6H7.93957L1.21984 12.7197C1.14786 12.7888 1.0904 12.8716 1.05081 12.9632C1.01122 13.0548 0.990311 13.1534 0.989297 13.2532C0.988282 13.3529 1.00719 13.4519 1.0449 13.5443C1.08262 13.6367 1.13839 13.7206 1.20895 13.7912C1.27951 13.8617 1.36344 13.9175 1.45582 13.9552C1.5482 13.9929 1.64718 14.0118 1.74696 14.0108C1.84674 14.0098 1.94531 13.9889 2.03691 13.9493C2.1285 13.9097 2.21128 13.8523 2.28039 13.7803L9.00012 7.06055V9.25C8.99871 9.34938 9.01707 9.44806 9.05413 9.54028C9.09119 9.63251 9.14621 9.71645 9.216 9.78723C9.28578 9.858 9.36893 9.91421 9.46063 9.95257C9.55232 9.99093 9.65072 10.0107 9.75012 10.0107C9.84951 10.0107 9.94791 9.99093 10.0396 9.95257C10.1313 9.91421 10.2145 9.858 10.2842 9.78723C10.354 9.71645 10.409 9.63251 10.4461 9.54028C10.4832 9.44806 10.5015 9.34938 10.5001 9.25V5.34473C10.5149 5.23682 10.506 5.12699 10.474 5.02287C10.4421 4.91875 10.3878 4.82283 10.3151 4.74179C10.2423 4.66076 10.1528 4.59654 10.0527 4.5536C9.95258 4.51066 9.84434 4.49004 9.73547 4.49316ZM9.7384 11.9893C9.53966 11.9924 9.35027 12.0742 9.21184 12.2169C9.07342 12.3595 8.99727 12.5513 9.00012 12.75V18.25C8.99871 18.3494 9.01707 18.4481 9.05413 18.5403C9.09119 18.6325 9.14621 18.7164 9.216 18.7872C9.28578 18.858 9.36893 18.9142 9.46063 18.9526C9.55232 18.9909 9.65072 19.0107 9.75012 19.0107C9.84951 19.0107 9.94791 18.9909 10.0396 18.9526C10.1313 18.9142 10.2145 18.858 10.2842 18.7872C10.354 18.7164 10.409 18.6325 10.4461 18.5403C10.4832 18.4481 10.5015 18.3494 10.5001 18.25V12.75C10.5016 12.6496 10.4828 12.55 10.445 12.457C10.4073 12.3639 10.3512 12.2795 10.2802 12.2085C10.2091 12.1376 10.1246 12.0816 10.0315 12.044C9.93845 12.0063 9.83878 11.9877 9.7384 11.9893ZM13.7384 11.9893C13.5397 11.9924 13.3503 12.0742 13.2118 12.2169C13.0734 12.3595 12.9973 12.5513 13.0001 12.75V18.25C12.9987 18.3494 13.0171 18.4481 13.0541 18.5403C13.0912 18.6325 13.1462 18.7164 13.216 18.7872C13.2858 18.858 13.3689 18.9142 13.4606 18.9526C13.5523 18.9909 13.6507 19.0107 13.7501 19.0107C13.8495 19.0107 13.9479 18.9909 14.0396 18.9526C14.1313 18.9142 14.2145 18.858 14.2842 18.7872C14.354 18.7164 14.409 18.6325 14.4461 18.5403C14.4832 18.4481 14.5015 18.3494 14.5001 18.25V12.75C14.5016 12.6496 14.4828 12.55 14.445 12.457C14.4073 12.3639 14.3512 12.2795 14.2802 12.2085C14.2091 12.1376 14.1246 12.0816 14.0315 12.044C13.9385 12.0063 13.8388 11.9877 13.7384 11.9893ZM17.7384 11.9893C17.5397 11.9924 17.3503 12.0742 17.2118 12.2169C17.0734 12.3595 16.9973 12.5513 17.0001 12.75V18.25C16.9987 18.3494 17.0171 18.4481 17.0541 18.5403C17.0912 18.6325 17.1462 18.7164 17.216 18.7872C17.2858 18.858 17.3689 18.9142 17.4606 18.9526C17.5523 18.9909 17.6507 19.0107 17.7501 19.0107C17.8495 19.0107 17.9479 18.9909 18.0396 18.9526C18.1313 18.9142 18.2145 18.858 18.2842 18.7872C18.354 18.7164 18.409 18.6325 18.4461 18.5403C18.4832 18.4481 18.5015 18.3494 18.5001 18.25V12.75C18.5016 12.6496 18.4828 12.55 18.445 12.457C18.4073 12.3639 18.3512 12.2795 18.2802 12.2085C18.2091 12.1376 18.1246 12.0816 18.0315 12.044C17.9385 12.0063 17.8388 11.9877 17.7384 11.9893ZM5.7384 14.4893C5.53966 14.4924 5.35027 14.5742 5.21184 14.7169C5.07342 14.8595 4.99727 15.0513 5.00012 15.25V18.25C4.99871 18.3494 5.01707 18.4481 5.05413 18.5403C5.09119 18.6325 5.14621 18.7164 5.216 18.7872C5.28578 18.858 5.36893 18.9142 5.46063 18.9526C5.55232 18.9909 5.65072 19.0107 5.75012 19.0107C5.84951 19.0107 5.94791 18.9909 6.03961 18.9526C6.1313 18.9142 6.21445 18.858 6.28424 18.7872C6.35402 18.7164 6.40904 18.6325 6.4461 18.5403C6.48316 18.4481 6.50152 18.3494 6.50012 18.25V15.25C6.50156 15.1496 6.48283 15.05 6.44505 14.957C6.40727 14.8639 6.3512 14.7795 6.28016 14.7085C6.20913 14.6376 6.12457 14.5816 6.03151 14.544C5.93845 14.5063 5.83878 14.4877 5.7384 14.4893ZM1.7384 16.9893C1.53966 16.9924 1.35027 17.0742 1.21184 17.2169C1.07342 17.3595 0.997266 17.5513 1.00012 17.75V18.25C0.998711 18.3494 1.01707 18.4481 1.05413 18.5403C1.09119 18.6325 1.14621 18.7164 1.216 18.7872C1.28578 18.858 1.36893 18.9142 1.46063 18.9526C1.55232 18.9909 1.65072 19.0107 1.75012 19.0107C1.84951 19.0107 1.94791 18.9909 2.03961 18.9526C2.1313 18.9142 2.21445 18.858 2.28424 18.7872C2.35402 18.7164 2.40904 18.6325 2.4461 18.5403C2.48316 18.4481 2.50152 18.3494 2.50012 18.25V17.75C2.50156 17.6496 2.48283 17.55 2.44505 17.457C2.40727 17.3639 2.3512 17.2795 2.28016 17.2085C2.20913 17.1376 2.12457 17.0816 2.03151 17.044C1.93845 17.0063 1.83878 16.9877 1.7384 16.9893Z" fill="#656D09"/>
</svg>
