<svg width="20" height="20" viewBox="0 0 20 20" fill="none" xmlns="http://www.w3.org/2000/svg">
<path d="M9.99952 1.25C9.31456 1.25 8.75028 1.60492 8.33204 2.08333H6.45785C6.35684 2.08334 6.25734 2.10784 6.16787 2.15471C6.07839 2.20158 6.00161 2.26944 5.94409 2.35248C5.88657 2.43551 5.85004 2.53125 5.83761 2.63149C5.82518 2.73173 5.83723 2.83349 5.87273 2.92806L6.9616 5.83252C5.73794 6.82063 1.9378 10.2702 2.10808 14.9471C2.18558 17.0796 3.92312 18.75 6.06479 18.75H11.0794C10.7403 18.3896 10.4677 17.9671 10.2819 17.5H6.06479C4.59937 17.5 3.41019 16.359 3.35727 14.9023C3.19859 10.5344 7.19984 7.22725 7.92188 6.66667H12.0747C12.4549 6.95775 14.2567 8.40061 15.5073 10.6274C15.8736 10.4916 16.2645 10.4167 16.6662 10.4167C16.7216 10.4167 16.7752 10.4223 16.8298 10.4248C15.6217 8.0448 13.7888 6.43449 13.0366 5.83333L14.1263 2.92806C14.1618 2.83349 14.1739 2.73173 14.1614 2.63149C14.149 2.53125 14.1125 2.43551 14.055 2.35248C13.9974 2.26944 13.9207 2.20158 13.8312 2.15471C13.7417 2.10784 13.6422 2.08334 13.5412 2.08333H11.667C11.2488 1.60492 10.6845 1.25 9.99952 1.25ZM9.99952 2.5C10.3867 2.5 10.7117 2.7079 10.8947 3.02246C10.9497 3.11703 11.0285 3.19552 11.1234 3.25007C11.2182 3.30462 11.3257 3.33333 11.4351 3.33333H12.6395L11.8582 5.41667H8.1408L7.35955 3.33333H8.56397C8.67337 3.33333 8.78085 3.30462 8.87568 3.25007C8.9705 3.19552 9.04935 3.11703 9.10434 3.02246C9.28737 2.7079 9.61233 2.5 9.99952 2.5ZM16.6662 11.25C15.8912 11.25 15.195 11.604 14.7367 12.1582C16.5117 12.5165 17.858 14.0538 17.9121 15.9163C18.6621 15.483 19.1662 14.675 19.1662 13.75C19.1662 12.3708 18.0454 11.25 16.6662 11.25ZM13.9579 12.9167C13.1291 12.9167 12.3342 13.2459 11.7481 13.832C11.1621 14.418 10.8329 15.2129 10.8329 16.0417C10.8329 16.8705 11.1621 17.6653 11.7481 18.2514C12.3342 18.8374 13.1291 19.1667 13.9579 19.1667C14.7867 19.1667 15.5815 18.8374 16.1676 18.2514C16.7536 17.6653 17.0829 16.8705 17.0829 16.0417C17.0829 15.2129 16.7536 14.418 16.1676 13.832C15.5815 13.2459 14.7867 12.9167 13.9579 12.9167Z" fill="#464255"/>
</svg>
