<svg width="20" height="20" viewBox="0 0 20 20" fill="none" xmlns="http://www.w3.org/2000/svg">
<path d="M10.0001 1.66667C9.34308 1.66667 8.70957 1.74976 8.10478 1.89046C7.97866 1.9199 7.8648 1.98778 7.77894 2.08473C7.69307 2.18167 7.63944 2.3029 7.62545 2.43164L7.4928 3.64095C7.44942 4.03723 7.2205 4.38786 6.87512 4.5874C6.53043 4.78655 6.11205 4.80861 5.74719 4.64844H5.74638L4.63554 4.15934C4.51705 4.1072 4.3853 4.09313 4.25848 4.11908C4.13166 4.14503 4.01602 4.20971 3.92753 4.3042C3.06399 5.22483 2.40124 6.33961 2.02486 7.58382C1.98737 7.70766 1.98923 7.84008 2.03019 7.96281C2.07115 8.08555 2.14919 8.19254 2.25354 8.26904L3.23905 8.9917C3.56087 9.2283 3.75012 9.60117 3.75012 10C3.75012 10.399 3.56087 10.7722 3.23905 11.0083L2.25354 11.7301C2.14919 11.8066 2.07115 11.9136 2.03019 12.0364C1.98923 12.1591 1.98737 12.2915 2.02486 12.4154C2.4012 13.6594 3.06342 14.775 3.92753 15.6958C4.01611 15.7902 4.1318 15.8547 4.25861 15.8805C4.38543 15.9063 4.51713 15.8921 4.63554 15.8398L5.74638 15.3507C6.11141 15.1902 6.53019 15.2133 6.87512 15.4126C7.2205 15.6121 7.44942 15.9628 7.4928 16.3591L7.62545 17.5684C7.63954 17.6969 7.69313 17.8178 7.77883 17.9146C7.86453 18.0114 7.97812 18.0792 8.10396 18.1087C8.70903 18.2499 9.34308 18.3333 10.0001 18.3333C10.6572 18.3333 11.2907 18.2502 11.8955 18.1095C12.0216 18.0801 12.1354 18.0122 12.2213 17.9153C12.3072 17.8183 12.3608 17.6971 12.3748 17.5684L12.5074 16.3591C12.5508 15.9628 12.7797 15.6121 13.1251 15.4126C13.4698 15.2134 13.8882 15.1906 14.2531 15.3507L15.3647 15.8398C15.4831 15.8921 15.6148 15.9063 15.7416 15.8805C15.8684 15.8547 15.9841 15.7902 16.0727 15.6958C16.9363 14.7752 17.599 13.6596 17.9754 12.4154C18.0129 12.2915 18.011 12.1591 17.9701 12.0364C17.9291 11.9136 17.8511 11.8066 17.7467 11.7301L16.7612 11.0083C16.4394 10.7722 16.2501 10.399 16.2501 10C16.2501 9.60096 16.4394 9.22778 16.7612 8.9917L17.7467 8.26986C17.8511 8.19336 17.9291 8.08636 17.9701 7.96363C18.011 7.84089 18.0129 7.70847 17.9754 7.58464C17.599 6.34043 16.9363 5.22483 16.0727 4.3042C15.9841 4.20985 15.8684 4.14532 15.7416 4.11952C15.6148 4.09372 15.4831 4.10792 15.3647 4.16016L14.2531 4.64925C13.8882 4.80943 13.4698 4.78655 13.1251 4.5874C12.7797 4.38786 12.5508 4.03723 12.5074 3.64095L12.3748 2.43164C12.3607 2.30315 12.3071 2.18219 12.2214 2.08541C12.1357 1.98864 12.0221 1.92081 11.8963 1.89128C11.2912 1.75007 10.6572 1.66667 10.0001 1.66667ZM10.0001 2.91667C10.4061 2.91667 10.7959 2.98953 11.1866 3.05827L11.2648 3.77686C11.3514 4.56807 11.8113 5.27181 12.5001 5.66976C13.1894 6.06797 14.0285 6.11375 14.7568 5.79346L15.4176 5.50293C15.925 6.11225 16.3268 6.80049 16.6074 7.55453L16.0214 7.98421C15.3799 8.4548 15.0001 9.20405 15.0001 10C15.0001 10.796 15.3799 11.5452 16.0214 12.0158L16.6074 12.4455C16.3268 13.1995 15.925 13.8877 15.4176 14.4971L14.7568 14.2065C14.0285 13.8862 13.1894 13.932 12.5001 14.3302C11.8113 14.7282 11.3514 15.4319 11.2648 16.2231L11.1866 16.9417C10.796 17.0103 10.4059 17.0833 10.0001 17.0833C9.59416 17.0833 9.20432 17.0105 8.8136 16.9417L8.73547 16.2231C8.64886 15.4319 8.18891 14.7282 7.50012 14.3302C6.81088 13.932 5.97175 13.8862 5.24345 14.2065L4.58264 14.4971C4.07511 13.8878 3.67343 13.1996 3.39286 12.4455L3.9788 12.0158C4.62031 11.5452 5.00012 10.796 5.00012 10C5.00012 9.20405 4.62001 8.45432 3.9788 7.9834L3.39286 7.55371C3.67359 6.79939 4.07573 6.1116 4.58346 5.50212L5.24345 5.79264C5.97175 6.11294 6.81088 6.06797 7.50012 5.66976C8.18891 5.27181 8.64886 4.56807 8.73547 3.77686L8.8136 3.05827C9.20429 2.98973 9.59437 2.91667 10.0001 2.91667ZM10.0001 6.66667C8.16657 6.66667 6.66679 8.16646 6.66679 10C6.66679 11.8335 8.16657 13.3333 10.0001 13.3333C11.8337 13.3333 13.3335 11.8335 13.3335 10C13.3335 8.16646 11.8337 6.66667 10.0001 6.66667ZM10.0001 7.91667C11.1581 7.91667 12.0835 8.842 12.0835 10C12.0835 11.158 11.1581 12.0833 10.0001 12.0833C8.84212 12.0833 7.91679 11.158 7.91679 10C7.91679 8.842 8.84212 7.91667 10.0001 7.91667Z" fill="#464255"/>
</svg>
