<svg width="59" height="78" viewBox="0 0 59 78" fill="none" xmlns="http://www.w3.org/2000/svg">
<g clip-path="url(#clip0_312_13530)">
<path d="M53.3642 77.3571H5.63426C2.59239 77.3571 0.126953 74.904 0.126953 71.8775V6.12252C0.126953 3.09597 2.59239 0.642944 5.63426 0.642944H40.5139L58.8715 18.9082V71.8775C58.8715 74.904 56.4061 77.3571 53.3642 77.3571Z" fill="#43A047"/>
<path d="M58.8714 18.9082H40.5137V0.642944L58.8714 18.9082Z" fill="#C8E6C9"/>
<path d="M40.5137 18.9082L58.8714 37.1735V18.9082H40.5137Z" fill="#2E7D32"/>
<path d="M42.3508 37.1735H16.6501H12.9785V40.8265V44.4796V48.1326V51.7857V55.4387V59.0918V62.7448H46.0223V59.0918V55.4387V51.7857V48.1326V44.4796V40.8265V37.1735H42.3508ZM16.6501 40.8265H23.9931V44.4796H16.6501V40.8265ZM16.6501 48.1326H23.9931V51.7857H16.6501V48.1326ZM16.6501 55.4387H23.9931V59.0918H16.6501V55.4387ZM42.3508 59.0918H27.6647V55.4387H42.3508V59.0918ZM42.3508 51.7857H27.6647V48.1326H42.3508V51.7857ZM42.3508 44.4796H27.6647V40.8265H42.3508V44.4796Z" fill="#E8F5E9"/>
</g>
<defs>
<clipPath id="clip0_312_13530">
<rect width="59" height="77" fill="white" transform="translate(0 0.5)"/>
</clipPath>
</defs>
</svg>
