<svg width="14" height="18" viewBox="0 0 14 18" fill="none" xmlns="http://www.w3.org/2000/svg">
<path d="M2.2085 0.666666C1.18037 0.666666 0.333496 1.51354 0.333496 2.54167V15.4583C0.333496 16.4865 1.18037 17.3333 2.2085 17.3333H11.7918C12.82 17.3333 13.6668 16.4865 13.6668 15.4583V6.70833C13.6668 6.54258 13.6009 6.38363 13.4837 6.26644L13.4772 6.25993L8.06706 0.849771C7.94986 0.732561 7.79091 0.666698 7.62516 0.666666H2.2085ZM2.2085 1.91667H7.00016V5.45833C7.00016 6.48646 7.84704 7.33333 8.87516 7.33333H12.4168V15.4583C12.4168 15.811 12.1445 16.0833 11.7918 16.0833H2.2085C1.85579 16.0833 1.5835 15.811 1.5835 15.4583V2.54167C1.5835 2.18896 1.85579 1.91667 2.2085 1.91667ZM8.25016 2.80046L11.533 6.08333H8.87516C8.52245 6.08333 8.25016 5.81104 8.25016 5.45833V2.80046ZM3.87516 9C3.79234 8.99883 3.71012 9.01413 3.63326 9.04501C3.55641 9.0759 3.48645 9.12175 3.42747 9.1799C3.36849 9.23805 3.32166 9.30735 3.28969 9.38376C3.25772 9.46017 3.24126 9.54217 3.24126 9.625C3.24126 9.70783 3.25772 9.78983 3.28969 9.86624C3.32166 9.94265 3.36849 10.0119 3.42747 10.0701C3.48645 10.1283 3.55641 10.1741 3.63326 10.205C3.71012 10.2359 3.79234 10.2512 3.87516 10.25H5.9585C6.04132 10.2512 6.12354 10.2359 6.2004 10.205C6.27725 10.1741 6.3472 10.1283 6.40618 10.0701C6.46517 10.0119 6.512 9.94265 6.54397 9.86624C6.57594 9.78983 6.5924 9.70783 6.5924 9.625C6.5924 9.54217 6.57594 9.46017 6.54397 9.38376C6.512 9.30735 6.46517 9.23805 6.40618 9.1799C6.3472 9.12175 6.27725 9.0759 6.2004 9.04501C6.12354 9.01413 6.04132 8.99883 5.9585 9H3.87516ZM8.04183 9C7.95901 8.99883 7.87678 9.01413 7.79993 9.04501C7.72307 9.0759 7.65312 9.12175 7.59414 9.1799C7.53516 9.23805 7.48832 9.30735 7.45636 9.38376C7.42439 9.46017 7.40793 9.54217 7.40793 9.625C7.40793 9.70783 7.42439 9.78983 7.45636 9.86624C7.48832 9.94265 7.53516 10.0119 7.59414 10.0701C7.65312 10.1283 7.72307 10.1741 7.79993 10.205C7.87678 10.2359 7.95901 10.2512 8.04183 10.25H10.1252C10.208 10.2512 10.2902 10.2359 10.3671 10.205C10.4439 10.1741 10.5139 10.1283 10.5729 10.0701C10.6318 10.0119 10.6787 9.94265 10.7106 9.86624C10.7426 9.78983 10.7591 9.70783 10.7591 9.625C10.7591 9.54217 10.7426 9.46017 10.7106 9.38376C10.6787 9.30735 10.6318 9.23805 10.5729 9.1799C10.5139 9.12175 10.4439 9.0759 10.3671 9.04501C10.2902 9.01413 10.208 8.99883 10.1252 9H8.04183ZM3.87516 11.0833C3.79234 11.0822 3.71012 11.0975 3.63326 11.1283C3.55641 11.1592 3.48645 11.2051 3.42747 11.2632C3.36849 11.3214 3.32166 11.3907 3.28969 11.4671C3.25772 11.5435 3.24126 11.6255 3.24126 11.7083C3.24126 11.7912 3.25772 11.8732 3.28969 11.9496C3.32166 12.026 3.36849 12.0953 3.42747 12.1534C3.48645 12.2116 3.55641 12.2574 3.63326 12.2883C3.71012 12.3192 3.79234 12.3345 3.87516 12.3333H5.9585C6.04132 12.3345 6.12354 12.3192 6.2004 12.2883C6.27725 12.2574 6.3472 12.2116 6.40618 12.1534C6.46517 12.0953 6.512 12.026 6.54397 11.9496C6.57594 11.8732 6.5924 11.7912 6.5924 11.7083C6.5924 11.6255 6.57594 11.5435 6.54397 11.4671C6.512 11.3907 6.46517 11.3214 6.40618 11.2632C6.3472 11.2051 6.27725 11.1592 6.2004 11.1283C6.12354 11.0975 6.04132 11.0822 5.9585 11.0833H3.87516ZM8.04183 11.0833C7.95901 11.0822 7.87678 11.0975 7.79993 11.1283C7.72307 11.1592 7.65312 11.2051 7.59414 11.2632C7.53516 11.3214 7.48832 11.3907 7.45636 11.4671C7.42439 11.5435 7.40793 11.6255 7.40793 11.7083C7.40793 11.7912 7.42439 11.8732 7.45636 11.9496C7.48832 12.026 7.53516 12.0953 7.59414 12.1534C7.65312 12.2116 7.72307 12.2574 7.79993 12.2883C7.87678 12.3192 7.95901 12.3345 8.04183 12.3333H10.1252C10.208 12.3345 10.2902 12.3192 10.3671 12.2883C10.4439 12.2574 10.5139 12.2116 10.5729 12.1534C10.6318 12.0953 10.6787 12.026 10.7106 11.9496C10.7426 11.8732 10.7591 11.7912 10.7591 11.7083C10.7591 11.6255 10.7426 11.5435 10.7106 11.4671C10.6787 11.3907 10.6318 11.3214 10.5729 11.2632C10.5139 11.2051 10.4439 11.1592 10.3671 11.1283C10.2902 11.0975 10.208 11.0822 10.1252 11.0833H8.04183ZM3.87516 13.1667C3.79234 13.1655 3.71012 13.1808 3.63326 13.2117C3.55641 13.2426 3.48645 13.2884 3.42747 13.3466C3.36849 13.4047 3.32166 13.474 3.28969 13.5504C3.25772 13.6268 3.24126 13.7088 3.24126 13.7917C3.24126 13.8745 3.25772 13.9565 3.28969 14.0329C3.32166 14.1093 3.36849 14.1786 3.42747 14.2368C3.48645 14.2949 3.55641 14.3408 3.63326 14.3717C3.71012 14.4025 3.79234 14.4178 3.87516 14.4167H5.9585C6.04132 14.4178 6.12354 14.4025 6.2004 14.3717C6.27725 14.3408 6.3472 14.2949 6.40618 14.2368C6.46517 14.1786 6.512 14.1093 6.54397 14.0329C6.57594 13.9565 6.5924 13.8745 6.5924 13.7917C6.5924 13.7088 6.57594 13.6268 6.54397 13.5504C6.512 13.474 6.46517 13.4047 6.40618 13.3466C6.3472 13.2884 6.27725 13.2426 6.2004 13.2117C6.12354 13.1808 6.04132 13.1655 5.9585 13.1667H3.87516ZM8.04183 13.1667C7.95901 13.1655 7.87678 13.1808 7.79993 13.2117C7.72307 13.2426 7.65312 13.2884 7.59414 13.3466C7.53516 13.4047 7.48832 13.474 7.45636 13.5504C7.42439 13.6268 7.40793 13.7088 7.40793 13.7917C7.40793 13.8745 7.42439 13.9565 7.45636 14.0329C7.48832 14.1093 7.53516 14.1786 7.59414 14.2368C7.65312 14.2949 7.72307 14.3408 7.79993 14.3717C7.87678 14.4025 7.95901 14.4178 8.04183 14.4167H10.1252C10.208 14.4178 10.2902 14.4025 10.3671 14.3717C10.4439 14.3408 10.5139 14.2949 10.5729 14.2368C10.6318 14.1786 10.6787 14.1093 10.7106 14.0329C10.7426 13.9565 10.7591 13.8745 10.7591 13.7917C10.7591 13.7088 10.7426 13.6268 10.7106 13.5504C10.6787 13.474 10.6318 13.4047 10.5729 13.3466C10.5139 13.2884 10.4439 13.2426 10.3671 13.2117C10.2902 13.1808 10.208 13.1655 10.1252 13.1667H8.04183Z" fill="#464255"/>
</svg>
