<svg width="20" height="20" viewBox="0 0 20 20" fill="none" xmlns="http://www.w3.org/2000/svg">
<path d="M3.95827 2.08333C3.84806 2.08331 3.7398 2.11243 3.64448 2.16774C3.54915 2.22305 3.47014 2.30258 3.41546 2.39827L1.7488 5.31494C1.69532 5.40891 1.66714 5.51514 1.66699 5.62326C1.66685 5.73138 1.69476 5.83769 1.74798 5.9318C1.84281 6.59758 2.1093 7.20865 2.49993 7.71728V17.7083C2.49995 17.8741 2.5658 18.033 2.68301 18.1503C2.80022 18.2675 2.95918 18.3333 3.12493 18.3333H16.8749C17.0407 18.3333 17.1997 18.2675 17.3169 18.1503C17.4341 18.033 17.4999 17.8741 17.4999 17.7083V7.71891C17.8914 7.20966 18.1581 6.59706 18.2527 5.93017C18.3055 5.83619 18.3331 5.73014 18.3328 5.62234C18.3325 5.51454 18.3044 5.40864 18.2511 5.31494L16.5844 2.39827C16.5297 2.30258 16.4507 2.22305 16.3554 2.16774C16.2601 2.11243 16.1518 2.08331 16.0416 2.08333H3.95827ZM4.32122 3.33333H15.6786L17.0401 5.71533C16.8891 6.95448 15.8665 7.91666 14.5833 7.91666C13.8888 7.91666 13.2671 7.63629 12.8141 7.18261C12.7007 7.06925 12.5482 7.00375 12.3879 6.99967C12.2277 6.99558 12.072 7.0532 11.9531 7.16064C11.4333 7.63041 10.7545 7.91666 9.99994 7.91666C9.2454 7.91666 8.56656 7.63041 8.04681 7.16064C7.92785 7.0532 7.77216 6.99558 7.61192 6.99967C7.45168 7.00375 7.29913 7.06925 7.18581 7.18261C6.7328 7.63629 6.11111 7.91666 5.4166 7.91666C4.13336 7.91666 3.11076 6.95448 2.95973 5.71533L4.32122 3.33333ZM7.63991 8.35611C8.31692 8.83371 9.1092 9.16666 9.99994 9.16666C10.8907 9.16666 11.683 8.83371 12.36 8.35611C12.9893 8.83225 13.7364 9.16666 14.5833 9.16666C15.1855 9.16666 15.7505 9.02038 16.2499 8.76383V17.0833H14.5833V11.0417C14.5833 10.8759 14.5174 10.7169 14.4002 10.5997C14.283 10.4825 14.124 10.4167 13.9583 10.4167H6.0416C5.87585 10.4167 5.71689 10.4825 5.59968 10.5997C5.48247 10.7169 5.41662 10.8759 5.4166 11.0417V17.0833H3.74993V8.76383C4.24942 9.02056 4.81422 9.16666 5.4166 9.16666C6.26345 9.16666 7.01062 8.83225 7.63991 8.35611ZM6.6666 11.6667H9.37493V17.0833H6.6666V11.6667ZM10.6249 11.6667H13.3333V17.0833H10.6249V11.6667Z" fill="#464255"/>
</svg>
