<svg width="32" height="32" viewBox="0 0 32 32" fill="none" xmlns="http://www.w3.org/2000/svg">
<path d="M5 4C4.73479 4.00003 4.48045 4.10539 4.29292 4.29292C4.10539 4.48045 4.00003 4.73479 4 5V24.3333C4 26.3465 5.65348 28 7.66667 28H24.3333C26.3465 28 28 26.3465 28 24.3333V5C28 4.73479 27.8946 4.48045 27.7071 4.29292C27.5195 4.10539 27.2652 4.00003 27 4H5ZM6 6H26V24.3333C26 25.2655 25.2655 26 24.3333 26H7.66667C6.73452 26 6 25.2655 6 24.3333V6ZM13.6667 8.66667C13.5342 8.66479 13.4026 8.68927 13.2796 8.73869C13.1567 8.7881 13.0447 8.86146 12.9504 8.95451C12.856 9.04755 12.7811 9.15842 12.7299 9.28068C12.6788 9.40294 12.6524 9.53414 12.6524 9.66667C12.6524 9.79919 12.6788 9.9304 12.7299 10.0527C12.7811 10.1749 12.856 10.2858 12.9504 10.3788C13.0447 10.4719 13.1567 10.5452 13.2796 10.5946C13.4026 10.6441 13.5342 10.6685 13.6667 10.6667H18.3333C18.4658 10.6685 18.5974 10.6441 18.7204 10.5946C18.8433 10.5452 18.9553 10.4719 19.0496 10.3788C19.144 10.2858 19.2189 10.1749 19.2701 10.0527C19.3212 9.9304 19.3476 9.79919 19.3476 9.66667C19.3476 9.53414 19.3212 9.40294 19.2701 9.28068C19.2189 9.15842 19.144 9.04755 19.0496 8.95451C18.9553 8.86146 18.8433 8.7881 18.7204 8.73869C18.5974 8.68927 18.4658 8.66479 18.3333 8.66667H13.6667ZM19.3229 17.9909C19.1463 17.9936 18.9781 18.0664 18.855 18.193C18.732 18.3197 18.6642 18.4901 18.6667 18.6667V20C18.6654 20.0883 18.6817 20.1761 18.7147 20.258C18.7476 20.34 18.7965 20.4146 18.8586 20.4775C18.9206 20.5404 18.9945 20.5904 19.076 20.6245C19.1575 20.6586 19.245 20.6762 19.3333 20.6762C19.4217 20.6762 19.5092 20.6586 19.5907 20.6245C19.6722 20.5904 19.7461 20.5404 19.8081 20.4775C19.8701 20.4146 19.919 20.34 19.952 20.258C19.9849 20.1761 20.0012 20.0883 20 20V18.6667C20.0012 18.5775 19.9845 18.4889 19.9509 18.4063C19.9173 18.3237 19.8675 18.2486 19.8043 18.1856C19.7412 18.1226 19.6661 18.0729 19.5834 18.0395C19.5007 18.006 19.4121 17.9895 19.3229 17.9909ZM21.9896 17.9909C21.813 17.9936 21.6447 18.0664 21.5217 18.193C21.3987 18.3197 21.3309 18.4901 21.3333 18.6667V20C21.3321 20.0883 21.3484 20.1761 21.3813 20.258C21.4143 20.34 21.4632 20.4146 21.5252 20.4775C21.5873 20.5404 21.6612 20.5904 21.7427 20.6245C21.8242 20.6586 21.9116 20.6762 22 20.6762C22.0884 20.6762 22.1758 20.6586 22.2573 20.6245C22.3388 20.5904 22.4127 20.5404 22.4748 20.4775C22.5368 20.4146 22.5857 20.34 22.6187 20.258C22.6516 20.1761 22.6679 20.0883 22.6667 20V18.6667C22.6679 18.5775 22.6512 18.4889 22.6176 18.4063C22.584 18.3237 22.5341 18.2486 22.471 18.1856C22.4079 18.1226 22.3327 18.0729 22.25 18.0395C22.1673 18.006 22.0788 17.9895 21.9896 17.9909ZM18.6667 22C18.5783 21.9988 18.4906 22.0151 18.4086 22.048C18.3267 22.081 18.252 22.1299 18.1891 22.1919C18.1262 22.2539 18.0763 22.3278 18.0422 22.4093C18.0081 22.4908 17.9905 22.5783 17.9905 22.6667C17.9905 22.755 18.0081 22.8425 18.0422 22.924C18.0763 23.0055 18.1262 23.0794 18.1891 23.1414C18.252 23.2035 18.3267 23.2524 18.4086 23.2853C18.4906 23.3183 18.5783 23.3346 18.6667 23.3333H22.6667C22.755 23.3346 22.8427 23.3183 22.9247 23.2853C23.0067 23.2524 23.0813 23.2035 23.1442 23.1414C23.2071 23.0794 23.2571 23.0055 23.2912 22.924C23.3253 22.8425 23.3428 22.755 23.3428 22.6667C23.3428 22.5783 23.3253 22.4908 23.2912 22.4093C23.2571 22.3278 23.2071 22.2539 23.1442 22.1919C23.0813 22.1299 23.0067 22.081 22.9247 22.048C22.8427 22.0151 22.755 21.9988 22.6667 22H18.6667Z" fill="black"/>
</svg>
