<svg width="32" height="32" viewBox="0 0 32 32" fill="none" xmlns="http://www.w3.org/2000/svg">
<path d="M7.00016 4C6.62041 4 6.25478 4.05825 5.91032 4.16536C5.68106 4.23666 5.46159 4.33008 5.25407 4.44271H5.25277C4.62931 4.78135 4.11485 5.29582 3.7762 5.91927V5.92057C3.66357 6.12809 3.57016 6.34756 3.49886 6.57682V6.57812C3.46332 6.69256 3.43205 6.80814 3.40771 6.92708V6.92839C3.38342 7.04734 3.3655 7.16882 3.35303 7.29167C3.3404 7.41517 3.3335 7.53989 3.3335 7.66667V9V24.3333C3.3335 26.3587 4.97483 28 7.00016 28H25.0002C27.0255 28 28.6668 26.3587 28.6668 24.3333V9V7.66667C28.6668 7.53989 28.6599 7.41517 28.6473 7.29167C28.6348 7.16882 28.6169 7.04734 28.5926 6.92839V6.92708C28.5683 6.80814 28.537 6.69256 28.5015 6.57812V6.57682C28.4302 6.34756 28.3368 6.12809 28.2241 5.92057V5.91927C27.8855 5.29582 27.371 4.78135 26.7476 4.44271H26.7463C26.5387 4.33008 26.3193 4.23666 26.09 4.16536H26.0887C25.9744 4.12972 25.8585 4.09864 25.7397 4.07422H25.7384C25.6196 4.04984 25.4978 4.03207 25.3752 4.01953H25.3739C25.2508 4.00699 25.1265 4 25.0002 4H7.00016ZM7.00016 6C7.55216 6 8.00016 6.448 8.00016 7C8.00016 7.552 7.55216 8 7.00016 8C6.44816 8 6.00016 7.552 6.00016 7C6.00016 6.517 6.34279 6.11413 6.79834 6.02083C6.86342 6.00751 6.93116 6 7.00016 6ZM10.3335 6C10.8855 6 11.3335 6.448 11.3335 7C11.3335 7.552 10.8855 8 10.3335 8C9.7815 8 9.3335 7.552 9.3335 7C9.3335 6.448 9.7815 6 10.3335 6ZM14.3335 6H25.0002C25.0692 6 25.1369 6.00751 25.202 6.02083C25.6575 6.11413 26.0002 6.517 26.0002 7C26.0002 7.552 25.5522 8 25.0002 8H14.3335C13.7815 8 13.3335 7.552 13.3335 7C13.3335 6.448 13.7815 6 14.3335 6ZM5.3335 10H26.6668V24.3333C26.6668 25.254 25.9208 26 25.0002 26H7.00016C6.0795 26 5.3335 25.254 5.3335 24.3333V10ZM9.91683 14.6667C9.58016 14.6667 9.2773 14.869 9.1473 15.1797L7.06396 20.1797C6.88663 20.6044 7.08785 21.0916 7.51318 21.2682C7.93852 21.4456 8.42573 21.2436 8.60173 20.8203L8.73584 20.5H11.0965L11.2306 20.8203C11.3646 21.1396 11.6742 21.3333 12.0002 21.3333C12.1068 21.3333 12.2158 21.3122 12.3205 21.2682C12.7458 21.0909 12.9457 20.6044 12.7684 20.1797L10.6851 15.1797C10.5557 14.869 10.2535 14.6667 9.91683 14.6667ZM14.5002 14.6667C14.0402 14.6667 13.6668 15.04 13.6668 15.5V20.5C13.6668 20.96 14.0402 21.3333 14.5002 21.3333H15.3335C17.1715 21.3333 18.6668 19.838 18.6668 18C18.6668 16.162 17.1715 14.6667 15.3335 14.6667H14.5002ZM21.6877 14.6667C20.539 14.6667 19.603 15.6013 19.603 16.75C19.603 17.8987 20.5377 18.8333 21.6864 18.8333H22.4155C22.6455 18.8333 22.8322 19.02 22.8322 19.25C22.8322 19.48 22.6455 19.6667 22.4155 19.6667H21.5067C21.222 19.6667 20.9874 19.4553 20.922 19.3906C20.5967 19.0653 20.069 19.0653 19.7437 19.3906C19.4183 19.716 19.4183 20.2424 19.7437 20.5677C19.9737 20.797 20.606 21.332 21.5067 21.332H22.4168C23.5655 21.332 24.5015 20.3987 24.5015 19.25C24.5015 18.1013 23.5668 17.1667 22.4181 17.1667H21.689C21.459 17.1667 21.2723 16.98 21.2723 16.75C21.2723 16.52 21.459 16.3333 21.689 16.3333H22.4181C22.6706 16.3333 22.8673 16.5053 22.87 16.5065H22.8713C23.1966 16.8304 23.7233 16.8303 24.0483 16.5052C24.3737 16.1799 24.3737 15.6522 24.0483 15.3268C23.981 15.2595 23.3608 14.6667 22.4181 14.6667H21.6877ZM15.3335 16.3346C16.2528 16.3346 17.0002 17.082 17.0002 18.0013C17.0002 18.9206 16.2528 19.668 15.3335 19.668V16.3346ZM9.91683 17.6667L10.4025 18.8333H9.43115L9.91683 17.6667Z" fill="#FFA51E"/>
</svg>
