<svg width="32" height="32" viewBox="0 0 32 32" fill="none" xmlns="http://www.w3.org/2000/svg">
<path d="M15.9844 1.98567C15.7194 1.98981 15.4669 2.09896 15.2823 2.28915C15.0977 2.47933 14.9962 2.735 15 2.99999V4.99999C14.9981 5.13251 15.0226 5.26407 15.072 5.38704C15.1214 5.51001 15.1948 5.62193 15.2878 5.7163C15.3809 5.81067 15.4917 5.8856 15.614 5.93675C15.7363 5.9879 15.8675 6.01424 16 6.01424C16.1325 6.01424 16.2637 5.9879 16.386 5.93675C16.5082 5.8856 16.6191 5.81067 16.7121 5.7163C16.8052 5.62193 16.8786 5.51001 16.928 5.38704C16.9774 5.26407 17.0019 5.13251 17 4.99999V2.99999C17.0019 2.86615 16.9769 2.73328 16.9266 2.60927C16.8762 2.48525 16.8014 2.37261 16.7067 2.27802C16.612 2.18343 16.4993 2.10881 16.3752 2.0586C16.2511 2.00838 16.1182 1.98358 15.9844 1.98567ZM6.79686 5.79687C6.59785 5.79692 6.40338 5.85634 6.23832 5.96754C6.07327 6.07873 5.94515 6.23664 5.87034 6.42106C5.79554 6.60549 5.77746 6.80803 5.81842 7.00279C5.85937 7.19754 5.9575 7.37565 6.10025 7.51432L7.51431 8.92968C7.60725 9.02262 7.71758 9.09634 7.839 9.14663C7.96042 9.19693 8.09057 9.22281 8.222 9.22281C8.35342 9.22281 8.48357 9.19693 8.60499 9.14663C8.72641 9.09634 8.83674 9.02262 8.92968 8.92968C9.02261 8.83675 9.09633 8.72642 9.14663 8.605C9.19692 8.48357 9.22281 8.35343 9.22281 8.222C9.22281 8.09057 9.19692 7.96043 9.14663 7.83901C9.09633 7.71758 9.02261 7.60725 8.92968 7.51432L7.51431 6.10026C7.4211 6.00426 7.30958 5.92795 7.18634 5.87584C7.06311 5.82373 6.93067 5.79688 6.79686 5.79687ZM25.1732 5.79817C24.9135 5.80574 24.6669 5.91408 24.4857 6.10026L23.0703 7.51432C22.9774 7.60725 22.9036 7.71758 22.8534 7.83901C22.8031 7.96043 22.7772 8.09057 22.7772 8.222C22.7772 8.35343 22.8031 8.48357 22.8534 8.605C22.9036 8.72642 22.9774 8.83675 23.0703 8.92968C23.1632 9.02262 23.2736 9.09634 23.395 9.14663C23.5164 9.19693 23.6466 9.22281 23.778 9.22281C23.9094 9.22281 24.0396 9.19693 24.161 9.14663C24.2824 9.09634 24.3927 9.02262 24.4857 8.92968L25.8997 7.51432C26.044 7.37381 26.1425 7.19303 26.1823 6.99563C26.2221 6.79822 26.2014 6.5934 26.1229 6.40795C26.0444 6.22251 25.9117 6.06508 25.7423 5.95628C25.5728 5.84748 25.3745 5.79237 25.1732 5.79817ZM11.3333 9.33333C10.2403 9.33333 9.33332 10.2403 9.33332 11.3333V20.6667C9.33332 21.7597 10.2403 22.6667 11.3333 22.6667H20.6667C21.7597 22.6667 22.6667 21.7597 22.6667 20.6667V11.3333C22.6667 10.2403 21.7597 9.33333 20.6667 9.33333H11.3333ZM11.3333 11.3333H20.6667V20.6667H11.3333V11.3333ZM14.3333 13.3333C14.2008 13.3315 14.0692 13.3559 13.9463 13.4053C13.8233 13.4548 13.7114 13.5281 13.617 13.6212C13.5227 13.7142 13.4477 13.8251 13.3966 13.9473C13.3454 14.0696 13.3191 14.2008 13.3191 14.3333C13.3191 14.4659 13.3454 14.5971 13.3966 14.7193C13.4477 14.8416 13.5227 14.9524 13.617 15.0455C13.7114 15.1385 13.8233 15.2119 13.9463 15.2613C14.0692 15.3107 14.2008 15.3352 14.3333 15.3333H17.6667C17.7992 15.3352 17.9307 15.3107 18.0537 15.2613C18.1767 15.2119 18.2886 15.1385 18.383 15.0455C18.4773 14.9524 18.5523 14.8416 18.6034 14.7193C18.6546 14.5971 18.6809 14.4659 18.6809 14.3333C18.6809 14.2008 18.6546 14.0696 18.6034 13.9473C18.5523 13.8251 18.4773 13.7142 18.383 13.6212C18.2886 13.5281 18.1767 13.4548 18.0537 13.4053C17.9307 13.3559 17.7992 13.3315 17.6667 13.3333H14.3333ZM2.99999 15C2.86748 14.9981 2.73592 15.0226 2.61295 15.072C2.48998 15.1214 2.37806 15.1948 2.28369 15.2878C2.18932 15.3809 2.11438 15.4918 2.06324 15.614C2.01209 15.7363 1.98575 15.8675 1.98575 16C1.98575 16.1325 2.01209 16.2637 2.06324 16.386C2.11438 16.5082 2.18932 16.6191 2.28369 16.7122C2.37806 16.8052 2.48998 16.8786 2.61295 16.928C2.73592 16.9774 2.86748 17.0019 2.99999 17H4.99999C5.1325 17.0019 5.26407 16.9774 5.38703 16.928C5.51 16.8786 5.62192 16.8052 5.71629 16.7122C5.81066 16.6191 5.8856 16.5082 5.93675 16.386C5.98789 16.2637 6.01423 16.1325 6.01423 16C6.01423 15.8675 5.98789 15.7363 5.93675 15.614C5.8856 15.4918 5.81066 15.3809 5.71629 15.2878C5.62192 15.1948 5.51 15.1214 5.38703 15.072C5.26407 15.0226 5.1325 14.9981 4.99999 15H2.99999ZM27 15C26.8675 14.9981 26.7359 15.0226 26.6129 15.072C26.49 15.1214 26.3781 15.1948 26.2837 15.2878C26.1893 15.3809 26.1144 15.4918 26.0632 15.614C26.0121 15.7363 25.9857 15.8675 25.9857 16C25.9857 16.1325 26.0121 16.2637 26.0632 16.386C26.1144 16.5082 26.1893 16.6191 26.2837 16.7122C26.3781 16.8052 26.49 16.8786 26.6129 16.928C26.7359 16.9774 26.8675 17.0019 27 17H29C29.1325 17.0019 29.2641 16.9774 29.387 16.928C29.51 16.8786 29.6219 16.8052 29.7163 16.7122C29.8107 16.6191 29.8856 16.5082 29.9367 16.386C29.9879 16.2637 30.0142 16.1325 30.0142 16C30.0142 15.8675 29.9879 15.7363 29.9367 15.614C29.8856 15.4918 29.8107 15.3809 29.7163 15.2878C29.6219 15.1948 29.51 15.1214 29.387 15.072C29.2641 15.0226 29.1325 14.9981 29 15H27ZM8.20181 22.7682C7.94211 22.7758 7.69554 22.8841 7.51431 23.0703L6.10025 24.4857C6.00428 24.5778 5.92765 24.6882 5.87487 24.8103C5.82208 24.9324 5.7942 25.0639 5.79284 25.1969C5.79149 25.33 5.8167 25.4619 5.86698 25.5851C5.91727 25.7083 5.99164 25.8202 6.08571 25.9143C6.17979 26.0084 6.2917 26.0827 6.41488 26.133C6.53805 26.1833 6.67003 26.2085 6.80307 26.2071C6.93611 26.2058 7.06754 26.1779 7.18967 26.1251C7.3118 26.0723 7.42217 25.9957 7.51431 25.8997L8.92968 24.4857C9.07451 24.3452 9.17346 24.1642 9.21352 23.9664C9.25358 23.7686 9.23289 23.5634 9.15415 23.3776C9.07541 23.1918 8.94232 23.0342 8.77235 22.9254C8.60238 22.8167 8.4035 22.7619 8.20181 22.7682ZM23.7669 22.7682C23.5679 22.7683 23.3734 22.8277 23.2084 22.9389C23.0433 23.0501 22.9152 23.208 22.8404 23.3924C22.7656 23.5768 22.7475 23.7794 22.7885 23.9741C22.8294 24.1689 22.9276 24.347 23.0703 24.4857L24.4857 25.8997C24.5778 25.9957 24.6882 26.0723 24.8103 26.1251C24.9324 26.1779 25.0639 26.2058 25.1969 26.2071C25.33 26.2085 25.4619 26.1833 25.5851 26.133C25.7083 26.0827 25.8202 26.0084 25.9143 25.9143C26.0083 25.8202 26.0827 25.7083 26.133 25.5851C26.1833 25.4619 26.2085 25.33 26.2071 25.1969C26.2058 25.0639 26.1779 24.9324 26.1251 24.8103C26.0723 24.6882 25.9957 24.5778 25.8997 24.4857L24.4857 23.0703C24.3922 22.9744 24.2804 22.8982 24.1569 22.8463C24.0335 22.7945 23.9008 22.7679 23.7669 22.7682ZM15.9844 25.9857C15.7194 25.9898 15.4669 26.099 15.2823 26.2891C15.0977 26.4793 14.9962 26.735 15 27V29C14.9981 29.1325 15.0226 29.2641 15.072 29.387C15.1214 29.51 15.1948 29.6219 15.2878 29.7163C15.3809 29.8107 15.4917 29.8856 15.614 29.9368C15.7363 29.9879 15.8675 30.0142 16 30.0142C16.1325 30.0142 16.2637 29.9879 16.386 29.9368C16.5082 29.8856 16.6191 29.8107 16.7121 29.7163C16.8052 29.6219 16.8786 29.51 16.928 29.387C16.9774 29.2641 17.0019 29.1325 17 29V27C17.0019 26.8662 16.9769 26.7333 16.9266 26.6093C16.8762 26.4853 16.8014 26.3726 16.7067 26.278C16.612 26.1834 16.4993 26.1088 16.3752 26.0586C16.2511 26.0084 16.1182 25.9836 15.9844 25.9857Z" fill="black"/>
</svg>
