<svg width="32" height="32" viewBox="0 0 32 32" fill="none" xmlns="http://www.w3.org/2000/svg">
<path d="M15.9998 3.33333C12.3103 3.33333 8.98319 4.91845 6.66644 7.4427V4.99999C6.66836 4.86615 6.6434 4.73328 6.59302 4.60927C6.54264 4.48525 6.46788 4.37261 6.37317 4.27802C6.27846 4.18343 6.16572 4.10881 6.04164 4.0586C5.91756 4.00838 5.78466 3.98358 5.65082 3.98567C5.38583 3.98981 5.13332 4.09896 4.94875 4.28915C4.76418 4.47933 4.66264 4.735 4.66644 4.99999V9.66666C4.66647 9.93187 4.77184 10.1862 4.95937 10.3737C5.1469 10.5613 5.40124 10.6666 5.66644 10.6667H6.02842C6.13578 10.6843 6.24529 10.6843 6.35264 10.6667H10.3331C10.4656 10.6685 10.5972 10.6441 10.7202 10.5946C10.8431 10.5452 10.955 10.4719 11.0494 10.3788C11.1438 10.2858 11.2187 10.1749 11.2699 10.0526C11.321 9.93039 11.3474 9.79919 11.3474 9.66666C11.3474 9.53414 11.321 9.40293 11.2699 9.28068C11.2187 9.15842 11.1438 9.04755 11.0494 8.9545C10.955 8.86146 10.8431 8.7881 10.7202 8.73868C10.5972 8.68927 10.4656 8.66479 10.3331 8.66666H8.25368C10.1961 6.61427 12.9437 5.33333 15.9998 5.33333C21.9027 5.33333 26.6664 10.0971 26.6664 16C26.6646 16.1325 26.6891 16.2641 26.7385 16.387C26.7879 16.51 26.8612 16.6219 26.9543 16.7163C27.0473 16.8107 27.1582 16.8856 27.2805 16.9368C27.4027 16.9879 27.5339 17.0142 27.6664 17.0142C27.799 17.0142 27.9302 16.9879 28.0524 16.9368C28.1747 16.8856 28.2856 16.8107 28.3786 16.7163C28.4716 16.6219 28.545 16.51 28.5944 16.387C28.6438 16.2641 28.6683 16.1325 28.6664 16C28.6664 9.01622 22.9835 3.33333 15.9998 3.33333ZM11.6664 11.3333C11.4012 11.3334 11.1469 11.4387 10.9594 11.6263C10.7718 11.8138 10.6665 12.0681 10.6664 12.3333V18.3333C10.6664 19.9783 12.0214 21.3333 13.6664 21.3333H18.3331C19.9781 21.3333 21.3331 19.9783 21.3331 18.3333V12.3333C21.3331 12.0681 21.2277 11.8138 21.0402 11.6263C20.8527 11.4387 20.5983 11.3334 20.3331 11.3333H11.6664ZM12.6664 13.3333H19.3331V18.3333C19.3331 18.8977 18.8974 19.3333 18.3331 19.3333H13.6664C13.1021 19.3333 12.6664 18.8977 12.6664 18.3333V13.3333ZM14.9998 14.6667C14.8673 14.6648 14.7357 14.6893 14.6127 14.7387C14.4898 14.7881 14.3778 14.8615 14.2835 14.9545C14.1891 15.0475 14.1142 15.1584 14.063 15.2807C14.0119 15.4029 13.9855 15.5341 13.9855 15.6667C13.9855 15.7992 14.0119 15.9304 14.063 16.0526C14.1142 16.1749 14.1891 16.2858 14.2835 16.3788C14.3778 16.4719 14.4898 16.5452 14.6127 16.5946C14.7357 16.6441 14.8673 16.6685 14.9998 16.6667H16.9998C17.1323 16.6685 17.2639 16.6441 17.3868 16.5946C17.5098 16.5452 17.6217 16.4719 17.7161 16.3788C17.8104 16.2858 17.8854 16.1749 17.9365 16.0526C17.9877 15.9304 18.014 15.7992 18.014 15.6667C18.014 15.5341 17.9877 15.4029 17.9365 15.2807C17.8854 15.1584 17.8104 15.0475 17.7161 14.9545C17.6217 14.8615 17.5098 14.7881 17.3868 14.7387C17.2639 14.6893 17.1323 14.6648 16.9998 14.6667H14.9998ZM4.31749 14.9857C4.0525 14.9898 3.79998 15.099 3.61541 15.2891C3.43084 15.4793 3.32931 15.735 3.33311 16C3.33311 22.9838 9.01601 28.6667 15.9998 28.6667C19.6899 28.6667 23.0164 27.0807 25.3331 24.556V27C25.3312 27.1325 25.3557 27.2641 25.4051 27.387C25.4545 27.51 25.5279 27.6219 25.621 27.7163C25.714 27.8107 25.8249 27.8856 25.9471 27.9368C26.0694 27.9879 26.2006 28.0142 26.3331 28.0142C26.4656 28.0142 26.5968 27.9879 26.7191 27.9368C26.8414 27.8856 26.9522 27.8107 27.0453 27.7163C27.1383 27.6219 27.2117 27.51 27.2611 27.387C27.3105 27.2641 27.335 27.1325 27.3331 27V22.3333C27.3331 22.0681 27.2277 21.8138 27.0402 21.6263C26.8527 21.4387 26.5983 21.3334 26.3331 21.3333H21.6664C21.5339 21.3315 21.4024 21.3559 21.2794 21.4053C21.1564 21.4548 21.0445 21.5281 20.9501 21.6212C20.8558 21.7142 20.7808 21.8251 20.7297 21.9473C20.6785 22.0696 20.6522 22.2008 20.6522 22.3333C20.6522 22.4659 20.6785 22.5971 20.7297 22.7193C20.7808 22.8416 20.8558 22.9524 20.9501 23.0455C21.0445 23.1385 21.1564 23.2119 21.2794 23.2613C21.4024 23.3107 21.5339 23.3352 21.6664 23.3333H23.7459C21.8034 25.3861 19.0561 26.6667 15.9998 26.6667C10.0969 26.6667 5.33311 21.9029 5.33311 16C5.33503 15.8662 5.31006 15.7333 5.25969 15.6093C5.20931 15.4853 5.13455 15.3726 5.03984 15.278C4.94512 15.1834 4.83239 15.1088 4.70831 15.0586C4.58423 15.0084 4.45133 14.9836 4.31749 14.9857Z" fill="#05B52C"/>
</svg>
