<svg width="32" height="32" viewBox="0 0 32 32" fill="none" xmlns="http://www.w3.org/2000/svg">
<path d="M2.33333 4.66666C2.20082 4.66479 2.06926 4.68927 1.94629 4.73869C1.82332 4.7881 1.7114 4.86146 1.61703 4.9545C1.52266 5.04755 1.44773 5.15842 1.39658 5.28068C1.34543 5.40294 1.31909 5.53414 1.31909 5.66666C1.31909 5.79919 1.34543 5.93039 1.39658 6.05265C1.44773 6.17491 1.52266 6.28578 1.61703 6.37883C1.7114 6.47187 1.82332 6.54523 1.94629 6.59464C2.06926 6.64406 2.20082 6.66854 2.33333 6.66667H4.17057C4.65586 6.66667 5.06039 7.00195 5.15234 7.47917L5.34896 8.51042C5.34951 8.51347 5.34968 8.51647 5.35026 8.51953L7.5013 19.8112C7.88997 21.8525 9.68112 23.3333 11.7591 23.3333H14.6667C14.6667 22.6447 14.7471 21.9753 14.8984 21.3333H11.7591C10.6404 21.3333 9.67481 20.5355 9.46615 19.4362L7.54167 9.33333H28.4583L27.2643 15.6068C27.917 15.9394 28.5217 16.352 29.0664 16.832L30.6497 8.51953C30.7051 8.22753 30.6275 7.92398 30.4375 7.69531C30.2468 7.46598 29.9647 7.33333 29.6667 7.33333H7.16016L7.11719 7.10547C6.84844 5.69702 5.60465 4.66666 4.17057 4.66666H2.33333ZM23.3333 16C19.2833 16 16 19.2833 16 23.3333C16 27.3833 19.2833 30.6667 23.3333 30.6667C27.3833 30.6667 30.6667 27.3833 30.6667 23.3333C30.6667 19.2833 27.3833 16 23.3333 16ZM23.944 19.3359C24.1006 19.3225 24.2583 19.3656 24.3893 19.4596C24.564 19.585 24.6667 19.786 24.6667 20V26.6667C24.6667 27.0353 24.368 27.3333 24 27.3333C23.632 27.3333 23.3333 27.0353 23.3333 26.6667V20.9258L22.2109 21.2995C21.8596 21.4175 21.4839 21.2269 21.3672 20.8776C21.2505 20.5283 21.4397 20.1512 21.7891 20.0352L23.7891 19.3685C23.8399 19.3512 23.8918 19.3404 23.944 19.3359ZM13.3333 24.6667C12.8029 24.6667 12.2942 24.8774 11.9191 25.2525C11.544 25.6275 11.3333 26.1362 11.3333 26.6667C11.3333 27.1971 11.544 27.7058 11.9191 28.0809C12.2942 28.4559 12.8029 28.6667 13.3333 28.6667C13.8638 28.6667 14.3725 28.4559 14.7475 28.0809C15.1226 27.7058 15.3333 27.1971 15.3333 26.6667C15.3333 26.1362 15.1226 25.6275 14.7475 25.2525C14.3725 24.8774 13.8638 24.6667 13.3333 24.6667Z" fill="#8B9DB8"/>
</svg>
