<svg width="140" height="140" viewBox="0 0 140 140" fill="none" xmlns="http://www.w3.org/2000/svg">
<path d="M116.667 125.417H23.3333C20.1104 125.417 17.5 122.806 17.5 119.583V43.75L70 14.5833L122.5 43.75V119.583C122.5 122.806 119.89 125.417 116.667 125.417Z" fill="url(#paint0_linear_266_18238)"/>
<path d="M64.1667 35H75.8333C77.4433 35 78.75 36.3067 78.75 37.9167V49.5833C78.75 51.1933 77.4433 52.5 75.8333 52.5H64.1667C62.5567 52.5 61.25 51.1933 61.25 49.5833V37.9167C61.25 36.3067 62.5567 35 64.1667 35Z" fill="url(#paint1_linear_266_18238)"/>
<path d="M113.75 67.0833H26.25V125.417H113.75V67.0833Z" fill="url(#paint2_linear_266_18238)"/>
<path d="M113.75 67.0833H26.25V64.1667C26.25 62.5567 27.5567 61.25 29.1667 61.25H110.833C112.443 61.25 113.75 62.5567 113.75 64.1667V67.0833Z" fill="#64717C"/>
<path d="M121.49 49.8633L69.9995 21.2566L18.5087 49.8633C17.0999 50.645 15.3237 50.1375 14.542 48.7316L11.707 43.6304C10.9254 42.2216 11.4329 40.4454 12.8387 39.6637L65.747 10.2696C68.3895 8.80248 71.6037 8.80248 74.2462 10.2696L127.155 39.6637C128.563 40.4454 129.071 42.2216 128.286 43.6304L125.451 48.7316C124.675 50.1404 122.899 50.6479 121.49 49.8633Z" fill="url(#paint3_linear_266_18238)"/>
<path d="M70 125.417H45.2083C44.4033 125.417 43.75 124.763 43.75 123.958V103.542C43.75 102.737 44.4033 102.083 45.2083 102.083H70V125.417Z" fill="#E3A600"/>
<path d="M94.7917 125.417H70V102.083H94.7917C95.5967 102.083 96.25 102.737 96.25 103.542V123.958C96.25 124.763 95.5967 125.417 94.7917 125.417Z" fill="#C48C00"/>
<path d="M83.1253 102.083H56.8753C56.0703 102.083 55.417 101.43 55.417 100.625V80.2083C55.417 79.4033 56.0703 78.75 56.8753 78.75H83.1253C83.9303 78.75 84.5837 79.4033 84.5837 80.2083V100.625C84.5837 101.43 83.9303 102.083 83.1253 102.083Z" fill="#FEC730"/>
<defs>
<linearGradient id="paint0_linear_266_18238" x1="70" y1="14.4054" x2="70" y2="125.239" gradientUnits="userSpaceOnUse">
<stop stop-color="#F0F0F0"/>
<stop offset="1" stop-color="#BBC1C4"/>
</linearGradient>
<linearGradient id="paint1_linear_266_18238" x1="61.5854" y1="35.3354" x2="77.6971" y2="51.4471" gradientUnits="userSpaceOnUse">
<stop stop-color="#33BEF0"/>
<stop offset="1" stop-color="#0A85D9"/>
</linearGradient>
<linearGradient id="paint2_linear_266_18238" x1="70" y1="124.195" x2="70" y2="66.9229" gradientUnits="userSpaceOnUse">
<stop stop-color="#393C40"/>
<stop offset="0.102" stop-color="#35383C"/>
<stop offset="0.471" stop-color="#2D3033"/>
<stop offset="1" stop-color="#2B2E30"/>
</linearGradient>
<linearGradient id="paint3_linear_266_18238" x1="69.9966" y1="8.8929" x2="69.9966" y2="49.0787" gradientUnits="userSpaceOnUse">
<stop stop-color="#D43A02"/>
<stop offset="1" stop-color="#B9360C"/>
</linearGradient>
</defs>
</svg>
