<svg width="20" height="20" viewBox="0 0 20 20" fill="none" xmlns="http://www.w3.org/2000/svg">
<path d="M10 2.08984C9.52138 2.08984 9.04293 2.24553 8.64746 2.55697H8.64665L3.69141 6.46159C2.93978 7.05394 2.5 7.95908 2.5 8.91602V16.4535C2.5 17.2513 3.16044 17.9118 3.95833 17.9118H16.0417C16.8396 17.9118 17.5 17.2513 17.5 16.4535V8.91602C17.5 7.95908 17.0602 7.05394 16.3086 6.46159L11.3525 2.55697C10.9571 2.24553 10.4786 2.08984 10 2.08984ZM10 3.33659C10.2041 3.33659 10.4082 3.40441 10.5794 3.53923L15.5355 7.44385C15.9869 7.79984 16.25 8.3415 16.25 8.91602V16.4535C16.25 16.5764 16.1646 16.6618 16.0417 16.6618H15V13.5417C15 12.7438 14.3396 12.0833 13.5417 12.0833H12.9167V9.375C12.9167 8.5771 12.2562 7.91667 11.4583 7.91667H8.54167C7.74377 7.91667 7.08333 8.5771 7.08333 9.375V12.0833H6.45833C5.66044 12.0833 5 12.7438 5 13.5417V16.6618H3.95833C3.8354 16.6618 3.75 16.5764 3.75 16.4535V8.91602C3.75 8.34129 4.01281 7.79902 4.46452 7.44303L9.42057 3.53923C9.59177 3.40441 9.79592 3.33659 10 3.33659ZM8.54167 9.16667H11.4583C11.5813 9.16667 11.6667 9.25206 11.6667 9.375V12.0833H8.33333V9.375C8.33333 9.25206 8.41873 9.16667 8.54167 9.16667ZM6.45833 13.3333H9.375V16.6618H6.25V13.5417C6.25 13.4187 6.3354 13.3333 6.45833 13.3333ZM10.625 13.3333H13.5417C13.6646 13.3333 13.75 13.4187 13.75 13.5417V16.6618H10.625V13.3333Z" fill="#464255"/>
</svg>
