<svg width="22" height="28" viewBox="0 0 22 28" fill="none" xmlns="http://www.w3.org/2000/svg">
<path d="M8.66665 0.666656C7.13558 0.666656 5.87045 1.84441 5.7005 3.33332H3.33331C1.68831 3.33332 0.333313 4.68832 0.333313 6.33332V24.3333C0.333313 25.9783 1.68831 27.3333 3.33331 27.3333H18.6666C20.3116 27.3333 21.6666 25.9783 21.6666 24.3333V6.33332C21.6666 4.68832 20.3116 3.33332 18.6666 3.33332H16.2995C16.1295 1.84441 14.8644 0.666656 13.3333 0.666656H8.66665ZM8.66665 2.66666H13.3333C13.8976 2.66666 14.3333 3.10232 14.3333 3.66666C14.3333 4.23099 13.8976 4.66666 13.3333 4.66666H8.66665C8.10231 4.66666 7.66665 4.23099 7.66665 3.66666C7.66665 3.10232 8.10231 2.66666 8.66665 2.66666ZM3.33331 5.33332H6.17967C6.7208 6.13459 7.63646 6.66666 8.66665 6.66666H13.3333C14.3635 6.66666 15.2792 6.13459 15.8203 5.33332H18.6666C19.231 5.33332 19.6666 5.76899 19.6666 6.33332V24.3333C19.6666 24.8977 19.231 25.3333 18.6666 25.3333H3.33331C2.76898 25.3333 2.33331 24.8977 2.33331 24.3333V6.33332C2.33331 5.76899 2.76898 5.33332 3.33331 5.33332ZM14.6575 11.319C14.3934 11.3252 14.1425 11.4357 13.9596 11.6263L11 14.5859L8.04034 11.6263C7.94713 11.5303 7.83561 11.454 7.71237 11.4019C7.58914 11.3498 7.4567 11.3229 7.3229 11.3229C7.12388 11.323 6.92941 11.3824 6.76435 11.4936C6.5993 11.6048 6.47118 11.7627 6.39638 11.9471C6.32157 12.1315 6.30349 12.3341 6.34445 12.5288C6.3854 12.7236 6.48353 12.9017 6.62628 13.0404L9.58592 16L6.62628 18.9596C6.53031 19.0518 6.45369 19.1621 6.40091 19.2843C6.34812 19.4064 6.32024 19.5378 6.31889 19.6709C6.31753 19.8039 6.34274 19.9359 6.39303 20.0591C6.44332 20.1822 6.51768 20.2941 6.61176 20.3882C6.70584 20.4823 6.81774 20.5566 6.94092 20.6069C7.06409 20.6572 7.19606 20.6824 7.3291 20.6811C7.46214 20.6797 7.59357 20.6518 7.7157 20.5991C7.83783 20.5463 7.9482 20.4697 8.04034 20.3737L11 17.4141L13.9596 20.3737C14.0518 20.4697 14.1621 20.5463 14.2843 20.5991C14.4064 20.6518 14.5378 20.6797 14.6709 20.6811C14.8039 20.6824 14.9359 20.6572 15.059 20.6069C15.1822 20.5566 15.2941 20.4823 15.3882 20.3882C15.4823 20.2941 15.5566 20.1822 15.6069 20.0591C15.6572 19.9359 15.6824 19.8039 15.6811 19.6709C15.6797 19.5378 15.6518 19.4064 15.5991 19.2843C15.5463 19.1621 15.4696 19.0518 15.3737 18.9596L12.414 16L15.3737 13.0404C15.5191 12.9008 15.6189 12.7205 15.6601 12.5232C15.7013 12.3259 15.682 12.1208 15.6045 11.9347C15.5271 11.7486 15.3953 11.5902 15.2263 11.4803C15.0573 11.3705 14.859 11.3142 14.6575 11.319Z" fill="#EF3826"/>
</svg>
